<?xml version="1.0" standalone="no"?>
<!DOCTYPE svg PUBLIC "-//W3C//DTD SVG 20010904//EN"
 "http://www.w3.org/TR/2001/REC-SVG-20010904/DTD/svg10.dtd">
<svg version="1.0" xmlns="http://www.w3.org/2000/svg"
 width="712.000000pt" height="712.000000pt" viewBox="0 0 712.000000 712.000000"
 preserveAspectRatio="xMidYMid meet">
<metadata>
Created by potrace 1.14, written by Peter Selinger 2001-2017
</metadata>
<g transform="translate(0.000000,712.000000) scale(0.100000,-0.100000)"
fill="#000000" stroke="none">
<path d="M0 3560 l0 -3560 3560 0 3560 0 0 3560 0 3560 -3560 0 -3560 0 0
-3560z m3360 2742 c106 -81 262 -233 256 -248 -3 -8 0 -13 6 -11 7 1 17 -8 23
-20 5 -13 13 -23 17 -23 5 0 8 -7 8 -15 0 -8 5 -15 10 -15 6 0 10 10 10 21 0
18 2 19 15 9 15 -12 14 -39 -2 -105 -4 -17 -2 -17 7 -5 8 11 10 -1 7 -50 -4
-68 -26 -118 -81 -185 -23 -27 -25 -28 -26 -9 0 12 7 41 16 65 19 54 31 225
15 215 -7 -5 -11 2 -11 16 0 13 -17 50 -36 83 -26 44 -34 52 -29 30 8 -31 9
-47 6 -80 -1 -19 -3 -18 -21 5 -11 15 -17 33 -14 44 4 12 2 16 -5 12 -6 -4
-11 -1 -11 7 0 31 -53 115 -116 182 l-65 70 49 -70 c46 -66 61 -98 127 -268
46 -119 65 -192 75 -292 6 -54 12 -101 15 -103 2 -3 -1 -14 -6 -25 -6 -11 -13
-37 -15 -59 -5 -52 -49 -181 -85 -248 -31 -59 -82 -116 -194 -219 -74 -68 -72
-69 15 -10 65 44 118 98 188 192 28 38 100 125 159 194 59 69 132 156 160 194
66 86 135 141 240 192 70 33 95 40 167 44 46 3 93 2 103 -2 10 -5 24 -7 32 -6
7 1 10 -2 6 -9 -4 -7 -20 -10 -36 -8 -15 3 -26 1 -23 -4 3 -4 -3 -8 -13 -8
-31 -1 -99 -36 -141 -74 -54 -49 -120 -182 -132 -265 -15 -108 12 -199 73
-245 24 -17 43 -21 112 -21 94 0 98 -10 10 -26 -66 -12 -130 -1 -175 31 -33
23 -76 102 -85 156 -12 79 38 209 113 287 37 38 38 53 1 16 -16 -16 -23 -18
-35 -9 -11 10 -8 17 24 42 52 41 53 45 7 18 -106 -62 -182 -130 -170 -151 5
-8 4 -10 -3 -5 -7 4 -23 -11 -39 -35 -26 -40 -28 -49 -28 -148 0 -97 2 -111
29 -164 16 -31 37 -63 45 -69 13 -10 14 -10 4 2 -9 10 -10 17 -1 27 8 10 8 17
-2 26 -10 10 -11 9 -5 -2 5 -9 4 -12 -3 -7 -15 9 -16 46 -2 46 6 0 10 5 10 11
0 6 -6 9 -12 6 -10 -3 -13 21 -13 103 0 69 4 106 10 102 6 -3 5 1 -2 9 -17 20
5 62 58 112 22 20 36 37 32 37 -4 0 -2 4 6 9 8 5 20 7 28 4 9 -4 4 -16 -21
-44 -46 -51 -62 -82 -76 -157 -15 -72 -9 -148 15 -212 9 -25 17 -53 18 -62 1
-9 4 -15 8 -12 4 2 22 -14 39 -36 48 -60 132 -121 265 -190 162 -85 297 -175
375 -251 94 -91 114 -116 101 -124 -7 -3 -10 -1 -9 6 2 7 -4 13 -12 14 -8 0
-15 7 -15 15 0 9 -9 15 -22 14 -15 -1 -20 3 -15 14 4 11 1 14 -11 9 -10 -4
-23 3 -36 18 -10 14 -21 25 -24 25 -3 0 -36 19 -73 42 -71 42 -229 120 -274
133 -22 7 -23 6 -11 -8 7 -9 17 -14 22 -11 5 3 8 2 7 -3 -4 -11 77 -84 85 -77
3 3 11 -4 17 -16 7 -13 39 -47 71 -77 32 -31 56 -59 53 -64 -3 -5 -2 -8 3 -7
14 4 113 -58 105 -67 -4 -4 -1 -5 6 0 15 8 152 -42 152 -56 0 -4 -18 1 -39 12
-22 10 -48 16 -58 13 -15 -5 -16 -4 -3 6 12 9 10 10 -13 6 -33 -8 -71 10 -60
27 4 8 2 8 -9 -1 -11 -9 -18 -10 -23 -2 -3 6 -11 8 -16 5 -5 -4 -9 -1 -9 4 0
6 -8 11 -19 11 -10 0 -24 7 -31 15 -14 16 -35 21 -25 5 8 -13 16 -61 22 -135
3 -40 -2 -95 -16 -162 -58 -282 -2 -450 209 -627 25 -20 38 -34 30 -30 -13 7
-13 5 -1 -9 7 -9 10 -17 5 -17 -4 0 3 -11 15 -24 37 -39 -2 -26 -45 15 -70 66
-182 207 -207 260 -59 120 -71 253 -41 437 23 144 10 213 -64 327 -59 92 -151
186 -292 300 -241 193 -312 304 -312 485 0 48 7 103 15 127 17 51 5 47 -23 -6
-18 -36 -240 -321 -298 -383 -14 -15 -24 -30 -21 -32 4 -4 150 49 217 79 32
15 32 14 -22 -52 -90 -111 -147 -146 -346 -212 -98 -32 -167 -67 -156 -79 4
-3 10 -1 14 5 13 20 92 32 207 33 61 0 148 7 194 15 76 13 91 13 145 -1 61
-16 160 -15 201 1 45 18 -39 -54 -87 -75 -42 -18 -60 -20 -121 -15 -40 4 -106
16 -149 26 -85 21 -243 25 -342 9 -40 -6 -64 -6 -72 1 -7 5 -14 6 -16 2 -1 -4
-40 -30 -85 -57 -133 -80 -231 -210 -266 -352 -9 -34 -17 -133 -21 -234 -9
-305 -44 -392 -231 -575 -67 -66 -136 -142 -152 -167 -17 -26 -34 -44 -38 -40
-5 4 -5 2 -2 -4 8 -14 -11 -74 -23 -74 -4 0 -8 -6 -7 -12 1 -40 -4 -68 -12
-64 -10 7 -7 -130 4 -189 4 -22 6 -38 3 -35 -25 31 -32 43 -19 35 10 -5 12 -4
7 4 -4 6 -12 8 -18 5 -7 -5 -9 2 -4 22 4 16 3 24 -1 18 -4 -7 -9 40 -10 103
-2 62 1 112 5 109 5 -3 7 -19 4 -36 -2 -16 0 -30 6 -30 5 0 12 19 16 43 4 23
9 53 12 67 3 15 2 20 -3 14 -5 -7 -9 10 -9 41 -1 30 -4 67 -8 82 -5 20 -4 24
3 13 6 -8 13 -11 16 -8 4 4 3 13 -1 20 -5 7 -9 35 -10 61 0 48 0 48 14 22 17
-33 24 -27 24 22 0 21 4 40 8 43 5 3 11 23 14 45 5 32 4 35 -4 17 -12 -27 -30
-20 -29 11 1 20 2 20 9 -3 7 -23 8 -22 10 13 1 20 4 42 5 47 1 6 4 18 5 28 4
28 18 -87 19 -161 1 -79 -2 -78 108 -26 88 42 161 111 194 184 35 79 47 159
59 395 5 107 14 213 21 235 18 64 67 156 112 210 22 28 30 40 16 29 -27 -24
-134 -99 -184 -129 -67 -40 -236 -190 -278 -247 -16 -21 -34 -38 -40 -38 -5 0
-8 -3 -4 -6 7 -7 -15 -34 -24 -28 -3 1 -5 -7 -5 -19 1 -13 -4 -21 -12 -19 -8
1 -11 -2 -7 -7 3 -6 1 -18 -4 -28 -5 -10 -13 -34 -18 -53 l-10 -35 1 43 c0 23
4 42 9 42 4 0 5 4 2 10 -15 24 78 156 184 259 83 81 176 152 291 223 91 57
311 220 400 297 36 31 95 80 131 109 85 66 193 181 219 232 34 68 51 150 57
287 7 155 -5 247 -48 365 -55 149 -101 245 -140 291 -16 19 -52 67 -79 106
-48 67 -49 70 -23 60 16 -6 62 -36 103 -67z m89 -357 c32 -96 55 -175 50 -175
-19 0 -126 112 -158 165 l-35 57 12 82 c7 45 12 95 12 112 0 28 1 28 30 -18
16 -26 56 -126 89 -223z m-28 -139 c49 -48 86 -93 82 -99 -3 -5 -1 -7 4 -4 12
8 27 -38 18 -53 -4 -6 -1 -10 6 -10 7 0 10 -3 6 -6 -6 -7 -95 60 -173 129 -69
62 -97 141 -77 216 5 21 9 17 26 -30 15 -42 40 -74 108 -143z m-769 138 c-20
-20 -36 -39 -34 -42 2 -4 -1 -8 -7 -10 -6 -2 -11 0 -11 4 0 10 72 84 82 84 4
0 -10 -16 -30 -36z m965 -31 c-3 -10 -5 -4 -5 12 0 17 2 24 5 18 2 -7 2 -21 0
-30z m-77 -362 c0 -19 -2 -19 -27 5 -15 14 -62 50 -104 79 -69 48 -140 122
-145 149 -1 6 -5 25 -8 42 -5 27 13 13 139 -112 92 -90 145 -150 145 -163z
m87 232 c-3 -10 -5 -2 -5 17 0 19 2 27 5 18 2 -10 2 -26 0 -35z m123 -18 c0
-22 -36 -76 -45 -67 -5 4 -5 1 -1 -6 7 -13 -27 -66 -37 -56 -3 3 -4 -3 -3 -13
0 -10 -4 -17 -11 -16 -7 2 -10 -4 -7 -12 4 -8 -1 -17 -10 -21 -9 -3 -13 -11
-9 -17 3 -6 1 -7 -5 -3 -18 11 -16 18 38 99 28 42 55 88 60 102 10 27 30 34
30 10z m-649 -12 c13 -16 12 -17 -3 -4 -10 7 -18 15 -18 17 0 8 8 3 21 -13z
m-351 -67 c-5 -14 -15 -26 -22 -26 -9 0 -9 3 0 12 7 7 12 16 12 22 0 5 -7 1
-15 -10 -8 -10 -15 -14 -15 -7 0 6 7 18 15 27 8 8 12 22 9 33 -5 14 -3 13 10
-4 12 -16 14 -28 6 -47z m-246 20 c-3 -14 -10 -24 -14 -21 -5 3 -11 -3 -13
-12 -4 -14 -5 -13 -6 4 -1 21 28 67 36 59 2 -2 1 -15 -3 -30z m290 -47 c-20
-68 -52 -116 -113 -167 -43 -36 -47 -38 -49 -18 0 11 12 34 27 51 44 46 109
143 122 183 19 59 32 14 13 -49z m-75 -7 c9 -7 10 -11 4 -7 -8 4 -13 0 -13
-10 0 -8 -11 -20 -25 -25 -28 -11 -35 -23 -7 -13 11 4 7 -5 -13 -28 -16 -19
-31 -35 -31 -37 -1 -2 -1 13 -1 32 1 19 4 33 7 31 11 -7 37 30 32 45 -3 9 1
11 14 6 14 -5 16 -4 8 4 -7 7 -9 21 -6 33 6 21 6 21 10 2 3 -11 12 -26 21 -33z
m529 1 c-1 -10 7 -44 16 -76 10 -32 16 -61 13 -63 -2 -3 -10 17 -17 43 -7 26
-17 52 -22 58 -4 5 -1 -13 7 -40 8 -28 18 -61 21 -73 5 -18 9 -21 16 -10 5 8
6 -2 2 -26 -5 -28 -4 -37 5 -32 8 5 10 -3 7 -31 -3 -21 -8 -61 -11 -90 -7 -67
-36 -151 -79 -227 -19 -34 -35 -65 -36 -71 -5 -25 -88 -110 -144 -148 -84 -57
-165 -99 -177 -92 -5 4 -8 1 -7 -7 2 -8 -7 -13 -25 -14 -15 -1 -31 -5 -35 -9
-4 -5 2 -5 12 -1 16 5 17 4 6 -9 -7 -9 -18 -14 -24 -12 -22 8 -111 -47 -101
-63 6 -10 -90 -90 -109 -90 -9 0 -15 -5 -13 -11 1 -6 -10 -20 -25 -32 -22 -17
-30 -18 -43 -7 -14 11 -19 7 -16 -12 0 -5 -3 -8 -8 -8 -13 0 -137 -151 -133
-162 4 -15 -18 -48 -31 -48 -8 0 -20 -16 -27 -35 -9 -23 -19 -34 -28 -30 -9 3
-12 -1 -8 -13 3 -9 -3 -28 -13 -41 l-19 -25 5 27 c3 15 10 24 15 20 6 -3 8 0
6 8 -3 8 -10 13 -16 12 -12 -3 -3 29 20 75 9 17 14 19 21 10 6 -9 7 -7 2 6 -9
30 92 171 184 258 73 68 197 149 402 261 130 71 224 180 254 292 8 31 15 93
16 137 1 69 4 79 15 64 16 -23 26 -99 20 -156 l-5 -45 21 45 c29 61 29 159 0
217 -12 23 -26 45 -32 48 -8 5 -7 12 2 23 8 10 9 13 1 9 -6 -4 -14 -3 -18 3
-4 6 -10 8 -15 5 -4 -3 -13 2 -20 10 -7 8 -9 15 -4 15 5 0 0 7 -10 15 -37 28
-10 24 34 -5 46 -30 89 -90 91 -125 0 -11 3 -14 6 -8 8 21 -25 106 -57 145
-46 55 -105 80 -185 76 -36 -1 -65 -5 -65 -8 0 -3 -10 -6 -21 -7 -22 -2 -22
-2 -2 12 32 23 110 38 158 31 45 -6 116 -36 146 -63 15 -12 19 -7 45 52 16 36
29 65 31 65 1 0 1 -8 1 -17z m-750 -28 c-3 -3 -9 2 -12 12 -6 14 -5 15 5 6 7
-7 10 -15 7 -18z m1547 -16 c-4 -5 -14 -5 -26 1 -11 6 -17 15 -14 21 4 5 14 5
26 -1 11 -6 17 -15 14 -21z m-1447 -123 c-5 -6 -8 -15 -8 -20 0 -6 5 -4 10 4
8 12 10 12 10 -5 0 -46 25 -102 59 -136 69 -69 207 -87 334 -44 27 9 53 15 58
13 5 -2 -9 -21 -32 -43 -23 -22 -39 -34 -34 -27 6 11 3 11 -13 1 -12 -7 -19
-16 -17 -19 2 -3 -4 -6 -13 -7 -9 -1 -47 -7 -83 -14 -111 -21 -221 15 -257 84
-9 17 -38 53 -64 78 -27 25 -48 50 -48 56 0 6 -7 14 -16 17 -9 3 -14 12 -11
19 5 14 -11 62 -19 54 -3 -3 -1 -16 6 -29 11 -22 10 -22 -4 -4 -18 23 -20 32
-7 40 5 3 7 15 4 25 -3 11 -1 27 5 37 8 14 13 7 27 -37 23 -69 41 -105 76
-150 16 -20 25 -40 21 -44 -4 -5 -2 -5 5 -1 7 4 23 -8 39 -29 28 -37 99 -85
125 -85 8 0 -4 9 -26 19 -58 27 -139 119 -129 146 3 7 0 32 -6 55 -7 27 -8 66
-3 113 l8 72 5 -65 c3 -36 2 -69 -2 -74z m-14 -95 c-2 -2 -13 7 -24 20 -47 55
-89 164 -70 183 8 8 10 7 5 -6 -4 -9 -2 -25 4 -35 9 -15 10 -11 11 22 0 35 5
26 38 -70 21 -60 37 -112 36 -114z m1932 185 c-3 -13 -2 -26 2 -28 5 -2 5 -30
1 -63 -13 -102 -10 -178 10 -248 23 -83 39 -101 118 -137 35 -16 63 -31 63
-33 0 -2 -37 11 -82 29 -80 32 -84 35 -105 84 -17 37 -35 58 -68 79 -26 16
-41 32 -35 36 5 3 22 -3 38 -13 l27 -20 1 112 c1 101 18 226 31 226 3 0 2 -11
-1 -24z m-121 -53 c8 -32 30 -94 50 -136 20 -43 35 -80 33 -83 -11 -10 -88 70
-108 112 -19 42 -45 152 -32 139 3 -3 12 4 20 16 18 26 21 23 37 -48z m267 30
c6 -58 -9 -113 -41 -151 -17 -20 -44 -54 -59 -74 -15 -21 -30 -37 -34 -38 -5
0 -8 16 -8 36 0 25 14 56 50 111 28 42 50 79 50 84 0 18 20 59 29 59 5 0 11
-12 13 -27z m-1812 3 c0 -2 -9 -6 -20 -9 -11 -3 -18 -1 -14 4 5 9 34 13 34 5z
m1625 -45 c-3 -22 -6 -60 -7 -85 0 -26 -3 -45 -5 -42 -3 2 -5 8 -5 13 0 4 -4
13 -10 20 -5 7 -11 22 -12 35 -2 13 -6 33 -10 45 -6 18 -4 22 8 17 8 -3 19 3
26 15 16 32 22 25 15 -18z m-1440 19 c3 -5 2 -10 -4 -10 -5 0 -13 5 -16 10 -3
6 -2 10 4 10 5 0 13 -4 16 -10z m1562 -15 c0 -8 -5 -11 -10 -8 -5 3 -7 0 -5
-8 6 -17 -30 -71 -42 -64 -11 7 -2 32 24 68 22 30 33 34 33 12z m-2441 -174
c-16 -11 -49 -22 -75 -26 -56 -7 -232 -55 -247 -66 -6 -5 -16 -3 -24 4 -7 6
-10 7 -7 1 4 -6 -6 -22 -21 -35 l-27 -24 25 29 c19 22 21 28 8 23 -41 -15 -14
6 37 29 73 32 203 65 265 67 27 1 50 5 50 10 0 4 10 7 23 7 21 0 20 -1 -7 -19z
m211 -13 c-3 -7 -5 -2 -5 12 0 14 2 19 5 13 2 -7 2 -19 0 -25z m2408 -72 c9
-54 14 -103 12 -110 -3 -6 -8 17 -12 51 -4 35 -10 61 -14 59 -3 -2 -7 21 -8
51 -1 30 0 53 3 51 2 -2 10 -48 19 -102z m377 60 c40 -8 91 -22 113 -32 22
-10 44 -17 48 -16 5 2 5 -3 1 -9 -5 -9 -2 -10 10 -6 9 4 15 3 11 -2 -3 -5 1
-12 7 -15 7 -3 2 -3 -11 0 -18 5 -22 3 -15 -7 6 -11 5 -12 -7 -2 -17 14 -171
53 -208 53 -19 0 -21 -3 -12 -14 8 -9 8 -16 2 -20 -5 -4 -12 -2 -15 3 -3 4
-34 18 -68 31 -35 12 -70 25 -78 28 -16 6 48 18 112 20 20 1 69 -4 110 -12z
m-3027 -16 c-4 -6 -30 -28 -58 -49 -29 -21 -66 -53 -83 -70 -22 -23 -34 -29
-39 -21 -7 11 69 89 88 90 4 0 16 9 27 20 11 11 27 20 35 20 8 0 15 5 15 10 0
6 5 10 11 10 5 0 7 -5 4 -10z m241 -190 c-3 -64 -12 -136 -19 -160 -7 -25 -14
-47 -14 -50 -1 -21 -16 -49 -24 -45 -5 3 -6 -2 -2 -11 4 -12 3 -15 -5 -10 -7
4 -12 3 -12 -3 0 -70 143 164 220 359 28 73 29 74 25 30 -6 -60 -33 -142 -94
-280 -28 -62 -49 -115 -48 -117 2 -2 14 19 27 47 13 27 41 67 64 90 42 41 150
111 170 109 7 0 6 -2 -2 -6 -6 -2 -10 -9 -6 -14 3 -5 0 -9 -5 -9 -6 0 -10 -3
-10 -7 4 -25 -2 -43 -13 -37 -8 5 -9 2 -5 -9 3 -9 0 -23 -8 -31 -8 -7 -11 -16
-8 -20 4 -3 1 -6 -6 -6 -7 0 -9 -5 -5 -12 4 -7 3 -8 -4 -4 -8 5 -11 -1 -10
-17 2 -25 -44 -114 -99 -190 -30 -41 -37 -46 -51 -35 -14 11 -14 11 -5 -6 9
-17 -2 -38 -69 -135 -44 -65 -86 -115 -94 -115 -11 2 -12 -1 -4 -11 8 -9 8
-15 0 -20 -23 -14 -21 28 4 65 24 36 47 58 30 28 -4 -8 -3 -9 2 -5 5 5 9 14 9
20 0 20 49 87 63 87 7 0 10 5 7 11 -4 5 1 19 10 29 9 10 14 23 10 29 -4 7 0 8
11 4 13 -5 16 -3 11 9 -3 9 2 23 13 33 11 10 17 21 15 26 -3 4 0 11 6 15 8 5
9 3 4 -6 -5 -9 -4 -11 4 -6 7 4 10 13 8 19 -3 11 2 20 31 52 13 14 9 19 -11
16 -5 -1 -6 3 -2 9 3 6 10 8 15 5 12 -7 39 46 33 63 -3 7 1 11 8 10 7 -2 13 6
14 17 0 11 6 19 13 17 8 -1 11 2 7 8 -4 6 5 26 19 45 30 39 35 63 8 38 -10
-10 -18 -20 -16 -21 1 -2 -29 -50 -67 -108 -70 -104 -79 -121 -57 -108 7 4 8
3 4 -5 -4 -6 -11 -9 -15 -6 -13 7 -44 -32 -45 -57 -1 -13 -7 -22 -13 -21 -15
3 -63 -42 -86 -79 -10 -16 -23 -28 -30 -28 -6 0 -20 -19 -29 -42 -10 -23 -21
-38 -25 -35 -4 4 -1 13 5 19 7 7 12 17 12 22 0 6 -7 1 -15 -11 -8 -12 -13 -27
-10 -35 3 -7 -2 -22 -11 -33 -8 -11 -13 -13 -9 -5 4 8 -1 6 -10 -5 -9 -11 -14
-28 -11 -37 5 -22 2 -22 -18 -2 -21 21 -20 35 2 27 13 -5 14 -3 5 7 -14 15 -6
43 10 33 6 -3 7 -1 3 6 -4 6 7 36 25 67 22 39 28 58 20 65 -6 5 -9 6 -7 3 3
-3 -2 -13 -10 -22 -7 -10 -21 -26 -30 -37 -8 -11 -6 -2 7 20 36 64 45 75 54
67 4 -4 5 1 2 11 -4 11 3 38 18 67 52 102 84 254 101 475 7 84 8 88 16 50 6
-22 7 -92 4 -155z m2647 137 c-3 -6 -1 -7 5 -3 15 9 54 -12 47 -24 -3 -6 0 -7
8 -4 27 10 162 -159 174 -218 3 -16 10 -28 16 -28 6 0 7 -3 4 -7 -4 -3 -2 -13
5 -20 6 -8 12 -41 12 -74 1 -32 5 -59 10 -59 5 0 6 -3 3 -6 -10 -10 -127 70
-173 118 -23 24 -54 63 -70 88 -30 49 -77 210 -61 210 6 0 3 8 -6 18 -14 16
-14 17 9 18 14 1 21 -2 17 -9z m-2967 -102 c1 -16 -2 -23 -10 -18 -6 3 -6 1 2
-8 6 -7 12 -27 12 -44 0 -26 -20 -50 -131 -160 -73 -72 -128 -124 -124 -117 4
7 9 23 11 35 9 57 20 86 58 151 22 39 46 77 54 85 7 8 20 24 29 37 8 13 20 21
27 17 6 -3 8 -2 3 2 -4 5 10 17 30 26 21 10 38 18 38 19 0 0 1 -11 1 -25z
m-118 -32 c-167 -180 -253 -510 -193 -745 16 -64 43 -122 87 -186 16 -23 26
-47 23 -52 -4 -6 -1 -9 6 -8 27 7 150 -265 129 -286 -7 -7 -13 -4 -16 12 -4
12 -10 22 -15 22 -5 0 -4 9 3 20 10 16 10 22 -1 32 -9 8 -12 9 -7 1 3 -6 1
-23 -6 -38 -11 -25 -12 -24 -40 40 -48 113 -106 178 -218 244 -59 34 -157 52
-225 41 -76 -12 -123 -28 -158 -52 -16 -11 -30 -18 -33 -16 -11 12 11 37 50
56 78 39 129 52 209 54 59 1 73 4 56 11 -13 5 -75 7 -136 4 -62 -2 -110 0
-107 4 3 5 -1 6 -9 3 -19 -7 -94 13 -103 28 -5 8 -2 9 12 3 10 -4 84 -11 164
-15 143 -6 276 -32 264 -51 -3 -5 2 -6 10 -3 9 3 31 -4 51 -16 41 -25 41 -24
16 32 -11 24 -31 84 -46 133 -15 50 -31 100 -36 113 -6 14 -6 21 0 18 5 -4 10
13 10 36 1 54 8 130 16 171 5 24 4 28 -4 17 -16 -23 -13 -3 4 30 9 17 13 30 9
30 -4 0 -1 7 6 15 7 8 10 15 6 15 -12 0 62 135 110 200 66 89 113 135 127 121
8 -8 4 -19 -15 -38z m-358 24 c0 -2 -10 -12 -22 -23 l-23 -19 19 23 c18 21 26
27 26 19z m3711 -92 c20 -27 44 -65 54 -84 23 -45 65 -162 57 -157 -4 2 -8
-12 -9 -33 -3 -47 -7 -69 -16 -77 -6 -7 -8 0 -12 46 0 8 -4 21 -9 28 -4 7 -5
25 -2 38 5 17 3 23 -4 19 -5 -3 -10 1 -10 10 0 26 -58 158 -100 227 -65 108
-31 97 51 -17z m-509 70 c6 15 7 10 4 -18 -3 -20 -2 -35 3 -33 4 3 7 -4 8 -14
1 -11 -2 -22 -7 -25 -10 -6 -23 42 -15 55 4 6 1 10 -4 10 -6 0 -10 10 -10 23
1 20 2 20 7 2 l5 -20 9 20z m36 -60 c0 -16 -2 -15 -8 5 -4 14 -8 36 -8 50 0
22 1 22 8 -5 4 -16 8 -39 8 -50z m702 71 c0 -3 -4 -8 -10 -11 -5 -3 -10 -1
-10 4 0 6 5 11 10 11 6 0 10 -2 10 -4z m-3751 -71 c-5 -27 -12 -57 -16 -65 -3
-8 -7 -18 -7 -22 -1 -3 -5 -10 -10 -15 -5 -5 -6 -3 -2 5 4 7 1 12 -8 12 -9 0
-16 5 -16 11 0 5 4 8 9 4 5 -3 13 0 17 6 4 8 3 9 -4 5 -7 -4 -12 -3 -12 3 0 5
4 13 10 16 5 3 15 16 20 28 11 21 11 21 -4 3 -26 -33 -20 6 6 40 14 18 16 24
5 15 -10 -8 -17 -9 -17 -3 0 13 22 22 32 13 4 -3 2 -28 -3 -56z m2859 34 c43
-18 85 -31 95 -31 44 2 146 -215 135 -290 -3 -16 -1 -31 3 -34 5 -2 5 -12 2
-21 -4 -9 -2 -14 3 -10 5 3 10 -6 11 -21 l2 -27 -14 30 c-8 17 -29 62 -46 100
-18 39 -48 95 -67 125 -20 30 -35 59 -33 65 1 5 -1 7 -4 3 -4 -4 -22 4 -40 18
-18 14 -59 34 -91 45 -32 11 -70 27 -85 34 -14 8 -29 12 -32 9 -3 -3 -8 1 -13
8 -4 7 -4 10 1 6 4 -4 14 -1 22 7 22 23 68 18 151 -16z m-3034 -9 c-6 -6 -10
-3 -10 10 0 13 4 16 10 10 7 -7 7 -13 0 -20z m3410 15 c-4 -8 -1 -15 5 -15 6
0 11 -10 11 -22 1 -66 88 -168 218 -257 31 -21 66 -49 77 -61 l20 -23 -20 11
c-18 9 -21 7 -22 -10 -2 -24 -21 -48 -37 -48 -7 0 -21 7 -32 16 -10 8 -12 12
-4 8 8 -4 12 -4 8 0 -3 4 -10 8 -15 8 -12 0 -53 31 -87 64 -33 33 -76 123 -76
159 0 13 -4 27 -10 30 -13 8 -12 -27 1 -85 14 -61 51 -112 131 -181 36 -31 63
-61 60 -65 -4 -4 0 -5 9 -2 9 4 16 1 16 -7 0 -11 -5 -12 -21 -3 -12 6 -22 10
-24 9 -6 -6 -70 25 -123 60 -101 68 -141 133 -126 208 3 16 9 42 12 57 3 16
-4 5 -16 -24 -25 -63 -36 -64 -14 -2 9 24 22 71 31 104 18 75 22 86 28 86 3 0
3 -7 0 -15z m-3381 -27 c-4 -19 -3 -20 6 -8 15 21 13 0 -3 -29 -8 -15 -16 -20
-20 -12 -4 6 -2 11 4 11 7 0 9 8 5 20 -3 11 -3 24 0 30 10 16 13 11 8 -12z
m3887 -7 c7 -15 7 -19 -5 -17 -20 3 -28 13 -20 25 9 15 13 14 25 -8z m31 -14
c-10 -9 -11 -8 -5 6 3 10 9 15 12 12 3 -3 0 -11 -7 -18z m-3416 -113 c8 -32
10 -63 5 -85 l-8 -34 -1 35 c-1 20 -10 68 -21 108 -11 39 -20 77 -20 84 1 20
30 -50 45 -108z m1565 102 c0 -2 -8 -10 -17 -17 -16 -13 -17 -12 -4 4 13 16
21 21 21 13z m906 -12 c22 -9 54 -27 72 -41 40 -30 94 -102 86 -114 -3 -5 0
-9 6 -9 6 0 8 -4 5 -10 -3 -5 -2 -10 2 -10 9 0 39 -69 35 -82 -1 -5 3 -8 8 -8
6 0 10 -5 10 -11 0 -8 -5 -7 -15 1 -9 7 -13 15 -11 17 3 3 -6 17 -20 31 -13
15 -24 31 -24 37 0 6 -13 21 -29 35 -17 13 -27 28 -24 33 3 6 1 7 -4 4 -6 -4
-16 0 -23 8 -12 14 -7 20 14 16 5 -1 4 5 -4 13 -14 17 -21 20 -19 9 4 -22 -3
-22 -25 1 -13 15 -29 26 -35 26 -7 0 -9 5 -5 12 5 8 2 9 -10 5 -9 -4 -15 -3
-13 1 6 8 -19 33 -26 26 -2 -2 -10 2 -17 11 -10 13 -9 15 8 15 11 0 37 -7 58
-16z m-2958 -19 c-6 -14 -15 -25 -20 -25 -5 0 -1 11 8 25 9 14 18 25 20 25 2
0 -2 -11 -8 -25z m75 10 c-3 -9 -8 -14 -10 -11 -3 3 -2 9 2 15 9 16 15 13 8
-4z m376 -74 c24 -102 18 -163 -25 -237 -30 -53 -107 -122 -170 -153 -27 -14
-71 -37 -97 -53 -74 -43 -51 -11 44 61 176 136 199 180 165 323 -13 53 -13 58
6 75 11 10 26 30 34 45 8 16 16 28 18 28 3 0 14 -40 25 -89z m2726 31 c-8 -8
-26 39 -19 50 5 8 11 1 16 -17 4 -16 6 -31 3 -33z m12 36 c-3 -8 -6 -5 -6 6
-1 11 2 17 5 13 3 -3 4 -12 1 -19z m683 12 c0 -5 -4 -10 -10 -10 -5 0 -10 5
-10 10 0 6 5 10 10 10 6 0 10 -4 10 -10z m67 -22 c-3 -8 -6 -5 -6 6 -1 11 2
17 5 13 3 -3 4 -12 1 -19z m-745 -40 c-8 -8 -9 -4 -5 13 4 13 8 18 11 10 2 -7
-1 -18 -6 -23z m-222 -34 c0 6 7 1 16 -10 8 -10 13 -12 9 -4 -4 8 5 2 19 -13
15 -16 24 -33 21 -38 -4 -5 1 -9 9 -9 8 0 18 -5 22 -12 4 -7 3 -8 -4 -4 -8 5
-10 2 -6 -8 3 -9 11 -13 18 -9 6 4 4 -2 -4 -12 -14 -17 -13 -18 2 -12 11 4 15
2 12 -6 -2 -7 -16 -14 -30 -15 -22 -2 -25 0 -14 13 10 12 9 20 -4 40 -9 14
-14 30 -11 35 3 6 -1 7 -9 4 -18 -7 -18 -7 -10 -28 3 -9 10 -13 15 -10 5 3 9
3 9 0 0 -3 -4 -7 -10 -11 -5 -3 -16 8 -25 24 -16 32 -21 55 -6 33 7 -11 9 -10
14 3 4 9 3 13 -3 10 -10 -6 -50 33 -50 49 0 6 5 4 10 -4 5 -8 10 -11 10 -6z
m240 12 c0 -3 -4 -8 -10 -11 -5 -3 -10 -1 -10 4 0 6 5 11 10 11 6 0 10 -2 10
-4z m-2863 -105 c-2 -83 -4 -92 -33 -127 -17 -21 -68 -69 -112 -107 l-82 -68
0 41 c0 29 4 39 12 34 7 -4 8 -3 4 5 -4 7 -5 35 -1 62 7 47 14 58 102 150 53
54 99 99 104 99 4 0 7 -40 6 -89z m3414 62 c-12 -20 -14 -14 -5 12 4 9 9 14
11 11 3 -2 0 -13 -6 -23z m-543 -14 c-3 -8 -7 -3 -11 10 -4 17 -3 21 5 13 5
-5 8 -16 6 -23z m-2338 -19 c-6 -11 -13 -20 -16 -20 -2 0 0 9 6 20 6 11 13 20
16 20 2 0 0 -9 -6 -20z m3070 -8 c0 -5 -7 -17 -15 -28 -14 -18 -14 -17 -4 9
12 27 19 34 19 19z m-29 -65 c-6 -8 -7 -18 -3 -22 4 -5 1 -5 -6 -1 -10 6 -10
11 -1 22 6 8 14 14 16 14 3 0 0 -6 -6 -13z m-1241 -32 c13 -14 21 -25 18 -25
-2 0 -15 11 -28 25 -13 14 -21 25 -18 25 2 0 15 -11 28 -25z m415 6 c-3 -11 1
-25 10 -34 14 -14 13 -16 -4 -14 -13 1 -17 6 -13 17 5 13 3 13 -10 2 -20 -16
-28 -4 -17 23 5 13 8 15 9 5 0 -12 3 -11 11 3 13 23 22 22 14 -2z m682 -13
c-3 -7 -5 -2 -5 12 0 14 2 19 5 13 2 -7 2 -19 0 -25z m-2991 -16 c-17 -16 -18
-16 -5 5 7 12 15 20 18 17 3 -2 -3 -12 -13 -22z m3104 5 c0 -2 -10 -12 -22
-23 l-23 -19 19 23 c18 21 26 27 26 19z m-2750 -21 c0 -7 -82 -57 -87 -53 -2
3 15 17 39 31 45 27 48 28 48 22z m-1103 -28 c-3 -8 -6 -5 -6 6 -1 11 2 17 5
13 3 -3 4 -12 1 -19z m3051 -13 c-3 -3 -9 2 -12 12 -6 14 -5 15 5 6 7 -7 10
-15 7 -18z m-2393 -70 c-30 -42 -55 -73 -55 -68 0 14 101 156 106 150 3 -2
-20 -39 -51 -82z m635 70 c-7 -8 -17 -15 -23 -15 -6 0 -2 7 9 15 25 19 30 19
14 0z m861 -54 c-62 -61 -101 -140 -109 -224 -6 -60 -7 -61 -13 -22 l-6 40 -2
-36 c-1 -47 19 -103 133 -371 52 -123 110 -261 130 -308 l35 -85 20 46 c61
137 66 290 13 404 -18 37 -30 70 -27 73 12 13 86 -21 111 -51 40 -47 54 -89
54 -157 0 -71 -27 -200 -42 -200 -5 0 -8 -6 -5 -12 2 -7 -2 -17 -9 -23 -6 -5
-26 -37 -44 -70 -17 -33 -40 -73 -50 -90 -22 -36 -25 -49 -7 -39 7 4 9 3 4 -2
-5 -5 -14 -9 -20 -9 -7 -1 -11 -6 -10 -13 2 -6 -3 -9 -10 -7 -16 7 -37 -28
-27 -45 6 -9 18 -1 46 29 l38 42 12 -23 c6 -13 55 -130 108 -261 94 -232 126
-298 160 -326 8 -7 13 -17 10 -22 -3 -5 1 -6 9 -3 8 3 21 -1 28 -9 8 -7 20
-12 28 -9 8 3 11 0 7 -6 -3 -6 -34 -10 -67 -9 -37 1 -54 4 -43 8 11 4 13 8 7
8 -9 1 -10 8 -3 26 5 14 8 25 7 26 -20 7 -35 5 -31 -5 6 -15 -55 -47 -92 -48
-75 -2 -124 36 -124 96 0 25 -12 66 -30 104 -17 35 -30 69 -30 76 0 7 -6 21
-14 32 -10 13 -9 1 5 -40 33 -102 15 -71 -37 61 -27 70 -50 129 -51 132 -2 5
56 49 78 59 4 2 10 -13 13 -33 4 -19 11 -33 16 -30 6 3 7 0 5 -8 -3 -7 12 -58
34 -113 22 -54 50 -131 62 -169 25 -83 34 -95 65 -95 13 0 24 6 24 13 0 6 -20
57 -45 112 -153 341 -155 348 -136 370 10 11 22 27 26 35 4 8 -14 -9 -40 -38
-47 -53 -101 -89 -113 -77 -4 4 10 22 30 41 35 31 43 64 16 64 -6 0 -8 -7 -5
-15 8 -20 -58 -75 -138 -113 -141 -69 -316 -102 -545 -102 -118 0 -120 0 -121
-22 0 -18 -2 -20 -7 -6 -5 11 -24 -28 -61 -120 -29 -75 -58 -146 -63 -158 -26
-57 -145 -79 -191 -36 l-25 24 -12 -22 c-10 -18 -9 -21 1 -15 9 6 10 3 6 -9
-5 -14 -3 -17 8 -12 8 3 15 1 15 -3 0 -5 -46 -9 -102 -10 l-103 0 64 24 c35
13 78 37 95 54 18 17 36 28 40 24 4 -4 4 1 0 11 -6 15 -4 17 7 11 8 -4 11 -5
7 0 -4 4 4 26 17 49 13 22 65 136 115 251 226 519 278 621 532 1053 94 161
179 257 288 327 60 39 120 66 129 59 2 -2 -20 -26 -48 -53z m1869 49 c0 -5 -4
-10 -9 -10 -6 0 -13 5 -16 10 -3 6 1 10 9 10 9 0 16 -4 16 -10z m-4033 -72
c-2 -13 -4 -3 -4 22 0 25 2 35 4 23 2 -13 2 -33 0 -45z m3700 25 c-3 -10 -5
-4 -5 12 0 17 2 24 5 18 2 -7 2 -21 0 -30z m-467 10 c-1 -13 -30 -48 -30 -36
0 7 5 15 10 18 6 4 8 11 5 16 -4 5 -1 9 4 9 6 0 11 -3 11 -7z m-1697 -47 c34
-13 69 -26 77 -29 35 -12 -39 -6 -90 8 -72 19 -176 19 -231 0 -27 -10 -39 -11
-32 -4 20 20 116 48 166 49 28 0 75 -10 110 -24z m2214 -13 c-3 -10 -5 -4 -5
12 0 17 2 24 5 18 2 -7 2 -21 0 -30z m-1073 -298 c4 -11 0 -8 -8 6 -29 50 -37
114 -24 192 l13 72 6 -125 c3 -69 9 -134 13 -145z m-1851 221 c-12 -21 -140
-156 -148 -156 -3 0 14 21 38 48 81 87 107 119 99 127 -4 5 -1 5 6 1 7 -4 9
-13 5 -20z m2027 -71 c24 -29 24 -29 2 -10 -13 11 -28 29 -34 40 -11 21 -8 18
32 -30z m827 23 c-3 -8 -6 -5 -6 6 -1 11 2 17 5 13 3 -3 4 -12 1 -19z m3 -51
c0 -5 -4 -5 -10 -2 -5 3 -10 14 -10 23 0 15 2 15 10 2 5 -8 10 -19 10 -23z
m-10 -37 c0 -10 -4 -21 -10 -25 -5 -3 -6 -13 -3 -22 5 -12 3 -14 -7 -8 -9 5
-11 4 -6 -3 4 -7 0 -26 -8 -44 -39 -87 -55 -133 -39 -108 45 67 168 157 255
187 78 27 172 43 256 43 93 0 112 -13 25 -18 -126 -7 -304 -57 -289 -81 4 -5
1 -13 -5 -17 -7 -4 -9 -3 -5 4 3 6 2 13 -4 17 -5 3 -10 1 -10 -4 0 -6 -6 -11
-12 -11 -16 -1 -89 -55 -83 -62 3 -2 -14 -22 -38 -44 l-42 -39 40 43 c21 23
34 42 29 42 -18 0 -124 -117 -139 -154 -16 -37 -29 -50 -19 -18 4 11 -3 7 -20
-10 -41 -45 -39 -15 5 79 49 106 99 227 99 243 0 6 4 9 9 6 5 -4 7 4 3 16 -3
14 -2 19 6 14 7 -4 12 -16 12 -26z m-3092 2 c2 -7 -1 -12 -7 -12 -6 0 -11 5
-11 11 0 5 -5 7 -12 3 -7 -4 -8 -3 -4 5 9 14 28 10 34 -7z m-342 -24 c4 -6 3
-8 -4 -4 -5 3 -13 0 -15 -6 -3 -8 -6 -6 -6 5 -1 19 14 23 25 5z m324 4 c0 -5
-3 -12 -7 -16 -5 -4 -15 -31 -24 -59 -12 -43 -16 -48 -21 -29 -4 14 -2 20 5
15 6 -4 8 0 4 10 -3 9 -1 19 4 23 6 3 9 15 6 25 -3 11 -1 17 4 13 5 -3 9 2 9
10 0 9 5 16 10 16 6 0 10 -4 10 -8z m237 -126 c-7 -18 -49 -41 -92 -50 -26 -5
-25 -4 10 14 22 11 49 29 59 40 22 21 32 19 23 -4z m-860 -45 c14 -8 14 -11 3
-11 -13 0 -13 -2 0 -11 12 -9 12 -10 -3 -5 -10 3 -26 6 -35 7 -10 1 -7 4 8 9
15 5 -4 6 -47 3 -54 -4 -77 -2 -90 8 -9 8 -14 9 -10 3 4 -7 -4 -14 -21 -17
-37 -7 -39 -2 -5 18 32 18 167 16 200 -4z m-351 -26 c-1 -8 -5 -17 -8 -21 -5
-4 -4 16 1 34 3 9 9 -1 7 -13z m104 11 c0 -2 -7 -7 -16 -10 -8 -3 -12 -2 -9 4
6 10 25 14 25 6z m1598 -35 c23 -14 10 -46 -18 -46 -16 0 -26 6 -28 19 -3 16
12 36 28 36 3 0 11 -4 18 -9z m1770 -29 c2 -7 -3 -12 -12 -12 -9 0 -16 7 -16
16 0 17 22 14 28 -4z m-2450 -233 c-3 -8 -7 -3 -11 10 -4 17 -3 21 5 13 5 -5
8 -16 6 -23z m39 -41 c-3 -7 -5 -2 -5 12 0 14 2 19 5 13 2 -7 2 -19 0 -25z
m-40 -210 c-3 -8 -6 -5 -6 6 -1 11 2 17 5 13 3 -3 4 -12 1 -19z m-592 -48 c13
-6 15 -9 5 -9 -8 0 -22 4 -30 9 -18 12 -2 12 25 0z m3069 -25 c17 -25 16 -25
-4 -13 -11 7 -20 18 -20 25 0 19 6 16 24 -12z m769 13 c-5 -7 -8 -23 -7 -35 1
-20 -1 -21 -20 -11 -18 10 -19 9 -9 -3 10 -13 7 -18 -17 -33 -17 -9 -30 -23
-30 -30 0 -8 -6 -18 -13 -24 -10 -8 -17 -7 -27 7 -14 20 -15 30 -2 33 4 1 16
10 26 20 11 10 25 18 32 18 6 0 14 7 18 15 3 8 13 15 22 15 10 0 14 3 11 7 -4
3 -2 12 4 20 14 17 25 17 12 1z m-3803 -9 c-12 -8 -10 -10 9 -5 20 4 34 -5 72
-42 49 -49 65 -89 73 -173 2 -30 2 -34 -3 -14 -5 25 -8 27 -14 12 -4 -10 -7
-44 -8 -75 -2 -111 -13 -113 -33 -6 -25 133 -53 224 -79 253 l-22 23 22 -6
c12 -4 24 -3 26 1 3 4 -9 9 -25 10 -17 1 -33 4 -35 7 -8 7 7 26 20 26 7 0 6
-4 -3 -11z m3675 -59 c-3 -5 -11 -10 -16 -10 -5 0 -28 -12 -52 -27 -23 -15
-48 -26 -56 -24 -8 1 -10 -2 -5 -10 5 -9 1 -11 -14 -7 -25 7 -28 -1 -9 -22 6
-8 2 -6 -11 4 -21 18 -21 20 -3 32 14 10 155 71 169 73 2 1 0 -3 -3 -9z m-919
-40 c28 0 72 6 97 14 55 16 60 13 15 -10 -77 -40 -156 -36 -214 11 l-29 24 40
-19 c24 -12 60 -20 91 -20z m-2798 18 c5 17 31 -15 32 -40 0 -9 5 -18 12 -20
11 -4 13 -15 17 -91 1 -20 5 -26 14 -21 7 4 9 3 4 -2 -13 -14 -21 -6 -34 34
-8 23 -11 27 -8 10 4 -21 1 -28 -10 -28 -10 0 -15 10 -15 29 0 17 -4 33 -10
36 -5 3 -10 18 -9 33 l1 27 11 -30 c12 -30 28 -38 44 -21 4 5 3 6 -4 2 -11 -6
-27 24 -28 54 0 8 -8 14 -16 12 -9 -1 -23 6 -30 15 -13 17 -13 17 5 3 15 -12
20 -12 24 -2z m3684 -50 c-7 -7 -12 -8 -12 -2 0 14 12 26 19 19 2 -3 -1 -11
-7 -17z m-3212 -138 c-9 -16 -8 -19 5 -14 13 5 15 0 12 -30 -3 -20 -2 -34 1
-31 3 3 13 -25 23 -62 18 -68 121 -309 141 -328 7 -7 8 -4 5 10 -11 38 -36
160 -35 175 0 8 -3 24 -6 35 -5 13 -3 12 7 -4 8 -14 12 -32 9 -40 -3 -9 -1
-12 6 -7 8 5 10 1 5 -10 -4 -12 -3 -15 5 -10 8 5 10 1 5 -10 -3 -10 -2 -15 3
-12 5 4 10 -4 10 -15 1 -12 16 -59 34 -105 37 -97 107 -189 233 -308 115 -108
219 -181 404 -281 253 -136 446 -273 428 -303 -3 -6 -1 -9 7 -8 8 2 12 -4 10
-16 -2 -13 1 -16 10 -10 9 5 8 2 -2 -11 -9 -11 -10 -16 -2 -11 8 5 12 -2 12
-26 0 -26 3 -30 11 -18 8 12 9 10 4 -7 -3 -12 -1 -24 4 -27 10 -6 7 -43 -4
-54 -5 -6 -9 23 -6 47 2 8 -3 10 -11 5 -7 -4 -10 -4 -6 1 12 13 -103 118 -168
152 -74 39 -207 73 -289 73 -118 0 -164 -28 -211 -129 -34 -71 -63 -113 -75
-106 -5 4 -6 -2 -2 -11 4 -12 3 -15 -5 -10 -7 4 -12 1 -12 -8 0 -9 -5 -16 -12
-16 -6 0 -9 -2 -7 -5 7 -7 -104 -123 -121 -127 -8 -2 -19 -8 -25 -13 -5 -6 -9
-8 -8 -6 2 2 -2 9 -7 16 -7 8 3 21 34 43 24 17 47 28 51 24 3 -4 5 0 3 8 -2 9
3 14 12 12 8 -2 12 0 8 4 -4 4 4 21 19 38 21 26 83 146 83 163 0 2 -13 -5 -29
-16 -74 -53 -157 -75 -180 -48 -9 11 -3 16 28 25 21 7 90 43 152 81 63 37 132
77 154 88 101 52 226 59 328 19 34 -14 54 -19 43 -13 -10 7 -33 21 -50 32
-121 80 -500 275 -532 275 -23 0 -50 -10 -94 -35 -18 -10 -26 -11 -32 -3 -3 7
-26 11 -51 11 -24 -1 -50 2 -57 7 -17 11 -2 33 18 25 9 -3 13 -3 9 1 -4 5 3
14 15 22 l23 13 -25 -6 c-14 -4 -30 -7 -37 -7 -7 -1 -10 -5 -7 -10 3 -4 -2 -8
-11 -8 -9 0 -14 -4 -11 -9 9 -14 -52 -7 -66 8 -8 8 -8 11 -1 7 14 -8 66 11 59
22 -22 36 83 58 145 30 62 -27 61 -21 -3 15 -31 18 -98 60 -149 95 -50 34 -95
62 -99 62 -4 0 -14 8 -21 18 -13 16 -13 16 6 2 18 -14 19 -14 7 2 -8 9 -20 14
-28 11 -8 -3 -14 0 -14 6 0 6 -3 10 -7 10 -20 -3 -34 2 -29 10 3 5 -1 12 -10
15 -9 3 -12 2 -8 -5 3 -6 -3 -5 -15 3 -12 7 -21 16 -21 20 0 5 -8 8 -17 8 -15
0 -14 2 3 15 18 14 17 14 -8 5 -35 -12 -37 -3 -2 10 29 12 89 -13 78 -32 -4
-7 -3 -8 4 -4 7 4 12 2 12 -4 0 -6 4 -9 8 -6 5 3 35 -22 68 -55 32 -33 68 -65
79 -70 11 -6 7 0 -8 12 -38 29 -98 109 -91 121 3 5 14 2 23 -6 32 -29 33 -17
2 22 -60 75 -189 367 -177 399 3 8 2 12 -3 9 -5 -3 -11 9 -15 26 -4 19 -2 34
5 39 7 4 8 16 4 30 -4 13 -5 21 -1 18 3 -3 18 -41 31 -85 14 -44 23 -61 19
-39 -4 22 -7 61 -8 87 0 25 -4 44 -8 41 -5 -2 -7 33 -6 79 1 71 2 76 8 38 7
-43 7 -43 10 25 l4 70 3 -62 c2 -35 -1 -72 -7 -83z m2533 38 c-27 -67 -40 -90
-28 -48 10 35 43 110 48 110 3 0 -7 -28 -20 -62z m-2606 -60 c-3 -7 -5 -2 -5
12 0 14 2 19 5 13 2 -7 2 -19 0 -25z m543 -28 c0 -5 -2 -10 -4 -10 -3 0 -8 5
-11 10 -3 6 -1 10 4 10 6 0 11 -4 11 -10z m-533 -52 c-3 -7 -5 -2 -5 12 0 14
2 19 5 13 2 -7 2 -19 0 -25z m-6 -141 c-10 -9 -11 -8 -5 6 3 10 9 15 12 12 3
-3 0 -11 -7 -18z m22 -27 c3 -11 1 -18 -4 -14 -5 3 -9 12 -9 20 0 20 7 17 13
-6z m1914 -32 c-3 -7 -5 -2 -5 12 0 14 2 19 5 13 2 -7 2 -19 0 -25z m-1724
-18 c3 -11 1 -18 -4 -14 -5 3 -9 12 -9 20 0 20 7 17 13 -6z m735 -29 c-1 -39
26 -79 65 -97 31 -13 29 -14 -47 -12 -50 0 -73 4 -63 9 8 5 18 23 21 39 3 17
9 44 12 60 7 38 13 39 12 1z m1004 -40 c1 -27 1 -48 -1 -46 -1 2 -15 -1 -30
-6 -14 -6 -43 -12 -65 -13 l-38 -3 46 25 c32 18 50 35 58 59 17 46 25 41 30
-16z m-1614 -37 c34 -40 59 -74 56 -78 -2 -3 -1 -4 2 -1 4 2 32 -18 63 -46
121 -108 335 -230 496 -282 162 -53 233 -62 470 -62 196 1 230 3 315 24 325
80 586 225 768 424 23 26 42 43 42 39 0 -12 -29 -52 -89 -122 -54 -62 -50 -65
14 -11 16 15 24 19 17 10 -6 -9 -8 -20 -4 -24 4 -5 1 -5 -5 -1 -8 4 -13 1 -13
-8 0 -8 -17 -25 -37 -37 -21 -13 -69 -47 -108 -77 -128 -96 -362 -204 -535
-246 -68 -17 -88 -25 -70 -29 14 -2 -2 -3 -35 0 -33 3 -55 1 -48 -4 6 -4 -64
-7 -155 -5 -211 3 -383 29 -512 77 -274 102 -538 276 -638 423 -21 31 -70 123
-60 112 3 -3 33 -37 66 -76z m2312 1 c-10 -12 -10 -18 1 -32 10 -11 10 -14 2
-9 -8 4 -13 2 -13 -4 0 -6 -6 -8 -12 -4 -10 6 -10 4 0 -7 14 -16 16 -33 2 -24
-15 9 -11 -7 6 -30 16 -20 16 -20 10 2 -4 12 -2 24 4 28 6 3 8 10 6 14 -3 4 2
8 10 8 10 0 11 -4 4 -11 -17 -17 -11 -29 7 -15 10 8 7 1 -7 -18 -12 -18 -29
-34 -37 -37 -7 -3 -13 -11 -13 -19 0 -17 -113 -119 -213 -190 -45 -33 -162
-99 -260 -149 -178 -90 -317 -176 -392 -244 l-40 -36 45 27 c192 114 419 132
562 45 16 -9 25 -20 20 -25 -4 -4 1 -5 10 -2 10 3 20 2 22 -2 8 -12 -33 -8
-42 4 -4 6 -18 11 -32 13 -14 1 -38 4 -55 7 -85 11 -165 17 -165 11 0 -4 20
-15 44 -26 24 -10 47 -24 51 -32 6 -10 5 -11 -6 0 -14 13 -33 17 -25 4 6 -10
-30 -6 -101 9 -72 16 -129 5 -225 -43 -141 -71 -275 -222 -304 -343 -7 -28 -4
-26 37 20 53 60 248 241 292 272 18 12 46 25 62 29 19 4 8 -5 -30 -24 -33 -17
-75 -46 -93 -65 l-33 -34 103 24 c138 33 275 36 338 7 35 -16 41 -22 27 -27
-10 -4 -16 -3 -13 1 7 12 -148 14 -200 2 -135 -30 -364 -159 -350 -197 3 -8 2
-12 -3 -8 -14 8 -67 -65 -102 -138 -35 -76 -53 -174 -47 -264 2 -38 1 -57 -5
-48 -4 9 -12 13 -16 11 -10 -6 -11 2 -17 96 -4 60 -2 83 12 110 15 29 15 31 1
19 -9 -7 -29 -46 -44 -86 -15 -41 -31 -71 -37 -68 -5 3 -6 1 -2 -5 3 -6 -2
-27 -13 -47 -11 -22 -21 -31 -24 -23 -3 7 -6 4 -6 -8 -1 -28 -76 -112 -107
-120 -13 -3 -21 -10 -18 -15 3 -5 -3 -6 -12 -2 -12 4 -15 3 -10 -5 5 -8 1 -10
-10 -5 -13 5 -15 3 -9 -7 6 -9 4 -11 -5 -5 -10 6 -9 11 6 21 10 7 24 18 30 23
7 5 14 7 17 4 3 -2 13 -1 22 5 16 8 16 10 1 15 -9 4 -16 1 -16 -5 0 -6 -3 -9
-6 -5 -3 3 -28 -8 -54 -24 -43 -27 -54 -29 -100 -23 -28 4 -57 12 -63 19 -7 6
-21 17 -32 24 l-20 13 20 -8 c11 -4 50 -9 87 -12 59 -4 73 -1 110 21 51 30
103 82 95 95 -4 5 5 26 19 46 42 61 70 134 98 256 62 261 132 404 269 543 88
89 190 155 407 263 268 133 435 264 543 427 21 31 41 57 44 57 3 0 0 -7 -7
-15z m-2488 -143 c38 -35 24 -48 -18 -16 -18 14 -31 31 -27 37 4 6 0 8 -10 4
-17 -6 -31 5 -20 16 8 9 42 -10 75 -41z m1246 -15 c4 -20 -25 -34 -40 -19 -15
15 -1 44 19 40 10 -2 19 -11 21 -21z m1556 7 c9 -3 16 -12 16 -19 0 -23 -29
-37 -83 -42 -28 -2 -63 -5 -77 -6 -14 -1 -29 -5 -35 -9 -5 -3 -26 -9 -46 -12
-20 -3 -48 -10 -63 -16 -45 -17 -20 8 36 36 58 30 88 54 66 54 -7 0 -24 -7
-36 -16 -13 -9 -26 -13 -29 -10 -4 3 0 6 8 6 12 0 11 2 -1 11 -13 9 -13 10 0
8 8 -1 22 1 30 4 40 16 183 23 214 11z m-299 -50 c-26 -20 -55 -36 -55 -30 0
5 63 46 70 46 3 -1 -4 -8 -15 -16z m-2548 -57 c6 -7 -6 -9 -47 -9 -40 0 -46 2
-32 11 15 9 69 8 79 -2z m1173 -17 c-14 -11 -53 -34 -87 -51 -60 -30 -64 -31
-155 -24 -140 11 -150 24 -20 24 121 1 195 16 247 51 39 26 47 25 15 0z
m-1155 1 c-7 -12 25 -30 41 -24 6 2 19 -6 29 -17 10 -11 14 -20 9 -20 -5 0 -4
-4 3 -8 6 -4 -15 -8 -46 -9 -45 -2 -58 1 -58 12 0 17 13 20 22 5 3 -5 12 -10
18 -10 7 0 3 7 -7 15 -15 11 -16 15 -5 15 8 0 21 -6 28 -12 9 -9 12 -9 7 -1
-3 6 0 13 6 16 7 3 4 5 -7 5 -11 -1 -29 3 -39 7 -13 6 -17 5 -13 -2 4 -6 -4
-13 -18 -15 -21 -4 -23 -3 -13 9 9 11 9 13 -2 11 -7 -2 -14 2 -17 9 -3 7 3 11
15 8 10 -2 25 1 33 6 18 11 22 11 14 0z m2601 -135 c109 -33 237 -93 228 -108
-4 -7 -3 -8 5 -4 12 8 175 -107 202 -142 8 -9 -6 -1 -31 19 -79 62 -154 108
-200 124 -40 14 -60 27 -54 37 4 7 3 8 -5 4 -6 -4 -24 -1 -40 7 -24 12 -28 12
-24 1 2 -7 12 -14 20 -16 14 -3 13 -5 -2 -18 -15 -12 -17 -12 -10 -1 6 11 4
13 -7 8 -9 -3 -21 0 -27 6 -15 15 -14 30 2 21 7 -4 9 -3 4 2 -5 5 -12 9 -15
10 -4 0 -20 7 -35 14 -25 12 -30 11 -45 -5 -9 -10 -11 -15 -4 -11 6 4 12 4 13
-1 3 -29 9 -47 21 -54 7 -5 9 -9 4 -9 -5 0 -1 -10 10 -22 l19 -23 -22 18 c-12
11 -26 16 -32 12 -6 -3 -9 0 -6 7 2 7 -9 29 -26 48 -17 19 -27 28 -23 20 6
-13 5 -13 -7 0 -8 8 -21 20 -29 27 -13 12 -13 13 0 11 8 -2 19 -7 23 -13 5 -6
7 -4 5 4 -2 8 -17 16 -33 18 -16 3 -35 9 -42 15 -7 6 -28 14 -46 19 -22 6 -6
7 49 4 45 -3 117 -16 160 -29z m-2371 -1 l40 -11 -65 -7 c-98 -10 -169 -12
-176 -4 -4 4 -28 7 -53 8 -56 1 -45 6 34 18 80 12 171 10 220 -4z m2375 -50
c10 -13 11 -18 1 -28 -10 -9 -11 -8 -5 7 5 13 4 17 -3 13 -6 -4 -13 0 -17 8
-7 20 8 19 24 0z m-2570 1 c0 -2 -9 -6 -20 -9 -11 -3 -18 -1 -14 4 5 9 34 13
34 5z m80 -1 c0 -7 -30 -13 -34 -7 -3 4 4 9 15 9 10 1 19 0 19 -2z m44 -13 c3
-5 -1 -9 -9 -9 -8 0 -12 4 -9 9 3 4 7 8 9 8 2 0 6 -4 9 -8z m1569 -29 c-7 -2
-19 -2 -25 0 -7 3 -2 5 12 5 14 0 19 -2 13 -5z m-80 -20 c-7 -2 -19 -2 -25 0
-7 3 -2 5 12 5 14 0 19 -2 13 -5z m1053 -18 c-1 -8 -5 -17 -8 -21 -5 -4 -4 16
1 34 3 9 9 -1 7 -13z m-3501 -215 c-3 -5 -13 -6 -21 -3 -12 4 -13 8 -3 14 15
9 32 2 24 -11z m2956 -117 c13 -16 12 -17 -3 -4 -17 13 -22 21 -14 21 2 0 10
-8 17 -17z m284 -13 c3 -5 2 -10 -4 -10 -5 0 -13 5 -16 10 -3 6 -2 10 4 10 5
0 13 -4 16 -10z m-150 -161 c69 -104 188 -198 236 -186 10 3 17 2 14 -3 -9
-14 127 -35 227 -35 64 0 89 -3 75 -9 -12 -4 -70 -9 -128 -10 -81 -1 -110 3
-124 14 -15 12 -17 12 -10 1 6 -11 5 -12 -6 -5 -8 4 -23 9 -34 10 -26 2 -49 8
-55 14 -3 3 -21 14 -40 24 -19 10 -50 33 -69 50 -47 44 -146 178 -143 195 2 8
-1 10 -10 5 -7 -4 -10 -3 -5 1 4 5 -1 18 -10 29 -12 14 -9 13 10 -4 16 -14 48
-55 72 -91z m372 25 c-3 -3 -12 -4 -19 -1 -8 3 -5 6 6 6 11 1 17 -2 13 -5z
m-2632 -15 c4 -6 13 -8 21 -5 8 3 14 2 14 -3 0 -5 8 -8 18 -7 10 0 16 -5 14
-13 -2 -8 3 -11 12 -8 11 4 13 1 9 -10 -5 -12 -3 -14 7 -8 9 5 11 4 6 -3 -5
-9 -18 -4 -42 14 -19 15 -46 27 -60 27 -17 0 -22 2 -13 7 8 6 5 10 -12 13 -22
4 -22 4 -2 6 12 0 25 -4 28 -10z m2585 -17 c-14 -2 -55 -17 -93 -33 -37 -17
-73 -27 -79 -23 -7 4 -8 3 -4 -4 4 -7 3 -12 -3 -12 -5 0 -13 5 -16 10 -3 6
-12 10 -18 10 -7 0 -6 -4 3 -10 8 -5 10 -10 4 -10 -19 0 -23 11 -12 36 9 18
19 24 43 24 18 0 48 6 66 14 19 7 40 11 48 8 8 -2 11 0 8 5 -4 6 10 6 36 -1
34 -9 37 -12 17 -14z m-1740 -22 c65 -16 69 -19 35 -19 -22 0 -65 8 -95 19
-72 24 -35 24 60 0z m1127 2 l32 -17 -92 0 c-86 0 -96 -3 -164 -37 -39 -21
-74 -42 -78 -48 -3 -6 -10 -8 -15 -5 -5 3 -16 -2 -24 -11 -9 -8 -16 -13 -16
-9 0 3 -11 -2 -25 -11 -14 -9 -22 -21 -18 -27 3 -5 1 -7 -5 -3 -6 3 -26 -13
-45 -36 -34 -42 -35 -45 -32 -118 2 -41 8 -88 14 -103 14 -35 14 -47 1 -47 -5
0 -7 8 -4 18 4 13 1 12 -14 -5 l-19 -22 -12 26 c-7 14 -16 57 -21 95 -4 38
-12 73 -16 76 -3 4 -4 -5 -2 -20 3 -16 -1 -36 -9 -45 -12 -16 -13 -15 -8 12 6
27 5 28 -6 10 -7 -10 -18 -37 -25 -60 l-13 -40 0 51 c-2 139 148 291 363 366
97 33 201 38 253 10z m264 -16 c12 7 11 -7 -1 -26 -6 -9 -10 -10 -10 -3 0 6
-2 17 -3 25 -2 7 -2 10 0 5 3 -4 9 -5 14 -1z m424 -10 c33 -15 34 -15 -60 -39
-33 -9 -78 -24 -100 -33 -91 -39 -134 -22 -58 23 104 62 161 74 218 49z
m-2655 -22 c13 -2 54 -23 48 -23 -4 -1 4 -13 17 -27 14 -15 25 -32 25 -38 0
-6 -8 1 -18 17 -10 16 -23 25 -31 22 -18 -7 -41 13 -34 31 4 10 0 12 -11 8 -9
-3 -13 -11 -9 -17 3 -6 1 -7 -5 -3 -6 4 -8 14 -5 23 5 12 3 14 -7 8 -9 -5 -11
-4 -6 4 4 6 13 8 19 4 7 -4 14 -8 17 -9z m122 4 c-14 -14 -44 -20 -36 -7 3 5
9 7 14 4 5 -3 11 -1 15 5 3 5 9 10 13 10 3 0 1 -5 -6 -12z m-167 -28 c10 -11
22 -20 27 -20 6 0 21 -8 34 -19 l23 -18 -22 -11 c-12 -7 -15 -11 -7 -11 35 3
51 -2 45 -12 -4 -6 -1 -10 6 -8 24 3 39 -1 39 -10 0 -15 -32 -22 -46 -10 -8 6
-14 8 -14 3 0 -13 -51 40 -66 69 -9 15 -24 37 -35 48 -10 10 -15 19 -11 19 5
0 17 -9 27 -20z m2289 -5 c3 -8 1 -15 -4 -15 -6 0 -10 7 -10 15 0 8 2 15 4 15
2 0 6 -7 10 -15z m400 -21 c-70 -58 -76 -61 -114 -48 l-35 12 25 10 c14 6 50
21 80 35 64 29 84 25 44 -9z m-2705 3 c8 -10 7 -14 -2 -14 -8 0 -14 6 -14 14
0 7 1 13 2 13 2 0 8 -6 14 -13z m2778 -13 c8 -20 -44 -63 -69 -56 -14 3 -15 8
-7 23 5 11 14 17 20 14 5 -4 9 -3 8 2 -6 34 36 49 48 17z m-458 -44 c0 -9 -4
-8 -9 5 -5 11 -9 27 -9 35 0 9 4 8 9 -5 5 -11 9 -27 9 -35z m-2295 11 c-2 -2
1 -10 7 -17 7 -8 6 -14 -2 -20 -8 -4 -9 -3 -5 4 4 7 -3 14 -19 18 -14 3 -30
14 -35 23 -8 16 -6 17 25 7 19 -6 32 -12 29 -15z m2323 -3 c-3 -8 -6 -5 -6 6
-1 11 2 17 5 13 3 -3 4 -12 1 -19z m-1467 -8 c0 -5 -17 -14 -39 -20 -49 -13
-86 -42 -112 -88 -11 -21 -18 -28 -14 -18 3 10 -1 29 -9 42 -14 20 -14 25 2
43 9 11 31 27 47 36 33 16 125 21 125 5z m1557 -37 c79 -98 115 -132 160 -153
26 -12 57 -20 70 -17 13 2 23 1 23 -3 0 -14 -80 -40 -125 -40 -40 0 -50 5
-108 60 -35 32 -64 53 -64 45 0 -8 4 -12 9 -9 4 3 8 -2 8 -10 0 -8 16 -31 35
-52 19 -20 35 -38 35 -40 0 -11 -28 0 -51 19 -38 32 -56 75 -53 127 1 25 -1
47 -6 50 -4 3 -11 16 -14 30 -5 17 0 13 17 -15 14 -22 22 -42 17 -45 -5 -3 -5
-12 0 -20 8 -12 10 -11 10 5 0 17 3 15 20 -10 11 -16 20 -25 20 -20 0 6 -9 23
-19 39 -11 16 -17 36 -13 44 4 11 2 13 -8 7 -9 -5 -11 -4 -6 3 4 6 2 21 -4 32
-20 37 8 21 47 -27z m-2113 9 c2 -4 -5 -9 -17 -9 -17 -2 -19 0 -7 7 18 12 18
12 24 2z m2369 1 c-7 -2 -19 -2 -25 0 -7 3 -2 5 12 5 14 0 19 -2 13 -5z m-145
-39 c6 3 13 2 16 -3 4 -5 37 -13 74 -17 37 -4 70 -9 75 -10 4 -1 16 -2 28 -3
12 0 23 -10 26 -21 3 -11 9 -17 14 -14 5 3 6 10 3 16 -4 7 -2 8 5 4 6 -4 9
-12 6 -17 -9 -13 -65 -41 -65 -32 0 5 -4 1 -10 -7 -11 -18 -79 -16 -118 4 -35
18 -81 64 -106 107 l-19 32 31 -23 c16 -12 35 -20 40 -16z m-2539 11 c12 2 19
0 15 -6 -3 -6 4 -8 18 -6 13 2 34 -2 48 -10 23 -13 22 -13 -20 -7 -24 3 -49 8
-55 12 -5 3 -18 7 -28 7 -10 1 -23 8 -30 15 -10 10 -8 10 9 2 12 -6 31 -9 43
-7z m2353 -24 c3 8 5 -1 5 -20 0 -32 -1 -32 -12 -10 -7 13 -15 35 -19 49 -5
21 -4 21 8 -4 9 -19 15 -24 18 -15z m-382 4 c26 -13 70 -71 70 -91 0 -5 -9 5
-20 22 -24 37 -66 57 -106 51 -26 -4 -25 -4 7 -6 41 -1 89 -39 89 -68 -1 -13
-5 -11 -16 10 -8 15 -19 25 -24 22 -6 -4 -10 -2 -10 4 0 6 -7 7 -17 4 -11 -4
-14 -3 -9 5 5 8 -2 12 -22 12 -17 0 -32 -6 -36 -15 -4 -12 3 -15 29 -15 22 0
43 -8 55 -20 11 -11 16 -20 11 -20 -5 0 -14 7 -21 15 -19 23 -67 19 -75 -5
-11 -34 -25 -11 -25 40 0 36 5 52 18 59 25 15 69 13 102 -4z m-1297 -20 c-3
-9 -8 -14 -10 -11 -3 3 -2 9 2 15 9 16 15 13 8 -4z m-373 -9 c0 -2 -8 -10 -17
-17 -16 -13 -17 -12 -4 4 13 16 21 21 21 13z m-160 -41 c-7 -8 -17 -15 -23
-15 -6 0 -2 7 9 15 25 19 30 19 14 0z m-110 1 c0 -2 -7 -7 -16 -10 -8 -3 -12
-2 -9 4 6 10 25 14 25 6z m155 -5 c-3 -5 -1 -12 4 -16 5 -3 14 3 20 12 5 10
12 15 16 11 8 -7 -68 -89 -116 -124 -32 -23 -107 -35 -94 -15 3 6 -6 8 -20 5
-14 -2 -38 2 -53 10 -28 16 -25 17 33 20 17 1 37 6 44 11 9 5 12 4 7 -3 -3 -6
-1 -14 5 -18 7 -4 9 -3 6 3 -4 6 1 17 10 24 14 12 16 12 9 -1 -4 -8 0 -6 8 4
13 16 19 17 28 8 7 -7 16 -12 22 -12 5 0 1 7 -10 15 -21 16 -21 16 16 21 49 7
60 10 67 19 4 4 3 6 -2 2 -6 -3 -12 3 -12 14 -1 10 3 19 8 19 6 0 8 -4 4 -9z
m71 -10 c-12 -13 -14 -21 -6 -26 5 -3 8 -11 4 -16 -3 -5 -9 -7 -14 -4 -5 3
-16 -10 -26 -30 -10 -21 -26 -38 -40 -41 -13 -3 -24 -10 -24 -15 0 -5 -11 -9
-24 -9 -13 0 -26 -5 -28 -12 -3 -9 -6 -9 -11 0 -8 12 50 49 68 43 6 -1 7 1 3
5 -10 9 12 35 23 28 5 -3 8 0 7 7 -2 7 8 18 22 26 14 7 21 13 16 13 -5 0 1 11
14 25 27 29 42 34 16 6z m-156 -6 c0 -21 -46 -48 -81 -48 -16 0 -29 -4 -29 -9
0 -4 -15 -8 -32 -8 l-33 0 45 30 c29 19 52 27 66 24 14 -4 23 0 27 10 8 20 37
21 37 1z m1947 -47 c-3 -7 -5 -2 -5 12 0 14 2 19 5 13 2 -7 2 -19 0 -25z m-40
-75 c-3 -10 -5 -2 -5 17 0 19 2 27 5 18 2 -10 2 -26 0 -35z m-680 -5 c-3 -8
-6 -5 -6 6 -1 11 2 17 5 13 3 -3 4 -12 1 -19z m-519 -73 c96 -80 209 -84 305
-11 40 31 51 22 15 -11 -68 -63 -178 -83 -264 -48 -39 15 -78 49 -81 69 -1 5
-7 13 -15 17 -8 6 -9 9 -1 9 6 0 25 -11 41 -25z m1139 -48 c0 -8 -6 -14 -14
-14 -9 0 -10 4 -2 14 6 7 12 13 14 13 1 0 2 -6 2 -13z m-160 -63 c-3 -3 -12
-4 -19 -1 -8 3 -5 6 6 6 11 1 17 -2 13 -5z m-752 -44 c-3 -5 -12 -10 -18 -10
-7 0 -6 4 3 10 19 12 23 12 15 0z m540 -22 c5 4 5 1 0 -7 -7 -12 -10 -11 -20
2 -7 9 -14 15 -17 12 -2 -3 -5 2 -5 12 0 13 3 12 17 -5 10 -12 21 -18 25 -14z
m-24 -55 c13 -16 12 -17 -3 -4 -10 7 -18 15 -18 17 0 8 8 3 21 -13z m166 11
c-3 -3 -12 -4 -19 -1 -8 3 -5 6 6 6 11 1 17 -2 13 -5z m-96 -111 c13 -16 12
-17 -3 -4 -17 13 -22 21 -14 21 2 0 10 -8 17 -17z m138 -89 c12 -11 12 -12 0
-10 -17 2 -57 25 -45 26 5 0 3 7 -4 15 -7 8 -16 13 -20 10 -9 -6 -43 31 -46
51 -1 8 21 -6 49 -32 29 -26 58 -53 66 -60z"/>
<path d="M3661 5812 c-17 -31 -13 -40 5 -14 9 13 14 26 11 29 -3 2 -10 -4 -16
-15z"/>
<path d="M3905 5200 c-3 -5 -1 -10 4 -10 6 0 11 5 11 10 0 6 -2 10 -4 10 -3 0
-8 -4 -11 -10z"/>
<path d="M3927 5147 c-3 -8 1 -14 8 -14 7 0 11 6 8 14 -3 7 -6 13 -8 13 -2 0
-5 -6 -8 -13z"/>
<path d="M4010 5016 c0 -2 8 -10 18 -17 15 -13 16 -12 3 4 -13 16 -21 21 -21
13z"/>
<path d="M4090 4956 c0 -2 7 -7 16 -10 8 -3 12 -2 9 4 -6 10 -25 14 -25 6z"/>
<path d="M3573 4803 c9 -2 23 -2 30 0 6 3 -1 5 -18 5 -16 0 -22 -2 -12 -5z"/>
<path d="M3513 4793 c9 -2 23 -2 30 0 6 3 -1 5 -18 5 -16 0 -22 -2 -12 -5z"/>
<path d="M3818 4790 c-9 -6 -40 -16 -70 -24 -41 -11 -46 -15 -23 -15 29 -1
115 32 115 44 0 7 -2 6 -22 -5z"/>
<path d="M4620 4616 c0 -2 8 -10 18 -17 15 -13 16 -12 3 4 -13 16 -21 21 -21
13z"/>
<path d="M4650 4616 c0 -2 8 -10 18 -17 15 -13 16 -12 3 4 -13 16 -21 21 -21
13z"/>
<path d="M4695 3520 c10 -11 20 -20 23 -20 3 0 -3 9 -13 20 -10 11 -20 20 -23
20 -3 0 3 -9 13 -20z"/>
<path d="M2645 5579 c-4 -6 -5 -12 -2 -15 2 -3 7 2 10 11 7 17 1 20 -8 4z"/>
<path d="M2504 4558 l-19 -23 23 19 c21 18 27 26 19 26 -2 0 -12 -10 -23 -22z"/>
<path d="M2226 4242 c-3 -5 1 -9 9 -9 8 0 15 4 15 9 0 4 -4 8 -9 8 -6 0 -12
-4 -15 -8z"/>
<path d="M2527 4981 c-15 -10 -35 -29 -44 -42 -12 -17 -6 -14 23 11 21 19 43
38 49 42 18 15 0 8 -28 -11z"/>
<path d="M2459 4713 c-13 -16 -12 -17 4 -4 9 7 17 15 17 17 0 8 -8 3 -21 -13z"/>
<path d="M5061 5184 c0 -11 3 -14 6 -6 3 7 2 16 -1 19 -3 4 -6 -2 -5 -13z"/>
<path d="M5122 5150 c7 -11 17 -20 22 -20 5 0 1 9 -9 20 -10 11 -20 20 -22 20
-2 0 2 -9 9 -20z"/>
<path d="M1618 4243 c7 -3 16 -2 19 1 4 3 -2 6 -13 5 -11 0 -14 -3 -6 -6z"/>
<path d="M4972 5000 c0 -14 2 -19 5 -12 2 6 2 18 0 25 -3 6 -5 1 -5 -13z"/>
<path d="M5238 4683 c7 -3 16 -2 19 1 4 3 -2 6 -13 5 -11 0 -14 -3 -6 -6z"/>
<path d="M3561 4312 c-13 -31 -17 -161 -7 -209 5 -23 1 -39 -16 -65 -13 -19
-54 -98 -92 -176 -39 -77 -73 -139 -78 -136 -4 3 -5 -3 -1 -12 5 -13 3 -15 -7
-9 -8 5 -11 4 -7 -3 9 -13 -2 -44 -13 -37 -8 5 -33 -45 -25 -53 3 -3 5 1 5 8
0 7 2 11 5 8 3 -3 -11 -38 -30 -79 -20 -41 -33 -66 -30 -56 3 9 7 25 10 35 3
9 -6 -7 -20 -37 -14 -30 -24 -60 -21 -68 3 -8 1 -11 -4 -8 -11 7 -57 -81 -48
-91 13 -12 168 -16 283 -6 75 7 150 20 201 36 91 29 209 101 264 162 19 21 25
31 14 21 -22 -18 -22 -18 -39 35 -10 29 -22 58 -28 63 -7 7 -7 5 -2 -5 5 -7
10 -42 11 -77 2 -59 0 -63 -30 -86 l-32 -25 -18 47 c-10 25 -51 123 -91 216
-40 94 -90 213 -110 265 -36 94 -36 97 -33 215 2 66 8 128 12 138 5 10 4 17
-2 17 -5 0 -15 -13 -21 -28z m-350 -955 c-10 -9 -11 -8 -5 6 3 10 9 15 12 12
3 -3 0 -11 -7 -18z"/>
<path d="M3611 4240 c0 -14 28 -72 29 -59 0 4 -7 22 -15 40 -8 19 -14 27 -14
19z"/>
<path d="M3494 4188 c-15 -29 -33 -64 -41 -78 -13 -21 -11 -20 10 5 24 26 72
125 62 125 -3 0 -17 -24 -31 -52z"/>
<path d="M3398 4023 c-41 -68 -80 -143 -74 -143 3 0 19 26 37 58 18 31 43 76
57 100 36 63 20 51 -20 -15z"/>
<path d="M3693 4038 c1 -15 6 -23 11 -18 4 4 4 16 -2 26 -9 16 -10 14 -9 -8z"/>
<path d="M3726 3967 c3 -10 9 -15 12 -12 3 3 0 11 -7 18 -10 9 -11 8 -5 -6z"/>
<path d="M3744 3930 c8 -30 59 -140 63 -137 2 3 -12 38 -32 78 -19 41 -33 67
-31 59z"/>
<path d="M3282 3808 c-10 -30 -10 -31 3 -14 13 17 21 46 12 46 -1 0 -8 -15
-15 -32z"/>
<path d="M3810 3771 c0 -6 4 -13 10 -16 6 -3 7 1 4 9 -7 18 -14 21 -14 7z"/>
<path d="M3240 3710 c-9 -6 -10 -10 -3 -10 6 0 15 5 18 10 8 12 4 12 -15 0z"/>
<path d="M3130 3495 c-45 -93 -127 -262 -182 -374 -71 -146 -96 -206 -87 -212
7 -4 17 -5 23 -2 10 4 77 133 92 178 6 17 129 301 167 385 6 14 12 33 13 44 1
10 7 22 14 26 6 4 11 10 11 14 -3 23 0 36 9 31 6 -3 10 5 10 19 0 13 5 26 12
28 6 2 9 11 6 19 -3 8 -42 -62 -88 -156z"/>
<path d="M3295 3589 c-4 -6 -5 -12 -2 -15 2 -3 7 2 10 11 7 17 1 20 -8 4z"/>
<path d="M3840 3380 c-25 -16 -92 -45 -150 -64 -128 -42 -307 -62 -473 -52
-79 5 -107 4 -102 -4 10 -17 392 -6 479 14 101 23 237 77 296 119 42 29 -2 18
-50 -13z"/>
<path d="M5407 3453 c-10 -9 -9 -23 2 -23 5 0 11 7 15 15 5 15 -5 20 -17 8z"/>
<path d="M2151 3014 c0 -11 3 -14 6 -6 3 7 2 16 -1 19 -3 4 -6 -2 -5 -13z"/>
<path d="M2165 2965 c4 -17 11 -34 16 -39 5 -5 4 5 -1 24 -12 42 -24 55 -15
15z"/>
<path d="M2520 2330 c-9 -6 -10 -10 -3 -10 6 0 15 5 18 10 8 12 4 12 -15 0z"/>
<path d="M2542 1620 c-21 -18 -22 -19 -3 -17 11 1 18 3 16 6 -3 2 0 10 6 18
16 18 8 16 -19 -7z"/>
<path d="M3375 1232 c4 -25 -6 -36 -17 -21 -7 11 -8 9 -4 -5 5 -13 2 -17 -9
-12 -8 3 -15 1 -15 -4 0 -20 18 -18 40 5 13 14 19 25 14 25 -5 0 -3 4 4 9 11
7 11 9 -1 14 -10 4 -14 0 -12 -11z"/>
<path d="M2190 2717 c0 -3 12 -12 26 -22 15 -9 23 -12 20 -6 -7 11 -46 35 -46
28z"/>
<path d="M4878 2683 c6 -2 18 -2 25 0 6 3 1 5 -13 5 -14 0 -19 -2 -12 -5z"/>
<path d="M4956 2682 c-2 -4 11 -6 30 -4 19 2 34 6 34 8 0 8 -59 4 -64 -4z"/>
<path d="M2261 2514 c0 -11 3 -14 6 -6 3 7 2 16 -1 19 -3 4 -6 -2 -5 -13z"/>
<path d="M4745 2410 c-3 -6 1 -7 9 -4 18 7 21 14 7 14 -6 0 -13 -4 -16 -10z"/>
<path d="M3710 1330 c-6 -11 -8 -20 -6 -20 3 0 10 9 16 20 6 11 8 20 6 20 -3
0 -10 -9 -16 -20z"/>
<path d="M2228 1663 c6 -2 10 -8 8 -12 -3 -4 1 -8 9 -8 11 0 12 4 4 14 -6 7
-17 13 -23 12 -7 0 -6 -2 2 -6z"/>
<path d="M2924 1566 c-3 -8 -15 -13 -26 -11 -11 3 -18 1 -14 -2 14 -14 37 -10
46 8 6 10 8 19 5 19 -3 0 -8 -6 -11 -14z"/>
<path d="M2250 1435 c-14 -8 -20 -14 -14 -15 5 0 19 7 30 15 24 18 16 19 -16
0z"/>
<path d="M2203 1425 c0 -8 4 -12 9 -9 5 3 6 10 3 15 -9 13 -12 11 -12 -6z"/>
<path d="M3855 900 c10 -11 20 -20 23 -20 3 0 -3 9 -13 20 -10 11 -20 20 -23
20 -3 0 3 -9 13 -20z"/>
</g>
</svg>
