<?xml version="1.0" standalone="no"?>
<!DOCTYPE svg PUBLIC "-//W3C//DTD SVG 20010904//EN"
 "http://www.w3.org/TR/2001/REC-SVG-20010904/DTD/svg10.dtd">
<svg version="1.0" xmlns="http://www.w3.org/2000/svg"
 width="460.000000pt" height="460.000000pt" viewBox="0 0 460.000000 460.000000"
 preserveAspectRatio="xMidYMid meet">
<metadata>
Created by potrace 1.14, written by Peter Selinger 2001-2017
</metadata>
<g transform="translate(0.000000,460.000000) scale(0.100000,-0.100000)"
fill="#000000" stroke="none">
<path d="M0 2300 l0 -2300 2300 0 2300 0 0 2300 0 2300 -2300 0 -2300 0 0
-2300z m2516 1100 c7 -19 44 -123 82 -230 64 -180 285 -799 389 -1090 124
-347 152 -434 143 -445 -5 -7 -7 -14 -5 -17 3 -3 -6 -4 -20 -3 -14 2 -27 -1
-31 -6 -3 -5 -9 -7 -14 -4 -4 3 -11 -2 -14 -11 -3 -8 -14 -14 -23 -13 -41 4
-53 -1 -53 -23 0 -12 -3 -18 -7 -15 -3 4 -12 -1 -20 -11 -12 -16 -13 -16 -7 2
6 17 5 17 -17 6 -13 -7 -29 -19 -36 -26 -7 -7 -23 -10 -35 -7 -17 3 -19 2 -9
-5 11 -8 9 -11 -9 -17 -12 -4 -27 -2 -33 4 -8 8 -165 11 -528 11 l-516 0 -83
-238 c-46 -130 -97 -273 -114 -317 -16 -44 -29 -84 -27 -90 1 -5 -6 -1 -17 9
-20 17 -21 17 -32 -3 -6 -12 -15 -19 -20 -16 -5 3 -24 -4 -41 -17 -28 -21 -43
-23 -175 -26 -83 -2 -144 0 -144 6 0 5 15 51 34 103 46 125 464 1294 531 1484
40 114 343 959 370 1033 3 10 56 12 236 10 l231 -3 14 -35z"/>
<path d="M2246 2918 c-34 -94 -376 -1078 -376 -1084 0 -2 180 -4 400 -4 220 0
400 4 400 8 0 5 -74 222 -165 483 -91 261 -178 510 -193 553 -15 44 -33 81
-39 83 -6 2 -18 -15 -27 -39z"/>
</g>
</svg>
