<?xml version="1.0" standalone="no"?>
<!DOCTYPE svg PUBLIC "-//W3C//DTD SVG 1.1//EN" "http://www.w3.org/Graphics/SVG/1.1/DTD/svg11.dtd" >
<svg>
<metadata>
Created by FontForge 20090914 at Fri Feb 19 12:04:25 2021
 By www-data
&#194;&#169; Copyright SoftMaker Software GmbH and its licensors
</metadata>
<defs>
<font id="L890RomanBold" horiz-adv-x="764" >
  <font-face 
    font-family="L890-Roman"
    font-weight="700"
    font-stretch="normal"
    units-per-em="1000"
    panose-1="0 0 7 0 0 0 0 0 0 0"
    ascent="800"
    descent="-200"
    x-height="452"
    cap-height="708.001"
    bbox="-202 -232 1008 928"
    underline-thickness="40"
    underline-position="-114"
    unicode-range="U+0020-U+2215"
  />
<missing-glyph horiz-adv-x="500" 
d="M31 0v928h438v-928h-438zM438 31v866h-376v-866h376z" />
    <glyph glyph-name=".notdef" horiz-adv-x="500" 
d="M31 0v928h438v-928h-438zM438 31v866h-376v-866h376z" />
    <glyph glyph-name="space" unicode=" " horiz-adv-x="241" 
 />
    <glyph glyph-name="exclam" unicode="!" horiz-adv-x="222" 
d="M33 682c0 6 4.33105 11.001 12.998 15.001l9 1c38.667 0 80.667 9 126 27c9.33301 0 16 -5 20 -15l-15 -55c0 -40.667 -3.83301 -101.834 -11.5 -183.501l-23.5 -248.5c-2 -20 -9.33301 -30 -22 -30c-9.33301 0 -15.333 4.33301 -18 13l-23 273l-4 80
c0 16 -1.16699 30.667 -3.5 44s-5.16602 24 -8.49902 32s-10.666 15.833 -21.999 23.5s-17 15.5 -17 23.5zM109.998 132.001c5.33301 3.33301 12.002 5.00098 20.002 5.00098c3.33301 0 10 -3 20 -9c2 -4.66699 11.667 -15.334 29 -32.001
c13.333 -13.333 20.666 -24.333 21.999 -33l-1 -7l-1 -6l-50 -51c-8 -6 -15 -9 -21 -9c-8 0 -15.333 3.66699 -22 11l-19 20l-20 18c-6.66699 5.33301 -10.334 13 -11.001 23l1 4z" />
    <glyph glyph-name="quotedbl" unicode="&#x22;" horiz-adv-x="370" 
d="M76 715c20 0 39 -15.999 57 -47.999c16 -28 24 -53.667 24 -77c0 -26 -10 -59 -30 -99c-22.667 -44.667 -45.667 -67 -69 -67c-4.66699 0 -10 4 -16 12l-1 4l6.5 13c2.33301 4.66699 7.5 12.667 15.5 24c14.667 23.333 22 44.666 22 63.999
c0 24.667 -12.667 43.667 -38 57c-24.667 14.667 -37 25.667 -37 33c0 4 8.66699 18.5 26 43.5s28.333 38.5 33 40.5h7zM222 643.001l25.999 40c12 18 20.667 28.333 26 31l10 1c18 0 36 -13.833 54 -41.5s27 -51.167 27 -70.5c0 -68 -21.333 -121 -64 -159
c-3.33301 -3.33301 -7.83301 -7 -13.5 -11s-10.167 -7 -13.5 -9l-7 -1c-12 3.33301 -18 10 -18 20l22 35c6.66699 9.33301 12 19.333 16 30s6 21 6 31c0 20 -6.33301 36 -19 48l-36 22c-11.333 8 -17.666 17 -18.999 27z" />
    <glyph glyph-name="numbersign" unicode="#" horiz-adv-x="504" 
d="M105 206h-97v67h107l26 193h-107v68h117l29 206h69l-29 -206h124l29 206h69l-29 -206h83v-67h-93l-27 -194h92v-67h-101l-29 -206h-69l29 206h-124l-29 -206h-69zM211 467l-27 -194h123l27 194h-123z" />
    <glyph glyph-name="dollar" unicode="$" horiz-adv-x="442" 
d="M233 -106c-7.33301 -2 -18.9961 -3.00391 -34.9961 -3.00391c-6 0 -10 1 -12 3l-5 8l2 22v25l-1 25l-1 12l-2 2c-20.667 4 -53.334 13 -98.001 27l-31 10c-5.33301 0 -16.666 -3 -33.999 -9l-6 -1c-11.333 6 -17.333 13.667 -18 23l8 76l9 72
c3.33301 6.66699 10 10.334 20 11.001c9.33301 0 15.333 -5.66699 18 -17c10 -38.667 18.333 -64 25 -76c10.667 -18.667 31 -36 61 -52c14 -8 28.333 -12 43 -12c4 0 6.33301 4.66699 7 14v190v54c0 21.333 -0.666992 34 -2 38l-2 3l-2 2l-58 25c-36 18 -63 39 -81 63
c-16.667 25.333 -25 57.333 -25 96s11 75.5 33 110.5s51.667 58.5 89 70.5l41 10l3 5l-1 61l1 5l4 6c8 3.33301 19.333 5 34 5l12 -1l5 -6l-1 -40c0 -18.667 0.666992 -29.667 2 -33l7 -5h4c8.66699 0 21.667 -3 39 -9s30.333 -9 39 -9l19 6c8 4 14.333 6 19 6
c4 0 8.33301 -2.66699 13 -8l1 -4l1 -4l-4 -73c0 -18.667 -0.666992 -33.667 -2 -45s-3 -20.166 -5 -26.499s-8 -9.83301 -18 -10.5l-11 4c-4.66699 2.66699 -9.33398 12.334 -14.001 29.001c-4 18 -10 33 -18 45c-12.667 18.667 -33.334 35.334 -62.001 50.001
c-2.66699 0 -5.33398 -1 -8.00098 -3v-222l6 -8c10 -2.66699 22.5 -6.83398 37.5 -12.501s31.833 -13.167 50.5 -22.5c33.333 -23.333 57.666 -49.333 72.999 -78s23 -63.667 23 -105c0 -53.333 -16.833 -100.166 -50.5 -140.499s-77.5 -66.5 -131.5 -78.5l-5 -7v-51
c0 -24 -1.66699 -38 -5 -42zM176.004 453.996l3 1l2 3v202l-10 4l-25 -8c-42 -18 -63 -51.667 -63 -101c0 -38.667 24.333 -70 73 -94zM234.004 103.996c0 -29.333 1.33301 -48.333 4 -57l5 -3c5.33301 0 14.333 3.66699 27 11c53.333 27.333 80 70 80 128
s-26.333 99 -79 123l-32 13l-3 -5v-123l-1 -43z" />
    <glyph glyph-name="percent" unicode="%" horiz-adv-x="724" 
d="M122 711c45.333 0 81.666 -26.999 108.999 -80.999c20.667 -44.667 31 -92.667 31 -144c0 -52.667 -10.333 -101 -31 -145c-26 -55.333 -62.333 -83 -109 -83c-45.333 0 -81.666 27 -108.999 81c-21.333 44 -32 91.667 -32 143c0 53.333 10.667 101.666 32 144.999
c26 56 62.333 84 109 84zM122 300.001c46.667 0 70 65.333 70 196c0 38 -4 72.667 -12 104c-12 45.333 -31.667 68 -59 68c-45.333 0 -68 -61 -68 -183c0 -123.333 23 -185 69 -185zM469 705.001l8.99902 1.00098h27l3 -2l2 -7c-3.33301 -14 -6.66602 -25.333 -9.99902 -34
l-12 -26l-28 -58l-120 -279l-82 -200c-8.66699 -24 -23 -55 -43 -93c-2 -4 -10 -6 -24 -6l-18 1l-3 2l-1 4c0 8 35.333 93.667 106 257l128 292l30 78c14 35.333 26 58.666 36 69.999zM557.999 449.002c46.667 0 83 -27 109 -81c20 -42 30 -90 30 -144
c0 -54.667 -10.333 -103 -31 -145c-26 -54.667 -63 -82 -111 -82c-46 0 -82 27.667 -108 83c-20.667 45.333 -31 93.333 -31 144c0 52 10.667 99.667 32 143c27.333 54.667 64 82 110 82zM553.999 38.002c47.333 0 71 62.666 71 187.999c0 120 -23 180 -69 180
c-44.667 0 -67 -63.333 -67 -190c0 -37.333 4 -72.666 12 -105.999c11.333 -48 29 -72 53 -72z" />
    <glyph glyph-name="ampersand" unicode="&#x26;" horiz-adv-x="905" 
d="M553 390l18.999 -8.99707c25.333 -10 46.5 -27.5 63.5 -52.5s25.5 -50.833 25.5 -77.5c0 -82 -39.667 -148.333 -119 -199c-68.667 -43.333 -146.667 -65 -234 -65c-78 0 -146.667 18 -206 54c-68.667 42.667 -103 100.667 -103 174c0 96.667 51.667 166.334 155 209.001
l34 13l29 7l-2 3l-31 20c-24.667 16 -42 30.333 -52 43c-12 16 -18 37.333 -18 64c0 46.667 18 82.667 54 108c30.667 21.333 70.334 32 119.001 32l44 -4l44 -4c5.33301 0 12.333 2.33301 21 7l18 9l14 -6l20.5 -44l30.5 -63l10 -23c0 -10 -6.33301 -15 -19 -15
c-7.33301 0 -19 8 -35 24c-19.333 20.667 -35 35.334 -47 44.001c-23.333 16 -49 24 -77 24c-30 0 -54.333 -8.33301 -73 -25s-28 -40 -28 -70c0 -38 12.667 -65.333 38 -82c14 -10 37 -17.667 69 -23s50.333 -12.333 55 -21v-7c0 -8 -5 -14 -15 -18
c-3.33301 -1.33301 -17 -3 -41 -5c-23.333 0 -39 -1.33301 -47 -4c-110 -29.333 -165 -91 -165 -185c0 -52 22.333 -97 67 -135c42.667 -34.667 90.667 -52 144 -52c114.667 0 196.667 39.667 246 119c18.667 30 28 59.667 28 89c0 33.333 -8.66699 61.666 -26 84.999
c-19.333 25.333 -45.333 38 -78 38c-23.333 0 -45.333 -9.33301 -66 -28s-31 -39.334 -31 -62.001c0 -24.667 10.333 -37 31 -37c3.33301 0 8.33301 3 15 9s12.667 9 18 9c16.667 0 25 -11.667 25 -35c0 -18 -7.5 -34 -22.5 -48s-32.167 -21 -51.5 -21
c-25.333 0 -46 9 -62 27c-14.667 18.667 -22 41 -22 67c0 25.333 6.33301 47.666 19 66.999l43 55c40 23.333 74.5 39.666 103.5 48.999s67.167 16.333 114.5 21l130 13c60 12 90 35 90 69c0 18 -10 27 -30 27l-5 -1c-9.33301 -7.33301 -14.333 -16 -15 -26
c-5.33301 -4 -10 -6 -14 -6c-9.33301 0 -17.333 3.66699 -24 11c-5.33301 7.33301 -8.66602 16.333 -9.99902 27c0 20 8 36 24 48c5.33301 3.33301 10.666 6.33301 15.999 9c10.667 4.66699 22.667 7 36 7c27.333 0 50.333 -8.83301 69 -26.5s28 -40.834 28 -69.501
c0 -84.667 -60 -127 -180 -127l-130 -1c-20 0 -30.333 -1.33301 -31 -4z" />
    <glyph glyph-name="quotesingle" unicode="'" horiz-adv-x="166" 
d="M116 717c10 0 15.001 -6.00195 15.001 -18.002l-2 -10c-27.333 -35.333 -41 -64.666 -41 -87.999c0 -18.667 6.33301 -34 19 -46l37 -21c11.333 -6 17.666 -13 18.999 -21l-3 -15l-27 -41c-14 -19.333 -24 -29.666 -30 -30.999c-23.333 0 -44.333 15.667 -63 47
c-16 28 -24 54.667 -24 80c0 26 10.5 59.833 31.5 101.5s43.833 62.5 68.5 62.5z" />
    <glyph glyph-name="parenleft" unicode="(" horiz-adv-x="301" 
d="M267 799c11.333 -2 17 -8.66699 17 -20l-8 -13c-6.66699 -10.667 -15.667 -23.667 -27 -39c-63.333 -86.667 -95 -230.334 -95 -431.001c0 -63.333 7.5 -129.666 22.5 -198.999s37.5 -127 67.5 -173c14 -17.333 28 -37.333 42 -60c0 -8 -3.33301 -14.333 -10 -19l-9 -1
c-8 0 -22.667 11.667 -44 35c-60 66 -103.167 135.833 -129.5 209.5s-39.5 156.834 -39.5 249.501c0 72 9.33301 135.667 28 191s49.5 113.166 92.5 173.499s73.833 92.5 92.5 96.5z" />
    <glyph glyph-name="parenright" unicode=")" horiz-adv-x="301" 
d="M24 802c13.333 0 36.333 -21.334 69 -64.001c52 -66.667 89.333 -130.5 112 -191.5s34 -132.167 34 -213.5c0 -88 -11.5 -163.667 -34.5 -227s-62.833 -131.666 -119.5 -204.999c-26 -34 -47.667 -52 -65 -54c-8 6 -12 12.333 -12 19c2 7.33301 12.667 24 32 50
c66 94 99 227.333 99 400c0 188.667 -36.667 332.667 -110 432c-6 7.33301 -13 19.333 -21 36c2 12 7.33301 18 16 18z" />
    <glyph glyph-name="asterisk" unicode="*" horiz-adv-x="423" 
d="M43 622c8 0 28.002 -9.33398 60.002 -28.001s52.333 -32 61 -40l5 -1l4 4v5c0 16.667 -4.66699 39.5 -14 68.5s-14 51.167 -14 66.5c0 16.667 18 25 54 25c24 0 40 -5 48 -15l3 -11c0 -16 -5 -39 -15 -69c-9.33301 -31.333 -14 -54.333 -14 -69l2 -3
c6 -0.666992 26.333 10.666 61 33.999s58.334 35 71.001 35c8.66699 0 17.667 -10 27 -30c1.33301 -4 3.83301 -11 7.5 -21s5.5 -18.333 5.5 -25c0 -23.333 -34 -35 -102 -35l-25 -2l-26 -1l-3 -2c-0.666992 -4.66699 17 -21.5 53 -50.5s54 -49.5 54 -61.5
c0 -9.33301 -9.16699 -21.166 -27.5 -35.499s-32.833 -21.5 -43.5 -21.5c-14.667 0 -31 22.667 -49 68c-6.66699 20 -13.334 37.333 -20.001 52c-2 4.66699 -4.66699 10.334 -8 17.001l-36 -80c-16 -38 -32.333 -57 -49 -57c-8.66699 0 -21.834 7 -39.501 21
s-26.834 26 -27.501 36c0 10.667 18.167 30 54.5 58s55.166 44.333 56.499 49l-3 4c-11.333 3.33301 -36.666 5 -75.999 5c-51.333 0 -77 15 -77 45c0 11.333 4 25 12 41s18 24 30 24z" />
    <glyph glyph-name="plus" unicode="+" horiz-adv-x="644" 
d="M16 321h262v260h59v-260h261v-60h-261v-261h-59v261h-262v60z" />
    <glyph glyph-name="comma" unicode="," horiz-adv-x="181" 
d="M33 64c18.667 18.667 34.332 40.332 46.999 64.999c4 2 9.66699 3.66699 17 5c20 0 39.333 -15.667 58 -47c15.333 -27.333 23 -52.666 23 -75.999c0 -49.333 -22 -97.666 -66 -144.999c-13.333 -14 -24.333 -21 -33 -21c-12 0 -18 6 -18 18l3 10
c27.333 35.333 41 64.333 41 87c0 19.333 -4.33301 33.666 -13 42.999c-4 4 -13.167 9.16699 -27.5 15.5s-25.166 13.5 -32.499 21.5l-2 11z" />
    <glyph glyph-name="hyphen" unicode="-" horiz-adv-x="301" 
d="M264 393l4 -2c5.33301 -6.66699 8 -27 8 -61c0 -12.667 -3 -22 -9 -28c-2.66699 -2.66699 -11.667 -7 -27 -13l-106 -37l-59 -25l-53 -20c-4 0 -7.33301 1.33301 -10 4c-4 6 -6 25.667 -6 59c0 14.667 6 24.667 18 30c149.333 62 229.333 93 240 93z" />
    <glyph glyph-name="period" unicode="." horiz-adv-x="181" 
d="M106 137c8.66699 0 22.998 -10 42.998 -30c18 -19.333 27.667 -34.333 29 -45l-3 -14c-3.33301 -5.33301 -14.333 -17 -33 -35c-17.333 -14 -29.666 -21.667 -36.999 -23c-6 0 -19.667 9.66699 -41 29c-19.333 20 -29.666 33.333 -30.999 40
c0 9.33301 9.66699 24.5 29 45.5s34 31.833 44 32.5z" />
    <glyph glyph-name="slash" unicode="/" horiz-adv-x="483" 
d="M2 1l-2.99805 1.99902l-2 9l270 482l62 117c33.333 62 54.333 93.667 63 95h57c3.33301 0 6.66602 -2 9.99902 -6v-4c0 -7.33301 -22.333 -49.666 -67 -126.999l-82 -140l-135 -243l-92 -168c-6.66699 -12.667 -20.334 -19 -41.001 -19z" />
    <glyph glyph-name="zero" unicode="0" horiz-adv-x="483" 
d="M230 717c76 0 134.999 -43.668 176.999 -131.001c33.333 -70.667 50 -148 50 -232c0 -83.333 -17 -160.666 -51 -231.999c-42 -89.333 -100.667 -134 -176 -134c-77.333 0 -137.666 42.667 -180.999 128c-34.667 69.333 -52 147 -52 233s17 164.667 51 236
c43.333 88 104 132 182 132zM229.999 39.999c81.333 0 122.001 108.667 122.001 326c0 199.333 -43 299 -129 299c-48.667 0 -83.334 -43.333 -104.001 -130c-12 -52 -18 -115.667 -18 -191c0 -74.667 6.66699 -135.667 20 -183c20 -80.667 56.333 -121 109 -121z" />
    <glyph glyph-name="one" unicode="1" horiz-adv-x="483" 
d="M276 719c5.33301 -2 8.66699 -3.66797 10 -5.00098l4 -6l1 -4c0 -10.667 -2.33301 -27.667 -7 -51c-1.33301 -9.33301 -2.66602 -22.666 -3.99902 -39.999s-2 -36 -2 -56l-2 -408c0 -29.333 4 -52 12 -68c10 -17.333 30 -28.666 60 -33.999l33 -6
c12 -2 18 -8.66699 18 -20c0 -13.333 -7.33301 -20 -22 -20c-6.66699 0 -15.334 0.333008 -26.001 1s-23 2 -37 4l-62 5c-8 0 -18.667 -0.333008 -32 -1s-28.666 -2 -45.999 -4l-77 -5c-14.667 0 -22 7.66699 -22 23c0 3.33301 1.66699 6 5 8c4 4.66699 15.167 9 33.5 13
s31.166 8.33301 38.499 13c12 7.33301 19.667 21.333 23 42c3.33301 33.333 5 75 5 125l-2 129l-1 128l1 24l1 24c0 48.667 -10.667 73 -32 73c-20 0 -38.333 -5.33301 -55 -16c-8.66699 0 -16 3 -22 9l-2 15c0 9.33301 14.333 19 43 29c56 16 98 35 126 57
c18.667 13.333 31.667 20.666 39 21.999z" />
    <glyph glyph-name="two" unicode="2" horiz-adv-x="483" 
d="M-3 21c0 30 6.33301 59.833 19 89.5s33 61.167 61 94.5l147 162c53.333 63.333 80 122.333 80 177c0 38 -10.833 68.167 -32.5 90.5s-51.5 33.5 -89.5 33.5c-33.333 0 -61.666 -11.333 -84.999 -34c-10 -10 -24.333 -31 -43 -63
c-12.667 -21.333 -23.667 -32.666 -33 -33.999c-11.333 0 -17 7.33301 -17 22l9 42c9.33301 37.333 14 64.666 14 81.999v10c0 16.667 5.33301 25.334 16 26.001l24 -6l26 -5c13.333 0 34.833 2 64.5 6s51.5 6 65.5 6c54 0 98.5 -15.167 133.5 -45.5s52.5 -72.5 52.5 -126.5
c0 -56.667 -26.667 -113.667 -80 -171l-149 -138c-53.333 -50 -80 -94.667 -80 -134l2 -6l3 -3l26 -4c61.333 0 111.666 2.33301 150.999 7s67.333 12 84 22l35 29c16.667 14 27.667 21.667 33 23c13.333 0 20 -7 20 -21l-34 -56l-40 -67l-9 -21
c-2.66699 -6.66699 -8 -10.334 -16 -11.001c-6.66699 0 -15.5 0.333008 -26.5 1s-24.167 2 -39.5 4c-28 4 -49.333 6 -64 6h-91c-44.667 0 -77 -4.33301 -97 -13c-9.33301 -4 -18.333 -6.66699 -27 -8l-4 1c-6 6 -9 17 -9 33z" />
    <glyph glyph-name="three" unicode="3" horiz-adv-x="483" 
d="M19 183c9.33301 0 19.002 -12.666 29.002 -37.999c10.667 -32.667 21.667 -56.334 33 -71.001c20 -25.333 50.667 -38 92 -38c47.333 0 85.333 21.333 114 64c25.333 37.333 38 80.666 38 129.999c0 75.333 -37 120.666 -111 135.999l-52 5
c-13.333 3.33301 -20 11.666 -20 24.999c0 6 3.66699 11 11 15l45 19c60.667 32.667 91 80.667 91 144c0 30.667 -11 54.667 -33 72c-20.667 14.667 -47 22 -79 22c-33.333 0 -61 -11.333 -83 -34c-10 -10 -22 -31 -36 -63c-10 -22 -20.333 -33.333 -31 -34
c-2 0.666992 -3.83301 1.33398 -5.5 2.00098s-4 2.33398 -7 5.00098s-5.16699 6.33398 -6.5 11.001c0 7.33301 2 17 6 29l9 30l5 47c0 21.333 1 37 3 47c4 7.33301 10.333 11 19 11c4 0 10.333 -2.16699 19 -6.5s16.667 -6.5 24 -6.5c11.333 0 30 2 56 6l56 7
c50 0 92.333 -11.333 127 -34c39.333 -26 59 -63.333 59 -112c0 -36 -11.333 -67.333 -34 -94s-52.334 -47 -89.001 -61l-5 -7l3 -4c54.667 -13.333 94.667 -31.666 120 -54.999c31.333 -28 47 -67.667 47 -119c0 -70 -25.667 -128.667 -77 -176s-112 -71 -182 -71
c-10.667 0 -25.5 2.16699 -44.5 6.5s-33.5 6.5 -43.5 6.5c-6 0 -15 -2 -27 -6l-28 -7c-13.333 0 -20 11.333 -20 34l1 17l1 17c0 9.33301 -0.333008 16.666 -1 21.999s-3.33398 18.5 -8.00098 39.5s-7 36.833 -7 47.5c0 13.333 7.33301 20 22 20z" />
    <glyph glyph-name="four" unicode="4" horiz-adv-x="483" 
d="M329 725c20 0 29.998 -9.66797 29.998 -29.001l-4 -51l-4 -51v-258c0 -37.333 4.33301 -59 13 -65l9 -1c10.667 0 22.167 9.5 34.5 28.5s23.833 29.5 34.5 31.5c10 -2.66699 15.333 -9 16 -19c0 -8.66699 -10.333 -42 -31 -100c-2 -4.66699 -4.16699 -8.5 -6.5 -11.5
s-6.83301 -4.5 -13.5 -4.5l-12 1l-11 1c-15.333 0 -24.666 -1.66699 -27.999 -5c-3.33301 -2 -5 -11 -5 -27l1 -16v-17c0 -23.333 1.5 -42 4.5 -56s12.833 -24 29.5 -30c4.66699 -1.33301 9.33398 -2.33301 14.001 -3s11.167 -2.66699 19.5 -6s12.5 -10.666 12.5 -21.999
c0 -10.667 -7.66699 -16 -23 -16c-5.33301 0 -12.666 0.333008 -21.999 1s-20 2 -32 4l-53 5c-7.33301 0 -16.833 -0.333008 -28.5 -1s-25.167 -2 -40.5 -4l-69 -4c-12 0 -18 6.66699 -18 20l3 11c5.33301 5.33301 13.666 9 24.999 11c44 6 71 16 81 30
c7.33301 10.667 11 39.667 11 87v13c0 4.66699 -0.833008 10.167 -2.5 16.5s-8.16699 9.5 -19.5 9.5l-19 -1l-20 -1h-72l-73 -1c-40.667 0 -61 15.667 -61 47c0 30 39.667 102.667 119 218l160 221c21.333 29.333 38.333 44 51 44zM73.998 268.999l61 4.00098l63 -2l63 -1
l4 3l1 4v206v38l-1 37l-69 -91c-23.333 -38.667 -66.333 -102.334 -129 -191.001c2.66699 -4.66699 5 -7 7 -7z" />
    <glyph glyph-name="five" unicode="5" horiz-adv-x="483" 
d="M23 173c10 0 20.3369 -11.334 31.0039 -34.001c14.667 -31.333 27 -53 37 -65c19.333 -22.667 44.666 -34 75.999 -34c56 0 100.667 19 134 57c30 35.333 45 82 45 140c0 48 -14.667 86.333 -44 115c-14 14 -30.5 24.667 -49.5 32s-40.833 11 -65.5 11
c-20.667 0 -46 -7.33301 -76 -22l-47 -21c-1.33301 0.666992 -2.83301 1.33398 -4.5 2.00098s-3.83398 2.33398 -6.50098 5.00098l-5 13l8 27c12 34 18 89.333 18 166l-2 68l-2 67c0 10 6.66699 15 20 15l31 -4l29 -5l115 -4c57.333 0 98.666 6.33301 123.999 19
c12 6 22 9.66699 30 11l10 -3l6 -10l-29 -66c-8 -17.333 -16.167 -29.166 -24.5 -35.499s-21.833 -9.5 -40.5 -9.5l-138 3l-57 2l-5 -1l-3 -2c-6.66699 -22 -10 -64.667 -10 -128l2 -7l4 -3h5l34 3l35 4c72.667 0 130.167 -19.667 172.5 -59s63.5 -95.333 63.5 -168
c0 -73.333 -25 -135.333 -75 -186s-112.667 -76 -188 -76c-10.667 0 -27.334 2 -50.001 6s-39.667 6 -51 6c-4 0 -11.667 -2 -23 -6l-20 -7c-6 0 -12.333 3.33301 -19 10l-1 9l1 16l2 17c0 13.333 -2.33301 30.666 -7 51.999c-4 23.333 -6 40.666 -6 51.999
c0 18 5.33301 27.333 16 28z" />
    <glyph glyph-name="six" unicode="6" horiz-adv-x="483" 
d="M293 719l29.9971 -2.99902l31 -3c4.66699 0 9.33398 0.666992 14.001 2s11.334 4 20.001 8c10 2 19 -9.66699 27 -35l13 -51l11 -24l8 -23l-1 -6c-3.33301 -5.33301 -9.33301 -9 -18 -11c-10 2 -21 11 -33 27c-14.667 22 -26.334 36 -35.001 42
c-18.667 14.667 -42 22 -70 22c-81.333 0 -139 -74.333 -173 -223l-5 -26c0 -6.66699 1.33301 -10.334 4 -11.001l27 25c26.667 22.667 61 34 103 34c60.667 0 111.834 -22.833 153.501 -68.5s62.5 -99.5 62.5 -161.5c0 -32 -5 -62 -15 -90s-25.667 -54.333 -47 -79
c-43.333 -50 -96.666 -75 -159.999 -75c-78 0 -138.333 33.667 -181 101c-36.667 57.333 -55 127 -55 209c0 101.333 22.667 192.333 68 273c54 98 127.667 147 221 147zM235.997 42.001c47.333 0 82.333 23.6689 105 71.002c18 36 27 80.333 27 133
c0 43.333 -12 80.666 -36 111.999c-26 33.333 -60.333 50 -103 50c-38 0 -68.333 -21.667 -91 -65c-18 -35.333 -27 -74.333 -27 -117c0 -44.667 9.66699 -84.334 29 -119.001c23.333 -43.333 55.333 -65 96 -65z" />
    <glyph glyph-name="seven" unicode="7" horiz-adv-x="483" 
d="M62 726c8 0 19.6699 -3.33398 35.0029 -10.001c22 -10 51.333 -15 88 -15l124 3l123 4c14.667 0 22 -13.667 22 -41c0 -28 -13.667 -69.667 -41 -125l-104 -204c-40 -86 -60 -158 -60 -216c0 -28.667 7.66699 -51.667 23 -69c14 -17.333 21.667 -29.666 23 -36.999
c-2 -7.33301 -8.33301 -12.333 -19 -15c-16.667 1.33301 -29.834 2.5 -39.501 3.5s-15.834 2.16699 -18.501 3.5l-32 -4l-29 -4c-11.333 0 -17 10.667 -17 32c0 66 19 139.667 57 221l106 187c38 65.333 57 114.666 57 147.999c0 16 -26.667 24 -80 24l-51 1h-52
c-44.667 0 -75.334 -10.333 -92.001 -31l-26 -40c-12 -17.333 -24 -26 -36 -26c-4 0 -8.16699 2.16699 -12.5 6.5s-6.5 8.5 -6.5 12.5l8 29c8 27.333 16 62.333 24 105c0 7.33301 0.333008 13.333 1 18s2.66699 13 6 25c4 8.66699 10.333 13.334 19 14.001z" />
    <glyph glyph-name="eight" unicode="8" horiz-adv-x="483" 
d="M118 378c-0.666992 3.33301 -7.66699 10.334 -21 21.001c-46 39.333 -69 84 -69 134c0 53.333 19.667 97.333 59 132c20 17.333 41.333 30.333 64 39s48 13 76 13c54.667 0 100.667 -13.667 138 -41c41.333 -30 62 -71.667 62 -125c0 -49.333 -20 -91 -60 -125
c-12 -10 -22.333 -18 -31 -24c-2.66699 -2 -6 -4.33301 -10 -7l37 -26l29 -23c41.333 -37.333 62 -87 62 -149c0 -62.667 -24.333 -113.334 -73 -152.001c-44 -36 -98.667 -54 -164 -54c-59.333 0 -111 18.667 -155 56s-66 85.333 -66 144c0 54 22.667 103.333 68 148
c13.333 7.33301 31.333 20.333 54 39zM261 426.001c4.66699 0 12.999 3.66602 24.999 10.999c42 26.667 63 62.334 63 107.001c0 33.333 -12.167 61.833 -36.5 85.5s-53.833 35.5 -88.5 35.5c-31.333 0 -58.166 -9.83301 -80.499 -29.5s-33.5 -45.5 -33.5 -77.5
c0 -46 31 -83 93 -111c30 -14 49.333 -21 58 -21zM233.999 38c38 0 69.668 12.668 95.001 38.001s38 57.333 38 96c0 64 -54.667 119 -164 165l-30 10c-8 0 -20.333 -8.33301 -37 -25c-19.333 -15.333 -34.333 -33.333 -45 -54s-16 -43.334 -16 -68.001
c0 -44 15.167 -82 45.5 -114s68.166 -48 113.499 -48z" />
    <glyph glyph-name="nine" unicode="9" horiz-adv-x="483" 
d="M215 715c81.333 0 143.669 -34.667 187.002 -104c36 -58 54 -129.667 54 -215c0 -154 -42 -269 -126 -345c-48 -42.667 -96 -64 -144 -64l-33 1l-34 1c-5.33301 0 -11.5 -1.83301 -18.5 -5.5s-12.833 -5.5 -17.5 -5.5c-6 0 -11.667 3.66699 -17 11l-4 17
c-0.666992 8.66699 -3 19.167 -7 31.5s-7.66699 23.166 -11 32.499s-6.16602 18.833 -8.49902 28.5s-3.83301 17.5 -4.5 23.5c0 12 7.33301 18 22 18h4l3 -1c7.33301 -5.33301 16.666 -18.333 27.999 -39c4 -7.33301 9.16699 -15.666 15.5 -24.999
s11.166 -15.666 14.499 -18.999c15.333 -13.333 36.333 -20 63 -20c48.667 0 89.667 29.667 123 89c28 50 42 101.667 42 155c0 4 -1 7.66699 -3 11l-3 1l-15 -13c-32.667 -29.333 -71.334 -44 -116.001 -44c-62 0 -113.667 24.667 -155 74c-38 46 -57 101.333 -57 166
c0 61.333 21 116.666 63 165.999s93.667 74 155 74zM222.003 293c43.333 0 76.667 20 100 60c18 31.333 27 71 27 119c0 46.667 -9.66699 88 -29 124c-24 43.333 -57.333 65 -100 65c-42 0 -75 -22 -99 -66c-19.333 -35.333 -29 -76.333 -29 -123c0 -45.333 10 -85 30 -119
c24 -40 57.333 -60 100 -60z" />
    <glyph glyph-name="colon" unicode=":" horiz-adv-x="222" 
d="M152 435c6 0 19.167 -10.168 39.5 -30.501s30.5 -33.833 30.5 -40.5c0 -8 -9.66699 -22.333 -29 -43s-33.666 -31.667 -42.999 -33c-9.33301 0 -24 10 -44 30c-18 19.333 -27.667 34.333 -29 45c0 8.66699 10.167 22.834 30.5 42.501s35.166 29.5 44.499 29.5z
M151 138.999c9.33301 0 26.999 -15.001 52.999 -45.001l7 -7l6 -5c4 -5.33301 6 -11.333 6 -18c0 -7.33301 -10 -21.666 -30 -42.999c-19.333 -18 -33.666 -27.667 -42.999 -29c-8 0 -22.333 9.33301 -43 28c-18 18 -27.667 32 -29 42c0 10.667 9.5 26 28.5 46
s33.833 30.333 44.5 31z" />
    <glyph glyph-name="semicolon" unicode=";" horiz-adv-x="222" 
d="M150 430l13.999 -3l27 -28l22 -18c8 -6 12 -13.333 12 -22c0 -6 -9.16699 -19.333 -27.5 -40s-30.166 -32 -35.499 -34l-10 -2c-9.33301 1.33301 -15.333 3 -18 5l-31 34c-14 15.333 -21.667 27.333 -23 36c0 7.33301 9.83301 21 29.5 41s33.167 30.333 40.5 31z
M141.999 135c20.667 0 40.333 -15.334 59 -46.001c16 -27.333 24 -52.666 24 -75.999c0 -50.667 -22 -99 -66 -145c-14 -14 -25.333 -21.667 -34 -23l-13 5l-5 9v4l6.5 13c2.33301 4.66699 7.5 12.667 15.5 24c15.333 21.333 23 42.333 23 63
c0 25.333 -15.333 45.333 -46 60l-22 13c-4.66699 4.66699 -7 11 -7 19c0 5.33301 9.66699 20 29 44s31.333 36 36 36z" />
    <glyph glyph-name="less" unicode="&#x3c;" horiz-adv-x="551" 
d="M527 446l-425 -193l425 -193v-68l-508 230v62l508 230v-68z" />
    <glyph glyph-name="equal" unicode="=" horiz-adv-x="644" 
d="M-32 231h666v-57h-666v57zM-32 408h666v-59h-666v59z" />
    <glyph glyph-name="greater" unicode="&#x3e;" horiz-adv-x="551" 
d="M25 60l425 193l-425 193v68l508 -230v-62l-508 -230v68z" />
    <glyph glyph-name="question" unicode="?" horiz-adv-x="403" 
d="M101 729c5.33301 0 11.833 -3 19.5 -9s13.167 -9 16.5 -9c8.66699 0 21.667 2 39 6s30.333 6 39 6c48.667 0 87.667 -10.333 117 -31c34 -23.333 51 -58.333 51 -105c0 -40 -15.333 -80.333 -46 -121l-84 -102c-30.667 -40.667 -46 -80 -46 -118l2 -20l3 -17
c0 -11.333 -6.33301 -17 -19 -17c-20.667 0 -31 27.333 -31 82c0 38.667 19.833 90.334 59.5 155.001s59.5 114.667 59.5 150c0 60 -30 90 -90 90c-28.667 0 -50.667 -9.66699 -66 -29c-6 -6 -15.333 -23.667 -28 -53c-8 -20 -18 -30 -30 -30
c-2 0.666992 -3.66699 1.16699 -5 1.5s-4.33301 2.16602 -9 5.49902l-4 7v4l9 39l23 91c0 3.33301 3 10 9 20zM174 132c4.66699 2 7.66699 3.66797 9 5.00098l15 1c6 0 19 -11 39 -33c18 -20 27.667 -34 29 -42l-4 -13l-32 -35c-15.333 -16 -27.666 -24 -36.999 -24
c-8.66699 0 -22.834 9.5 -42.501 28.5s-29.5 32.833 -29.5 41.5c0 9.33301 7.33301 21.666 22 36.999z" />
    <glyph glyph-name="at" unicode="@" horiz-adv-x="1015" 
d="M529 500c-41.333 0 -78 -22.333 -110 -67c-27.333 -40.667 -41 -83.334 -41 -128.001c0 -27.333 7.5 -50.333 22.5 -69s35.5 -28 61.5 -28c40 0 76 24 108 72c27.333 42.667 41 85.334 41 128.001c0 22.667 -7.83301 43.667 -23.5 63s-35.167 29 -58.5 29zM662 556
l69.001 0.000976562l-73 -246c-12 -44 -18 -70.667 -18 -80c0 -19.333 7 -29 21 -29c39.333 0 74 27 104 81c25.333 46.667 38 91.667 38 135c0 77.333 -27.333 140.333 -82 189c-52 46 -117.667 69 -197 69c-87.333 0 -159.833 -31.333 -217.5 -94s-86.5 -138 -86.5 -226
s30 -162 90 -222s134 -90 222 -90c45.333 0 89.833 10 133.5 30s79.834 48 108.501 84h67c-32 -54 -76.333 -96.833 -133 -128.5s-116.334 -47.5 -179.001 -47.5c-53.333 0 -102.333 9 -147 27s-86 45.667 -124 83c-74 73.333 -111 163.333 -111 270
c0 102.667 37 191 111 265s162.667 111 266 111c92 0 171.667 -28.333 239 -85c70 -60 105 -135.667 105 -227c0 -67.333 -22.667 -131 -68 -191c-49.333 -65.333 -106.333 -98 -171 -98c-18.667 0 -34 5.66699 -46 17c-12 13.333 -18 28.666 -18 45.999
c-39.333 -42 -80 -63 -122 -63s-77 15.833 -105 47.5s-42 69.167 -42 112.5c0 35.333 5 68.333 15 99s25.667 60 47 88c44 59.333 100.333 89 169 89c51.333 0 89.666 -26 114.999 -78z" />
    <glyph glyph-name="A" unicode="A" 
d="M287 624c0 18.667 -6.33301 31.001 -19 37.001l-35 7c-12 2 -18 10 -18 24c0 7.33301 9 12.666 27 15.999l41 -4l42 -4l38 3l38 4c10.667 0 18 -4 22 -12l7 -34c10 -42 26 -93 48 -153l58 -149c8 -22.667 19.667 -54 35 -94l56 -140c22 -46 48.333 -72.333 79 -79l32 -7
c11.333 -2 17 -9.66699 17 -23c-4 -10.667 -12 -16 -24 -16l-64 4l-63 5c-6.66699 0 -15.334 -0.333008 -26.001 -1s-23 -2 -37 -4l-62 -4c-15.333 -0 -23 6.33301 -23 19c0 5.33301 1.33301 10.333 4 15l44 17c15.333 6 23 16.667 23 32c0 16 -16.333 67.667 -49 155
c-6 17.333 -13.167 28.166 -21.5 32.499s-22.833 6.5 -43.5 6.5h-129c-24.667 0 -41.5 -1.66699 -50.5 -5s-17.833 -13.666 -26.5 -30.999l-25 -60c-20.667 -52.667 -31 -86.334 -31 -101.001c0 -18.667 13.667 -31 41 -37c27.333 -4 41 -13.333 41 -28l-4 -8
c-5.33301 -3.33301 -11.333 -5.66602 -18 -6.99902l-51 4l-51 4l-61 -4l-62 -4c-14 -0 -21 7.33301 -21 22c0 4 3 8.66699 9 14l19 9l29 8c12.667 4 27.334 18.667 44.001 44c8.66699 14 23 43.333 43 88l79 181c66 154 99 240 99 258zM421 330.001
c8.66699 4 13.335 10.666 14.002 19.999c0 8.66699 -13.333 48.334 -40 119.001s-42.334 109 -47.001 115c-4.66699 -3.33301 -21.334 -41.5 -50.001 -114.5s-43.667 -114.833 -45 -125.5c0 -10 11 -15 33 -15l68 1h67z" />
    <glyph glyph-name="B" unicode="B" horiz-adv-x="604" 
d="M-10 705c2 2 5.33008 3.00195 9.99707 3.00195c11.333 0 19.333 -0.166992 24 -0.5s15 -1.83301 31 -4.5l57 -4c16.667 0 30 0.333008 40 1s31 2.66699 63 6l103 7c52.667 0 95.667 -11.667 129 -35c38 -27.333 57 -66 57 -116c0 -68 -42.333 -115.333 -127 -142l-3 -5
l70 -19c38.667 -12 69.334 -34.5 92.001 -67.5s34 -70.833 34 -113.5c0 -64 -23.333 -116 -70 -156c-22 -19.333 -46.667 -34.333 -74 -45s-57.333 -16 -90 -16l-52 -1c-17.333 0 -43.666 2 -78.999 6l-77 7c-5.33301 0 -12.666 -0.333008 -21.999 -1s-20 -2 -32 -4l-53 -5
l-5 1h-5c-8 3.33301 -12 11 -12 23c0 8 10 14.167 30 18.5s34.333 16.5 43 36.5c6 13.333 9 33.666 9 60.999l-1 212l-1 211c0 36 -3.5 60 -10.5 72s-27.5 22.333 -61.5 31c-16.667 4 -25 11.667 -25 23c0 0.666992 0.333008 2.16699 1 4.5s3 6.16602 7 11.499z
M175.997 250.002l5 -105c0 -20 2 -36.5 6 -49.5s9.66699 -23.167 17 -30.5c14.667 -13.333 41.667 -20 81 -20c56 0 99.667 15.667 131 47s47 75 47 131c0 58.667 -24.667 102.667 -74 132c-20 12 -42.5 20.833 -67.5 26.5s-53.833 8.5 -86.5 8.5
c-10.667 2.66699 -16.334 9.33398 -17.001 20.001c0 12.667 6 20.667 18 24h33c34.667 0 65.167 10.5 91.5 31.5s39.5 49.167 39.5 84.5c0 36.667 -12.5 64.667 -37.5 84s-55.833 29 -92.5 29c-41.333 0 -67.666 -8.66699 -78.999 -26c-4 -6 -7.16699 -15.833 -9.5 -29.5
s-3.5 -31.834 -3.5 -54.501l-2 -90v-213z" />
    <glyph glyph-name="C" unicode="C" horiz-adv-x="664" 
d="M357 717c15.333 0 39.832 -3.00098 73.499 -9.00098s59.167 -9 76.5 -9c11.333 0 21.833 3.83301 31.5 11.5s16.834 11.5 21.501 11.5c5.33301 0 9 -1.66699 11 -5c4 -3.33301 7.66699 -11.666 11 -24.999c3.33301 -22.667 8.66602 -45.834 15.999 -69.501
s18.666 -51.5 33.999 -83.5c0 -9.33301 -0.666992 -15.333 -2 -18c-4 -4 -10.333 -6 -19 -6c-3.33301 0 -16.666 13 -39.999 39c-26.667 31.333 -52.667 55.666 -78 72.999c-20 13.333 -40.333 23.333 -61 30s-43 10 -67 10c-86 0 -152 -31 -198 -93
c-42 -56 -63 -128.333 -63 -217c0 -84 22 -156 66 -216c49.333 -66 114.333 -99 195 -99c57.333 0 107 16 149 48c24 18.667 48.667 48 74 88c19.333 32 32.333 48 39 48c8 0 15 -5.33301 21 -16v-5c0 -18 -14 -46 -42 -84c-65.333 -88.667 -151 -133 -257 -133
c-101.333 0 -185.166 33.833 -251.499 101.5s-99.5 151.834 -99.5 252.501c0 106.667 33 195.834 99 267.501s152.667 107.5 260 107.5z" />
    <glyph glyph-name="D" unicode="D" horiz-adv-x="704" 
d="M-8 707c4.66699 0 11 -0.333008 19 -1s17 -2 27 -4l48 -4c24.667 0 53.834 1.83301 87.501 5.5s57.667 6.16699 72 7.5s28.166 2 41.499 2c112 0 202.333 -30.333 271 -91c72 -63.333 108 -150.333 108 -261s-33.333 -199.167 -100 -265.5s-156 -99.5 -268 -99.5
c-18 0 -44.833 2 -80.5 6s-62.5 6 -80.5 6l-64 -4l-64 -4c-16.667 -0 -25 6.33301 -25 19c0 10 8.33301 17 25 21c28.667 6.66699 47 23.667 55 51c1.33301 6.66699 2.33301 15.667 3 27s1 29 1 53l1 145l1 147c0 108.667 -8.33301 170.334 -25 185.001
c-6 5.33301 -19 10.166 -39 14.499s-32 12.5 -36 24.5c0 13.333 7.33301 20 22 20zM167 152c0 -30.667 1.66602 -51 4.99902 -61c6 -20.667 23 -34.667 51 -42c15.333 -3.33301 39.333 -5 72 -5c88 0 155.333 33.333 202 100c40 58 60 133.333 60 226
c0 88 -27.167 159.167 -81.5 213.5s-126.166 81.5 -215.499 81.5c-34.667 0 -58.667 -5 -72 -15c-14.667 -12.667 -22 -35 -22 -67l1 -34v-34v-363z" />
    <glyph glyph-name="E" unicode="E" horiz-adv-x="583" 
d="M-8 708l91.998 -4l92 -3h59h22h18h15h12c29.333 0 51 1.33301 65 4c6 0 12.667 1 20 3l18 5l34 7c9.33301 0 15.666 -4 18.999 -12l56 -152l-1 -5l-6 -8c-4 -2 -8.66699 -3 -14 -3c-6 0 -16.667 10 -32 30l-26 41c-22 27.333 -73.667 41 -155 41
c-51.333 0 -82 -5 -92 -15c-8.66699 -10 -13 -40.667 -13 -92v-30l-1 -30c0 -15.333 1.66699 -25.666 5 -30.999c6.66699 -10.667 33.334 -16 80.001 -16c40 0 68 2.16699 84 6.5s25.333 15.166 28 32.499c2 22 7 38 15 48l10 3c5.33301 0 9.83301 -2 13.5 -6
s5.83398 -11 6.50098 -21c0 -24.667 2 -50 6 -76s11 -58.667 21 -98l5 -29c0 -5.33301 -4.33301 -10.333 -13 -15c-13.333 0 -24 9.33301 -32 28l-17 43c-14 22 -45.333 33 -94 33h-64c-22 0 -36.167 -4.16699 -42.5 -12.5s-9.5 -24.166 -9.5 -47.499v-134
c0 -58 4.66699 -93 14 -105c12.667 -18.667 46.334 -28 101.001 -28c56.667 0 97.667 4.33301 123 13c36.667 12 68.667 37.667 96 77c10 14 18.667 21 26 21c3.33301 0 7.33301 -1.83301 12 -5.5s7.66699 -7.83398 9 -12.501l-8 -21.5
c-2.66699 -7 -10.667 -23.833 -24 -50.5c-20 -44.667 -31.667 -67.667 -35 -69c-8 -6 -17.667 -9.66699 -29 -11l-114 4l-109 4c-92 0 -158.667 -2.33301 -200 -7l-21 -2c-8 0 -15.667 4 -23 12l-1 9c0 7.33301 7.33301 14 22 20l33 9c20 12 30 49 30 111
c0 68 -0.5 136.833 -1.5 206.5s-1.83301 143.167 -2.5 220.5c0 34.667 -11 57.667 -33 69l-38 9c-18 4 -27.333 10.667 -28 20c0 14.667 5.66699 22 17 22z" />
    <glyph glyph-name="F" unicode="F" horiz-adv-x="523" 
d="M13 708l76.999 -4.00195l76 -3c30 0 61.833 0.333008 95.5 1s69.834 1.66699 108.501 3c6.66699 0 12 0.5 16 1.5s10.667 3.16699 20 6.5l37 7l3 -2l8 -7c2 -2 4.5 -11.333 7.5 -28s8.83301 -37 17.5 -61l23 -60l2 -9l-1 -5c-3.33301 -6 -9 -9 -17 -9
c-12 0 -21 5.33301 -27 16l-16 33c-14 28 -39.333 47 -76 57c-10.667 2.66699 -23.334 4.66699 -38.001 6s-34.334 2 -59.001 2c-35.333 0 -58.666 -3.33301 -69.999 -10c-16 -10 -24 -30.333 -24 -61l1 -44l1 -42c0 -34.667 3.66699 -54.667 11 -60
c4.66699 -4.66699 25.667 -7 63 -7h32c56 0 87 17.333 93 52l3 24c3.33301 9.33301 9.33301 14 18 14c3.33301 0 7.83301 -1.83301 13.5 -5.5s8.5 -19.5 8.5 -47.5c0 -11.333 1 -23.666 3 -36.999s5.66699 -30.666 11 -51.999c10 -38 15 -66.667 15 -86l-2 -6l-9 -8l-12 -1
h-6c-9.33301 10 -17.666 26.333 -24.999 49c-4.66699 17.333 -12.667 30 -24 38c-16 10 -46.333 15 -91 15l-22 1l-20 1c-39.333 0 -59 -13.333 -59 -40v-203c0 -40 10.667 -66.667 32 -80c7.33301 -4.66699 26.666 -9 57.999 -13c21.333 -2 32 -10.333 32 -25
c0 -12.667 -7.33301 -19 -22 -19c-11.333 0 -29.333 2 -54 6s-43 6 -55 6c-15.333 0 -40.166 -2 -74.499 -6s-60.166 -6 -77.499 -6c-14 0 -21 6.66699 -21 20c0 10 9.5 17.333 28.5 22s32.5 13.334 40.5 26.001c3.33301 5.33301 6.16602 12.5 8.49902 21.5
s3.5 19.167 3.5 30.5l2 77v143l-1 143l1 29v29c0 60 -10.333 97.333 -31 112c-6 4 -17 8 -33 12l-28 9c-2 1.33301 -3.66699 6.66602 -5 15.999c0 12 10 18 30 18z" />
    <glyph glyph-name="G" unicode="G" horiz-adv-x="745" 
d="M341 721c21.333 0 49.9971 -3.66797 85.9971 -11.001s62 -11 78 -11c12.667 0 25 3.66699 37 11l17 11h11l5 -2c7.33301 -10.667 16 -34 26 -70c5.33301 -21.333 9.83301 -38.166 13.5 -50.499s6.83398 -21.166 9.50098 -26.499l15 -37c0 -8 -4.66699 -14.333 -14 -19h-5
c-5.33301 0 -20 13.333 -44 40c-27.333 31.333 -54.333 55.666 -81 72.999c-22 13.333 -44.5 23.333 -67.5 30s-48.833 10 -77.5 10c-80.667 0 -143.667 -31.667 -189 -95c-40.667 -56.667 -61 -126.667 -61 -210c0 -85.333 23.333 -159.333 70 -222
c52.667 -68.667 120 -103 202 -103c64.667 0 116.667 18.667 156 56c23.333 22 35 59.333 35 112c0 70 -6.33301 109 -19 117l-46 13c-22 6 -33 14.333 -33 25c0 12 9.33301 18 28 18l56 -4l55 -4c28.667 0 48.834 0.333008 60.501 1s23.834 3 36.501 7
c13.333 0 20 -7 20 -21c0 -7.33301 -5.66699 -13.333 -17 -18l-26 -13c-10 -9.33301 -15 -36.666 -15 -81.999v-112c0 -32.667 7.66699 -58 23 -76l1 -3v-4c0 -10.667 -6.33301 -16 -19 -16c-3.33301 0.666992 -6.33301 1.5 -9 2.5s-7.66699 3.83301 -15 8.5
c-12 8 -24.333 12 -37 12s-48 -12.333 -106 -37c-52 -22 -98 -33 -138 -33c-106 0 -193.833 32.5 -263.5 97.5s-104.5 150.167 -104.5 255.5c0 99.333 32.333 186.666 97 261.999c68.667 78.667 151.667 118 249 118z" />
    <glyph glyph-name="H" unicode="H" horiz-adv-x="745" 
d="M506 402c14 0 21.002 6 21.002 18v141c0 60 -17.667 93.333 -53 100l-33 6c-11.333 2 -17 9 -17 21c0 6.66699 4.33301 12.334 13 17.001l4 1l59 -4l56 -4l67 4l66 5l14 -7c2 -4 3 -8.66699 3 -14l-2 -7c-3.33301 -4 -12.833 -8.33301 -28.5 -13
s-26.834 -11.667 -33.501 -21c-10 -14 -15 -38.667 -15 -74v-412c0 -50.667 6.66699 -84 20 -100c8 -8.66699 22 -14 42 -16c19.333 0 33.333 -6.33301 42 -19v-6c0 -12 -8.66699 -18 -26 -18l-61 3l-60 4l-60 -4l-59 -3c-10 0 -16 7 -18 21c0 7.33301 10 13.833 30 19.5
s34 15.167 42 28.5c5.33301 10.667 8 27.667 8 51v208c0 12 -11 18 -33 18h-298c-13.333 0 -22 -5 -26 -15l-2 -33c0 -119.333 0.666992 -186.333 2 -201c0 -20.667 9.33301 -35.667 28 -45l47 -12c15.333 -4 23.666 -11 24.999 -21c0 -12.667 -10 -19 -30 -19l-55 4l-55 4
l-64 -4l-64 -4c-10.667 0 -16 7 -16 21c0 7.33301 12.333 14.333 37 21c16 4 27.333 11.333 34 22s10 25.667 10 45l2 90v236l-2 123c0 42 -4 69 -12 81c-5.33301 8.66699 -14.333 15.5 -27 20.5s-29 7.5 -49 7.5c-10 5.33301 -15.667 11.666 -17 18.999c0 14 9 21 27 21
l51 -4l51 -3l64 3l64 4l18 -1l6 -4l4 -17c0 -8 -6.33301 -14 -19 -18l-28 -7c-20.667 -6 -31 -31 -31 -75v-154c0 -19.333 6.33301 -29 19 -29h318z" />
    <glyph glyph-name="I" unicode="I" horiz-adv-x="301" 
d="M-15 696c6 8 13.3301 12.001 21.9971 12.001c12.667 0 28.334 -1.66699 47.001 -5l46 -4h36l57 4l57 5c8 0 14.667 -2.66699 20 -8c2 -4 3 -8.66699 3 -14c0 -8 -11 -15 -33 -21c-32.667 -7.33301 -49 -39.666 -49 -96.999l2 -57l-2 -284
c0 -24.667 0.333008 -45.834 1 -63.501l2 -50.5c0 -28.667 10.333 -49 31 -61c2 -1.33301 8 -3 18 -5s21.667 -4 35 -6s20.333 -8.33301 21 -19c0 -14.667 -7 -22 -21 -22c-6 0 -14.167 0.333008 -24.5 1s-22.166 2 -35.499 4c-26 4 -46 6 -60 6s-35 -2 -63 -6l-61 -5
c-9.33301 0 -17 6 -23 18c0 9.33301 11 17.666 33 24.999s35.833 19 41.5 35s8.5 38.667 8.5 68l-1 340l1 32l1 31c0 67.333 -16.667 105 -50 113l-36 6c-15.333 4 -23.666 11 -24.999 21v4z" />
    <glyph glyph-name="J" unicode="J" horiz-adv-x="282" 
d="M-78 -48h6.00195l5 -4c6 -6.66699 11.667 -18.334 17 -35.001c3.33301 -17.333 7 -28.333 11 -33c8 -10 23 -15 45 -15c49.333 0 74 44 74 132c0 84.667 -0.333008 153.667 -1 207c-2.66699 214 -4 334 -4 360c0 10 -0.166992 20.833 -0.5 32.5
s-2.83301 22.167 -7.5 31.5c-8 20 -24.667 32 -50 36l-27 4c-8.66699 2.66699 -14.334 9.33398 -17.001 20.001c0.666992 2 1.5 4 2.5 6s3.5 5.66699 7.5 11l10 3c6 0 14 -0.333008 24 -1s21.667 -2 35 -4l59 -5c13.333 0 25.166 0.666992 35.499 2s18.833 2.33301 25.5 3
l61 5c15.333 0 23 -6.66699 23 -20c0 -12 -12.167 -21.167 -36.5 -27.5s-37.5 -17.833 -39.5 -34.5l-4 -73l1 -78l2 -79l1 -186l1 -186c0 -62 -12.5 -108.667 -37.5 -140s-68.167 -55 -129.5 -71c-10.667 -2.66699 -20 -4.66699 -28 -6s-16.333 -2 -25 -2
c-22 0 -36.333 8.66699 -43 26l-7 54c0 6 -1.66699 14 -5 24l-4 26c0 11.333 6.66699 17 20 17z" />
    <glyph glyph-name="K" unicode="K" horiz-adv-x="685" 
d="M-4 708c6.66699 0 14.8301 -0.329102 24.4971 -0.996094s20.834 -2 33.501 -4l57 -5c12.667 0 24 0.666992 34 2s18 2.33301 24 3l58 5c16.667 0 25 -6.66699 25 -20c0 -10 -8.5 -17.5 -25.5 -22.5s-27.167 -8.83301 -30.5 -11.5c-12.667 -8 -20 -23 -22 -45l-2 -102v-92
c0.666992 -4 4 -6.33301 10 -7l123 117c63.333 62 95 101 95 117c0 9.33301 -7 16.666 -21 21.999l-33 10l-5 8l-1 5c0 14 8.33301 21 25 21c4.66699 0 10.667 -0.333008 18 -1s16 -2 26 -4l46 -4l67 4l67 4c6 0 10.667 -1.66699 14 -5c6 -6 9 -11 9 -15
c0 -6.66699 -4.66699 -12.667 -14 -18l-22 -5c-34 -6 -69.667 -25.667 -107 -59l-136 -127l-28 -27c-10.667 -10 -23 -21 -37 -33l-1 -5l5 -3l12 2c54 0 101.667 -30.667 143 -92l91 -171c32 -61.333 63.667 -92 95 -92c12 0 23.667 3.66699 35 11l17 12l9 -2l3 -3l4 -11
c-2 -22 -14.667 -40.667 -38 -56c-20.667 -13.333 -42.667 -20 -66 -20c-45.333 0 -89 31 -131 93c-12 19.333 -39 70 -81 152l-46 88c-22.667 30.667 -49.667 46 -81 46c-30.667 0 -50.667 -15 -60 -45c-4 -14 -6 -41.667 -6 -83l-1 -33l-1 -33
c0 -75.333 14.667 -117 44 -125l36 -7c16 -4 24.333 -10.333 25 -19c0 -14.667 -8.66699 -22 -26 -22c-5.33301 0 -12.666 0.333008 -21.999 1s-20 2 -32 4c-23.333 4 -40.666 6 -51.999 6c-14.667 0 -37.667 -2 -69 -6l-68 -5c-10 0 -15 8.33301 -15 25
c0 3.33301 5 7.66602 15 12.999l22 6c31.333 11.333 47 46.666 47 105.999l-2 212l-1 211c0 27.333 -3 47.666 -9 60.999c-8 16 -25 26 -51 30s-39 11.667 -39 23c0 14 7.66699 21 23 21z" />
    <glyph glyph-name="L" unicode="L" horiz-adv-x="563" 
d="M0 707l61.999 -3.99902l61 -4l64 4l64 4c14.667 0 22 -7.33301 22 -22c0 -12 -15.333 -19.667 -46 -23s-46 -39 -46 -107l2 -381c0 -50.667 3 -81 9 -91c9.33301 -16 37.333 -24 84 -24h4c46 0 80 1.83301 102 5.5s40.5 8.66699 55.5 15s28.5 15.166 40.5 26.499l31 35
c12 15.333 22.333 25 31 29c15.333 0 23 -7 23 -21l-9 -18l-29 -65c-12.667 -32 -22.334 -51 -29.001 -57s-15.667 -9 -27 -9c-9.33301 0 -28.166 0.666992 -56.499 2s-47.833 2 -58.5 2l-115 5l-57 1h-31.5c-7.66699 0 -26.5 -1.33301 -56.5 -4l-74 -6
c-5.33301 0 -11.666 4 -18.999 12l-1 5c0 8.66699 7 16 21 22l32 11c20 12 30 44.333 30 97l-3 429c0 36 -7.66699 60.333 -23 73c-5.33301 4.66699 -18.5 8.66699 -39.5 12s-33.5 12 -37.5 26c0 13.333 6.66699 20 20 20z" />
    <glyph glyph-name="M" unicode="M" horiz-adv-x="865" 
d="M78 579c0 34.667 -7.66406 57.667 -22.9971 69c-4.66699 4 -17.834 8.33301 -39.501 13s-34.834 12.667 -39.501 24l1 7c4 8.66699 10.333 13.334 19 14.001l40 -4l42 -3l40 3l40 4c12 0 21 -5.66699 27 -17l10 -27l25 -61l93 -233c51.333 -130 81.333 -199.667 90 -209
l4 -3l4 2l22 51l38 90l107 274l32 84l11 29c5.33301 12.667 15 19 29 19l28 -3l27 -2l53 2l53 3c16 0 24 -6.66699 24 -20c-8 -12.667 -22 -20.667 -42 -24c-22 -2 -35.667 -5.66699 -41 -11c-12.667 -10.667 -19 -33 -19 -67c0 -37.333 2.33301 -79.666 7 -126.999
c0 -22.667 1.5 -45.834 4.5 -69.501s5.16699 -42.5 6.5 -56.5c0 -24 0.833008 -46.833 2.5 -68.5s3.5 -43.834 5.5 -66.501c0 -32 1.83301 -58 5.5 -78s8.16699 -34.333 13.5 -43c10.667 -17.333 29.667 -28.666 57 -33.999c22 -3.33301 33 -11 33 -23
c0 -11.333 -7.66699 -17 -23 -17l-59 4l-59 4l-60 -4l-60 -4c-14.667 0 -22 7.33301 -22 22c0 3.33301 5 9 15 17c44 0 66 23.667 66 71c0 5.33301 -1.16699 29.5 -3.5 72.5s-3.5 77.167 -3.5 102.5l-12 174l-3 59c0 14.667 -0.5 24.667 -1.5 30s-2.16699 9.33301 -3.5 12
l-2 -2c-4.66699 -5.33301 -8.33398 -11.333 -11.001 -18l-150 -380l-66 -153c-6.66699 -12.667 -16.667 -19 -30 -19c-8.66699 0 -17.334 9.33301 -26.001 28l-78 194l-112 271l-24 54l-4 2l-3 -4c-2 -11.333 -4.16699 -30.333 -6.5 -57s-3.5 -58.667 -3.5 -96
c0 -36 -1 -82.333 -3 -139s-3 -95.667 -3 -117c0 -32.667 8.66699 -55.334 26 -68.001c5.33301 -3.33301 22 -8 50 -14c17.333 -3.33301 26 -11 26 -23c0 -13.333 -7.66699 -20 -23 -20l-46 4l-46 4l-55 -4l-54 -4c-10 0 -17 6.66699 -21 20c2 10 12.167 17 30.5 21
s31.5 14 39.5 30c6.66699 16 12.5 50.5 17.5 103.5s7.5 99.833 7.5 140.5c0 48 0.833008 92 2.5 132s3.83398 84.333 6.50098 133z" />
    <glyph glyph-name="N" unicode="N" horiz-adv-x="724" 
d="M-37 706l56 -5.00293l31 2l31 3c7.33301 0 16.333 -6.33301 27 -19l270 -320l65 -80l57 -67c17.333 -19.333 31 -33.666 41 -42.999c4 -4 9 -8.66699 15 -14l2 4v204l1 57l1 57c0 54.667 -3.5 95.5 -10.5 122.5s-21.833 44.5 -44.5 52.5l-56 5c-18 0 -27 8 -27 24
c0 12 8.33301 18 25 18l42 -2l96 -3l44 3l43 3c13.333 0 21 -7 23 -21c-4 -8.66699 -9.33301 -14.334 -16 -17.001l-21 -6c-21.333 -6.66699 -34.666 -28.667 -39.999 -66l-1 -84l-1 -72l-1 -72l1 -175l1 -176c0 -12.667 -1.83301 -21 -5.5 -25s-12.167 -6 -25.5 -6
s-134 139 -362 417c-54.667 66.667 -86.334 102 -95.001 106l-3 -4l-3 -42l1 -311c0 -66 17.333 -102 52 -108l33 -7c11.333 -2 17 -11 17 -27c-4.66699 -7.33301 -12.667 -11.666 -24 -12.999l-18 2l-16 3l-76 4c-12.667 0 -21.5 -0.166992 -26.5 -0.5
s-16.5 -1.83301 -34.5 -4.5l-61 -4c-10 0 -15 7 -15 21c0 9.33301 14 16.333 42 21s46.667 17.334 56 38.001s14 94 14 220l1 61l1 60c0 98.667 -9.66699 165.334 -29 200.001c-9.33301 18 -26.833 30.333 -52.5 37s-40.5 14.667 -44.5 24v6c0 10 6.66699 16.333 20 19z" />
    <glyph glyph-name="O" unicode="O" 
d="M362 721c101.333 0 187.668 -35.833 259.001 -107.5s107 -158.167 107 -259.5c0 -103.333 -37 -190.5 -111 -261.5s-162.667 -106.5 -266 -106.5c-99.333 0 -183.833 35.5 -253.5 106.5s-104.5 156.167 -104.5 255.5c0 104.667 35.667 193 107 265
s158.666 108 261.999 108zM388.002 43c71.333 0 130.333 29.334 177 88.001c42.667 54.667 64 118 64 190c0 83.333 -27 160.666 -81 231.999c-58 76 -128.333 114 -211 114c-72 0 -131.333 -27.667 -178 -83c-44 -52 -66 -114.333 -66 -187c0 -88.667 26.667 -168 80 -238
c58 -77.333 129.667 -116 215 -116z" />
    <glyph glyph-name="P" unicode="P" horiz-adv-x="544" 
d="M-9 708l47 -3.99805l47 -4c26.667 0 57.167 1.83301 91.5 5.5s60 6.16699 77 7.5s32.5 2 46.5 2c66.667 0 120 -16.667 160 -50c44 -36 66 -86.667 66 -152c0 -62.667 -24.667 -112.334 -74 -149.001c-44.667 -32.667 -99.667 -49 -165 -49c-48.667 0 -73 9 -73 27
c0 12 10 18 30 18l28 -2c46 0 82 14 108 42s39 65.667 39 113c0 98.667 -51.333 148 -154 148c-36.667 0 -60 -4.16699 -70 -12.5s-15 -30.5 -15 -66.5l-1 -151l-2 -151c0 -119.333 4.83301 -187.333 14.5 -204s25.5 -27 47.5 -31c22 -2.66699 35.667 -7.33398 41 -14.001
l5 -8c0 -9.33301 -5.66699 -17 -17 -23h-13c-4.66699 -0 -11.167 0.333008 -19.5 1s-17.833 2 -28.5 4l-47 5c-6.66699 0 -15.5 -0.333008 -26.5 -1s-24.167 -2 -39.5 -4l-67 -5c-15.333 0 -25 6 -29 18c0.666992 9.33301 13 18 37 26c22.667 6 36 18.833 40 38.5
s6 46.5 6 80.5l-1 378c0 39.333 -2 65 -6 77c-7.33301 24 -26 39 -56 45c-3.33301 0 -7.33301 0.333008 -12 1s-11.167 2 -19.5 4s-12.5 9 -12.5 21c0 12.667 5.66699 19 17 19z" />
    <glyph glyph-name="Q" unicode="Q" 
d="M-7 366c0 100 38.332 185 114.999 255c74.667 66.667 162.334 100 263.001 100c96 0 179.5 -36.333 250.5 -109s106.5 -157 106.5 -253c0 -102.667 -35.833 -190.5 -107.5 -263.5s-159.167 -109.5 -262.5 -109.5c-108 0 -195.833 36.333 -263.5 109
s-101.5 163 -101.5 271zM389.999 43c74 0 133.669 31.002 179.002 93.002c38.667 56 58 122.667 58 200c0 82 -29 157 -87 225c-60.667 70.667 -131.334 106 -212.001 106c-72.667 0 -131.334 -30.333 -176.001 -91c-19.333 -26.667 -34 -56.334 -44 -89.001
s-15 -68.334 -15 -107.001c0 -83.333 28.333 -159.333 85 -228c59.333 -72.667 130 -109 212 -109zM153.001 22.002c30.667 0 71.667 -11.999 123 -35.999l137 -66c56 -24 107.333 -36 154 -36c64 0 106.333 21.667 127 65l11 28c5.33301 10 12.666 15.667 21.999 17
c12.667 0 19 -9.33301 19 -28c0 -48 -16.333 -88.167 -49 -120.5s-72.667 -48.5 -120 -48.5c-52.667 0 -110.334 14.667 -173.001 44c-21.333 9.33301 -69.666 36 -144.999 80c-50.667 29.333 -87.667 44 -111 44c-18 0 -37.667 -8 -59 -24l-10 -1
c-9.33301 0.666992 -14.666 6.66699 -15.999 18c0 15.333 11 30.666 33 45.999c20 12 39 18 57 18z" />
    <glyph glyph-name="R" unicode="R" horiz-adv-x="664" 
d="M-8 708l45.001 -4.00098l45 -3c21.333 0 53.333 3 96 9s74.667 9 96 9c63.333 0 115.666 -11 156.999 -33c51.333 -28 77 -71.667 77 -131c0 -88 -44 -143 -132 -165l-36 -10l-2 -5l23 -7c28.667 -8 53.334 -27.333 74.001 -58c10.667 -14 25.334 -43 44.001 -87
c52 -122.667 95.667 -184 131 -184c8 0 18.667 4.33301 32 13c10 0 15 -6 15 -18c0 -14 -9.83301 -25 -29.5 -33s-37.167 -12 -52.5 -12c-50 0 -92 25.333 -126 76c-14.667 22.667 -38.334 74.334 -71.001 155.001c-24.667 64 -48.334 104.667 -71.001 122
c-8.66699 6.66699 -26.5 12.5 -53.5 17.5s-41.833 11.833 -44.5 20.5v12c2.66699 8.66699 8 14 16 16l37 1c38.667 0 71.334 11.5 98.001 34.5s40 53.833 40 92.5c0 86 -48.333 129 -145 129c-34.667 0 -57 -4.66699 -67 -14s-15 -25.333 -15 -48v-24l1 -28l-2 -268l2 -149
c0 -38 7.66699 -63.667 23 -77c7.33301 -6 21.333 -10 42 -12s33.667 -8.66699 39 -20v-7c0 -12 -6.66699 -18 -20 -18c-5.33301 -0 -12.333 0.333008 -21 1s-19 2 -31 4c-22 4 -39.333 6 -52 6c-14.667 0 -37.667 -2 -69 -6l-69 -5c-16.667 -0 -25 6.33301 -25 19
c0 8 4.66699 14.333 14 19l25 6c31.333 10 47 49.333 47 118l-1 34l-1 34v114l-1 114l1 39v40c0 29.333 -1.66699 53.666 -5 72.999s-12.333 34 -27 44c-7.33301 3.33301 -19.833 6.33301 -37.5 9s-28.834 7.33398 -33.501 14.001l-4 13c0 12 8 18 24 18z" />
    <glyph glyph-name="S" unicode="S" horiz-adv-x="523" 
d="M18 225l11.999 2.00195c4.66699 0 14.334 -15.333 29.001 -46l26 -56c16 -26 39.5 -47 70.5 -63s62.167 -24 93.5 -24c42.667 0 78.5 12.167 107.5 36.5s43.5 58.166 43.5 101.499c0 50 -31.333 90 -94 120l-174 75c-30.667 18 -54 40.167 -70 66.5s-24 56.833 -24 91.5
c0 56.667 20.167 102.334 60.5 137.001s88.833 52 145.5 52c16 0 39.667 -3.33301 71 -10s53.333 -10 66 -10c6 0 13 4 21 12s15.333 12.667 22 14l5 -1l7 -6c1.33301 -2.66699 3 -13 5 -31c0 -18.667 1.83301 -39.167 5.5 -61.5s9.5 -49.833 17.5 -82.5l2 -13
c0 -7.33301 -5 -12 -15 -14h-10c-6 2 -11.667 8 -17 18l-21 45c-32.667 58.667 -81 88 -145 88c-38.667 0 -70.5 -9.83301 -95.5 -29.5s-37.5 -47.834 -37.5 -84.501c0 -47.333 31.333 -85 94 -113l173 -73c62.667 -38.667 94 -93.667 94 -165
c0 -64.667 -24 -116.667 -72 -156s-105 -59 -171 -59c-18 0 -43.667 4.33301 -77 13s-57 13 -71 13c-12 0 -23.333 -7.66699 -34 -23l-15 -2l-5 1c-3.33301 2.66699 -6 7 -8 13l-5 52v28c0 11.333 -0.666992 19.666 -2 24.999c0 10 -3.33301 27 -10 51l-7 50
c0 6.66699 3 12.667 9 18z" />
    <glyph glyph-name="T" unicode="T" horiz-adv-x="664" 
d="M621 542c-7.33301 0 -15.999 15.001 -25.999 45.001c-8 30 -21.667 46 -41 48c-14 0 -41 0.833008 -81 2.5s-69.333 2.5 -88 2.5h-5l-5 -1l-8 -4c-6 -10 -9 -48.333 -9 -115l1 -43v-43v-288c0 -60 15.667 -94 47 -102l29 -6c10 -2 15.333 -7.33301 16 -16
c0 -6.66699 -5 -13.667 -15 -21l-9 -1l-59 4l-59 5l-62 -4l-63 -5c-12.667 0 -19 5.66699 -19 17s7 19 21 23l41 11c16 8 26 24.667 30 50s6 59.333 6 102l-2 70l-1 70v126l-1 125c0 23.333 -4.66699 37.666 -14 42.999c-4 2 -20 3 -48 3l-45 -1l-45 -1
c-45.333 0 -71.333 -12.667 -78 -38l-8 -34c-4.66699 -14 -11.667 -21.667 -21 -23c-14 0 -21 6.66699 -21 20l8 75c0 17.333 2.33301 40.333 7 69c2 8.66699 7.33301 14.334 16 17.001l23 -8c27.333 -12 116.666 -18 267.999 -18l60 -1l60 -1c84 0 146 8.33301 186 25
l12 -3c6.66699 -4.66699 10 -13.334 10 -26.001c0 -8 1 -20.5 3 -37.5s4.66699 -36.167 8 -57.5l4 -40c0 -10 -7.66699 -15 -23 -15z" />
    <glyph glyph-name="U" unicode="U" 
d="M-28 706l4.99707 1.00195c5.33301 0 12.333 -0.333008 21 -1s19 -2 31 -4l53 -5c6.66699 0 15.834 0.333008 27.501 1s24.834 2 39.501 4c30 4 52.333 6 67 6c3.33301 0 7.33301 -1.83301 12 -5.5s7.66699 -7.83398 9 -12.501c0 -9.33301 -4.66699 -16 -14 -20l-26 -6
c-12 -2.66699 -21.833 -12 -29.5 -28s-11.5 -36.667 -11.5 -62c0 -32 -0.333008 -68.167 -1 -108.5l-2 -116.5c0 -101.333 12 -174 36 -218c33.333 -59.333 97.333 -89 192 -89c149.333 0 224 85 224 255l1 164c0 58 -2.33301 107.667 -7 149
c-2 22.667 -10.667 37.667 -26 45l-41 9c-15.333 2 -25.666 9 -30.999 21v5c4 12 11 18 21 18c11.333 0 28.833 -2 52.5 -6s41.5 -6 53.5 -6c4.66699 0 10.667 0.333008 18 1s16 2 26 4c20 4 35 6 45 6c13.333 0 22 -6.33301 26 -19c-2 -11.333 -9.33301 -19.333 -22 -24
l-33 -12c-12 -8 -18.833 -19.667 -20.5 -35s-2.66699 -27.333 -3 -36s-0.5 -21.334 -0.5 -38.001v-31l1 -141c0 -129.333 -18.667 -222 -56 -278c-46 -70 -131 -105 -255 -105c-108.667 0 -190.334 34.333 -245.001 103c-38 48 -57 134 -57 258l1 77l2 76v79
c0 33.333 -7.66699 56.333 -23 69c-6 5.33301 -20.333 10.333 -43 15c-15.333 2 -24.666 9 -27.999 21c0 5.33301 3.66699 12 11 20z" />
    <glyph glyph-name="V" unicode="V" horiz-adv-x="745" 
d="M-34 691c0 11.333 6.66797 16.998 20.001 16.998l65 -4l64 -4l53 4l52 4c8 0 14.667 -3.66699 20 -11l1 -11c0 -8 -11.333 -14.167 -34 -18.5s-34 -13.833 -34 -28.5c0 -8.66699 40.333 -105 121 -289l83 -189c5.33301 -12 9.66602 -18 12.999 -18l3 2l30 66
c105.333 250 158 392.333 158 427c0 14 -12.333 23.167 -37 27.5s-38 10.5 -40 18.5l1 15l10 9h9l54 -4l54 -4l43 4l45 4l11 -6l4 -10v-4c0 -5.33301 -2.33301 -10 -7 -14s-17.667 -9 -39 -15c-12 -3.33301 -25.5 -19.166 -40.5 -47.499s-32.167 -66.5 -51.5 -114.5
l-47 -117l-130 -316l-17 -47c-9.33301 -20 -21 -30 -35 -30c-10 0 -18.667 6.66699 -26 20l-14 32l-250 561c-12 26.667 -24.667 44.334 -38 53.001c-12 9.33301 -32.333 15.333 -61 18l-8 5l-5 9v6z" />
    <glyph glyph-name="W" unicode="W" horiz-adv-x="1026" 
d="M-50 692c4 10 13.002 14.9951 27.002 14.9951c9.33301 0 16.166 -0.166992 20.499 -0.5s13.833 -1.83301 28.5 -4.5l49 -4l58 4l58 5c10 0 15 -7 15 -21c0 -9.33301 -7 -16 -21 -20c-16 -3.33301 -26.333 -9 -31 -17l-1 -15c0 -25.333 52.667 -159.666 158 -402.999
l25 -58l11 -27l3 -2l3 -3c6.66699 3.33301 24.334 37.333 53.001 102c26 61.333 39.667 98 41 110c0 8.66699 -17.833 54.834 -53.5 138.501s-57.5 130.834 -65.5 141.501c-10.667 16 -27.667 26 -51 30s-35 12.333 -35 25c0 10.667 9.33301 17.334 28 20.001
c5.33301 0 12.166 -0.333008 20.499 -1s17.833 -2 28.5 -4l49 -5c4.66699 0 11 0.333008 19 1s17 2 27 4c20 4 35 6 45 6c16.667 0 25 -7 25 -21c0 -6.66699 -2.66699 -11.667 -8 -15c-23.333 -7.33301 -35 -20 -35 -38c0 -6 8.16699 -29.333 24.5 -70s27.5 -65 33.5 -73h6
l3 3l30 73c13.333 34 20 58.333 20 73c0 12 -4.66699 20.333 -14 25l-29 9c-2 2.66699 -3.33301 5.16699 -4 7.5s-1.33398 4.16602 -2.00098 5.49902c0 13.333 8.33301 20 25 20l36 -3l36 -3l40 3l41 3c6 0 11 -2 15 -6s6 -9.66699 6 -17c0 -6.66699 -10.833 -13 -32.5 -19
s-41.5 -26 -59.5 -60l-36 -86c-30 -72 -45 -109.667 -45 -113c0 -12 16 -53 48 -123l61 -139l3 -3l3 -1l8 11c6 10 12.167 21.5 18.5 34.5s12.833 27.5 19.5 43.5l33 79c83.333 186.667 125 294.667 125 324c0 18 -8.33301 29.333 -25 34l-47 7l-4 4l-4 15
c2 5.33301 5 10 9 14l16 1l40 -3l40 -2l53 2l52 3c8 0 14 -1 18 -3l6 -22c-4.66699 -4 -17 -9.66699 -37 -17c-14.667 -4 -26 -12 -34 -24c-18.667 -30 -40 -73.667 -64 -131l-56 -137l-109 -249c-10 -24.667 -28 -64 -54 -118c-6 -12 -15.333 -18 -28 -18
c-16 0 -42 46.833 -78 140.5s-57.667 141.5 -65 143.5c-6.66699 -2 -26.5 -47.167 -59.5 -135.5s-59.5 -138.166 -79.5 -149.499h-7c-11.333 0 -22 7 -32 21l-16 36l-177 429c-22 52 -43 98 -63 138c-11.333 23.333 -29.5 39.333 -54.5 48s-39.833 17.334 -44.5 26.001v6z
" />
    <glyph glyph-name="X" unicode="X" horiz-adv-x="685" 
d="M268 346l-2.00098 10.0059l-98 156c-47.333 71.333 -84.333 116.666 -111 135.999c-5.33301 4 -16.333 8.66699 -33 14c-6.66699 1.33301 -13 3 -19 5s-11 4 -15 6l-7 9l-1 3c0 14.667 6.66699 22 20 22c11.333 0 29 -2 53 -6l54 -5c6.66699 0 15.5 0.333008 26.5 1
s23.5 2 37.5 4l64 5c16 0 24 -6 24 -18c0 -10 -9.66699 -17.167 -29 -21.5s-29 -14.166 -29 -29.499c0 -10.667 19.667 -46.5 59 -107.5s62.666 -92.833 69.999 -95.5l4 2l75 101c36 50 54 83.667 54 101c0 13.333 -6.66699 22 -20 26c-18.667 4 -29.667 7.66699 -33 11
l-3 11c4 12 10.667 18.333 20 19l55 -4l54 -4l47 4l48 4h7c8 -3.33301 12 -10 12 -20c0 -4.66699 -1.66699 -9.66699 -5 -15l-41 -13c-26.667 -7.33301 -48 -20 -64 -38c-12 -13.333 -43.833 -54.5 -95.5 -123.5s-78.5 -107.833 -80.5 -116.5
c5.33301 -16 37.166 -67.333 95.499 -154s93.833 -136 106.5 -148c10 -8.66699 22.667 -16.667 38 -24c20 -6 40.667 -14.333 62 -25l3 -5v-6c0 -12 -6.66699 -18 -20 -18c-5.33301 0 -12.666 0.333008 -21.999 1s-19.333 2 -30 4l-51 5
c-6.66699 0 -15.667 -0.333008 -27 -1s-24.666 -2 -39.999 -4l-67 -4c-18.667 0 -28 7.33301 -28 22c0 4.66699 3 9.66699 9 15l33 7c12 4 18 12.333 18 25c0 13.333 -20 48.666 -60 105.999c-44 60.667 -69.333 98.667 -76 114l-6 3l-2 -1l-28 -36l-62 -89
c-38.667 -54.667 -58 -87.334 -58 -98.001c0 -11.333 9.66699 -20 29 -26c22.667 -4.66699 36.334 -10.334 41.001 -17.001l1 -5c0 -8.66699 -6.33301 -15.334 -19 -20.001c-38 6 -76 9 -114 9c-5.33301 0 -12.666 -0.333008 -21.999 -1s-20 -2 -32 -4l-54 -4
c-12.667 0 -19 6 -19 18c0 6 10.333 14 31 24l40 17c13.333 6 24.666 13 33.999 21c14.667 13.333 50.5 57.666 107.5 132.999s87.167 119.666 90.5 132.999z" />
    <glyph glyph-name="Y" unicode="Y" horiz-adv-x="644" 
d="M-11 706l5.00195 0.00292969l59 -4l60 -4l62 4l61 4c13.333 0 20 -6 20 -18c-0.666992 -2 -1.5 -4.16699 -2.5 -6.5s-3.16699 -5.83301 -6.5 -10.5l-32 -7c-13.333 -2 -20 -11.333 -20 -28c0 -6 21.167 -43.167 63.5 -111.5s67.166 -104.5 74.499 -108.5
c4 2 6.66699 3.66699 8 5l22 33c66 98 99 157.667 99 179c0 16.667 -13.833 27 -41.5 31s-41.5 13.333 -41.5 28c5.33301 8 12.666 12.667 21.999 14l47 -4l46 -4l60 4l61 4c4 0 8.33301 -1.5 13 -4.5s7 -7.5 7 -13.5v-4c-4 -2.66699 -7.33301 -4.66699 -10 -6l-31 -16
c-24.667 -10 -45.667 -26.667 -63 -50l-98 -148l-46 -67c-17.333 -28.667 -26 -53.667 -26 -75v-110l1 -43v-44c0 -36.667 8.66699 -61.334 26 -74.001c6.66699 -4 21 -7.16699 43 -9.5s33 -10.5 33 -24.5l-14 -16h-9l-57 3l-57 4l-63 -4l-62 -4
c-15.333 0 -23 7.66699 -23 23c0 5.33301 9 10.666 27 15.999c21.333 4 36.666 15 45.999 33c6 12 9 31 9 57l1 86v85c0 31.333 -9 62.666 -27 93.999l-56 80l-59 92c-24.667 36.667 -48 63.667 -70 81c-6.66699 5.33301 -18.667 10 -36 14
c-19.333 2 -31.666 4.66699 -36.999 8l-8 10l-1 4c0 15.333 7 23 21 23z" />
    <glyph glyph-name="Z" unicode="Z" horiz-adv-x="523" 
d="M-22 21l189.002 326.998c105.333 186.667 158 284.667 158 294c0 4.66699 -4.33301 7.33398 -13 8.00098c-16.667 0 -34.834 -0.166992 -54.501 -0.5s-40.834 -0.833008 -63.501 -1.5c-24.667 0 -43.5 -0.833008 -56.5 -2.5s-25.167 -4.83398 -36.5 -9.50098
c-26 -10 -47.333 -31.667 -64 -65c-11.333 -23.333 -21 -35 -29 -35c-6 0 -12.667 2.33301 -20 7l-2 12c0 12.667 3 34.834 9 66.501s9 55.834 9 72.501c0 12 4 21 12 27l5 1c2 0 5.33301 -0.5 10 -1.5s16 -4.66699 34 -11s34.333 -9.5 49 -9.5h90l124 4l126 4
c8 0 12 -4.66699 12 -14c0 -8 -29.667 -63 -89 -165l-104 -177l-88 -156l-32 -62c-14.667 -30.667 -22.667 -51.667 -24 -63c1.33301 -2.66699 2.5 -4.66699 3.5 -6s2.5 -2.33301 4.5 -3s7.5 -1.33398 16.5 -2.00098s24.5 -1 46.5 -1c109.333 0 180.666 12.333 213.999 37
c4 2 18.667 16.667 44 44c22 24 34.667 36.333 38 37c14 0 21 -6.33301 21 -19l-33 -73l-35 -73c-5.33301 -5.33301 -13.666 -8.66602 -24.999 -9.99902l-117 2l-116 3l-100 -3l-101 -3c-8 0 -12.333 4.33301 -13 13v4z" />
    <glyph glyph-name="bracketleft" unicode="[" horiz-adv-x="322" 
d="M80 763c0 4.66699 1.99902 12.001 5.99902 22.001c1.33301 1.33301 11.833 3 31.5 5s40.167 3 61.5 3l106 4h32c10.667 0 16 -6.33301 16 -19c0 -14 -17 -21 -51 -21l-65 -1c-16 0 -26.5 -0.833008 -31.5 -2.5s-8.5 -9.83398 -10.5 -24.501l1 -30v-58l-1 -59v-659
c0 -29.333 17 -44 51 -44l28 2l30 1c28.667 0 44 -6.33301 46 -19c0 -14 -7.33301 -21 -22 -21c-129.333 0 -201.666 2 -216.999 6l-8 5l-4 25z" />
    <glyph glyph-name="backslash" unicode="\" horiz-adv-x="278" 
d="M-17 737h66l246 -756h-67z" />
    <glyph glyph-name="bracketright" unicode="]" horiz-adv-x="322" 
d="M85 763l-26.999 -1h-27c-11.333 0 -21.333 1.16699 -30 3.5s-14.334 7.83301 -17.001 16.5c2 12 6.66699 18.333 14 19h55c110 0 170.333 -5.33301 181 -16l2 -17l-2 -177l-2 -177v-540c0 -10.667 -5.16699 -18 -15.5 -22s-52.166 -6 -125.499 -6h-88
c-12 0 -19 6.66699 -21 20c1.33301 6 4.66602 11 9.99902 15l93 6l39 3c10.667 2 16 19 16 51v16l-1 17v752c0 24.667 -18 37 -54 37z" />
    <glyph glyph-name="asciicircum" unicode="^" horiz-adv-x="0" 
d="M-180 770c0 5.33301 19.6689 30.001 59.002 74.001s61.666 66 66.999 66h99c7.33301 0 30.166 -21.833 68.499 -65.5s58.166 -69.834 59.499 -78.501c0 -12 -5.33301 -18 -16 -18c-4.66699 0 -29.667 14.333 -75 43s-71.666 46.667 -78.999 54l-6 1
c-6 -1.33301 -15.833 -6.5 -29.5 -15.5s-31.167 -21.5 -52.5 -37.5c-38.667 -29.333 -63.667 -44 -75 -44c-13.333 0 -20 7 -20 21z" />
    <glyph glyph-name="underscore" unicode="_" horiz-adv-x="556" 
d="M0 -125v50h556v-50h-556z" />
    <glyph glyph-name="grave" unicode="`" horiz-adv-x="0" 
d="M-50 719c13.333 0 27.667 -12 43 -36l25 -55l49 -100c0 -6 -3 -12.667 -9 -20l-9 -2c-8 0 -34.5 25 -79.5 75s-67.5 82 -67.5 96c0 9.33301 5.33301 19 16 29c4 3.33301 9 6.33301 15 9s11.667 4 17 4z" />
    <glyph glyph-name="a" unicode="a" horiz-adv-x="442" 
d="M274 347c0 50.667 -30.001 76 -90.001 76c-29.333 0 -53 -7 -71 -21c-10 -8 -19.833 -21.833 -29.5 -41.5s-18.5 -31.834 -26.5 -36.501l-8 -4l-14 4l-4 14l3 50l4 51c0 18.667 6.66699 28 20 28c4 0 11.667 -2 23 -6l24 -5c5.33301 0 12.833 0.333008 22.5 1
s20.834 2 33.501 4c25.333 4 44.333 6 57 6c42.667 0 77 -9.66699 103 -29c29.333 -22 44 -53.667 44 -95l-3 -115l-3 -114c0 -46 11.667 -69 35 -69l30 5l5 -1c4 -3.33301 6.66699 -8.66602 8 -15.999c0 -12 -10.833 -21.667 -32.5 -29s-39.167 -11 -52.5 -11
c-19.333 0 -34.666 4.66699 -45.999 14c-2.66699 2.66699 -5.83398 6.66699 -9.50098 12l-10.5 15c-4 9.33301 -8 14.666 -12 15.999l-36 -28c-26 -22.667 -58 -34 -96 -34c-40 0 -73 10 -99 30c-28.667 22.667 -43 53 -43 91c0 52.667 23.667 92.334 71 119.001l132 48
c47.333 16 71 39.667 71 71zM175.999 41c41.333 0 69.332 22.3311 83.999 66.998c8.66699 28 13 67.333 13 118c0 8.66699 -0.166992 14.667 -0.5 18s-1.16602 6.33301 -2.49902 9c-3.33301 -1.33301 -6.33301 -2.66602 -9 -3.99902l-42 -16
c-77.333 -27.333 -116 -65.333 -116 -114c0 -23.333 6.5 -42.166 19.5 -56.499s30.833 -21.5 53.5 -21.5z" />
    <glyph glyph-name="b" unicode="b" horiz-adv-x="523" 
d="M131 756l5 -1.00098c6 -6 9 -18.667 9 -38l-1 -28l-1 -29v-259l5 -2l3 1c22 22 46.333 38.833 73 50.5s55.667 17.5 87 17.5c59.333 0 105.666 -24 138.999 -72c27.333 -41.333 41 -93.666 41 -156.999c0 -67.333 -20.333 -125.333 -61 -174
c-43.333 -51.333 -97.666 -77 -162.999 -77c-17.333 0 -42.333 4.5 -75 13.5s-56.667 13.5 -72 13.5s-31 -4.66699 -47 -14c-4 -2.66699 -9.5 -5.5 -16.5 -8.5s-12.5 -4.83301 -16.5 -5.5l-5 1l-6 7l-2 6c6 16.667 11.667 34 17 52l6 21c2 12 3 37.333 3 76l1 387v11
c0 25.333 -1 47.833 -3 67.5s-5.5 33 -10.5 40s-17.833 13.5 -38.5 19.5l-23 9l-2 9c0 8 7 13.167 21 15.5s37.5 10.833 70.5 25.5s53.833 22 62.5 22zM249 33.999c50.667 0 89.667 18.667 117 56c11.333 16 20.333 35 27 57s10 45.667 10 71c0 47.333 -12 88 -36 122
c-26 38 -62 57 -108 57c-37.333 0 -66.166 -10.333 -86.499 -31s-30.5 -49.667 -30.5 -87l-1 -42l-1 -42c0 -47.333 6 -84 18 -110c17.333 -34 47.666 -51 90.999 -51z" />
    <glyph glyph-name="c" unicode="c" horiz-adv-x="423" 
d="M11 227c0 64.667 23.168 120.832 69.501 168.499s101.833 71.5 166.5 71.5h18c7.33301 -2 12.666 -3.33301 15.999 -4l34 -3c8.66699 0 17.834 2.33301 27.501 7s19.167 7.66699 28.5 9c3.33301 -2.66699 5.66602 -4.66699 6.99902 -6
c5.33301 -26 17.333 -67.667 36 -125l1 -6l-4 -9l-5 -4l-9 -2c-7.33301 0 -17 8.33301 -29 25c-15.333 22.667 -28.666 38.667 -39.999 48c-22 16.667 -48.667 25 -80 25c-45.333 0 -81.333 -19.667 -108 -59c-24 -34 -36 -74.667 -36 -122c0 -49.333 12.667 -93 38 -131
c28 -43.333 65.667 -65 113 -65c28 0 59.333 10.333 94 31l55 32c10 0 15 -7 15 -21c-2 -10 -14.667 -24.333 -38 -43c-48 -38 -102.333 -57 -163 -57c-68.667 0 -121.334 23.333 -158.001 70c-32.667 42.667 -49 99.334 -49 170.001z" />
    <glyph glyph-name="d" unicode="d" horiz-adv-x="523" 
d="M233 464c21.333 0 57.002 -10.999 107.002 -32.999l5 1l3 3l2 150c0 35.333 -5.66699 59 -17 71c-4.66699 6 -16 10.333 -34 13c-12.667 0 -21.334 6 -26.001 18c0.666992 10 7.33398 16.333 20.001 19c26 4 64 17 114 39l18 9c11.333 0 17 -8 17 -24l-3 -306l-2 -307
c0 -42 10.667 -66.333 32 -73l25 -4c11.333 -2 17.333 -6.66699 18 -14v-6l-1 -6l-3 -3c-3.33301 -4.66699 -11 -7 -23 -7l-12 1h-12c-10.667 0 -27 -3 -49 -9c-10 -2.66699 -18.833 -4.83398 -26.5 -6.50098s-14.834 -2.83398 -21.501 -3.50098c-12.667 0 -19 12 -19 36
c0 8.66699 1.33301 17 4 25l-2 4l-2 3l-39 -24c-20.667 -15.333 -38.334 -26 -53.001 -32c-7.33301 -2.66699 -16.5 -5 -27.5 -7s-22.5 -3 -34.5 -3c-57.333 0 -103 21 -137 63c-31.333 38.667 -47 87.334 -47 146.001c0 68 20.333 128.333 61 181c44 57.333 99 86 165 86z
M243.002 57.001c49.333 0 81.333 21.668 96 65.001c8 25.333 12 67.666 12 126.999c0 52.667 -6 92 -18 118c-17.333 36 -50 54 -98 54c-43.333 0 -77.833 -16.833 -103.5 -50.5s-38.5 -72.5 -38.5 -116.5c0 -50 12 -94 36 -132c28 -43.333 66 -65 114 -65z" />
    <glyph glyph-name="e" unicode="e" horiz-adv-x="463" 
d="M237 468c66.667 0 119.667 -25.668 159 -77.001l24 -36l17 -21c6 -8 9.66699 -15.667 11 -23l-1 -6l-3 -3l-257 -66c-14 -2 -27 -4.33301 -39 -7c-3.33301 -0.666992 -14.333 -4 -33 -10l-5 -8v-5c0 -42 17.5 -79.167 52.5 -111.5s74.167 -48.5 117.5 -48.5
c26.667 0 58.334 10.333 95.001 31c15.333 8.66699 28.333 16.667 39 24c3.33301 2 7.33301 4.66699 12 8c12 0 18 -5.66699 18 -17c0 -9.33301 -13 -24.666 -39 -45.999c-48.667 -38.667 -106.334 -58 -173.001 -58s-120.667 22.667 -162 68s-62 101.333 -62 168
c0 68 21.167 125.667 63.5 173s97.5 71 165.5 71zM111 266.999l135 33l60 16c14.667 4 22 12 22 24c0 24 -12 44.167 -36 60.5s-48.667 24.5 -74 24.5c-36.667 0 -66 -16 -88 -48c-9.33301 -14 -16.333 -29 -21 -45s-7 -34.333 -7 -55c0 -4.66699 3 -8 9 -10z" />
    <glyph glyph-name="f" unicode="f" horiz-adv-x="301" 
d="M8 393l-3 1h-4c-2.66699 1.33301 -4.33398 5 -5.00098 11l9 32c4.66699 14.667 10.334 22.334 17.001 23.001l19 -3l20 -2l5 3c1.33301 1.33301 2.5 6.16602 3.5 14.499s1.5 18.833 1.5 31.5l3 54c10 53.333 35.667 100 77 140s88.666 60 141.999 60
c66 0 99 -10.667 99 -32l-5 -51c0 -16.667 -0.5 -28 -1.5 -34s-2.33301 -10.667 -4 -14s-5.5 -7 -11.5 -11h-6c-6 0 -12.333 7.66699 -19 23c-8 22.667 -14.667 37.334 -20 44.001c-12 15.333 -28 23 -48 23c-49.333 0 -83 -23.333 -101 -70
c-11.333 -30 -17 -74.667 -17 -134v-38l4 -8l6 -1l63 3l63 4l9 -5l1 -3v-4l-5 -19c-7.33301 -24 -19 -36 -35 -36l-48 2l-48 2c-5.33301 0 -8 -6.66699 -8 -20v-145v-33l-1 -32c0 -69.333 13.667 -110 41 -122c4.66699 -1.33301 9.33398 -2.33301 14.001 -3
s10 -2.33398 16 -5.00098c12.667 -4 19 -11.667 19 -23c-2.66699 -4.66699 -5.5 -8.5 -8.5 -11.5s-6.16699 -4.5 -9.5 -4.5l-42 4l-41 5h-42c-7.33301 0 -12.833 -0.166992 -16.5 -0.5s-11.5 -1.83301 -23.5 -4.5l-41 -4c-16 -0 -24 5.33301 -24 16
c0 7.33301 5.33301 14 16 20c16.667 7.33301 26.667 13 30 17c11.333 9.33301 18 25.333 20 48l3 97v45v34v26v20v16v12c0 24.667 -1 38.667 -3 42l-3 3l-28 -2z" />
    <glyph glyph-name="g" unicode="g" horiz-adv-x="483" 
d="M92 -63c4 0 8.16797 -1.83105 12.501 -5.49805s6.16602 -8.5 5.49902 -14.5c-5.33301 -12 -8.66602 -21.333 -9.99902 -28c0 -21.333 14 -37.666 42 -48.999c20 -8 43.333 -12 70 -12c33.333 0 64.333 7.66699 93 23c36 18 54 41.667 54 71c0 34 -32 51 -96 51l-46 -2
l-47 -3c-95.333 0 -143 28.667 -143 86c0 18 8.33301 37.333 25 58l42 48l-21 20c-32 30 -48 68.667 -48 116c0 49.333 17.667 89.666 53 120.999s78 47 128 47c18 0 41 -4.66699 69 -14c31.333 -9.33301 53 -14 65 -14s30 2 54 6l54 7c0.666992 0 2.16699 -0.333008 4.5 -1
s6.16602 -3 11.499 -7c7.33301 -20.667 11 -47 11 -79c0 -8 -6 -12 -18 -12l-12 3c-28 22.667 -50.333 34 -67 34l-4 -2l1 -4c6 -4.66699 12 -16.334 18 -35.001s9 -33.334 9 -44.001c0 -51.333 -17.333 -92.666 -52 -123.999s-78.334 -47 -131.001 -47l-36 3l-35 3
c-8.66699 0 -16.667 -5.66699 -24 -17c-5.33301 -10 -8.66602 -20.333 -9.99902 -31c0 -26 22.333 -39 67 -39l48 2l48 2c106 0 159 -40 159 -120c0 -50 -27 -89 -81 -117c-42 -22 -91 -33 -147 -33c-52 0 -96.667 7.66699 -134 23c-51.333 21.333 -77 53.666 -77 96.999
c0 10 12.5 18 37.5 24s44.167 9 57.5 9zM117.001 311.002c0 -34.667 8 -65 24 -91c18.667 -28.667 44.667 -43 78 -43c27.333 0 50 11 68 33c14.667 20 22 44.667 22 74c0 38 -8.33301 69.333 -25 94c-19.333 28 -47 42 -83 42c-28 0 -49.667 -11.667 -65 -35
c-12.667 -20 -19 -44.667 -19 -74z" />
    <glyph glyph-name="h" unicode="h" horiz-adv-x="544" 
d="M123 758l7.99805 -0.998047c8 -4 12 -22 12 -54l-2 -39l-2 -39v-209c0 -9.33301 3 -13.333 9 -12l69 46c24 12.667 50.667 19 80 19c63.333 0 107.333 -21.667 132 -65c19.333 -32.667 29 -83 29 -151l-1 -57l-1 -57c0 -54.667 16 -86 48 -94c26 -6 39 -13 39 -21
c0 -4.66699 -1.33301 -8.66699 -4 -12c-6 -6 -12 -9 -18 -9l-59 4l-59 5c-7.33301 0 -12.666 -0.166992 -15.999 -0.5s-10.333 -1.83301 -21 -4.5l-36 -5c-13.333 0 -20 6.33301 -20 19c0 6.66699 6.5 13.167 19.5 19.5s21.833 13.5 26.5 21.5s7 56.667 7 146l1 26l1 24
c0 46.667 -5.33301 81 -16 103c-16 31.333 -44.667 47 -86 47c-42.667 0 -74.667 -16.667 -96 -50c-17.333 -27.333 -26 -63.666 -26 -108.999v-30l-1 -30c0 -66.667 6.33301 -107.334 19 -122.001c4 -4.66699 18 -12.667 42 -24c19.333 -8 29.333 -15.667 30 -23
c0 -12.667 -6.66699 -19 -20 -19c-6.66699 0 -14.5 0.333008 -23.5 1s-19.167 2 -30.5 4c-22 4 -38.667 6 -50 6c-10 0 -25 -2 -45 -6l-45 -5c-7.33301 0 -13.666 1.66699 -18.999 5l-4 9v4c3.33301 8 10.333 14.667 21 20c10.667 4 17.667 8.66699 21 14
c8 11.333 12 29 12 53l4 391c0 85.333 -3.5 134.666 -10.5 147.999s-16.5 21.666 -28.5 24.999c-21.333 4 -33 6.66699 -35 8c-4.66699 6 -7 11.333 -7 16c0 4 2.33301 8.66699 7 14l44 8c12 2 29 9 51 21s38.667 19 50 21z" />
    <glyph glyph-name="i" unicode="i" horiz-adv-x="241" 
d="M97 693l17 4l6 -2l24 -30l24 -29c2 -3.33301 4 -10 6 -20c-0.666992 -4.66699 -8.66699 -17.667 -24 -39c-12.667 -18 -22.667 -30.667 -30 -38l-12 -3c-5.33301 0 -17 12 -35 36s-27.667 39.667 -29 47c0 6 7.66699 18 23 36zM-6 407c4 8.66699 14.999 15 32.999 19
l40 6c8.66699 2 21.667 8.16699 39 18.5s30.333 16.166 39 17.499c12.667 0 19 -11 19 -33l-2 -21l-1 -20v-250c0 -62.667 20 -98.667 60 -108c5.33301 0 12 -2.66699 20 -8l2 -12c0 -10.667 -5.66699 -16 -17 -16l-49 4l-49 5c-9.33301 0 -16.166 -0.166992 -20.499 -0.5
s-13.833 -1.83301 -28.5 -4.5l-49 -4c-10 0 -15 4.33301 -15 13l3 14c4 3.33301 14.167 7.83301 30.5 13.5s24.5 39.834 24.5 102.501v132c0 63.333 -10.667 98.333 -32 105l-40 10l-7 12v5z" />
    <glyph glyph-name="j" unicode="j" horiz-adv-x="222" 
d="M94 696c3.33301 2 8.99902 2.99902 16.999 2.99902c2 -0.666992 3.83301 -1.66699 5.5 -3s3.83398 -3.66602 6.50098 -6.99902l27 -35c12 -16 18.667 -27.667 20 -35l-4 -17l-50 -62l-12 -2c-5.33301 0 -15.333 10.167 -30 30.5s-24 31.833 -28 34.5
c-4 8 -6 14.667 -6 20zM-46.001 -81.001c4 0 9.33398 -3.33301 16.001 -10l14 -45c8 -16 20 -24 36 -24c21.333 0 35 21 41 63l2 88l1 102l1 102l1 33l1 33c0 76 -14.333 117 -43 123l-25 6c-8 2 -12 7.33301 -12 16c3.33301 8.66699 13.333 15.667 30 21l37 6
c15.333 3.33301 33.666 11 54.999 23l19 11c4 2 10.333 3 19 3l5 -1c4 -4 6 -9.66699 6 -17l-1 -255l-1 -256c0 -102 -58.333 -153 -175 -153c-21.333 0 -35 7.66699 -41 23l-1 52l-1 21l-2 19c0 10.667 6 16 18 16z" />
    <glyph glyph-name="k" unicode="k" horiz-adv-x="503" 
d="M131 758c12 0 18 -12 18 -36l-2 -147l-2 -147v-141l1 -4c4 0.666992 6.33301 1.33398 7 2.00098l59 51l57 46c4 5.33301 6 13 6 23c0 4.66699 -4.33301 9 -13 13s-14.667 10.333 -18 19l2 7l6 8l13 2l37 -4l37 -3l48 3l48 4c8 0 14 -4.33301 18 -13v-6l-1 -7l-7 -7
c-38 -7.33301 -73.333 -22 -106 -44c-6.66699 -4.66699 -17 -12.334 -31 -23.001s-33.667 -26.667 -59 -48c-6.66699 -4.66699 -15 -13 -25 -25l19 -1c20 0 43 -11 69 -33c12 -10 26.667 -34 44 -72l26 -57c8 -17.333 13 -28 15 -32c18.667 -28.667 38 -43 58 -43
c10 0 22.667 5.66699 38 17l11 2l10 -4l3 -12c0 -13.333 -14.333 -27 -43 -41c-24.667 -11.333 -45.667 -17 -63 -17c-38.667 0 -71.667 22 -99 66l-55 124c-20 44 -41.667 66 -65 66c-30.667 0 -46 -22 -46 -66c0 -55.333 5.66699 -92.333 17 -111
c6.66699 -12.667 18.667 -21 36 -25c16.667 -2.66699 28 -8.66699 34 -18l1 -6c-2 -12 -8 -18 -18 -18l-55 4l-54 5c-4.66699 0 -11 -0.333008 -19 -1s-17 -2 -27 -4l-46 -4c-6 -0 -12.333 4.33301 -19 13v5l1 6l7 7c21.333 9.33301 35.333 21.333 42 36
c2.66699 5.33301 4.66699 12 6 20s2 19 2 33v444c0 29.333 -1 50 -3 62c-4 26 -14.667 41.333 -32 46l-26 5c-9.33301 2 -15.333 7.66699 -18 17l3 5c2 6 7.66699 10 17 12l25 4c11.333 0 32.333 7.66699 63 23c3.33301 1.33301 14.333 6 33 14c9.33301 4 14.333 6 15 6z
" />
    <glyph glyph-name="l" unicode="l" horiz-adv-x="241" 
d="M-6 705l42.998 13.001c19.333 4.66699 44.333 13 75 25c6.66699 4 14 7.66699 22 11c2 0.666992 5 2 9 4c12 0 18 -7.66699 18 -23l-2 -85l-1 -86v-333v-33l-1 -33c0 -80 25 -123 75 -129c6 -4 9 -11.333 9 -22l-2 -6l-4 -5l-13 -3l-33 6
c-15.333 2 -26.666 3.33301 -33.999 4s-19 1 -35 1c-9.33301 0 -24.666 -2 -45.999 -6l-46 -5h-4l-10 4c-3.33301 3.33301 -5.66602 8.33301 -6.99902 15c0 5.33301 5 11 15 17l22 11c15.333 8 23 38 23 90l1 111v111v136l-3 118c0 25.333 -7.33301 42.666 -22 51.999
c-2.66699 2 -14.334 5.66699 -35.001 11c-12 2 -18.333 8.33301 -19 19z" />
    <glyph glyph-name="m" unicode="m" horiz-adv-x="785" 
d="M-31 410l7 6.00098l28 4c10 0 30.667 8.33301 62 25c27.333 14 45 21.667 53 23l7 -2c4.66699 -4.66699 7 -18.334 7 -41.001l1 -7c0.666992 -2 2.66699 -3.66699 6 -5l11 8c16.667 13.333 28.334 21.666 35.001 24.999s13 6.33301 19 9s13.167 5.16699 21.5 7.5
s14.5 3.83301 18.5 4.5s10.667 1 20 1c38.667 0 71 -12.667 97 -38c4.66699 -7.33301 14 -17 28 -29l77 50c21.333 11.333 50.666 17 87.999 17c30 0 60 -13 90 -39c33.333 -29.333 50 -86.333 50 -171l-1 -58l-2 -59c0 -64 13.667 -98.333 41 -103l20 -3
c6.66699 0 12 -3.33301 16 -10l2 -10c-3.33301 -10 -10 -15 -20 -15l-43 4l-43 4l-45 -3l-45 -3c-14 0 -21 5.66699 -21 17c0 6.66699 2.66699 11.667 8 15l23 7c12.667 6.66699 19 43 19 109v29l-1 28c0 68.667 -2 112 -6 130c-12 48 -42 72 -90 72
c-35.333 0 -61 -11 -77 -33c-12 -18 -18 -46 -18 -84v-158c0 -32.667 3.33301 -55.667 10 -69c10 -19.333 30.333 -29 61 -29c4 -2 6.33301 -4.33301 7 -7l2 -4l1 -4l-3 -12c-3.33301 -4.66699 -9 -7.33398 -17 -8.00098l-45 4l-44 4l-49 -4l-50 -4
c-12 0 -18 5.66699 -18 17l6 13c1.33301 1.33301 6.66602 3.33301 15.999 6s17 8.33398 23 17.001c6.66699 13.333 10 42 10 86v141c0 84.667 -30.667 127 -92 127c-23.333 0 -44.666 -8.66699 -63.999 -26c-10 -8.66699 -17.5 -18 -22.5 -28s-7.5 -21 -7.5 -33l-1 -30v-176
c0 -29.333 4 -49.666 12 -60.999c4 -5.33301 14 -9.66602 30 -12.999c14.667 -2 26 -6 34 -12l2 -5v-9c0 -9.33301 -7 -14 -21 -14l-47 3l-45 4h-18c-10.667 -2 -19 -3.33301 -25 -4l-42 -4c-8 0 -14.333 2.33301 -19 7l-3 13l6 11l17 9c13.333 5.33301 22 12.333 26 21
c2 5.33301 3 17.333 3 36l1 85l1 84c0 45.333 -4 78.666 -12 99.999c-2.66699 7.33301 -14.334 12 -35.001 14c-19.333 0 -30.666 7.33301 -33.999 22z" />
    <glyph glyph-name="n" unicode="n" horiz-adv-x="544" 
d="M133 468c4.66699 0 8.99902 -3.99805 12.999 -11.998v-51l2 -3l5 -2c40 45.333 91.333 68 154 68c22 0 48.333 -8.33301 79 -25c48.667 -26.667 73 -84.667 73 -174l-2 -57l-2 -57c0 -42 6 -72 18 -90c6.66699 -10 18.334 -17.167 35.001 -21.5
s26.667 -10.166 30 -17.499v-10l-1 -5l-4 -6l-17 -5l-49 4l-50 5c-4.66699 0 -11 -0.333008 -19 -1s-16.667 -2 -26 -4l-45 -4l-3 1h-4c-8 2.66699 -12.333 8 -13 16c0 8.66699 6.83301 15.167 20.5 19.5s22.5 12.166 26.5 23.499c7.33301 20.667 11 52.667 11 96v96
c0 102.667 -33 154 -99 154c-56.667 0 -93.667 -27 -111 -81c-8 -26 -12 -76.667 -12 -152c0 -64.667 12.667 -105.334 38 -122.001l35 -13c12.667 -4.66699 19.334 -12 20.001 -22c0 -10.667 -6.33301 -16 -19 -16l-35 4l-71 4l-46 -4l-46 -4c-14 0 -21 6.66699 -21 20
c0 5.33301 3.66699 10 11 14l21 8c18 6 27 44.667 27 116l-3 138c0 30 -3.33301 50.667 -10 62c-8.66699 18 -26.334 27 -53.001 27l-10 6l-4 11c0 9.33301 10.333 16 31 20c7.33301 1.33301 16 3.66602 26 6.99902s25.667 9.33301 47 18z" />
    <glyph glyph-name="o" unicode="o" horiz-adv-x="523" 
d="M248 468c69.333 0 127.666 -23 174.999 -69s71 -104 71 -174c0 -68 -24.833 -124.5 -74.5 -169.5s-108.834 -67.5 -177.501 -67.5c-67.333 0 -124.166 23.167 -170.499 69.5s-69.5 103.833 -69.5 172.5c0 66 24.333 122.167 73 168.5s106.334 69.5 173.001 69.5zM100 265
c0 -56.667 12.334 -107.668 37.001 -153.001c30.667 -54.667 72 -82 124 -82c43.333 0 77.666 16 102.999 48c21.333 28.667 32 66.334 32 113.001c0 58.667 -12.667 110 -38 154c-31.333 52.667 -74.333 79 -129 79c-41.333 0 -74 -16.333 -98 -49
c-20.667 -30 -31 -66.667 -31 -110z" />
    <glyph glyph-name="p" unicode="p" horiz-adv-x="523" 
d="M-12 420c15.333 2.66699 27.165 5.16797 35.498 7.50098s19.833 6.5 34.5 12.5l65 28h4c11.333 0 17 -11.333 17 -34l-3 -25l1 -5l7 -4l3 1c2 4 8 9 18 15c42.667 33.333 86 50 130 50c56.667 0 102.334 -20.833 137.001 -62.5s52 -91.5 52 -149.5
c0 -66.667 -20 -126.667 -60 -180c-44 -57.333 -98.667 -86 -164 -86c-28.667 0 -58.334 6.66699 -89.001 20l-28 11l-3 -3c-2.66699 -7.33301 -4 -16.333 -4 -27c0 -6 0.333008 -10.667 1 -14c0 -45.333 0.833008 -79.666 2.5 -102.999s9.83398 -40.333 24.501 -51l34 -11
c18.667 -4.66699 30.334 -10.334 35.001 -17.001l1 -12c0 -8 -10.333 -12 -31 -12l-54 4l-53 4l-45 -4l-43 -5c-6 0 -11.333 2.33301 -16 7l-1 4l-1 4l3 12c8.66699 3.33301 19.667 9.66602 33 18.999c14.667 12.667 22 43 22 91l-1 33l-1 32l1 72v71v93l-1 93
c0 24.667 -1.66699 42.167 -5 52.5s-14.333 19.5 -33 27.5l-25 7c-4.66699 2 -8 6 -10 12v7c0.666992 0.666992 1 1.33398 1 2.00098c2.66699 5.33301 5.66699 9.66602 9 12.999zM140.999 155.001c0 -38 10.667 -68.501 32 -91.501s51 -34.5 89 -34.5
c43.333 0 78.333 17.667 105 53c24 32 36 70.333 36 115c0 48.667 -11.667 92.334 -35 131.001c-28.667 46.667 -64.667 70 -108 70c-32.667 0 -60.667 -9.66699 -84 -29s-35 -45 -35 -77v-137z" />
    <glyph glyph-name="q" unicode="q" horiz-adv-x="523" 
d="M244 467c8 0 17.5 -0.998047 28.5 -2.99805s24.167 -5.66699 39.5 -11c30 -9.33301 52.333 -14 67 -14s31.667 5.16699 51 15.5s33 16.166 41 17.499c8 0 12.667 -4 14 -12l-14 -26c-8.66699 -16 -13 -52 -13 -108v-132l-1 -133l2 -165c0 -25.333 2.5 -44.833 7.5 -58.5
s17.5 -24.167 37.5 -31.5c16.667 -4.66699 25.334 -11.334 26.001 -20.001c0 -12 -9.66699 -18 -29 -18c-6 0 -13.833 0.333008 -23.5 1s-20.834 2 -33.501 4l-55 4l-49 -4l-48 -5c-4 0 -8.66699 1.66699 -14 5l-5 8v6c2 8 6.66699 13.333 14 16l21 4c24 6 41 19 51 39
c6 14 9 36 9 66v69l-1 69c-2 2 -3.66699 3 -5 3l-3 -1c-42 -43.333 -95.667 -65 -161 -65c-54.667 0 -100.5 19.167 -137.5 57.5s-55.5 84.833 -55.5 139.5c0 75.333 20.667 140 62 194c44 59.333 103 89 177 89zM245 53.002c34.667 0 63.833 10 87.5 30
s35.5 47.667 35.5 83v137c0 80.667 -45 121 -135 121c-46.667 0 -83 -18.333 -109 -55c-22 -32 -33 -72.667 -33 -122c0 -48 13.333 -91.333 40 -130c29.333 -42.667 67.333 -64 114 -64z" />
    <glyph glyph-name="r" unicode="r" horiz-adv-x="363" 
d="M-3 415c5.33301 4 19.335 7.33203 42.002 9.99902s50 13.334 82 32.001l26 13c12.667 0 19 -12.667 19 -38l-2 -22l-1 -23c1.33301 -2.66699 2.66602 -4 3.99902 -4l27 29c37.333 38.667 77.666 58 120.999 58c14 0 23 -5.33301 27 -16l2 -35l2 -22l3 -21v-4l-1 -5l-3 -6
l-10 -7c-7.33301 0.666992 -17 8 -29 22c-10 14 -22.667 21 -38 21c-34 0 -61.333 -20.333 -82 -61c-16.667 -34.667 -25 -70.667 -25 -108v-87c0 -51.333 9.33301 -82.333 28 -93l40 -10c16.667 -4 25 -12.667 25 -26l-18 -13c-42.667 5.33301 -72.667 8 -90 8l-53 -4
l-53 -4c-18 0 -27 6 -27 18c0 5.33301 11.333 13 34 23c14.667 6 22 34.667 22 86l1 117l-2 66c0 30.667 -1.33301 48.667 -4 54c-6 17.333 -20 26 -42 26c-6.66699 0 -14.667 1.66699 -24 5l-3 12z" />
    <glyph glyph-name="s" unicode="s" horiz-adv-x="382" 
d="M17 153l5.99902 8c4 2 8.66699 3 14 3h6c5.33301 -5.33301 12 -19.666 20 -42.999c10 -34 22.333 -57.333 37 -70c16 -16 41.667 -24 77 -24c24.667 0 45.334 6.83301 62.001 20.5s25 32.5 25 56.5c0 32.667 -21 58.667 -63 78l-116 47c-42 24 -63 59 -63 105
c0 41.333 15.667 74.333 47 99c28 22 64 33 108 33c9.33301 0 24.666 -2 45.999 -6l46 -5c5.33301 0 18 3.33301 38 10c6 0.666992 11 -2.33301 15 -9l10 -118l-6 -10c-2 -2 -5.33301 -3 -10 -3c-6.66699 0 -14.667 8.66699 -24 26c-12 22 -23.667 37.667 -35 47
c-19.333 17.333 -44 26 -74 26c-20 0 -38.833 -5.33301 -56.5 -16s-26.5 -26.334 -26.5 -47.001c0 -27.333 21.333 -49.333 64 -66l119 -49c42.667 -26.667 64 -64.667 64 -114c0 -46.667 -14.667 -82.667 -44 -108s-67.666 -38 -114.999 -38
c-5.33301 0 -12.333 0.333008 -21 1s-19 2 -31 4l-52 5l-21 -3l-20 -3c-12 0 -18 11.667 -18 35l1 17l1 16c0 26 -4 55 -12 87z" />
    <glyph glyph-name="t" unicode="t" horiz-adv-x="301" 
d="M-21 410c0 6 7.66699 15.667 23 29l32 26c20 18.667 38.333 45.334 55 80.001c3.33301 8.66699 7 16.5 11 23.5s10 16.833 18 29.5l10 3c10.667 -2 16 -9.33301 16 -22l-3 -58l-2 -59l7 -7h75c8.66699 0 22 2 40 6l39 7l5 -1l4 -3l3 -12
c0 -8.66699 -4 -20.334 -12 -35.001s-15.667 -22.667 -23 -24l-67 2l-68 3l-3 -2c-3.33301 -12 -5 -89.333 -5 -232c0 -37.333 3.66699 -64.333 11 -81c10 -27.333 30.667 -41 62 -41c21.333 0 49.666 9 84.999 27h4l8 -3l3 -4l3 -8c0 -18 -18 -33.667 -54 -47
s-64.333 -20 -85 -20c-53.333 0 -88.666 14.667 -105.999 44c-13.333 21.333 -20 60.333 -20 117l1 117v117v5l-4 7l-8 2l-18 -1l-17 -1l-12 2l-4 3l-4 7v4z" />
    <glyph glyph-name="u" unicode="u" horiz-adv-x="544" 
d="M40 455l21.001 0.00195312c8.66699 2 15 3.33301 19 4l40 6l9 -3c6 -6 9.66699 -12 11 -18l-3 -119l-2 -122c0 -47.333 6 -83 18 -107c16 -32 46 -48 90 -48c50 0 84 20.333 102 61c11.333 26.667 17 68.667 17 126l-3 138c0 18 -6 30 -18 36l-31 8
c-10.667 2.66699 -16.334 9 -17.001 19c0 13.333 24 20 72 20c29.333 0 51 3 65 9l10 -2c9.33301 -9.33301 14 -25 14 -47l-2 -27l-1 -27v-178v-24l-1 -23c0 -55.333 12 -87 36 -95l28 -5c10 -2 15 -8.33301 15 -19c0 -12 -11.667 -18 -35 -18l-17 1l-15 1l-43 -3l-43 -4
c-6.66699 0 -11 6.33301 -13 19v27c0 5.33301 -1.66699 9.66602 -5 12.999l-32 -27c-17.333 -13.333 -36 -23.333 -56 -30s-42.667 -10 -68 -10c-53.333 0 -92.666 15 -117.999 45c-19.333 23.333 -31.666 59.666 -36.999 108.999l-2 130v77c0 20 -1 33 -3 39
c-4 10.667 -13.667 19 -29 25c-4.66699 0.666992 -8.33398 1.33398 -11.001 2.00098s-7.33398 2.66699 -14.001 6s-10 8.66602 -10 15.999c0 14 10.667 21 32 21l15 -1z" />
    <glyph glyph-name="v" unicode="v" horiz-adv-x="523" 
d="M-28 438l2.00195 7.00098l3 4l10 4h5l37 -4l76 -5l47 4l48 5c7.33301 0 12.666 -2.66699 15.999 -8l2 -6c0 -9.33301 -11 -17 -33 -23c-21.333 -4 -32 -14.667 -32 -32c0 -29.333 32 -104 96 -224c2 -4.66699 4.5 -9.83398 7.5 -15.501s7.83301 -13.5 14.5 -23.5
c11.333 13.333 32.666 57.333 63.999 132c14.667 35.333 26 64 34 86s12 36.667 12 44c0 18 -11.167 29.167 -33.5 33.5s-34.166 11.5 -35.499 21.5c2 5.33301 5 9.33301 9 12l11 4l75 -7l44 3l45 4c12.667 0 19 -4.66699 19 -14c0 -4 -6.33301 -11 -19 -21l-25 -18
c-18.667 -15.333 -39.334 -46.333 -62.001 -93l-44 -106l-73 -160l-15 -35c-8 -13.333 -18 -20 -30 -20c-10 0 -18 4.33301 -24 13l-29 58c-28.667 70 -75 170.333 -139 301c-8 16 -17.667 28.667 -29 38l-18 14c-24 13.333 -36 22.333 -36 27z" />
    <glyph glyph-name="w" unicode="w" horiz-adv-x="785" 
d="M252 122l5.00586 7.00293c54.667 115.333 82 178 82 188c0 18 -9 37.667 -27 59s-36.333 36 -55 44c-8 2.66699 -13.333 8 -16 16c2 12 8 18 18 18c5.33301 0 12.666 -0.333008 21.999 -1s19.333 -2 30 -4l51 -4h28c10.667 2 18.667 3.33301 24 4l52 5h4l3 -1l5 -3l4 -13
l-3 -9c-1.33301 -4 -11.833 -7.83301 -31.5 -11.5s-29.5 -14.834 -29.5 -33.501c0 -14 12 -48 36 -102l48 -106l19 -39c2 -6.66699 3.33301 -10.667 4 -12s1.66699 -2.33301 3 -3l3 1c7.33301 11.333 27 54.666 59 129.999c14.667 35.333 26 63.833 34 85.5s12 35.5 12 41.5
c0 20 -9.66699 32.333 -29 37c-21.333 4 -34 9.66699 -38 17v5c0 10.667 7 16 21 16l49 -4l49 -3h18c7.33301 2 12.666 3.33301 15.999 4l34 4l10 -5l3 -15c-0.666992 -6 -11.834 -14.167 -33.501 -24.5s-46.5 -46.166 -74.5 -107.499l-87 -209l-45 -97
c-4.66699 -6.66699 -14 -10 -28 -10c-10 0 -30.333 34.667 -61 104l-52 128c-8.66699 21.333 -15.667 32.666 -21 33.999c-3.33301 -2.66699 -5.33301 -4.66699 -6 -6l-10 -24l-31 -70l-56 -124l-11 -29c-6 -10 -14.667 -15 -26 -15c-8.66699 0 -15.334 2.66699 -20.001 8
l-33 70l-78 175l-35 87c-16 36.667 -33.333 61.667 -52 75l-29 18c-12 7.33301 -18.667 14.666 -20 21.999c0 9.33301 5.66699 14 17 14c5.33301 0 12.166 -0.333008 20.499 -1s18.166 -2 29.499 -4l51 -5l50 4l50 5c9.33301 0 14 -6.66699 14 -20l-1 -5l-6 -7l-32 -10
c-9.33301 -5.33301 -14 -14.333 -14 -27c0 -17.333 14 -57 42 -119l57 -126l6 -9z" />
    <glyph glyph-name="x" unicode="x" horiz-adv-x="503" 
d="M-20 444l10.0029 11.0039h5l55 -4l55 -4l50 4l49 4c4.66699 0 9 -5 13 -15v-5c-2 -4.66699 -9.66699 -10 -23 -16c-12.667 -4 -19 -12.333 -19 -25c0 -9.33301 10.5 -29.333 31.5 -60s35.167 -47 42.5 -49c8 2.66699 23.333 19 46 49s34.667 49.667 36 59
c0 12 -9.33301 19.833 -28 23.5s-28 11.5 -28 23.5c0 8 5 12.667 15 14h18c10.667 -2 19 -3.33301 25 -4l42 -3c43.333 0 73 3 89 9c10 -2 15 -8.66699 15 -20c-0.666992 -2 -1.5 -3.66699 -2.5 -5s-3.5 -4 -7.5 -8c-9.33301 -4.66699 -18.833 -10 -28.5 -16
s-22.834 -15.333 -39.501 -28c-13.333 -10.667 -46.333 -46 -99 -106l-22 -26c0 -6 21.667 -35.667 65 -89c39.333 -48.667 65.333 -79 78 -91l39 -24c20 -12 30 -21 30 -27c0 -10.667 -7.66699 -16 -23 -16c-5.33301 0 -13 0.333008 -23 1s-22 2 -36 4l-60 5
c-10.667 0 -23.667 -1.66699 -39 -5l-38 -5c-15.333 0 -23 7.33301 -23 22c0 3.33301 3 7.66602 9 12.999c22.667 2 34 12.333 34 31c0 8 -11.333 27.333 -34 58s-37.334 47.667 -44.001 51c-9.33301 -2.66699 -25.833 -19.834 -49.5 -51.501s-35.5 -53.167 -35.5 -64.5
c0 -15.333 14.333 -23 43 -23c8.66699 -4.66699 13 -12.334 13 -23.001c-2 -8 -10.333 -12 -25 -12l-42 3l-41 3l-42 -3l-41 -3l-6 2l-3 3l-5 14c4 8 9.33301 13.333 16 16l19 7c15.333 6.66699 45.666 33.167 90.999 79.5s71.333 77.166 78 92.499l-1 5
c-15.333 22.667 -32.5 46.167 -51.5 70.5s-38.5 47.833 -58.5 70.5c-24 27.333 -48.333 46.333 -73 57l-11 5c-3.33301 2 -6 5.33301 -8 10l-3 6z" />
    <glyph glyph-name="y" unicode="y" horiz-adv-x="483" 
d="M-7 452l50.999 -4l52 -4l47 4l48 4c15.333 0 23 -7.33301 23 -22c0 -3.33301 -11 -8.66602 -33 -15.999c-21.333 -5.33301 -32 -16.333 -32 -33c0 -14.667 15 -55 45 -121c10 -22.667 21 -46.334 33 -71.001s21.667 -43 29 -55l3 -2l2 -3c6 4 19.333 34.333 40 91l34 101
c5.33301 21.333 8.66602 38.333 9.99902 51c0 18 -6.33301 30 -19 36l-35 9c-12.667 3.33301 -19 9.33301 -19 18c0 5.33301 3.66699 10.666 11 15.999l3 1l57 -4l55 -4l30 4c12.667 2.66699 23.334 4 32.001 4l4 -1c8 -2.66699 12.333 -9 13 -19
c-2 -2.66699 -4.16699 -5.16699 -6.5 -7.5s-7.5 -6.5 -15.5 -12.5l-29 -20c-11.333 -9.33301 -28 -42.333 -50 -99l-100 -264c-32 -87.333 -53 -139.333 -63 -156c-34 -60 -76.333 -90 -127 -90c-32 0 -52 7.33301 -60 22c-4 14.667 -7.33301 26 -10 34l-10 29l-17 40
c0 13.333 7 20 21 20c4 0 11 -4 21 -12c20 -42.667 43.667 -64 71 -64c22 0 46.333 19.667 73 59c24 36 36 66.667 36 92c0 10.667 -27 73.834 -81 189.501s-86.333 179.5 -97 191.5l-34 25c-15.333 12 -23.666 21 -24.999 27c0 10.667 6.33301 16 19 16z" />
    <glyph glyph-name="z" unicode="z" horiz-adv-x="382" 
d="M230 386l2.00195 8.00195l-3 6c-4 2 -11.333 3 -22 3c-82.667 0 -136 -20 -160 -60c-9.33301 -16 -18.333 -24.667 -27 -26c-10 0 -15.333 5.33301 -16 16l43 124c4.66699 6 9 9.33301 13 10l14 -5l14 -5c20.667 -7.33301 40 -11 58 -11l102 4l102 5
c8 0 12.333 -4.33301 13 -13c0 -9.33301 -27.333 -55.333 -82 -138l-99 -147c-29.333 -44.667 -46 -75.334 -50 -92.001l1 -3l6 -3l30 -1c64.667 0 108.667 12.667 132 38l22 35c10 16 19.333 24 28 24c10 0 15 -6.33301 15 -19c0 -4 -2 -10.667 -6 -20l-23 -75l-12 -42
c-2 -6.66699 -8.33301 -10.334 -19 -11.001c-28.667 12.667 -55.334 19 -80.001 19h-70c-8 0 -18 -0.333008 -30 -1s-26.333 -2 -43 -4l-72 -4c-12 0 -18 5 -18 15c0 8.66699 2.33301 15.667 7 21l49 70l97 153l38 67c15.333 26 30.666 46.667 45.999 62z" />
    <glyph glyph-name="braceleft" unicode="{" horiz-adv-x="334" 
d="M42 294c36 0 59.998 22.3359 71.998 67.0029c2.66699 10 4.66699 24.667 6 44s2 42 2 68l-1 43c0 31.333 0.666992 57.166 2 77.499s4.33301 38.166 9 53.499c15.333 50 46.333 75 93 75h67v-65h-44c-30.667 0 -46 -27.333 -46 -82v-113l-1 -57
c0 -28 -8.16699 -56.333 -24.5 -85s-37.166 -47 -62.499 -55c58.667 -19.333 88 -86.333 88 -201l-1 -87c0 -72 15.667 -108 47 -108h44v-65h-67c-31.333 0 -56.166 13.167 -74.499 39.5s-27.5 56.166 -27.5 89.499v171c0 29.333 -6 57 -18 83c-14 31.333 -35 47 -63 47v60z
" />
    <glyph glyph-name="bar" unicode="|" horiz-adv-x="260" 
d="M94 737h73v-756h-73v756z" />
    <glyph glyph-name="braceright" unicode="}" horiz-adv-x="334" 
d="M292 234c-27.333 0 -48.333 -15.665 -63 -46.998c-12 -24 -18 -51.667 -18 -83v-171c0 -33.333 -8.33301 -62.333 -25 -87c-19.333 -28 -45 -42 -77 -42h-67v65h44c30.667 0 46 36 46 108l-1 86c0 50.667 4.33301 90 13 118c12.667 42.667 38 70 76 82
c-25.333 8 -46.666 27.333 -63.999 58c-8.66699 15.333 -14.834 29.166 -18.501 41.499s-5.5 26.166 -5.5 41.499v171c0 54.667 -15.333 82 -46 82h-44v65h67c50.667 0 83 -31.333 97 -94c4 -21.333 6 -73 6 -155c0 -54 2.66699 -91.333 8 -112
c11.333 -44.667 35.333 -67 72 -67v-60z" />
    <glyph glyph-name="asciitilde" unicode="~" horiz-adv-x="0" 
d="M-99 885c24 0 58.668 -10.333 104.001 -31c24 -10.667 44.333 -18.5 61 -23.5s31 -7.5 43 -7.5c16.667 0 29.667 10.833 39 32.5s16 33.5 20 35.5l10 2l9 -3c6 -8 9 -14 9 -18c0 -25.333 -10.833 -53.333 -32.5 -84s-44.834 -46 -69.501 -46
c-24 0 -60.167 10.333 -108.5 31s-81.5 31 -99.5 31c-16 0 -29 -11.333 -39 -34s-20 -34.667 -30 -36c-12.667 0 -19 7.33301 -19 22c0 22 11.833 49 35.5 81s46.167 48 67.5 48z" />
    <glyph glyph-name="nonbreakingspace" unicode="&#xa0;" horiz-adv-x="500" 
 />
    <glyph glyph-name="exclamdown" unicode="&#xa1;" horiz-adv-x="222" 
d="M89 717c7.33301 0 20.832 -9.66797 40.499 -29.001s29.5 -33 29.5 -41c0 -8.66699 -10 -24 -30 -46c-19.333 -19.333 -33.666 -29.666 -42.999 -30.999c-8 0 -22.167 10.667 -42.5 32s-30.5 36 -30.5 44l3 13l11 11c28 31.333 48.667 47 62 47zM83.999 515.999
c16 0 24.001 -20.668 24.001 -62.001v-6l17 -219l7 -91c4 -44 11 -70.667 21 -80l18 -13c5.33301 -4 8.66602 -9 9.99902 -15c0 -10 -6.66699 -16.333 -20 -19c-20.667 -2 -53.334 -8 -98.001 -18l-31 -10c-12.667 0 -19 6.33301 -19 19c6.66699 12.667 12.334 29 17.001 49
s7 42 7 66l7 122c0 30.667 3 76.334 9 137.001l12 116c2 16 8.33301 24 19 24z" />
    <glyph glyph-name="cent" unicode="&#xa2;" horiz-adv-x="423" 
d="M420 87c-0.666992 -8.66699 -13.667 -22.998 -39 -42.998c-31.333 -24 -67 -40.667 -107 -50c-4 -2.66699 -6.66699 -5.33398 -8 -8.00098l1 -45c0 -17.333 -2 -29 -6 -35c-6 -2 -15.667 -3 -29 -3c-5.33301 0 -9 0.666992 -11 2l-4 8l2 19v21l-1 23
c0 4 -1 7.66699 -3 11c-68.667 0 -120.667 23.667 -156 71c-32 42 -48 98.333 -48 169c0 45.333 12.333 87.333 37 126s58 68.667 100 90c6.66699 3.33301 15.834 6.83301 27.501 10.5s20.667 6.33398 27 8.00098s10.5 4.5 12.5 8.5l-1 56l1 4l4 4
c6.66699 3.33301 16.667 5 30 5l9 -1l5 -5l-1 -34c0 -17.333 0.666992 -27 2 -29c6.66699 -6.66699 23.667 -10 51 -10c8.66699 0 18.5 2.66699 29.5 8s19.833 8 26.5 8c4 0 6 -2 6 -6c6 -28.667 18.333 -70.334 37 -125.001l1 -6l-4 -9l-5 -4l-9 -2
c-6.66699 0 -14.834 6.83301 -24.501 20.5l-22.5 31c-5.33301 7 -10 12.167 -14 15.5c-18 16 -40 26 -66 30l-5 -3l-1 -3v-244l-1 -36l-1 -36c0 -34.667 2.66699 -52.334 8 -53.001c20 0 46.667 10.333 80 31l55 31c8 0 13 -7 15 -21zM222 345.002
c0 12.667 -0.333008 25 -1 37s-2 23 -4 33l-6 2c-34 -8 -61 -31 -81 -69c-16.667 -33.333 -25 -69.333 -25 -108c0 -19.333 2 -37.666 6 -54.999s10.667 -35.333 20 -54c20 -40.667 45.333 -66.334 76 -77.001l3 -1l3 -1c4 4 6 9 6 15v158l1 60z" />
    <glyph glyph-name="sterling" unicode="&#xa3;" horiz-adv-x="503" 
d="M88 176c26 0 46.333 -3.66797 61 -11.001l6 4l1 7c0 12.667 -5.33301 33 -16 61l-18 53l-10 35c-5.33301 8.66699 -16 13 -32 13h-18l-18 -1l-11 3l-3 5l-6 33c0 5.33301 7.66699 9 23 11l29 -1l9 1l3 9c0 11.333 -5 34.333 -15 69s-15 61.667 -15 81
c0 46 18 85.5 54 118.5s77 49.5 123 49.5c9.33301 0 16.166 -0.166992 20.499 -0.5s13.833 -1.83301 28.5 -4.5l51 -4l20 6l19 7c8.66699 0 18.667 -13 30 -39l20 -52c14 -24 21 -37.667 21 -41c0 -10 -5.33301 -15.333 -16 -16c-8 0 -20.667 8 -38 24
c-22 22.667 -38.333 38 -49 46c-22 16 -47.333 24 -76 24c-32.667 0 -60.667 -9.66699 -84 -29s-35 -45 -35 -77c0 -17.333 5.33301 -49 16 -95s21 -71 31 -75l9 -1l87 3l89 3h5l5 -2l16 -44c-2 -6 -14 -9 -36 -9l-52 1l-53 2c-28 0 -47 -2 -57 -6l-2 -3l-1 -5l17 -63
c2.66699 -11.333 5 -22.666 7 -33.999s3 -21.333 3 -30c0 -16.667 -0.5 -28.667 -1.5 -36s-3.16699 -18.333 -6.5 -33c1.33301 -10 19 -21 53 -33c30 -10 52.333 -15 67 -15c38.667 0 65.334 13.667 80.001 41c10 19.333 15 51 15 95c0 8 3.33301 15.333 10 22l8 2
c18 0 27 -30 27 -90c0 -48.667 -10.333 -87.667 -31 -117c-23.333 -34 -58 -51 -104 -51c-47.333 0 -100.333 21.333 -159 64l-7 -3c-7.33301 -16 -21.833 -30.167 -43.5 -42.5s-41.834 -18.5 -60.501 -18.5c-25.333 0 -47.666 8 -66.999 24c-17.333 16 -26 37.667 -26 65
s10.167 50.833 30.5 70.5s44.5 29.5 72.5 29.5zM36 71.999c0 -10 3.66699 -18.667 11 -26c7.33301 -6 16.333 -9.66699 27 -11c28.667 0 50 15 64 45c-10 20 -31.667 30 -65 30c-24.667 0 -37 -12.667 -37 -38z" />
    <glyph glyph-name="currency" unicode="&#xa4;" horiz-adv-x="760" 
d="M514 272l-314.996 0.00195312c14 -65.333 42 -119 84 -161c45.333 -46 101.333 -69 168 -69c57.333 0 106.666 16 147.999 48c25.333 19.333 50.333 48.666 75 87.999c19.333 32 32.333 48 39 48c8 0 15 -5.33301 21 -16v-5c0 -18 -14 -46 -42 -84
c-65.333 -88.667 -151 -133 -257 -133c-88.667 0 -164.334 26.5 -227.001 79.5s-102 121.167 -118 204.5h-93l24 56h63v14l1 30h-88l24 56h71c17.333 86.667 56.666 155.667 117.999 207c64.667 54.667 142.334 82 233.001 82c15.333 0 39.833 -3 73.5 -9s59.167 -9 76.5 -9
c11.333 0 21.666 3.83301 30.999 11.5s16.666 11.5 21.999 11.5s9 -1.66699 11 -5c4 -3.33301 7.66699 -11.666 11 -24.999c3.33301 -22.667 8.66602 -45.834 15.999 -69.501s18.666 -51.5 33.999 -83.5c0 -9.33301 -0.666992 -15.333 -2 -18c-4 -4 -10.333 -6 -19 -6
c-3.33301 0 -16.666 13 -39.999 39c-26.667 31.333 -52.667 55.666 -78 72.999c-20 13.333 -40.333 23.333 -61 30s-43 10 -67 10c-73.333 0 -132.666 -23 -177.999 -69c-40 -42 -66 -98.667 -78 -170h385l-23 -56h-367v-15l1 -29h347z" />
    <glyph glyph-name="section" unicode="&#xa7;" horiz-adv-x="423" 
d="M130 438l-1.00098 3l-4 3h-5c-26 17.333 -44.667 33.666 -56 48.999c-13.333 18.667 -20 42.334 -20 71.001c0 43.333 14.833 79.833 44.5 109.5s66.5 44.5 110.5 44.5c12.667 0 27 -1.66699 43 -5l43 -5c7.33301 0 15.666 1.66699 24.999 5l17 6
c8.66699 0 14.334 -5.33301 17.001 -16l-3 -32c0 -16.667 2.33301 -34.667 7 -54l6 -22c0 -10.667 -6.33301 -16 -19 -16c-8 0 -16.667 8.66699 -26 26c-11.333 21.333 -22.666 37 -33.999 47c-18.667 17.333 -44 26 -76 26c-19.333 0 -36.666 -9 -51.999 -27
c-13.333 -18.667 -20 -38 -20 -58c0 -28 21 -54.667 63 -80l116 -67c42 -34 63 -78.333 63 -133c0 -51.333 -22 -97 -66 -137l-26 -21l49 -42c32 -32 48 -70.333 48 -115c0 -46.667 -13.667 -87 -41 -121c-14.667 -18 -31.334 -31.5 -50.001 -40.5s-39.667 -13.5 -63 -13.5
c-11.333 0 -29 2 -53 6l-51 5c-10 0 -25 -2 -45 -6l-11 5c-2 2.66699 -3.66699 9.66699 -5 21l2 18l2 18c0 12 -2.16699 28.5 -6.5 49.5s-6.5 36.833 -6.5 47.5c0 10 5 15 15 15c9.33301 0 18.666 -12 27.999 -36c10.667 -33.333 20.334 -55.333 29.001 -66
c18 -24 44.333 -36 79 -36c29.333 0 53 9.83301 71 29.5s27 44.5 27 74.5c0 40.667 -21.667 75.667 -65 105l-122 77c-43.333 36 -65 81.667 -65 137c0 44.667 23 88.667 69 132zM109.999 307c0 -24.667 8.66797 -45.668 26.001 -63.001
c9.33301 -8.66699 28.333 -22.667 57 -42c21.333 -13.333 36.666 -20.666 45.999 -21.999l13 7c34 21.333 51 53 51 95c0 24.667 -7 45.667 -21 63c-9.33301 10.667 -26.833 24.167 -52.5 40.5s-44.167 25.5 -55.5 27.5c-17.333 -2 -33 -16 -47 -42
c-11.333 -22.667 -17 -44 -17 -64z" />
    <glyph glyph-name="dieresis" unicode="&#xa8;" horiz-adv-x="0" 
d="M-117 669c6.66699 0 19.333 -9.83203 38 -29.499s28 -33.167 28 -40.5c0 -6 -9.66699 -19.333 -29 -40s-32.666 -31 -39.999 -31c-8 0 -15.333 3.66699 -22 11l-18 21l-19 18c-6.66699 5.33301 -10.334 12 -11.001 20c0 9.33301 10 23.666 30 42.999
c10 9.33301 18.333 16.333 25 21s12.667 7 18 7zM116.999 669.001c8.66699 0 19.668 -6.33398 33.001 -19.001l29 -29c0.666992 -1.33301 2 -4.83301 4 -10.5s3 -9.16699 3 -10.5c0 -6 -8.16699 -18.333 -24.5 -37s-28.5 -30 -36.5 -34l-11 -1c-5.33301 0 -18 10.333 -38 31
c-18 20 -27.333 33.667 -28 41c0 8 9.16699 21.333 27.5 40s32.166 28.334 41.499 29.001z" />
    <glyph glyph-name="copyright" unicode="&#xa9;" horiz-adv-x="755" 
d="M363 648c91.333 0 169.333 -32.333 234 -97s97 -142.667 97 -234c0 -92 -32.167 -170.167 -96.5 -234.5s-142.5 -96.5 -234.5 -96.5c-91.333 0 -169.333 32.333 -234 97s-97 142.667 -97 234s32.333 169.333 97 234s142.667 97 234 97zM363 24
c80.667 0 149.667 28.667 207 86s86 126.333 86 207s-28.667 149.667 -86 207s-126.333 86 -207 86s-149.667 -28.667 -207 -86s-86 -126.333 -86 -207s28.667 -149.667 86 -207s126.333 -86 207 -86zM505 497l4 -123h-19c-5.33301 28.667 -18.5 52.667 -39.5 72
s-46.167 29 -75.5 29c-39.333 0 -71.666 -18 -96.999 -54c-22 -32 -33 -69 -33 -111c0 -44.667 10.667 -80 32 -106c22 -30 54.667 -45 98 -45c26 0 48.667 4.33301 68 13c14 6 33 19 57 39l11 -17c-44.667 -46.667 -92.334 -70 -143.001 -70c-54 0 -98.333 17 -133 51
s-52 78.667 -52 134c0 51.333 17 96 51 134s76.667 57 128 57c13.333 0 30.333 -3.33301 51 -10c22 -6 39 -9 51 -9c11.333 0 19 5.33301 23 16h18z" />
    <glyph glyph-name="guillemotleft" unicode="&#xab;" horiz-adv-x="442" 
d="M202 494c4.66699 0 7.66699 -1.99805 9 -5.99805v-4c0 -8.66699 -4.33301 -20.334 -13 -35.001s-23 -34.334 -43 -59.001c-40 -48 -61 -77.667 -63 -89l66 -91c34 -48.667 51.667 -77 53 -85l-1 -5l-2 -3l-15 -4h-62c-4.66699 0 -26.5 27.833 -65.5 83.5
s-61.5 90.5 -67.5 104.5c2 6.66699 20.167 38 54.5 94s55.5 88 63.5 96l11 3h75zM331 494.002l78 -0.000976562l5 -4l2 -4v-4l-65 -91c-32.667 -48.667 -51 -78.334 -55 -89.001c6 -18 26.167 -47.667 60.5 -89s54.166 -70.666 59.499 -87.999l-2 -5
c-3.33301 -3.33301 -9.66602 -5.66602 -18.999 -6.99902h-60c-6 0 -28.333 28.333 -67 85l-67 102c3.33301 13.333 24 49 62 107s60.667 87 68 87z" />
    <glyph glyph-name="logicalnot" unicode="&#xac;" horiz-adv-x="682" 
d="M-1 276h639v-276h-53v224h-586v52z" />
    <glyph glyph-name="registered" unicode="&#xae;" horiz-adv-x="755" 
d="M362 -19c-91.333 0 -169.333 32.333 -234 97s-97 142.667 -97 234s32.667 169.333 98 234s143 97 233 97c91.333 0 169.333 -32.333 234 -97s97 -142.667 97 -234s-32.333 -169.333 -97 -234s-142.667 -97 -234 -97zM361 605
c-80.667 0 -149.499 -28.832 -206.499 -86.499s-85.5 -126.834 -85.5 -207.501s28.833 -149.5 86.5 -206.5s126.5 -85.5 206.5 -85.5c80.667 0 149.667 28.667 207 86s86 126.333 86 207c0 80 -28.833 148.833 -86.5 206.5s-126.834 86.5 -207.501 86.5zM312.001 190.001
c0 -18.667 15 -28 45 -28v-17h-153v17c31.333 0 47 8.33301 47 25v277c0 14 -3.66699 23 -11 27l-31 1v18h164c87.333 0 131 -30 131 -90c0 -26 -9.5 -48.5 -28.5 -67.5s-42.167 -28.5 -69.5 -28.5l115 -148c7.33301 -9.33301 19 -14 35 -14v-17h-91l-128 170h-25v-125z
M312.001 337.001c34.667 0 62.333 4.33301 83 13c29.333 11.333 44 32 44 62c0 25.333 -5.5 43.333 -16.5 54s-31.167 18 -60.5 22l-31 2c-13.333 0 -20 -6.66699 -20 -20z" />
    <glyph glyph-name="degree" unicode="&#xb0;" horiz-adv-x="241" 
d="M112 370c-38.667 0 -72.334 14.001 -101.001 42.001s-43 61.667 -43 101c0 38 14.167 71.5 42.5 100.5s62.166 43.5 101.499 43.5c38.667 0 72.334 -14.333 101.001 -43s43 -62.334 43 -101.001s-14.167 -72.167 -42.5 -100.5s-62.166 -42.5 -101.499 -42.5zM111 618.001
c-28 0 -52.5 -10.333 -73.5 -31s-31.5 -45.334 -31.5 -74.001c0 -28 10.333 -52.5 31 -73.5s45.667 -31.5 75 -31.5s54.333 10.333 75 31s31 45.334 31 74.001c0 28 -10.833 52.5 -32.5 73.5s-46.5 31.5 -74.5 31.5z" />
    <glyph glyph-name="plusminus" unicode="&#xb1;" horiz-adv-x="524" 
d="M225 392v227h53v-227h227v-53h-227v-228h-53v228h-227v53h227zM-2 0v53h507v-53h-507z" />
    <glyph glyph-name="acute" unicode="&#xb4;" horiz-adv-x="0" 
d="M53 719c12 0 22.5 -4.66699 31.5 -14s13.5 -20 13.5 -32c0 -10.667 -22.167 -41.167 -66.5 -91.5s-71.5 -75.5 -81.5 -75.5c-11.333 0 -17 7 -17 21l55 114l23 50c11.333 18.667 25.333 28 42 28z" />
    <glyph glyph-name="mu" unicode="&#xb5;" horiz-adv-x="551" 
d="M129 480l-0.000976562 -319c0 -31.333 7.5 -57.5 22.5 -78.5s37.833 -31.5 68.5 -31.5c20 0 40.667 7.33301 62 22s36.666 31.667 45.999 51v356h82v-369c0 -18 4.33301 -35.833 13 -53.5s21.667 -26.5 39 -26.5c16.667 0 29 7.66699 37 23l14 44l19 -1
c-16 -75.333 -55 -113 -117 -113c-27.333 0 -48 9.33301 -62 28c-8 12 -15.667 34.333 -23 67c-44 -63.333 -94.667 -95 -152 -95c-19.333 0 -36.666 5.33301 -51.999 16l-45 31v-22c0 -17.333 5.16699 -43.5 15.5 -78.5s15.5 -60.167 15.5 -75.5
c0 -16.667 -3.66699 -32.334 -11 -47.001s-18.666 -22 -33.999 -22s-27 7.16699 -35 21.5s-12 29.833 -12 46.5c0 17.333 4.5 43.333 13.5 78s13.5 60.334 13.5 77.001v471h82z" />
    <glyph glyph-name="paragraph" unicode="&#xb6;" horiz-adv-x="667" 
d="M539 706l0.00195312 -54h-34v-819h-58v819h-144v-819h-58v486c-48.667 8 -87.334 28.667 -116.001 62c-27.333 34.667 -41 76.667 -41 126c0 63.333 21.333 113 64 149c39.333 33.333 91.666 50 156.999 50h230z" />
    <glyph glyph-name="periodcentered" unicode="&#xb7;" horiz-adv-x="166" 
d="M91 348c16 0 29.999 -5.83203 41.999 -17.499s18 -26.167 18 -43.5c0 -14 -6.16699 -27.167 -18.5 -39.5s-25.833 -18.5 -40.5 -18.5c-17.333 0 -31.666 5.66699 -42.999 17s-17 25.666 -17 42.999s5.66699 31.5 17 42.5s25.333 16.5 42 16.5z" />
    <glyph glyph-name="periodcentered" unicode="&#x2219;" horiz-adv-x="166" 
d="M91 348c16 0 29.999 -5.83203 41.999 -17.499s18 -26.167 18 -43.5c0 -14 -6.16699 -27.167 -18.5 -39.5s-25.833 -18.5 -40.5 -18.5c-17.333 0 -31.666 5.66699 -42.999 17s-17 25.666 -17 42.999s5.66699 31.5 17 42.5s25.333 16.5 42 16.5z" />
    <glyph glyph-name="cedilla" unicode="&#xb8;" horiz-adv-x="0" 
d="M103 23l-34.999 -42l-37 -47c46 -1.33301 69 -21 69 -59c0 -25.333 -18.333 -46.333 -55 -63c-30.667 -13.333 -60 -20 -88 -20c-20 0 -30 6 -30 18l4 8c1.33301 1.33301 20.666 6 57.999 14c27.333 5.33301 41 17 41 35c0 12.667 -7.66699 19 -23 19l-14 -2l-16 -1h-4
l-4 2l-4 7l39 63c26.667 40 42 62 46 66z" />
    <glyph glyph-name="guillemotright" unicode="&#xbb;" horiz-adv-x="442" 
d="M0 118l58.001 84c37.333 55.333 57.666 88.666 60.999 99.999c-26 51.333 -65.667 109 -119 173l2 12l9 2h72c4.66699 0 10.667 -6.66699 18 -20l61 -88c34 -48 51 -74.333 51 -79s-18.333 -35.667 -55 -93l-35 -55c-20 -29.333 -32 -44.666 -36 -45.999l-81 -1
c-4 1.33301 -6 5 -6 11zM225.001 490l49.0029 -1c11.333 0 19.666 -4.66699 24.999 -14l17 -26l54 -77c29.333 -42.667 44.666 -66 45.999 -70c0 -6.66699 -12.667 -28.667 -38 -66l-47 -72l-19 -34c-8.66699 -14 -18.334 -21.333 -29.001 -22h-68c-8 0 -12 3 -12 9l56 83
c38 54 59 87.333 63 100l-63 95c-12 20.667 -30.333 47 -55 79v6c2 6.66699 9 10 21 10z" />
    <glyph glyph-name="questiondown" unicode="&#xbf;" horiz-adv-x="403" 
d="M191 719h4.99902c6 0 16.667 -7.33301 32 -22l32 -30l6 -20c0 -8 -8.5 -20.667 -25.5 -38s-26.5 -28 -28.5 -32c-4 -4 -10 -6 -18 -6s-15.333 3.66699 -22 11l-17 21l-21 19c-7.33301 8 -11.666 16.333 -12.999 25c0 8 9.66699 21.333 29 40c16 15.333 29.667 26 41 32z
M180.999 464l-3 17.999l-2 19c0 10.667 6.66699 16 20 16c10 0 18 -10 24 -30c4 -15.333 6 -29.666 6 -42.999c0 -40 -20 -93.333 -60 -160s-60 -119.667 -60 -159c0 -24 8 -44.667 24 -62c16.667 -15.333 38 -23 64 -23c28 0 50.667 9.66699 68 29
c6.66699 7.33301 16 25.333 28 54c8 18 17 27.667 27 29c14 0 21 -7.66699 21 -23l-10 -36l-22 -80c0 -6.66699 -2.33301 -15.667 -7 -27l-4 -3l-10 -2c-8 0 -17.333 5.33301 -28 16l-6 1c-8 0 -15.333 -0.666992 -22 -2s-12 -2.33301 -16 -3l-38 -5
c-114 0 -171 46 -171 138c0 38 15.333 77.667 46 119l85 102c30.667 40.667 46 79.667 46 117z" />
    <glyph glyph-name="Agrave" unicode="&#xc0;" 
d="M261 926c15.333 0 35.333 -13.333 60 -40l50 -58c12 -10 29 -28 51 -54l1 -3v-4l-3 -9l-8 -7l-6 -2c-6 1.33301 -20 8.33301 -42 21l-44 27l-62 33c-26.667 17.333 -40 34 -40 50c0 10 4.5 20.167 13.5 30.5s18.833 15.5 29.5 15.5zM287 624
c0 18.667 -6.33301 31.001 -19 37.001l-35 7c-12 2 -18 10 -18 24c0 7.33301 9 12.666 27 15.999l41 -4l42 -4l38 3l38 4c10.667 0 18 -4 22 -12l7 -34c10 -42 26 -93 48 -153l58 -149c8 -22.667 19.667 -54 35 -94l56 -140c22 -46 48.333 -72.333 79 -79l32 -7
c11.333 -2 17 -9.66699 17 -23c-4 -10.667 -12 -16 -24 -16l-64 4l-63 5c-6.66699 0 -15.334 -0.333008 -26.001 -1s-23 -2 -37 -4l-62 -4c-15.333 -0 -23 6.33301 -23 19c0 5.33301 1.33301 10.333 4 15l44 17c15.333 6 23 16.667 23 32c0 16 -16.333 67.667 -49 155
c-6 17.333 -13.167 28.166 -21.5 32.499s-22.833 6.5 -43.5 6.5h-129c-24.667 0 -41.5 -1.66699 -50.5 -5s-17.833 -13.666 -26.5 -30.999l-25 -60c-20.667 -52.667 -31 -86.334 -31 -101.001c0 -18.667 13.667 -31 41 -37c27.333 -4 41 -13.333 41 -28l-4 -8
c-5.33301 -3.33301 -11.333 -5.66602 -18 -6.99902l-51 4l-51 4l-61 -4l-62 -4c-14 -0 -21 7.33301 -21 22c0 4 3 8.66699 9 14l19 9l29 8c12.667 4 27.334 18.667 44.001 44c8.66699 14 23 43.333 43 88l79 181c66 154 99 240 99 258zM421 330.001
c8.66699 4 13.335 10.666 14.002 19.999c0 8.66699 -13.333 48.334 -40 119.001s-42.334 109 -47.001 115c-4.66699 -3.33301 -21.334 -41.5 -50.001 -114.5s-43.667 -114.833 -45 -125.5c0 -10 11 -15 33 -15l68 1h67z" />
    <glyph glyph-name="Aacute" unicode="&#xc1;" 
d="M271 768c0 10 23.168 39.167 69.501 87.5s76.166 72.5 89.499 72.5c11.333 0 21.333 -4.33301 30 -13s13 -18.667 13 -30c0 -16 -8.33301 -29.333 -25 -40c-91.333 -59.333 -144 -91 -158 -95c-10 0 -16.333 4.66699 -19 14v4zM287.001 624
c0 18.667 -6.33301 31.001 -19 37.001l-35 7c-12 2 -18 10 -18 24c0 7.33301 9 12.666 27 15.999l41 -4l42 -4l38 3l38 4c10.667 0 18 -4 22 -12l7 -34c10 -42 26 -93 48 -153l58 -149c8 -22.667 19.667 -54 35 -94l56 -140c22 -46 48.333 -72.333 79 -79l32 -7
c11.333 -2 17 -9.66699 17 -23c-4 -10.667 -12 -16 -24 -16l-64 4l-63 5c-6.66699 0 -15.334 -0.333008 -26.001 -1s-23 -2 -37 -4l-62 -4c-15.333 -0 -23 6.33301 -23 19c0 5.33301 1.33301 10.333 4 15l44 17c15.333 6 23 16.667 23 32c0 16 -16.333 67.667 -49 155
c-6 17.333 -13.167 28.166 -21.5 32.499s-22.833 6.5 -43.5 6.5h-129c-24.667 0 -41.5 -1.66699 -50.5 -5s-17.833 -13.666 -26.5 -30.999l-25 -60c-20.667 -52.667 -31 -86.334 -31 -101.001c0 -18.667 13.667 -31 41 -37c27.333 -4 41 -13.333 41 -28l-4 -8
c-5.33301 -3.33301 -11.333 -5.66602 -18 -6.99902l-51 4l-51 4l-61 -4l-62 -4c-14 -0 -21 7.33301 -21 22c0 4 3 8.66699 9 14l19 9l29 8c12.667 4 27.334 18.667 44.001 44c8.66699 14 23 43.333 43 88l79 181c66 154 99 240 99 258zM421.001 330.001
c8.66699 4 13.335 10.666 14.002 19.999c0 8.66699 -13.333 48.334 -40 119.001s-42.334 109 -47.001 115c-4.66699 -3.33301 -21.334 -41.5 -50.001 -114.5s-43.667 -114.833 -45 -125.5c0 -10 11 -15 33 -15l68 1h67z" />
    <glyph glyph-name="Acircumflex" unicode="&#xc2;" 
d="M168 770c0 6 19.667 30.834 59 74.501s61.333 65.5 66 65.5h99c6 0 27.667 -20 65 -60c17.333 -19.333 30 -34 38 -44l24 -31l1 -4v-5c0 -12 -5.66699 -18 -17 -18c-7.33301 0 -58.333 32.333 -153 97l-6 1c-12 -4.66699 -39.333 -22.334 -82 -53.001
c-38.667 -28 -63.667 -42.667 -75 -44c-12.667 0 -19 7 -19 21zM287 624.001c0 18.667 -6.33301 31.001 -19 37.001l-35 7c-12 2 -18 10 -18 24c0 7.33301 9 12.666 27 15.999l41 -4l42 -4l38 3l38 4c10.667 0 18 -4 22 -12l7 -34c10 -42 26 -93 48 -153l58 -149
c8 -22.667 19.667 -54 35 -94l56 -140c22 -46 48.333 -72.333 79 -79l32 -7c11.333 -2 17 -9.66699 17 -23c-4 -10.667 -12 -16 -24 -16l-64 4l-63 5c-6.66699 0 -15.334 -0.333008 -26.001 -1s-23 -2 -37 -4l-62 -4c-15.333 0 -23 6.33301 -23 19
c0 5.33301 1.33301 10.333 4 15l44 17c15.333 6 23 16.667 23 32c0 16 -16.333 67.667 -49 155c-6 17.333 -13.167 28.166 -21.5 32.499s-22.833 6.5 -43.5 6.5h-129c-24.667 0 -41.5 -1.66699 -50.5 -5s-17.833 -13.666 -26.5 -30.999l-25 -60
c-20.667 -52.667 -31 -86.334 -31 -101.001c0 -18.667 13.667 -31 41 -37c27.333 -4 41 -13.333 41 -28l-4 -8c-5.33301 -3.33301 -11.333 -5.66602 -18 -6.99902l-51 4l-51 4l-61 -4l-62 -4c-14 0 -21 7.33301 -21 22c0 4 3 8.66699 9 14l19 9l29 8
c12.667 4 27.334 18.667 44.001 44c8.66699 14 23 43.333 43 88l79 181c66 154 99 240 99 258zM421 330.002c8.66699 4 13.335 10.666 14.002 19.999c0 8.66699 -13.333 48.334 -40 119.001s-42.334 109 -47.001 115c-4.66699 -3.33301 -21.334 -41.5 -50.001 -114.5
s-43.667 -114.833 -45 -125.5c0 -10 11 -15 33 -15l68 1h67z" />
    <glyph glyph-name="Atilde" unicode="&#xc3;" 
d="M249 885c25.333 0 60.333 -10.667 105 -32c23.333 -10.667 43.333 -18.5 60 -23.5s31.334 -7.5 44.001 -7.5c17.333 0 30.5 11.833 39.5 35.5s18.5 35.5 28.5 35.5c11.333 -2 17 -9 17 -21c0 -26 -10.833 -54.167 -32.5 -84.5s-45.167 -45.5 -70.5 -45.5
c-24 0 -60 10.333 -108 31s-80.667 31 -98 31c-16.667 0 -30.334 -11.667 -41.001 -35c-8.66699 -22 -17.667 -33.667 -27 -35c-13.333 0 -20 6 -20 18c0 24 11.667 52.167 35 84.5s46 48.5 68 48.5zM287 624c0 18.667 -6.33301 31.001 -19 37.001l-35 7
c-12 2 -18 10 -18 24c0 7.33301 9 12.666 27 15.999l41 -4l42 -4l38 3l38 4c10.667 0 18 -4 22 -12l7 -34c10 -42 26 -93 48 -153l58 -149c8 -22.667 19.667 -54 35 -94l56 -140c22 -46 48.333 -72.333 79 -79l32 -7c11.333 -2 17 -9.66699 17 -23
c-4 -10.667 -12 -16 -24 -16l-64 4l-63 5c-6.66699 0 -15.334 -0.333008 -26.001 -1s-23 -2 -37 -4l-62 -4c-15.333 -0 -23 6.33301 -23 19c0 5.33301 1.33301 10.333 4 15l44 17c15.333 6 23 16.667 23 32c0 16 -16.333 67.667 -49 155
c-6 17.333 -13.167 28.166 -21.5 32.499s-22.833 6.5 -43.5 6.5h-129c-24.667 0 -41.5 -1.66699 -50.5 -5s-17.833 -13.666 -26.5 -30.999l-25 -60c-20.667 -52.667 -31 -86.334 -31 -101.001c0 -18.667 13.667 -31 41 -37c27.333 -4 41 -13.333 41 -28l-4 -8
c-5.33301 -3.33301 -11.333 -5.66602 -18 -6.99902l-51 4l-51 4l-61 -4l-62 -4c-14 -0 -21 7.33301 -21 22c0 4 3 8.66699 9 14l19 9l29 8c12.667 4 27.334 18.667 44.001 44c8.66699 14 23 43.333 43 88l79 181c66 154 99 240 99 258zM421 330.001
c8.66699 4 13.335 10.666 14.002 19.999c0 8.66699 -13.333 48.334 -40 119.001s-42.334 109 -47.001 115c-4.66699 -3.33301 -21.334 -41.5 -50.001 -114.5s-43.667 -114.833 -45 -125.5c0 -10 11 -15 33 -15l68 1h67z" />
    <glyph glyph-name="Adieresis" unicode="&#xc4;" 
d="M198 886c8.66699 0 22.332 -8.66797 40.999 -26.001s28.667 -30.666 30 -39.999c0 -8 -9 -22.333 -27 -43s-31.667 -31 -41 -31c-8 0 -21.667 9.66699 -41 29c-18.667 20.667 -28 35 -28 43c0 6.66699 9.33301 19.5 28 38.5s31.334 28.833 38.001 29.5zM502.998 885.999
c6 0 12.333 -3.33301 19 -10l19 -19l20 -18c6.66699 -5.33301 10 -14 10 -26c-2 -6.66699 -11.333 -18.5 -28 -35.5s-28 -27.167 -34 -30.5h-8l-3 1h-4l-58 57l-3 12c0 8 9.33301 21.5 28 40.5s32.667 28.5 42 28.5zM-36.002 27.999
c3.33301 5.33301 16.001 12.3301 38.001 20.9971s38.667 19.334 50 32.001c14 16.667 56.333 106.5 127 269.5s106 254.5 106 274.5c0 18 -6.33301 30.333 -19 37l-43 9l-7 5l-4 13c0 13.333 7.66699 20 23 20l43 -4l44 -4l39 3l39 4c11.333 0 18.333 -3.66699 21 -11
c1.33301 -8 2.83301 -15.167 4.5 -21.5s4.83398 -17.166 9.50098 -32.499c16.667 -58.667 49.667 -153 99 -283l44 -127c18 -50.667 36.333 -92 55 -124c14 -24 29.333 -41 46 -51c5.33301 -3.33301 13.666 -6.66602 24.999 -9.99902l30 -7c12.667 -4 19 -10.667 19 -20
c0 -6 -3.66699 -12.333 -11 -19l-5 -1l-69 4l-69 4l-60 -4l-60 -4c-16.667 0 -25 7.66699 -25 23l4 12l44 16c15.333 6 23 18 23 36c0 8 -11 43.667 -33 107c-2.66699 8 -5.33398 16.5 -8.00098 25.5s-5.66699 15.5 -9 19.5c-8 18.667 -17.667 30.334 -29 35.001l-31 4h-30
l-30 -1l-43 1l-44 1c-18 0 -31 -3 -39 -9c-8 -4.66699 -16 -15.667 -24 -33l-22 -50c-10.667 -25.333 -19 -47.5 -25 -66.5s-9 -32.5 -9 -40.5c0 -18.667 13.833 -30.834 41.5 -36.501s41.5 -13.5 41.5 -23.5c0 -7.33301 -5.66699 -14 -17 -20h-4l-58 4l-58 4l-57 -4l-57 -4
c-12 0 -18 7 -18 21zM250.999 343.996c4 -8 11.333 -12.334 22 -13.001h139c14 0 21 6.33301 21 19c0 5.33301 -9 33 -27 83l-34 91c-14 40.667 -22.667 61.334 -26 62.001l-11 -20l-10 -24l-42 -102c-21.333 -52.667 -32 -84.667 -32 -96z" />
    <glyph glyph-name="Aring" unicode="&#xc5;" 
d="M349 895c21.333 0 40.5 -7.83301 57.5 -23.5s25.5 -34.5 25.5 -56.5c0 -20.667 -7.83301 -39.667 -23.5 -57s-34.167 -26 -55.5 -26c-22 0 -41.333 8 -58 24s-25 36 -25 60c0 20 8.16699 38.167 24.5 54.5s34.5 24.5 54.5 24.5zM351 772
c9.33301 0 18.5 4.16699 27.5 12.5s13.5 17.833 13.5 28.5c0 12 -3.83301 22 -11.5 30s-17.5 12 -29.5 12c-11.333 0 -21 -3.66699 -29 -11s-12 -17 -12 -29c0 -28.667 13.667 -43 41 -43zM286 628c0 20.667 -12.001 32.999 -36.001 36.999s-36 12.333 -36 25
c0 12 10 18 30 18h18c7.33301 -2 12.666 -3.33301 15.999 -4l34 -4l46 4l46 4c4.66699 0 9.16699 -2.5 13.5 -7.5s7.5 -16 9.5 -33s8 -39.167 18 -66.5l25 -66c44 -124 89.667 -244.667 137 -362c16.667 -42 29.334 -69.333 38.001 -82c17.333 -25.333 41.333 -41 72 -47
c7.33301 0 17.333 -2.66699 30 -8l4 -4l3 -11c0 -14 -8.33301 -21 -25 -21l-69 4l-69 4l-55 -4l-56 -4c-16.667 0 -25 6.33301 -25 19l2 12l5 5c9.33301 2.66699 18.166 5.33398 26.499 8.00098s13.5 4.66699 15.5 6c14.667 8.66699 22 20.334 22 35.001
c0 10 -10 43.667 -30 101l-21 52c-7.33301 16.667 -14.666 27.667 -21.999 33s-19.666 8 -36.999 8l-41 -1l-41 -1l-29 1h-29c-21.333 0 -36.333 -1.83301 -45 -5.5s-17.334 -14.167 -26.001 -31.5l-24 -62l-20 -49c-7.33301 -20.667 -11 -37.667 -11 -51
c0 -18 13.333 -30 40 -36c26.667 -4.66699 41 -12 43 -22c-2 -14 -8.66699 -21 -20 -21l-48 4l-47 4l-66 -4l-66 -4c-14.667 0 -22 7.33301 -22 22c2 8 13.333 15.333 34 22c24 6 44 20.333 60 43c4.66699 6 9.83398 14.5 15.501 25.5s12.167 24.5 19.5 40.5
c128.667 291.333 193 449.666 193 474.999zM334.999 328.999h23.001l22 -1c25.333 0 42.666 3 51.999 9l2 5c0 7.33301 -13 48 -39 122s-41 114 -45 120l-4 -1l-53 -122c-26 -64 -39.667 -102.333 -41 -115c0 -13.333 13.667 -20 41 -20l21 1z" />
    <glyph glyph-name="AE" unicode="&#xc6;" horiz-adv-x="1006" 
d="M426 636c0 16 -11.1689 25.1641 -33.502 27.4971s-33.5 10.5 -33.5 24.5c0 11.333 9 17 27 17l110 -4l111 -3h65c24 0 44.333 0.333008 61 1l48 2c6 0 10.833 0.5 14.5 1.5s10.167 3.16699 19.5 6.5l37 7c9.33301 0 16.666 -6 21.999 -18l41 -101l15 -43l-4 -9l-5 -5
l-12 -2c-8 0 -20 11.333 -36 34l-33 45c-24.667 20.667 -67.334 31 -128.001 31c-62 0 -98.333 -9.33301 -109 -28c-4.66699 -9.33301 -7 -24 -7 -44l1 -37v-37v-34l-1 -33c0 -18.667 2.66699 -29.834 8 -33.501s17.333 -5.5 36 -5.5h45h13c28 0 45.667 1.33301 53 4
c21.333 6 34.333 22 39 48l4 24c3.33301 10 9 15 17 15c4.66699 0 8.33398 -1.66699 11.001 -5c8 -5.33301 12 -24.666 12 -57.999c0 -17.333 1.16699 -34.333 3.5 -51s5.5 -32 9.5 -46l17 -67l-1 -6l-3 -5c-3.33301 -3.33301 -8.66602 -5.66602 -15.999 -6.99902
c-8 0 -15 5.66699 -21 17l-10 28c-10 28 -27.667 46 -53 54c-13.333 3.33301 -39.666 5 -78.999 5c-41.333 0 -67.666 -4 -78.999 -12l-3 -6l1 -7l-1 -24l-1 -24l1 -88c0 -47.333 3 -77.666 9 -90.999c10 -24.667 35.333 -37 76 -37c96.667 0 162.667 14 198 42l35 40
c17.333 20 29.333 30 36 30c12.667 0 19 -7 19 -21c0 -4.66699 -7 -21.667 -21 -51l-27 -55c-12 -28.667 -26.667 -43 -44 -43l-141 4l-141 4l-79 -4l-79 -4c-16 0 -24 7 -24 21l1 4l6 11l17 4c41.333 7.33301 62 41.333 62 102v77l-1 76c0 24 -2.16699 38.5 -6.5 43.5
s-18.166 7.5 -41.499 7.5l-47 1c-51.333 0 -81.333 -2.66699 -90 -8c-2.66699 -3.33301 -5 -6 -7 -8c-8.66699 -10 -15.334 -18.333 -20.001 -25c-102 -132 -153 -209 -153 -231c0 -14 9.16699 -23.667 27.5 -29s29.166 -10.666 32.499 -15.999l5 -9
c0 -12.667 -6.66699 -19 -20 -19l-62 4l-59 5c-4.66699 0 -11.167 -0.333008 -19.5 -1s-17.833 -2 -28.5 -4l-47 -4c-17.333 0 -26 7 -26 21c0 7.33301 6.66699 13.333 20 18c26.667 8 53.334 25.5 80.001 52.5s97 119.833 211 278.5c117.333 162.667 176 251 176 265z
M359.998 412.997l-3 -8c0 -7.33301 6.66699 -11 20 -11l51 1h50c17.333 0 26 16 26 48l-1 19l-1 21v108c0 16 -1 28 -3 36l-100 -155l-15.5 -24.5z" />
    <glyph glyph-name="Ccedilla" unicode="&#xc7;" horiz-adv-x="664" 
d="M357 717c15.333 0 39.833 -3.00098 73.5 -9.00098s59.167 -9 76.5 -9c11.333 0 21.833 3.83301 31.5 11.5s16.834 11.5 21.501 11.5c5.33301 0 9 -1.66699 11 -5c4 -3.33301 7.66699 -11.666 11 -24.999c3.33301 -22.667 8.66602 -45.834 15.999 -69.501
s18.666 -51.5 33.999 -83.5c0 -9.33301 -0.666992 -15.333 -2 -18c-4 -4 -10.333 -6 -19 -6c-3.33301 0 -16.666 13 -39.999 39c-26.667 31.333 -52.667 55.666 -78 72.999c-20 13.333 -40.333 23.333 -61 30s-43 10 -67 10c-86 0 -152 -31 -198 -93
c-42 -56 -63 -128.333 -63 -217c0 -84 22 -156 66 -216c49.333 -66 114.333 -99 195 -99c57.333 0 107 16 149 48c24 18.667 48.667 48 74 88c19.333 32 32.333 48 39 48c8 0 15 -5.33301 21 -16v-5c0 -18.667 -14.333 -46.667 -43 -84
c-60 -79.333 -136 -123.666 -228 -132.999l-45 -54l24 -3c30.667 -4 46 -22.667 46 -56c0 -25.333 -18.333 -46.333 -55 -63c-30.667 -13.333 -60 -20 -88 -20c-20.667 0 -31 6.33301 -31 19c1.33301 5.33301 19 11.5 53 18.5s51 19.5 51 37.5c0 12.667 -7.66699 19 -23 19
l-15 -2l-15 -1h-4l-4 2l-3 7l15 25c9.33301 15.333 25 39.333 47 72c-46.667 0 -90 9.16699 -130 27.5s-76.333 44.833 -109 79.5c-62 66 -93 148 -93 246c0 106.667 33 195.834 99 267.501s152.667 107.5 260 107.5z" />
    <glyph glyph-name="Egrave" unicode="&#xc8;" horiz-adv-x="583" 
d="M175 926c15.333 0 37 -14.999 65 -44.999l56 -65c8.66699 -7.33301 22 -21.333 40 -42l1 -3v-4l-3 -9l-8 -7l-6 -3c-6.66699 1.33301 -20.667 8.66602 -42 21.999l-44 28l-61 33c-27.333 16 -41 32.333 -41 49c0 10 4.5 20.167 13.5 30.5s18.833 15.5 29.5 15.5z
M-8 708.001l91.998 -4l92 -3h59h22h18h15h12c29.333 0 51 1.33301 65 4c6 0 12.667 1 20 3l18 5l34 7c9.33301 0 15.666 -4 18.999 -12l56 -152l-1 -5l-6 -8c-4 -2 -8.66699 -3 -14 -3c-6 0 -16.667 10 -32 30l-26 41c-22 27.333 -73.667 41 -155 41
c-51.333 0 -82 -5 -92 -15c-8.66699 -10 -13 -40.667 -13 -92v-30l-1 -30c0 -15.333 1.66699 -25.666 5 -30.999c6.66699 -10.667 33.334 -16 80.001 -16c40 0 68 2.16699 84 6.5s25.333 15.166 28 32.499c2 22 7 38 15 48l10 3c5.33301 0 9.83301 -2 13.5 -6
s5.83398 -11 6.50098 -21c0 -24.667 2 -50 6 -76s11 -58.667 21 -98l5 -29c0 -5.33301 -4.33301 -10.333 -13 -15c-13.333 0 -24 9.33301 -32 28l-17 43c-14 22 -45.333 33 -94 33h-64c-22 0 -36.167 -4.16699 -42.5 -12.5s-9.5 -24.166 -9.5 -47.499v-134
c0 -58 4.66699 -93 14 -105c12.667 -18.667 46.334 -28 101.001 -28c56.667 0 97.667 4.33301 123 13c36.667 12 68.667 37.667 96 77c10 14 18.667 21 26 21c3.33301 0 7.33301 -1.83301 12 -5.5s7.66699 -7.83398 9 -12.501l-8 -21.5
c-2.66699 -7 -10.667 -23.833 -24 -50.5c-20 -44.667 -31.667 -67.667 -35 -69c-8 -6 -17.667 -9.66699 -29 -11l-114 4l-109 4c-92 0 -158.667 -2.33301 -200 -7l-21 -2c-8 0 -15.667 4 -23 12l-1 9c0 7.33301 7.33301 14 22 20l33 9c20 12 30 49 30 111
c0 68 -0.5 136.833 -1.5 206.5s-1.83301 143.167 -2.5 220.5c0 34.667 -11 57.667 -33 69l-38 9c-18 4 -27.333 10.667 -28 20c0 14.667 5.66699 22 17 22z" />
    <glyph glyph-name="Eacute" unicode="&#xc9;" horiz-adv-x="583" 
d="M185 768c0 10 23.168 39.166 69.501 87.499s76.166 72.5 89.499 72.5c12 0 22.333 -4.83301 31 -14.5s13 -20.5 13 -32.5c0 -13.333 -8.66699 -25.666 -26 -36.999c-91.333 -58 -144 -89.333 -158 -94c-10 0 -16.333 4.66699 -19 14v4zM-7.99902 707.999l91.998 -4l92 -3
h59h22h18h15h12c29.333 0 51 1.33301 65 4c6 0 12.667 1 20 3l18 5l34 7c9.33301 0 15.666 -4 18.999 -12l56 -152l-1 -5l-6 -8c-4 -2 -8.66699 -3 -14 -3c-6 0 -16.667 10 -32 30l-26 41c-22 27.333 -73.667 41 -155 41c-51.333 0 -82 -5 -92 -15
c-8.66699 -10 -13 -40.667 -13 -92v-30l-1 -30c0 -15.333 1.66699 -25.666 5 -30.999c6.66699 -10.667 33.334 -16 80.001 -16c40 0 68 2.16699 84 6.5s25.333 15.166 28 32.499c2 22 7 38 15 48l10 3c5.33301 0 9.83301 -2 13.5 -6s5.83398 -11 6.50098 -21
c0 -24.667 2 -50 6 -76s11 -58.667 21 -98l5 -29c0 -5.33301 -4.33301 -10.333 -13 -15c-13.333 0 -24 9.33301 -32 28l-17 43c-14 22 -45.333 33 -94 33h-64c-22 0 -36.167 -4.16699 -42.5 -12.5s-9.5 -24.166 -9.5 -47.499v-134c0 -58 4.66699 -93 14 -105
c12.667 -18.667 46.334 -28 101.001 -28c56.667 0 97.667 4.33301 123 13c36.667 12 68.667 37.667 96 77c10 14 18.667 21 26 21c3.33301 0 7.33301 -1.83301 12 -5.5s7.66699 -7.83398 9 -12.501l-8 -21.5c-2.66699 -7 -10.667 -23.833 -24 -50.5
c-20 -44.667 -31.667 -67.667 -35 -69c-8 -6 -17.667 -9.66699 -29 -11l-114 4l-109 4c-92 0 -158.667 -2.33301 -200 -7l-21 -2c-8 0 -15.667 4 -23 12l-1 9c0 7.33301 7.33301 14 22 20l33 9c20 12 30 49 30 111c0 68 -0.5 136.833 -1.5 206.5
s-1.83301 143.167 -2.5 220.5c0 34.667 -11 57.667 -33 69l-38 9c-18 4 -27.333 10.667 -28 20c0 14.667 5.66699 22 17 22z" />
    <glyph glyph-name="Ecircumflex" unicode="&#xca;" horiz-adv-x="583" 
d="M81 770c0 4.66699 19.502 29.001 58.502 73.001s61.5 66.333 67.5 67h100c7.33301 0 30.166 -22 68.499 -66s58.166 -70.333 59.499 -79c0 -11.333 -6 -17 -18 -17c-7.33301 0 -58.333 32.333 -153 97l-6 1c-12 -4.66699 -39.333 -22.334 -82 -53.001
c-38.667 -28 -63.667 -42.667 -75 -44c-13.333 0 -20 7 -20 21zM-7.99805 708.001l91.998 -4l92 -3h59h22h18h15h12c29.333 0 51 1.33301 65 4c6 0 12.667 1 20 3l18 5l34 7c9.33301 0 15.666 -4 18.999 -12l56 -152l-1 -5l-6 -8c-4 -2 -8.66699 -3 -14 -3
c-6 0 -16.667 10 -32 30l-26 41c-22 27.333 -73.667 41 -155 41c-51.333 0 -82 -5 -92 -15c-8.66699 -10 -13 -40.667 -13 -92v-30l-1 -30c0 -15.333 1.66699 -25.666 5 -30.999c6.66699 -10.667 33.334 -16 80.001 -16c40 0 68 2.16699 84 6.5s25.333 15.166 28 32.499
c2 22 7 38 15 48l10 3c5.33301 0 9.83301 -2 13.5 -6s5.83398 -11 6.50098 -21c0 -24.667 2 -50 6 -76s11 -58.667 21 -98l5 -29c0 -5.33301 -4.33301 -10.333 -13 -15c-13.333 0 -24 9.33301 -32 28l-17 43c-14 22 -45.333 33 -94 33h-64
c-22 0 -36.167 -4.16699 -42.5 -12.5s-9.5 -24.166 -9.5 -47.499v-134c0 -58 4.66699 -93 14 -105c12.667 -18.667 46.334 -28 101.001 -28c56.667 0 97.667 4.33301 123 13c36.667 12 68.667 37.667 96 77c10 14 18.667 21 26 21c3.33301 0 7.33301 -1.83301 12 -5.5
s7.66699 -7.83398 9 -12.501l-8 -21.5c-2.66699 -7 -10.667 -23.833 -24 -50.5c-20 -44.667 -31.667 -67.667 -35 -69c-8 -6 -17.667 -9.66699 -29 -11l-114 4l-109 4c-92 0 -158.667 -2.33301 -200 -7l-21 -2c-8 0 -15.667 4 -23 12l-1 9c0 7.33301 7.33301 14 22 20l33 9
c20 12 30 49 30 111c0 68 -0.5 136.833 -1.5 206.5s-1.83301 143.167 -2.5 220.5c0 34.667 -11 57.667 -33 69l-38 9c-18 4 -27.333 10.667 -28 20c0 14.667 5.66699 22 17 22z" />
    <glyph glyph-name="Edieresis" unicode="&#xcb;" horiz-adv-x="583" 
d="M111 884c11.333 0 32.999 -17.333 64.999 -52l3 -14c0 -9.33301 -9.16699 -24.166 -27.5 -44.499s-32.166 -30.5 -41.499 -30.5c-6 0 -19.667 10 -41 30c-18 19.333 -27.667 33.333 -29 42c0 8 9.33301 21.667 28 41c18.667 17.333 33 26.666 43 27.999zM411.999 885
c4 0 15.334 -8.16699 34.001 -24.5s29 -26.833 31 -31.5l3 -10c0 -6 -1.33301 -10.667 -4 -14l-30 -36c-14.667 -16.667 -26.334 -25 -35.001 -25c-7.33301 0 -21 9.66699 -41 29c-18 19.333 -27.667 33 -29 41c0 9.33301 9.5 23.5 28.5 42.5s33.167 28.5 42.5 28.5zM-9 708
l91.998 -4l92 -3h59h22h18h15h12c29.333 0 51 1.33301 65 4c6 0 12.667 1 20 3l18 5l34 7c9.33301 0 15.666 -4 18.999 -12l56 -152l-1 -5l-6 -8c-4 -2 -8.66699 -3 -14 -3c-6 0 -16.667 10 -32 30l-26 41c-22 27.333 -73.667 41 -155 41c-51.333 0 -82 -5 -92 -15
c-8.66699 -10 -13 -40.667 -13 -92v-30l-1 -30c0 -15.333 1.66699 -25.666 5 -30.999c6.66699 -10.667 33.334 -16 80.001 -16c40 0 68 2.16699 84 6.5s25.333 15.166 28 32.499c2 22 7 38 15 48l10 3c5.33301 0 9.83301 -2 13.5 -6s5.83398 -11 6.50098 -21
c0 -24.667 2 -50 6 -76s11 -58.667 21 -98l5 -29c0 -5.33301 -4.33301 -10.333 -13 -15c-13.333 0 -24 9.33301 -32 28l-17 43c-14 22 -45.333 33 -94 33h-64c-22 0 -36.167 -4.16699 -42.5 -12.5s-9.5 -24.166 -9.5 -47.499v-134c0 -58 4.66699 -93 14 -105
c12.667 -18.667 46.334 -28 101.001 -28c56.667 0 97.667 4.33301 123 13c36.667 12 68.667 37.667 96 77c10 14 18.667 21 26 21c3.33301 0 7.33301 -1.83301 12 -5.5s7.66699 -7.83398 9 -12.501l-8 -21.5c-2.66699 -7 -10.667 -23.833 -24 -50.5
c-20 -44.667 -31.667 -67.667 -35 -69c-8 -6 -17.667 -9.66699 -29 -11l-114 4l-109 4c-92 0 -158.667 -2.33301 -200 -7l-21 -2c-8 0 -15.667 4 -23 12l-1 9c0 7.33301 7.33301 14 22 20l33 9c20 12 30 49 30 111c0 68 -0.5 136.833 -1.5 206.5
s-1.83301 143.167 -2.5 220.5c0 34.667 -11 57.667 -33 69l-38 9c-18 4 -27.333 10.667 -28 20c0 14.667 5.66699 22 17 22z" />
    <glyph glyph-name="Igrave" unicode="&#xcc;" horiz-adv-x="301" 
d="M45 926c13.333 0 33 -13.334 59 -40.001l50 -58c10 -8 26.667 -26 50 -54l2 -9c-4.66699 -10.667 -10 -16 -16 -16c-4 0 -18 7 -42 21l-45 27l-61 33c-26.667 16.667 -40 33.334 -40 50.001c0 11.333 4.16699 21.833 12.5 31.5s18.5 14.5 30.5 14.5zM-15 695.999
c6 8 13.3301 12.001 21.9971 12.001c12.667 0 28.334 -1.66699 47.001 -5l46 -4h36l57 4l57 5c8 0 14.667 -2.66699 20 -8c2 -4 3 -8.66699 3 -14c0 -8 -11 -15 -33 -21c-32.667 -7.33301 -49 -39.666 -49 -96.999l2 -57l-2 -284c0 -24.667 0.333008 -45.834 1 -63.501
l2 -50.5c0 -28.667 10.333 -49 31 -61c2 -1.33301 8 -3 18 -5s21.667 -4 35 -6s20.333 -8.33301 21 -19c0 -14.667 -7 -22 -21 -22c-6 -0 -14.167 0.333008 -24.5 1s-22.166 2 -35.499 4c-26 4 -46 6 -60 6s-35 -2 -63 -6l-61 -5c-9.33301 0 -17 6 -23 18
c0 9.33301 11 17.666 33 24.999s35.833 19 41.5 35s8.5 38.667 8.5 68l-1 340l1 32l1 31c0 67.333 -16.667 105 -50 113l-36 6c-15.333 4 -23.666 11 -24.999 21v4z" />
    <glyph glyph-name="Iacute" unicode="&#xcd;" horiz-adv-x="301" 
d="M54 768c0 9.33301 23 38.332 69 86.999s76 73 90 73c11.333 0 21.5 -4.16699 30.5 -12.5s13.5 -18.5 13.5 -30.5c0 -15.333 -8.33301 -29 -25 -41c-84 -55.333 -137.333 -86.666 -160 -93.999c-7.33301 0 -13.333 4.66699 -18 14v4zM-15 695.999
c6 8 13.3301 12.001 21.9971 12.001c12.667 0 28.334 -1.66699 47.001 -5l46 -4h36l57 4l57 5c8 0 14.667 -2.66699 20 -8c2 -4 3 -8.66699 3 -14c0 -8 -11 -15 -33 -21c-32.667 -7.33301 -49 -39.666 -49 -96.999l2 -57l-2 -284c0 -24.667 0.333008 -45.834 1 -63.501
l2 -50.5c0 -28.667 10.333 -49 31 -61c2 -1.33301 8 -3 18 -5s21.667 -4 35 -6s20.333 -8.33301 21 -19c0 -14.667 -7 -22 -21 -22c-6 -0 -14.167 0.333008 -24.5 1s-22.166 2 -35.499 4c-26 4 -46 6 -60 6s-35 -2 -63 -6l-61 -5c-9.33301 0 -17 6 -23 18
c0 9.33301 11 17.666 33 24.999s35.833 19 41.5 35s8.5 38.667 8.5 68l-1 340l1 32l1 31c0 67.333 -16.667 105 -50 113l-36 6c-15.333 4 -23.666 11 -24.999 21v4z" />
    <glyph glyph-name="Icircumflex" unicode="&#xce;" horiz-adv-x="301" 
d="M-41 770c0 6 19.668 30.834 59.001 74.501s61.333 65.5 66 65.5h100c7.33301 0 30.166 -22 68.499 -66s58.166 -70 59.499 -78c0 -12 -5.33301 -18 -16 -18c-5.33301 0 -30.833 15.833 -76.5 47.5s-73.167 48.5 -82.5 50.5c-6.66699 -1.33301 -16.667 -6.33301 -30 -15
s-30.666 -21.334 -51.999 -38.001c-39.333 -29.333 -65 -44 -77 -44c-12.667 0 -19 7 -19 21zM-6.99902 696.001c6 8 13.3301 12.001 21.9971 12.001c12.667 0 28.334 -1.66699 47.001 -5l46 -4h36l57 4l57 5c8 0 14.667 -2.66699 20 -8c2 -4 3 -8.66699 3 -14
c0 -8 -11 -15 -33 -21c-32.667 -7.33301 -49 -39.666 -49 -96.999l2 -57l-2 -284c0 -24.667 0.333008 -45.834 1 -63.501l2 -50.5c0 -28.667 10.333 -49 31 -61c2 -1.33301 8 -3 18 -5s21.667 -4 35 -6s20.333 -8.33301 21 -19c0 -14.667 -7 -22 -21 -22
c-6 0 -14.167 0.333008 -24.5 1s-22.166 2 -35.499 4c-26 4 -46 6 -60 6s-35 -2 -63 -6l-61 -5c-9.33301 0 -17 6 -23 18c0 9.33301 11 17.666 33 24.999s35.833 19 41.5 35s8.5 38.667 8.5 68l-1 340l1 32l1 31c0 67.333 -16.667 105 -50 113l-36 6
c-15.333 4 -23.666 11 -24.999 21v4z" />
    <glyph glyph-name="Idieresis" unicode="&#xcf;" horiz-adv-x="301" 
d="M-18 884c8 0 20.833 -8.83203 38.5 -26.499s27.167 -30.834 28.5 -39.501c0 -9.33301 -9.16699 -24.166 -27.5 -44.499s-31.833 -30.5 -40.5 -30.5c-6.66699 0 -20 10 -40 30s-30 33.333 -30 40c0 8 3.66699 15.667 11 23l22 19l17 19
c5.33301 5.33301 12.333 8.66602 21 9.99902zM283 885.001c4 0 15.667 -7.99902 35 -23.999c15.333 -13.333 25.666 -24.333 30.999 -33l2 -13c0 -7.33301 -9.66699 -21 -29 -41c-18 -20 -31.333 -30 -40 -30c-7.33301 0 -21 10 -41 30
c-17.333 19.333 -26.666 33.666 -27.999 42.999c0 8 9.83301 21.333 29.5 40s33.167 28 40.5 28zM-15 696.002c6 8 13.3301 12.001 21.9971 12.001c12.667 0 28.334 -1.66699 47.001 -5l46 -4h36l57 4l57 5c8 0 14.667 -2.66699 20 -8c2 -4 3 -8.66699 3 -14
c0 -8 -11 -15 -33 -21c-32.667 -7.33301 -49 -39.666 -49 -96.999l2 -57l-2 -284c0 -24.667 0.333008 -45.834 1 -63.501l2 -50.5c0 -28.667 10.333 -49 31 -61c2 -1.33301 8 -3 18 -5s21.667 -4 35 -6s20.333 -8.33301 21 -19c0 -14.667 -7 -22 -21 -22
c-6 0 -14.167 0.333008 -24.5 1s-22.166 2 -35.499 4c-26 4 -46 6 -60 6s-35 -2 -63 -6l-61 -5c-9.33301 0 -17 6 -23 18c0 9.33301 11 17.666 33 24.999s35.833 19 41.5 35s8.5 38.667 8.5 68l-1 340l1 32l1 31c0 67.333 -16.667 105 -50 113l-36 6
c-15.333 4 -23.666 11 -24.999 21v4z" />
    <glyph glyph-name="Ntilde" unicode="&#xd1;" horiz-adv-x="724" 
d="M224 885c24.667 0 60.002 -10.501 106.002 -31.501s80.333 -31.5 103 -31.5c16.667 0 29.667 10.833 39 32.5s15.666 33.834 18.999 36.501l10 2l9 -3c6 -8 9 -14 9 -18c0 -25.333 -10.833 -53.333 -32.5 -84s-44.834 -46 -69.501 -46s-61 10.333 -109 31s-81 31 -99 31
c-16 0 -29.333 -11.667 -40 -35c-8.66699 -22.667 -18.334 -34.334 -29.001 -35.001c-12 0 -18 6.33301 -18 19c0 22.667 11.333 50.334 34 83.001s45.334 49 68.001 49zM-37.998 705.999l56 -5.00293l31 2l31 3c7.33301 0 16.333 -6.33301 27 -19l270 -320l65 -80l57 -67
c17.333 -19.333 31 -33.666 41 -42.999c4 -4 9 -8.66699 15 -14l2 4v204l1 57l1 57c0 54.667 -3.5 95.5 -10.5 122.5s-21.833 44.5 -44.5 52.5l-56 5c-18 0 -27 8 -27 24c0 12 8.33301 18 25 18l42 -2l96 -3l44 3l43 3c13.333 0 21 -7 23 -21
c-4 -8.66699 -9.33301 -14.334 -16 -17.001l-21 -6c-21.333 -6.66699 -34.666 -28.667 -39.999 -66l-1 -84l-1 -72l-1 -72l1 -175l1 -176c0 -12.667 -1.83301 -21 -5.5 -25s-12.167 -6 -25.5 -6s-134 139 -362 417c-54.667 66.667 -86.334 102 -95.001 106l-3 -4l-3 -42
l1 -311c0 -66 17.333 -102 52 -108l33 -7c11.333 -2 17 -11 17 -27c-4.66699 -7.33301 -12.667 -11.666 -24 -12.999l-18 2l-16 3l-76 4c-12.667 0 -21.5 -0.166992 -26.5 -0.5s-16.5 -1.83301 -34.5 -4.5l-61 -4c-10 0 -15 7 -15 21c0 9.33301 14 16.333 42 21
s46.667 17.334 56 38.001s14 94 14 220l1 61l1 60c0 98.667 -9.66699 165.334 -29 200.001c-9.33301 18 -26.833 30.333 -52.5 37s-40.5 14.667 -44.5 24v6c0 10 6.66699 16.333 20 19z" />
    <glyph glyph-name="Ograve" unicode="&#xd2;" 
d="M262 926c15.333 0 35.333 -13.333 60 -40l50 -58c12 -10 29 -28 51 -54l1 -3v-4l-3 -9l-8 -7l-6 -2c-6 1.33301 -20 8.33301 -42 21l-44 27l-62 33c-26.667 17.333 -40 34 -40 50c0 10 4.5 20.167 13.5 30.5s18.833 15.5 29.5 15.5zM362 721
c101.333 0 187.668 -35.833 259.001 -107.5s107 -158.167 107 -259.5c0 -103.333 -37 -190.5 -111 -261.5s-162.667 -106.5 -266 -106.5c-99.333 0 -183.833 35.5 -253.5 106.5s-104.5 156.167 -104.5 255.5c0 104.667 35.667 193 107 265s158.666 108 261.999 108z
M388.002 43c71.333 0 130.333 29.334 177 88.001c42.667 54.667 64 118 64 190c0 83.333 -27 160.666 -81 231.999c-58 76 -128.333 114 -211 114c-72 0 -131.333 -27.667 -178 -83c-44 -52 -66 -114.333 -66 -187c0 -88.667 26.667 -168 80 -238
c58 -77.333 129.667 -116 215 -116z" />
    <glyph glyph-name="Oacute" unicode="&#xd3;" 
d="M272 768c0 10 23.168 39.167 69.501 87.5s76.166 72.5 89.499 72.5c11.333 0 21.333 -4.33301 30 -13s13 -18.667 13 -30c0 -16 -8.33301 -29.333 -25 -40c-91.333 -59.333 -144 -91 -158 -95c-10 0 -16.333 4.66699 -19 14v4zM362.001 721
c101.333 0 187.668 -35.833 259.001 -107.5s107 -158.167 107 -259.5c0 -103.333 -37 -190.5 -111 -261.5s-162.667 -106.5 -266 -106.5c-99.333 0 -183.833 35.5 -253.5 106.5s-104.5 156.167 -104.5 255.5c0 104.667 35.667 193 107 265s158.666 108 261.999 108z
M388.003 43c71.333 0 130.333 29.334 177 88.001c42.667 54.667 64 118 64 190c0 83.333 -27 160.666 -81 231.999c-58 76 -128.333 114 -211 114c-72 0 -131.333 -27.667 -178 -83c-44 -52 -66 -114.333 -66 -187c0 -88.667 26.667 -168 80 -238
c58 -77.333 129.667 -116 215 -116z" />
    <glyph glyph-name="Ocircumflex" unicode="&#xd4;" 
d="M169 770c0 6 19.667 30.834 59 74.501s61.333 65.5 66 65.5h99c6 0 27.667 -20 65 -60c17.333 -19.333 30 -34 38 -44l24 -31l1 -4v-5c0 -12 -5.66699 -18 -17 -18c-7.33301 0 -58.333 32.333 -153 97l-6 1c-12 -4.66699 -39.333 -22.334 -82 -53.001
c-38.667 -28 -63.667 -42.667 -75 -44c-12.667 0 -19 7 -19 21zM362 721.001c101.333 0 187.668 -35.833 259.001 -107.5s107 -158.167 107 -259.5c0 -103.333 -37 -190.5 -111 -261.5s-162.667 -106.5 -266 -106.5c-99.333 0 -183.833 35.5 -253.5 106.5
s-104.5 156.167 -104.5 255.5c0 104.667 35.667 193 107 265s158.666 108 261.999 108zM388.002 43.001c71.333 0 130.333 29.334 177 88.001c42.667 54.667 64 118 64 190c0 83.333 -27 160.666 -81 231.999c-58 76 -128.333 114 -211 114c-72 0 -131.333 -27.667 -178 -83
c-44 -52 -66 -114.333 -66 -187c0 -88.667 26.667 -168 80 -238c58 -77.333 129.667 -116 215 -116z" />
    <glyph glyph-name="Otilde" unicode="&#xd5;" 
d="M250 885c25.333 0 60.333 -10.667 105 -32c23.333 -10.667 43.333 -18.5 60 -23.5s31.334 -7.5 44.001 -7.5c17.333 0 30.5 11.833 39.5 35.5s18.5 35.5 28.5 35.5c11.333 -2 17 -9 17 -21c0 -26 -10.833 -54.167 -32.5 -84.5s-45.167 -45.5 -70.5 -45.5
c-24 0 -60 10.333 -108 31s-80.667 31 -98 31c-16.667 0 -30.334 -11.667 -41.001 -35c-8.66699 -22 -17.667 -33.667 -27 -35c-13.333 0 -20 6 -20 18c0 24 11.667 52.167 35 84.5s46 48.5 68 48.5zM362 721c101.333 0 187.668 -35.833 259.001 -107.5
s107 -158.167 107 -259.5c0 -103.333 -37 -190.5 -111 -261.5s-162.667 -106.5 -266 -106.5c-99.333 0 -183.833 35.5 -253.5 106.5s-104.5 156.167 -104.5 255.5c0 104.667 35.667 193 107 265s158.666 108 261.999 108zM388.002 43c71.333 0 130.333 29.334 177 88.001
c42.667 54.667 64 118 64 190c0 83.333 -27 160.666 -81 231.999c-58 76 -128.333 114 -211 114c-72 0 -131.333 -27.667 -178 -83c-44 -52 -66 -114.333 -66 -187c0 -88.667 26.667 -168 80 -238c58 -77.333 129.667 -116 215 -116z" />
    <glyph glyph-name="Odieresis" unicode="&#xd6;" 
d="M179 884l13 -3l10 -7l29 -26c11.333 -10.667 17.666 -20.667 18.999 -30c0 -9.33301 -9 -24.333 -27 -45s-32 -31 -42 -31c-8.66699 0 -22.667 9.66699 -42 29c-17.333 18.667 -26.666 33 -27.999 43c0 8 9 21 27 39s31.667 28.333 41 31zM482 886
c4 0 8.66699 -1.66895 14 -5.00195l33 -29c14 -11.333 21.667 -22.666 23 -33.999c0 -8 -9.33301 -22.333 -28 -43s-32.667 -31 -42 -31c-7.33301 0 -21 9.66699 -41 29c-18 19.333 -27.667 33 -29 41c0 8.66699 9.5 22.834 28.5 42.501s32.833 29.5 41.5 29.5zM363 721.998
c101.333 0 187.333 -36.3311 258 -108.998s106 -159.334 106 -260.001c0 -102 -37 -188.667 -111 -260s-162 -107 -264 -107c-100.667 0 -185.667 36.167 -255 108.5s-104 159.166 -104 260.499s36 188 108 260c36 35.333 75.667 62 119 80s91 27 143 27zM92 382
c0 -83.333 28.002 -159.999 84.002 -229.999c60 -74 131 -111 213 -111c71.333 0 129.666 29.667 174.999 89c42 54 63 117.667 63 191c0 83.333 -27 160.666 -81 231.999c-58.667 74.667 -129.334 112 -212.001 112c-74 0 -134 -29 -180 -87
c-20 -26.667 -35.333 -56.5 -46 -89.5s-16 -68.5 -16 -106.5z" />
    <glyph glyph-name="Oslash" unicode="&#xd8;" 
d="M358 721c55.333 0 108.668 -11.999 160.001 -35.999l61 -35l7 2l32 37c17.333 20 28 30 32 30l24 -1l24 -1l24 2l3 -1l4 -5l-1 -2c-16 -19.333 -32.333 -38 -49 -56c-14 -15.333 -28.667 -30.333 -44 -45l-1 -6l20 -35c48.667 -68.667 73 -140.334 73 -215.001
c0 -109.333 -38 -199 -114 -269c-37.333 -33.333 -78.5 -58.333 -123.5 -75s-96.167 -25 -153.5 -25c-44.667 0 -93.667 14 -147 42l-50 27c-4 -3.33301 -7 -6 -9 -8c-7.33301 -7.33301 -15.333 -16 -24 -26c-18 -22 -31.333 -33.333 -40 -34l-16 1l-17 1l-12 -1l-12 -1
c-8 0 -13 2 -15 6v4l10 12l33 36c27.333 28 44 47 50 57l-3 6c-2.66699 4 -7 10 -13 18c-52.667 72.667 -79 148.667 -79 228c0 99.333 36.167 185.5 108.5 258.5s158.166 109.5 257.499 109.5zM150.002 183.001l6.00098 -4c6 3.33301 37 35.333 93 96l270 303
c-10.667 24 -37.334 44.833 -80.001 62.5s-78 26.5 -106 26.5c-75.333 0 -136 -29.333 -182 -88c-41.333 -54.667 -62 -120.667 -62 -198c0 -58.667 20.333 -124.667 61 -198zM205.003 116.001c19.333 -21.333 46.499 -39.832 81.499 -55.499s67.167 -23.5 96.5 -23.5
c76 0 137.333 29.333 184 88c42.667 54 64 120.333 64 199c0 28 -6.83301 67.167 -20.5 117.5s-29.167 79.166 -46.5 86.499l-44 -43l-72 -82l-145 -162c-15.333 -15.333 -35.666 -38 -60.999 -68l-38 -44l-2 -5z" />
    <glyph glyph-name="Ugrave" unicode="&#xd9;" 
d="M259 926c15.333 0 35.333 -13.333 60 -40l50 -58c12 -10 29 -28 51 -54l1 -3v-4l-3 -9l-8 -7l-6 -2c-6 1.33301 -20 8.33301 -42 21l-44 27l-62 33c-26.667 17.333 -40 34 -40 50c0 10 4.5 20.167 13.5 30.5s18.833 15.5 29.5 15.5zM-28 706l4.99707 1.00195
c5.33301 0 12.333 -0.333008 21 -1s19 -2 31 -4l53 -5c6.66699 0 15.834 0.333008 27.501 1s24.834 2 39.501 4c30 4 52.333 6 67 6c3.33301 0 7.33301 -1.83301 12 -5.5s7.66699 -7.83398 9 -12.501c0 -9.33301 -4.66699 -16 -14 -20l-26 -6
c-12 -2.66699 -21.833 -12 -29.5 -28s-11.5 -36.667 -11.5 -62c0 -32 -0.333008 -68.167 -1 -108.5l-2 -116.5c0 -101.333 12 -174 36 -218c33.333 -59.333 97.333 -89 192 -89c149.333 0 224 85 224 255l1 164c0 58 -2.33301 107.667 -7 149
c-2 22.667 -10.667 37.667 -26 45l-41 9c-15.333 2 -25.666 9 -30.999 21v5c4 12 11 18 21 18c11.333 0 28.833 -2 52.5 -6s41.5 -6 53.5 -6c4.66699 0 10.667 0.333008 18 1s16 2 26 4c20 4 35 6 45 6c13.333 0 22 -6.33301 26 -19c-2 -11.333 -9.33301 -19.333 -22 -24
l-33 -12c-12 -8 -18.833 -19.667 -20.5 -35s-2.66699 -27.333 -3 -36s-0.5 -21.334 -0.5 -38.001v-31l1 -141c0 -129.333 -18.667 -222 -56 -278c-46 -70 -131 -105 -255 -105c-108.667 0 -190.334 34.333 -245.001 103c-38 48 -57 134 -57 258l1 77l2 76v79
c0 33.333 -7.66699 56.333 -23 69c-6 5.33301 -20.333 10.333 -43 15c-15.333 2 -24.666 9 -27.999 21c0 5.33301 3.66699 12 11 20z" />
    <glyph glyph-name="Uacute" unicode="&#xda;" 
d="M269 768c0 10 23.168 39.167 69.501 87.5s76.166 72.5 89.499 72.5c11.333 0 21.333 -4.33301 30 -13s13 -18.667 13 -30c0 -16 -8.33301 -29.333 -25 -40c-91.333 -59.333 -144 -91 -158 -95c-10 0 -16.333 4.66699 -19 14v4zM-27.999 706l4.99707 1.00195
c5.33301 0 12.333 -0.333008 21 -1s19 -2 31 -4l53 -5c6.66699 0 15.834 0.333008 27.501 1s24.834 2 39.501 4c30 4 52.333 6 67 6c3.33301 0 7.33301 -1.83301 12 -5.5s7.66699 -7.83398 9 -12.501c0 -9.33301 -4.66699 -16 -14 -20l-26 -6
c-12 -2.66699 -21.833 -12 -29.5 -28s-11.5 -36.667 -11.5 -62c0 -32 -0.333008 -68.167 -1 -108.5l-2 -116.5c0 -101.333 12 -174 36 -218c33.333 -59.333 97.333 -89 192 -89c149.333 0 224 85 224 255l1 164c0 58 -2.33301 107.667 -7 149
c-2 22.667 -10.667 37.667 -26 45l-41 9c-15.333 2 -25.666 9 -30.999 21v5c4 12 11 18 21 18c11.333 0 28.833 -2 52.5 -6s41.5 -6 53.5 -6c4.66699 0 10.667 0.333008 18 1s16 2 26 4c20 4 35 6 45 6c13.333 0 22 -6.33301 26 -19c-2 -11.333 -9.33301 -19.333 -22 -24
l-33 -12c-12 -8 -18.833 -19.667 -20.5 -35s-2.66699 -27.333 -3 -36s-0.5 -21.334 -0.5 -38.001v-31l1 -141c0 -129.333 -18.667 -222 -56 -278c-46 -70 -131 -105 -255 -105c-108.667 0 -190.334 34.333 -245.001 103c-38 48 -57 134 -57 258l1 77l2 76v79
c0 33.333 -7.66699 56.333 -23 69c-6 5.33301 -20.333 10.333 -43 15c-15.333 2 -24.666 9 -27.999 21c0 5.33301 3.66699 12 11 20z" />
    <glyph glyph-name="Ucircumflex" unicode="&#xdb;" 
d="M166 770c0 6 19.667 30.834 59 74.501s61.333 65.5 66 65.5h99c6 0 27.667 -20 65 -60c17.333 -19.333 30 -34 38 -44l24 -31l1 -4v-5c0 -12 -5.66699 -18 -17 -18c-7.33301 0 -58.333 32.333 -153 97l-6 1c-12 -4.66699 -39.333 -22.334 -82 -53.001
c-38.667 -28 -63.667 -42.667 -75 -44c-12.667 0 -19 7 -19 21zM-28 706.001l4.99707 1.00195c5.33301 0 12.333 -0.333008 21 -1s19 -2 31 -4l53 -5c6.66699 0 15.834 0.333008 27.501 1s24.834 2 39.501 4c30 4 52.333 6 67 6c3.33301 0 7.33301 -1.83301 12 -5.5
s7.66699 -7.83398 9 -12.501c0 -9.33301 -4.66699 -16 -14 -20l-26 -6c-12 -2.66699 -21.833 -12 -29.5 -28s-11.5 -36.667 -11.5 -62c0 -32 -0.333008 -68.167 -1 -108.5l-2 -116.5c0 -101.333 12 -174 36 -218c33.333 -59.333 97.333 -89 192 -89
c149.333 0 224 85 224 255l1 164c0 58 -2.33301 107.667 -7 149c-2 22.667 -10.667 37.667 -26 45l-41 9c-15.333 2 -25.666 9 -30.999 21v5c4 12 11 18 21 18c11.333 0 28.833 -2 52.5 -6s41.5 -6 53.5 -6c4.66699 0 10.667 0.333008 18 1s16 2 26 4c20 4 35 6 45 6
c13.333 0 22 -6.33301 26 -19c-2 -11.333 -9.33301 -19.333 -22 -24l-33 -12c-12 -8 -18.833 -19.667 -20.5 -35s-2.66699 -27.333 -3 -36s-0.5 -21.334 -0.5 -38.001v-31l1 -141c0 -129.333 -18.667 -222 -56 -278c-46 -70 -131 -105 -255 -105
c-108.667 0 -190.334 34.333 -245.001 103c-38 48 -57 134 -57 258l1 77l2 76v79c0 33.333 -7.66699 56.333 -23 69c-6 5.33301 -20.333 10.333 -43 15c-15.333 2 -24.666 9 -27.999 21c0 5.33301 3.66699 12 11 20z" />
    <glyph glyph-name="Udieresis" unicode="&#xdc;" 
d="M531 887c9.33301 0 29.998 -16.3311 61.998 -48.998c4 -4 6 -12 6 -24c0 -6 -10 -19 -30 -39c-19.333 -18 -32.666 -27.667 -39.999 -29c-8 0 -21.333 9.66699 -40 29c-17.333 19.333 -26.666 33.666 -27.999 42.999c0 8 9.16699 21.167 27.5 39.5
s32.5 28.166 42.5 29.499zM226.998 887.002l3.99902 -0.000976562c7.33301 0 20 -9 38 -27s27.667 -31.333 29 -40c0 -8 -9 -22 -27 -42s-31.333 -30.667 -40 -32c-9.33301 0 -22.666 8.33301 -39.999 25c-16 16.667 -26.333 30.334 -31 41.001v7c0 8.66699 9 21.667 27 39
c14.667 14 28 23.667 40 29zM-20.0029 708.001c31.333 -8 63.6689 -11.999 97.002 -11.999c14 0 36.333 2 67 6s53.667 6 69 6c14.667 0 22 -6 22 -18s-9 -20.5 -27 -25.5s-28.667 -8.83301 -32 -11.5c-15.333 -13.333 -23 -52 -23 -116v-208c0 -94 13.333 -162.333 40 -205
c34 -54 96 -81 186 -81c98 0 163 33.667 195 101c20 42 30 118.667 30 230v80c0 79.333 -2.33301 134 -7 164c-2.66699 24 -18 38.167 -46 42.5s-45 12.833 -51 25.5c0 14 6 21 18 21c11.333 0 29.666 -2 54.999 -6l56 -5c9.33301 0 24 2 44 6s35.333 6 46 6
c13.333 0 21 -8 23 -24c-2 -8.66699 -10.5 -14.834 -25.5 -18.501s-24.5 -7.16699 -28.5 -10.5c-11.333 -8 -18.666 -24 -21.999 -48l-5 -79v-80l1 -79c0 -128.667 -18 -220.667 -54 -276c-46 -69.333 -131 -104 -255 -104c-110 0 -191.667 33.667 -245 101
c-38.667 50 -58 140.667 -58 272l2 86l2 85l-1 51c0 16 -1.83301 29.667 -5.5 41s-8.83398 20 -15.501 26c-4.66699 6 -15.334 9 -32.001 9c-16 0 -28.667 6.33301 -38 19l-1 5v5c0 10.667 6.33301 17 19 19z" />
    <glyph glyph-name="germandbls" unicode="&#xdf;" horiz-adv-x="563" 
d="M276 757c48 0 93.3291 -14.5 135.996 -43.5s64 -67.833 64 -116.5c0 -46 -16.333 -81.333 -49 -106c-15.333 -10.667 -45.666 -23.334 -90.999 -38.001c-32.667 -10 -49 -20.667 -49 -32c0 -12 21 -26 63 -42c55.333 -20.667 94.333 -40.334 117 -59.001
c42 -34 63 -78 63 -132c0 -46.667 -20.667 -89.667 -62 -129c-20 -19.333 -40.667 -34 -62 -44s-44 -15 -68 -15h-7c-29.333 0 -47.666 6 -54.999 18l-22 57l-19 54c0 12.667 8.66699 19 26 19l6 -4c4 -2 14.333 -19.333 31 -52c12 -26 27.667 -39 47 -39
c22 0 41.667 14 59 42c14 24 21 48.333 21 73c0 50.667 -18.667 92.667 -56 126c-5.33301 5.33301 -16.666 13.5 -33.999 24.5s-40.666 24.833 -69.999 41.5c-37.333 22 -56 44.333 -56 67c0 17.333 14.333 33 43 47c49.333 22.667 75.666 35.334 78.999 38.001
c28.667 20.667 43 47.667 43 81c0 36.667 -11.167 65 -33.5 85s-52.5 30 -90.5 30c-26.667 0 -49.667 -13.667 -69 -41c-14.667 -19.333 -26 -44.666 -34 -75.999c-6.66699 -32 -10 -70 -10 -114l1 -326c0 -28.667 2.33301 -49.667 7 -63c6 -21.333 20 -35.666 42 -42.999
c4 -1.33301 7.83301 -2.33301 11.5 -3s7.83398 -2.33398 12.501 -5.00098c8 -2.66699 12.333 -8 13 -16c0 -14 -12.333 -21 -37 -21l-42 4l-42 5c-6 0 -14 -0.333008 -24 -1s-21.667 -2 -35 -4l-57 -5c-12.667 0 -19 8.33301 -19 25c0 6.66699 6.33301 12 19 16l28 8
c16.667 8.66699 27 29 31 61c2 18 3 56.667 3 116l-2 125l-1 124c0 188.667 76.667 283 230 283z" />
    <glyph glyph-name="agrave" unicode="&#xe0;" horiz-adv-x="442" 
d="M148 719c14 0 28 -12 42 -36l26 -55c32 -62.667 48.667 -98 50 -106l-10 -14l-9 -2c-8 0 -34.5 25 -79.5 75s-67.5 82 -67.5 96c0 9.33301 5 19 15 29c10.667 8.66699 21.667 13 33 13zM274 348c0 50.667 -30.001 76 -90.001 76c-29.333 0 -53 -7 -71 -21
c-10 -8 -19.833 -21.833 -29.5 -41.5s-18.5 -31.834 -26.5 -36.501l-8 -4l-14 4l-4 14l3 50l4 51c0 18.667 6.66699 28 20 28c4 0 11.667 -2 23 -6l24 -5c5.33301 0 12.833 0.333008 22.5 1s20.834 2 33.501 4c25.333 4 44.333 6 57 6c42.667 0 77 -9.66699 103 -29
c29.333 -22 44 -53.667 44 -95l-3 -115l-3 -114c0 -46 11.667 -69 35 -69l30 5l5 -1c4 -3.33301 6.66699 -8.66602 8 -15.999c0 -12 -10.833 -21.667 -32.5 -29s-39.167 -11 -52.5 -11c-19.333 0 -34.666 4.66699 -45.999 14c-2.66699 2.66699 -5.83398 6.66699 -9.50098 12
l-10.5 15c-4 9.33301 -8 14.666 -12 15.999l-36 -28c-26 -22.667 -58 -34 -96 -34c-40 0 -73 10 -99 30c-28.667 22.667 -43 53 -43 91c0 52.667 23.667 92.334 71 119.001l132 48c47.333 16 71 39.667 71 71zM175.999 42c41.333 0 69.332 22.3311 83.999 66.998
c8.66699 28 13 67.333 13 118c0 8.66699 -0.166992 14.667 -0.5 18s-1.16602 6.33301 -2.49902 9c-3.33301 -1.33301 -6.33301 -2.66602 -9 -3.99902l-42 -16c-77.333 -27.333 -116 -65.333 -116 -114c0 -23.333 6.5 -42.166 19.5 -56.499s30.833 -21.5 53.5 -21.5z" />
    <glyph glyph-name="aacute" unicode="&#xe1;" horiz-adv-x="442" 
d="M251 719c12 0 22.5 -4.66699 31.5 -14s13.5 -20 13.5 -32c0 -10.667 -22.167 -41.167 -66.5 -91.5s-71.5 -75.5 -81.5 -75.5c-11.333 0 -17 6.66699 -17 20l54 115l23 49c12 19.333 26.333 29 43 29zM273 347c0 50.667 -30.001 76 -90.001 76c-29.333 0 -53 -7 -71 -21
c-10 -8 -19.833 -21.833 -29.5 -41.5s-18.5 -31.834 -26.5 -36.501l-8 -4l-14 4l-4 14l3 50l4 51c0 18.667 6.66699 28 20 28c4 0 11.667 -2 23 -6l24 -5c5.33301 0 12.833 0.333008 22.5 1s20.834 2 33.501 4c25.333 4 44.333 6 57 6c42.667 0 77 -9.66699 103 -29
c29.333 -22 44 -53.667 44 -95l-3 -115l-3 -114c0 -46 11.667 -69 35 -69l30 5l5 -1c4 -3.33301 6.66699 -8.66602 8 -15.999c0 -12 -10.833 -21.667 -32.5 -29s-39.167 -11 -52.5 -11c-19.333 0 -34.666 4.66699 -45.999 14c-2.66699 2.66699 -5.83398 6.66699 -9.50098 12
l-10.5 15c-4 9.33301 -8 14.666 -12 15.999l-36 -28c-26 -22.667 -58 -34 -96 -34c-40 0 -73 10 -99 30c-28.667 22.667 -43 53 -43 91c0 52.667 23.667 92.334 71 119.001l132 48c47.333 16 71 39.667 71 71zM174.999 41c41.333 0 69.332 22.3311 83.999 66.998
c8.66699 28 13 67.333 13 118c0 8.66699 -0.166992 14.667 -0.5 18s-1.16602 6.33301 -2.49902 9c-3.33301 -1.33301 -6.33301 -2.66602 -9 -3.99902l-42 -16c-77.333 -27.333 -116 -65.333 -116 -114c0 -23.333 6.5 -42.166 19.5 -56.499s30.833 -21.5 53.5 -21.5z" />
    <glyph glyph-name="acircumflex" unicode="&#xe2;" horiz-adv-x="442" 
d="M62 534c0 4 10.002 23.999 30.002 59.999l34 65c18 32 33.333 48 46 48h51l10 -3c11.333 -14 30.166 -43.333 56.499 -88s40.166 -72 41.499 -82c0 -12 -5.66699 -18 -17 -18c-7.33301 0 -26.5 17.167 -57.5 51.5s-51.5 52.5 -61.5 54.5
c-6.66699 -0.666992 -25.167 -18.5 -55.5 -53.5s-49.833 -52.833 -58.5 -53.5l-12 2c-4.66699 4.66699 -7 10.334 -7 17.001zM274.002 346.999c0 50.667 -30.001 76 -90.001 76c-29.333 0 -53 -7 -71 -21c-10 -8 -19.833 -21.833 -29.5 -41.5s-18.5 -31.834 -26.5 -36.501
l-8 -4l-14 4l-4 14l3 50l4 51c0 18.667 6.66699 28 20 28c4 0 11.667 -2 23 -6l24 -5c5.33301 0 12.833 0.333008 22.5 1s20.834 2 33.501 4c25.333 4 44.333 6 57 6c42.667 0 77 -9.66699 103 -29c29.333 -22 44 -53.667 44 -95l-3 -115l-3 -114c0 -46 11.667 -69 35 -69
l30 5l5 -1c4 -3.33301 6.66699 -8.66602 8 -15.999c0 -12 -10.833 -21.667 -32.5 -29s-39.167 -11 -52.5 -11c-19.333 0 -34.666 4.66699 -45.999 14c-2.66699 2.66699 -5.83398 6.66699 -9.50098 12l-10.5 15c-4 9.33301 -8 14.666 -12 15.999l-36 -28
c-26 -22.667 -58 -34 -96 -34c-40 0 -73 10 -99 30c-28.667 22.667 -43 53 -43 91c0 52.667 23.667 92.334 71 119.001l132 48c47.333 16 71 39.667 71 71zM176.001 40.999c41.333 0 69.332 22.3311 83.999 66.998c8.66699 28 13 67.333 13 118
c0 8.66699 -0.166992 14.667 -0.5 18s-1.16602 6.33301 -2.49902 9c-3.33301 -1.33301 -6.33301 -2.66602 -9 -3.99902l-42 -16c-77.333 -27.333 -116 -65.333 -116 -114c0 -23.333 6.5 -42.166 19.5 -56.499s30.833 -21.5 53.5 -21.5z" />
    <glyph glyph-name="atilde" unicode="&#xe3;" horiz-adv-x="442" 
d="M121 684c18 0 46.334 -10.666 85.001 -31.999s65.334 -32 80.001 -32c18.667 0 33 11.5 43 34.5s18.667 34.833 26 35.5c13.333 0 20 -7.66699 20 -23c0 -25.333 -11.5 -52.833 -34.5 -82.5s-46.833 -44.5 -71.5 -44.5c-18.667 0 -47.334 10.333 -86.001 31
c-19.333 10 -35.833 17.667 -49.5 23s-24.834 8 -33.501 8c-14 0 -26 -11.333 -36 -34s-19.667 -34.334 -29 -35.001c-12 0 -18 7.33301 -18 22c0 12.667 2.66699 25.5 8 38.5s14.333 27.5 27 43.5c23.333 31.333 46.333 47 69 47zM274.001 347.001
c0 50.667 -30.001 76 -90.001 76c-29.333 0 -53 -7 -71 -21c-10 -8 -19.833 -21.833 -29.5 -41.5s-18.5 -31.834 -26.5 -36.501l-8 -4l-14 4l-4 14l3 50l4 51c0 18.667 6.66699 28 20 28c4 0 11.667 -2 23 -6l24 -5c5.33301 0 12.833 0.333008 22.5 1s20.834 2 33.501 4
c25.333 4 44.333 6 57 6c42.667 0 77 -9.66699 103 -29c29.333 -22 44 -53.667 44 -95l-3 -115l-3 -114c0 -46 11.667 -69 35 -69l30 5l5 -1c4 -3.33301 6.66699 -8.66602 8 -15.999c0 -12 -10.833 -21.667 -32.5 -29s-39.167 -11 -52.5 -11
c-19.333 0 -34.666 4.66699 -45.999 14c-2.66699 2.66699 -5.83398 6.66699 -9.50098 12l-10.5 15c-4 9.33301 -8 14.666 -12 15.999l-36 -28c-26 -22.667 -58 -34 -96 -34c-40 0 -73 10 -99 30c-28.667 22.667 -43 53 -43 91c0 52.667 23.667 92.334 71 119.001l132 48
c47.333 16 71 39.667 71 71zM176 41.001c41.333 0 69.332 22.3311 83.999 66.998c8.66699 28 13 67.333 13 118c0 8.66699 -0.166992 14.667 -0.5 18s-1.16602 6.33301 -2.49902 9c-3.33301 -1.33301 -6.33301 -2.66602 -9 -3.99902l-42 -16
c-77.333 -27.333 -116 -65.333 -116 -114c0 -23.333 6.5 -42.166 19.5 -56.499s30.833 -21.5 53.5 -21.5z" />
    <glyph glyph-name="adieresis" unicode="&#xe4;" horiz-adv-x="442" 
d="M104 671c7.33301 0 20.333 -9.66797 39 -29.001c18 -17.333 27.667 -30.333 29 -39c0 -2 -1 -5 -3 -9c-4 -7.33301 -11.667 -17.666 -23 -30.999c-16 -20 -27.333 -30.333 -34 -31h-4l-4 -1c-6.66699 0 -18.834 8.66699 -36.501 26s-28.5 30 -32.5 38v7
c0 8 9.33301 21.5 28 40.5s32.334 28.5 41.001 28.5zM346 668.999c6 0 18.166 -9.16895 36.499 -27.502s27.5 -31.166 27.5 -38.499c0 -8.66699 -9.66699 -23 -29 -43s-32.666 -30 -39.999 -30c-6 0 -18 8 -36 24c-16.667 16.667 -26.667 28.334 -30 35.001l-2 14
c0 10 9.66699 23.5 29 40.5s34 25.5 44 25.5zM2.99902 117.997c0 12 3.33203 26.166 9.99902 42.499s15 29.5 25 39.5c14.667 14.667 37.667 28.334 69 41.001l76 26c30.667 10 51.334 18.667 62.001 26c21.333 14 32 32 32 54c0 50.667 -30.667 76 -92 76
c-29.333 0 -54 -9 -74 -27c-10 -8.66699 -21.333 -25 -34 -49c-9.33301 -18 -17.333 -27 -24 -27c-4 0 -9 2 -15 6l-3 5l-1 5l3 28l4 28v15l-1 15c0 30.667 6 46 18 46l25 -6c13.333 -4 23.666 -6 30.999 -6c10 0 26.333 2 49 6s40 6 52 6c102 0 153 -47.333 153 -142
l-3 -108l-3 -108c0 -43.333 13 -65 39 -65l13 2l13 3c8 0 12.333 -4.66699 13 -14c0 -11.333 -10.667 -22 -32 -32c-18.667 -7.33301 -35 -11 -49 -11c-37.333 0 -63.666 18 -78.999 54l-4 3l-38 -32c-26 -20 -57 -30 -93 -30c-44 0 -78.667 11 -104 33s-38 54.333 -38 97z
M173.998 41.9961c68 0 102 56.999 102 170.999c0 26.667 -1.66699 40.334 -5 41.001l-52 -21c-40 -16 -66 -29 -78 -39c-24.667 -18.667 -37 -43.334 -37 -74.001c0 -21.333 6.5 -39.666 19.5 -54.999s29.833 -23 50.5 -23z" />
    <glyph glyph-name="aring" unicode="&#xe5;" horiz-adv-x="442" 
d="M219 701c26 0 47.333 -9.33301 64 -28s25 -41 25 -67c0 -24.667 -9.5 -45.667 -28.5 -63s-40.5 -26 -64.5 -26c-22.667 0 -43.167 9.16699 -61.5 27.5s-27.5 39.5 -27.5 63.5c0 26 9 48 27 66s40 27 66 27zM222 554c14.667 0 27 5.83301 37 17.5s15 24.5 15 38.5
s-5.33301 26.5 -16 37.5s-23 16.5 -37 16.5c-16 0 -29.833 -5 -41.5 -15s-17.5 -23 -17.5 -39s6 -29.333 18 -40s26 -16 42 -16zM275 348c0 50 -29.667 75 -89 75c-30.667 0 -52.667 -4.33301 -66 -13c-9.33301 -6 -18.333 -17.667 -27 -35
c-10 -22.667 -20.333 -39.667 -31 -51l-12 -3c-12.667 0 -19 5.66699 -19 17l6 40l1 66l3 15c3.33301 4 8.33301 6.66699 15 8c6 0 13.333 -1.66699 22 -5l23 -5c6 0 14 0.333008 24 1s21.667 2 35 4c26 4 46 6 60 6c98 0 147 -48 147 -144l-4 -107l-4 -108
c0 -29.333 6 -48.666 18 -57.999c6 -4 10.667 -6 14 -6l17 2l16 3l9 -5l3 -6v-10c-6 -10.667 -17.333 -19.334 -34 -26.001s-32.334 -10 -47.001 -10c-25.333 0 -46 9 -62 27l-20 30l-4 -2c-31.333 -40 -81.666 -60 -150.999 -60c-31.333 0 -58.833 12.167 -82.5 36.5
s-35.5 52.5 -35.5 84.5c0 56 23.667 96.667 71 122l133 43c47.333 16 71 40.667 71 74zM173 41c66 0 99.001 57.999 99.001 173.999v18l-3 22l-108 -46c-40 -21.333 -60 -51.666 -60 -90.999c0 -21.333 6.66699 -39.5 20 -54.5s30.666 -22.5 51.999 -22.5z" />
    <glyph glyph-name="ae" unicode="&#xe6;" horiz-adv-x="724" 
d="M-10 118c0 70 60.334 120.001 181.001 150.001c35.333 8 57.666 15 66.999 21c20 12 30 31.667 30 59c0 49.333 -32 74 -96 74c-32 0 -57 -8.66699 -75 -26c-10.667 -10.667 -21.667 -27.334 -33 -50.001c-8 -16.667 -15.333 -25.334 -22 -26.001h-8
c-8.66699 2.66699 -13.334 9 -14.001 19l4 28l5 32l-1 22l-1 24v8c2 6 7.66699 10.333 17 13l24 -6l23 -5c5.33301 0 12.833 0.333008 22.5 1s20.834 2 33.501 4c25.333 4 44.666 6 57.999 6c52 0 88.667 -9.33301 110 -28l25 -25c6 0 15 4.66699 27 14
c40.667 27.333 82 41 124 41c76 0 131.333 -27.333 166 -82l45 -63l2 -5l1 -5c0 -4 -2.66699 -7.66699 -8 -11c-34.667 -5.33301 -74.667 -14.666 -120 -27.999l-118 -33l-83 -22l-6 -4l-2 -12c0 -38.667 17 -74.334 51 -107.001s70.667 -49 110 -49
c32.667 0 67.334 10.333 104.001 31c15.333 8.66699 28.333 16.667 39 24c3.33301 2 7.33301 4.66699 12 8c5.33301 0 10.333 -2.33301 15 -7l1 -4l1 -4c0 -7.33301 -4.66699 -15.666 -14 -24.999c-56.667 -54.667 -123.667 -82 -201 -82c-36 0 -71.167 9 -105.5 27
s-60.5 43 -78.5 75l-4 2l-11 -17c-16 -29.333 -37 -51.333 -63 -66s-57.667 -22 -95 -22c-92.667 0 -139 43.667 -139 131zM369.001 267.001l5 0.000976562c12.667 0 28.667 3.33301 48 10l48 15l35 7c6.66699 1.33301 16 3.66602 28 6.99902c32 8 49.333 16.667 52 26v6
c0 24.667 -12 46 -36 64c-22.667 15.333 -46.667 23 -72 23c-33.333 0 -60.833 -13.167 -82.5 -39.5s-32.5 -56.5 -32.5 -90.5v-16l1 -3zM91.001 110.002c0 -18.667 7 -35 21 -49c14.667 -12.667 31.667 -19 51 -19c70 0 105 57.333 105 172v16c0 6 -0.666992 13 -2 21l-3 4
c-13.333 -4.66699 -26.333 -9 -39 -13c-5.33301 -2 -18.333 -7.33301 -39 -16c-30 -10.667 -52 -23.667 -66 -39c-18.667 -20 -28 -45.667 -28 -77z" />
    <glyph glyph-name="ccedilla" unicode="&#xe7;" horiz-adv-x="423" 
d="M11 227c0 64.667 23.168 120.834 69.501 168.501s101.833 71.5 166.5 71.5h18c7.33301 -2 12.666 -3.33301 15.999 -4l34 -3c8.66699 0 18.5 2.66699 29.5 8s19.833 8 26.5 8c4 0 6 -2 6 -6c6 -28.667 18.333 -70.334 37 -125.001l1 -6l-4 -9l-5 -4l-9 -2
c-7.33301 0 -17 8.33301 -29 25c-15.333 22.667 -28.666 38.667 -39.999 48c-22 16.667 -48.667 25 -80 25c-45.333 0 -81.333 -19.667 -108 -59c-24 -34 -36 -74.667 -36 -122c0 -49.333 12.667 -93 38 -131c28 -43.333 65.667 -65 113 -65c28 0 59.333 10.333 94 31l55 32
c7.33301 0 12.666 -7 15.999 -21c-2 -9.33301 -15 -24 -39 -44c-30.667 -24 -68.334 -41.333 -113.001 -52l-46 -53l-2 -4l17 -3c35.333 -6 53 -20.667 53 -44c0 -30.667 -16.667 -55.334 -50 -74.001c-27.333 -14 -58.333 -21 -93 -21c-20.667 0 -31 6.33301 -31 19
c1.33301 4.66699 19 10.5 53 17.5s51 19.833 51 38.5c0 12.667 -8 19 -24 19l-14 -2l-15 -1h-4l-3 2l-4 7c2 5.33301 4.33301 10.333 7 15s9.33398 15.334 20.001 32.001l33 49c-68 0 -120 23.333 -156 70c-32.667 42.667 -49 99 -49 169z" />
    <glyph glyph-name="egrave" unicode="&#xe8;" horiz-adv-x="463" 
d="M159 719c13.333 0 27 -12.001 41 -36.001l25 -54l50 -101v-4c0 -6 -3.33301 -11.333 -10 -16l-9 -2c-8.66699 0 -35.167 24.833 -79.5 74.5s-66.5 81.834 -66.5 96.501c0 12 5 22 15 30s21.333 12 34 12zM237 467.999c66.667 0 119.667 -25.668 159 -77.001l24 -36
l17 -21c6 -8 9.66699 -15.667 11 -23l-1 -6l-3 -3l-257 -66c-14 -2 -27 -4.33301 -39 -7c-3.33301 -0.666992 -14.333 -4 -33 -10l-5 -8v-5c0 -42 17.5 -79.167 52.5 -111.5s74.167 -48.5 117.5 -48.5c26.667 0 58.334 10.333 95.001 31c15.333 8.66699 28.333 16.667 39 24
c3.33301 2 7.33301 4.66699 12 8c12 0 18 -5.66699 18 -17c0 -9.33301 -13 -24.666 -39 -45.999c-48.667 -38.667 -106.334 -58 -173.001 -58s-120.667 22.667 -162 68s-62 101.333 -62 168c0 68 21.167 125.667 63.5 173s97.5 71 165.5 71zM111 266.998l135 33l60 16
c14.667 4 22 12 22 24c0 24 -12 44.167 -36 60.5s-48.667 24.5 -74 24.5c-36.667 0 -66 -16 -88 -48c-9.33301 -14 -16.333 -29 -21 -45s-7 -34.333 -7 -55c0 -4.66699 3 -8 9 -10z" />
    <glyph glyph-name="eacute" unicode="&#xe9;" horiz-adv-x="463" 
d="M260 719c10.667 0 20.667 -4 30 -12s14 -17.667 14 -29c0 -13.333 -21.833 -45.333 -65.5 -96s-70.5 -76 -80.5 -76c-12 0 -18 6.66699 -18 20l27 60l36 79c19.333 36 38.333 54 57 54zM237 468c66.667 0 119.667 -25.668 159 -77.001l24 -36l17 -21
c6 -8 9.66699 -15.667 11 -23l-1 -6l-3 -3l-257 -66c-14 -2 -27 -4.33301 -39 -7c-3.33301 -0.666992 -14.333 -4 -33 -10l-5 -8v-5c0 -42 17.5 -79.167 52.5 -111.5s74.167 -48.5 117.5 -48.5c26.667 0 58.334 10.333 95.001 31c15.333 8.66699 28.333 16.667 39 24
c3.33301 2 7.33301 4.66699 12 8c12 0 18 -5.66699 18 -17c0 -9.33301 -13 -24.666 -39 -45.999c-48.667 -38.667 -106.334 -58 -173.001 -58s-120.667 22.667 -162 68s-62 101.333 -62 168c0 68 21.167 125.667 63.5 173s97.5 71 165.5 71zM111 266.999l135 33l60 16
c14.667 4 22 12 22 24c0 24 -12 44.167 -36 60.5s-48.667 24.5 -74 24.5c-36.667 0 -66 -16 -88 -48c-9.33301 -14 -16.333 -29 -21 -45s-7 -34.333 -7 -55c0 -4.66699 3 -8 9 -10z" />
    <glyph glyph-name="ecircumflex" unicode="&#xea;" horiz-adv-x="463" 
d="M70 534c0.666992 2.66699 3.66895 9.16406 9.00195 19.4971s13 23.833 23 40.5l51 87c9.33301 16.667 19 25.334 29 26.001h50c8 0 28 -26 60 -78c15.333 -25.333 27.333 -46.166 36 -62.499s13 -27.166 13 -32.499c0 -12 -6 -18 -18 -18
c-8.66699 0 -28.334 17 -59.001 51s-50.334 52.333 -59.001 55c-7.33301 -2 -25.5 -20.167 -54.5 -54.5s-48.833 -51.833 -59.5 -52.5l-13 2c-3.33301 3.33301 -6 9 -8 17zM237.002 467.997c66.667 0 119.667 -25.668 159 -77.001l24 -36l17 -21
c6 -8 9.66699 -15.667 11 -23l-1 -6l-3 -3l-257 -66c-14 -2 -27 -4.33301 -39 -7c-3.33301 -0.666992 -14.333 -4 -33 -10l-5 -8v-5c0 -42 17.5 -79.167 52.5 -111.5s74.167 -48.5 117.5 -48.5c26.667 0 58.334 10.333 95.001 31c15.333 8.66699 28.333 16.667 39 24
c3.33301 2 7.33301 4.66699 12 8c12 0 18 -5.66699 18 -17c0 -9.33301 -13 -24.666 -39 -45.999c-48.667 -38.667 -106.334 -58 -173.001 -58s-120.667 22.667 -162 68s-62 101.333 -62 168c0 68 21.167 125.667 63.5 173s97.5 71 165.5 71zM111.002 266.996l135 33l60 16
c14.667 4 22 12 22 24c0 24 -12 44.167 -36 60.5s-48.667 24.5 -74 24.5c-36.667 0 -66 -16 -88 -48c-9.33301 -14 -16.333 -29 -21 -45s-7 -34.333 -7 -55c0 -4.66699 3 -8 9 -10z" />
    <glyph glyph-name="edieresis" unicode="&#xeb;" horiz-adv-x="463" 
d="M70 663c6 4 12.667 6.00195 20 6.00195c8.66699 0 21.667 -9.33301 39 -28s26 -34 26 -46c-2.66699 -8.66699 -12.5 -21.834 -29.5 -39.501s-29.833 -26.834 -38.5 -27.501c-8 0 -21.333 9.33301 -40 28s-28.667 33 -30 43c0 8 7.33301 19.333 22 34zM323 669.002
c10 0 23.999 -9.00098 41.999 -27.001c6 -6 11.333 -12 16 -18c8 -10 12 -18.333 12 -25c0 -6 -8.16699 -18.167 -24.5 -36.5s-28.833 -29.5 -37.5 -33.5l-9 -1c-6 0 -19 10 -39 30c-17.333 19.333 -26.666 33.333 -27.999 42c0 8 9 21.333 27 40s31.667 28.334 41 29.001z
M235.999 468.001c66.667 0 119.667 -25.668 159 -77.001l24 -36l17 -21c6 -8 9.66699 -15.667 11 -23l-1 -6l-3 -3l-257 -66c-14 -2 -27 -4.33301 -39 -7c-3.33301 -0.666992 -14.333 -4 -33 -10l-5 -8v-5c0 -42 17.5 -79.167 52.5 -111.5s74.167 -48.5 117.5 -48.5
c26.667 0 58.334 10.333 95.001 31c15.333 8.66699 28.333 16.667 39 24c3.33301 2 7.33301 4.66699 12 8c12 0 18 -5.66699 18 -17c0 -9.33301 -13 -24.666 -39 -45.999c-48.667 -38.667 -106.334 -58 -173.001 -58s-120.667 22.667 -162 68s-62 101.333 -62 168
c0 68 21.167 125.667 63.5 173s97.5 71 165.5 71zM109.999 267l135 33l60 16c14.667 4 22 12 22 24c0 24 -12 44.167 -36 60.5s-48.667 24.5 -74 24.5c-36.667 0 -66 -16 -88 -48c-9.33301 -14 -16.333 -29 -21 -45s-7 -34.333 -7 -55c0 -4.66699 3 -8 9 -10z" />
    <glyph glyph-name="igrave" unicode="&#xec;" horiz-adv-x="241" 
d="M52 719c13.333 0 27.666 -12 42.999 -36l25 -55l28 -55c14 -28 21 -45.333 21 -52c-0.666992 -2 -1.66699 -3.83301 -3 -5.5s-3.66602 -4.16699 -6.99902 -7.5l-8 -2c-8 0 -34.5 25 -79.5 75s-67.5 80.667 -67.5 92c0 13.333 5 24.333 15 33s21 13 33 13zM4 420h7
c17.333 0 42.5 8 75.5 24s51.833 24 56.5 24c14 0 21 -15.333 21 -46l-2 -30l-2 -30v-216c0 -58 16 -93 48 -105c8 -0.666992 18.667 -5 32 -13l2 -11c0 -10.667 -8 -16 -24 -16l-40 3l-39 4h-39l-36 -4l-35 -4c-10 -0 -15 5.33301 -15 16c0 11.333 10.667 19 32 23
c17.333 14 26 48.333 26 103v70l1 26v25c0 68 -11.667 107 -35 117l-37 10l-5 5l-2 5c0 9.33301 3.33301 16 10 20z" />
    <glyph glyph-name="iacute" unicode="&#xed;" horiz-adv-x="241" 
d="M155 719c11.333 0 21.668 -4.66699 31.001 -14c9.33301 -8 14 -18 14 -30s-22.167 -43.167 -66.5 -93.5s-71.5 -75.5 -81.5 -75.5c-8.66699 0 -14.667 5 -18 15c0.666992 9.33301 8.66699 29 24 59l30 61l24 50c11.333 18.667 25.666 28 42.999 28zM4.00195 420h7
c17.333 0 42.5 8 75.5 24s51.833 24 56.5 24c14 0 21 -15.333 21 -46l-2 -30l-2 -30v-216c0 -58 16 -93 48 -105c8 -0.666992 18.667 -5 32 -13l2 -11c0 -10.667 -8 -16 -24 -16l-40 3l-39 4h-39l-36 -4l-35 -4c-10 -0 -15 5.33301 -15 16c0 11.333 10.667 19 32 23
c17.333 14 26 48.333 26 103v70l1 26v25c0 68 -11.667 107 -35 117l-37 10l-5 5l-2 5c0 9.33301 3.33301 16 10 20z" />
    <glyph glyph-name="icircumflex" unicode="&#xee;" horiz-adv-x="241" 
d="M-23 534c0.666992 2.66699 3.33594 8.66504 8.00293 17.998s12.667 23.333 24 42l50 87c9.33301 16.667 19 25.334 29 26.001h52l9 -4c3.33301 -1.33301 21 -28.666 53 -81.999c29.333 -51.333 44.666 -80.333 45.999 -87c-0.666992 -2 -1.16699 -3.66699 -1.5 -5
s-2.33301 -3.83301 -6 -7.5s-7.16699 -5.5 -10.5 -5.5c-7.33301 0 -26.833 17.167 -58.5 51.5s-51.834 52.5 -60.501 54.5c-6.66699 -2 -24.834 -20.167 -54.501 -54.5s-49.5 -51.833 -59.5 -52.5l-12 2c-3.33301 3.33301 -6 9 -8 17zM16.002 419.998h7
c17.333 0 42.5 8 75.5 24s51.833 24 56.5 24c14 0 21 -15.333 21 -46l-2 -30l-2 -30v-216c0 -58 16 -93 48 -105c8 -0.666992 18.667 -5 32 -13l2 -11c0 -10.667 -8 -16 -24 -16l-40 3l-39 4h-39l-36 -4l-35 -4c-10 0 -15 5.33301 -15 16c0 11.333 10.667 19 32 23
c17.333 14 26 48.333 26 103v70l1 26v25c0 68 -11.667 107 -35 117l-37 10l-5 5l-2 5c0 9.33301 3.33301 16 10 20z" />
    <glyph glyph-name="idieresis" unicode="&#xef;" horiz-adv-x="241" 
d="M-13 669c6.66699 0 19.166 -9.66602 37.499 -28.999s27.5 -33 27.5 -41l-3 -11l-30 -36c-14 -16 -26 -24 -36 -24c-7.33301 0 -20.666 9.66699 -39.999 29c-18 19.333 -27.667 33 -29 41c0 9.33301 10 23.666 30 42.999c10 9.33301 18.333 16.333 25 21s12.667 7 18 7z
M219.999 669.001c6.66699 0 11.667 -1.16602 15 -3.49902s7.66602 -6.5 12.999 -12.5l11 -13l20 -17c7.33301 -5.33301 11 -13 11 -23c0 -6.66699 -8.33301 -19 -25 -37s-29 -29.333 -37 -34l-10 -1c-4 0 -15.667 9.33301 -35 28c-17.333 18 -27.666 30.333 -30.999 37v7
c0 7.33301 9 20.666 27 39.999s31.667 29 41 29zM5.99902 420.002h7c17.333 0 42.5 8 75.5 24s51.833 24 56.5 24c14 0 21 -15.333 21 -46l-2 -30l-2 -30v-216c0 -58 16 -93 48 -105c8 -0.666992 18.667 -5 32 -13l2 -11c0 -10.667 -8 -16 -24 -16l-40 3l-39 4h-39l-36 -4
l-35 -4c-10 0 -15 5.33301 -15 16c0 11.333 10.667 19 32 23c17.333 14 26 48.333 26 103v70l1 26v25c0 68 -11.667 107 -35 117l-37 10l-5 5l-2 5c0 9.33301 3.33301 16 10 20z" />
    <glyph glyph-name="ntilde" unicode="&#xf1;" horiz-adv-x="544" 
d="M166 684c17.333 0 45.833 -10.667 85.5 -32s66.167 -32 79.5 -32c18.667 0 33 11.5 43 34.5s18.667 34.833 26 35.5c13.333 0 20 -7.66699 20 -23c0 -26.667 -11.333 -54.5 -34 -83.5s-47 -43.5 -73 -43.5c-18.667 0 -47.167 10.333 -85.5 31s-65.833 31 -82.5 31
c-14 0 -26 -11.333 -36 -34s-19.667 -34.334 -29 -35.001c-12.667 0 -19 7.33301 -19 22c0 22.667 12 49.834 36 81.501s47 47.5 69 47.5zM133 468c4.66699 0 8.99902 -3.99805 12.999 -11.998v-51l2 -3l5 -2c40 45.333 91.333 68 154 68c22 0 48.333 -8.33301 79 -25
c48.667 -26.667 73 -84.667 73 -174l-2 -57l-2 -57c0 -42 6 -72 18 -90c6.66699 -10 18.334 -17.167 35.001 -21.5s26.667 -10.166 30 -17.499v-10l-1 -5l-4 -6l-17 -5l-49 4l-50 5c-4.66699 0 -11 -0.333008 -19 -1s-16.667 -2 -26 -4l-45 -4l-3 1h-4
c-8 2.66699 -12.333 8 -13 16c0 8.66699 6.83301 15.167 20.5 19.5s22.5 12.166 26.5 23.499c7.33301 20.667 11 52.667 11 96v96c0 102.667 -33 154 -99 154c-56.667 0 -93.667 -27 -111 -81c-8 -26 -12 -76.667 -12 -152c0 -64.667 12.667 -105.334 38 -122.001l35 -13
c12.667 -4.66699 19.334 -12 20.001 -22c0 -10.667 -6.33301 -16 -19 -16l-35 4l-71 4l-46 -4l-46 -4c-14 0 -21 6.66699 -21 20c0 5.33301 3.66699 10 11 14l21 8c18 6 27 44.667 27 116l-3 138c0 30 -3.33301 50.667 -10 62c-8.66699 18 -26.334 27 -53.001 27l-10 6
l-4 11c0 9.33301 10.333 16 31 20c7.33301 1.33301 16 3.66602 26 6.99902s25.667 9.33301 47 18z" />
    <glyph glyph-name="ograve" unicode="&#xf2;" horiz-adv-x="523" 
d="M184 719c16 0 30.666 -11.666 43.999 -34.999l25 -56c32 -64 48.667 -99.667 50 -107l-4 -8l-6 -5l-9 -2c-7.33301 0 -33.666 25.167 -78.999 75.5s-68 82.166 -68 95.499c0 9.33301 5 19 15 29c4 3.33301 9 6.33301 15 9s11.667 4 17 4zM247.999 469.001
c69.333 0 127.666 -23 174.999 -69s71 -104 71 -174c0 -68 -24.833 -124.5 -74.5 -169.5s-108.834 -67.5 -177.501 -67.5c-67.333 0 -124.166 23.167 -170.499 69.5s-69.5 103.833 -69.5 172.5c0 66 24.333 122.167 73 168.5s106.334 69.5 173.001 69.5zM99.999 266.001
c0 -56.667 12.334 -107.668 37.001 -153.001c30.667 -54.667 72 -82 124 -82c43.333 0 77.666 16 102.999 48c21.333 28.667 32 66.334 32 113.001c0 58.667 -12.667 110 -38 154c-31.333 52.667 -74.333 79 -129 79c-41.333 0 -74 -16.333 -98 -49
c-20.667 -30 -31 -66.667 -31 -110z" />
    <glyph glyph-name="oacute" unicode="&#xf3;" horiz-adv-x="523" 
d="M289 719c12.667 0 23.001 -4.83301 31.001 -14.5s12 -20.167 12 -31.5c0 -10.667 -22.167 -41.167 -66.5 -91.5s-70.833 -75.5 -79.5 -75.5c-6 0 -12 5 -18 15v5l54 115l24 50c11.333 18.667 25.666 28 42.999 28zM248.001 468c69.333 0 127.666 -23 174.999 -69
s71 -104 71 -174c0 -68 -24.833 -124.5 -74.5 -169.5s-108.834 -67.5 -177.501 -67.5c-67.333 0 -124.166 23.167 -170.499 69.5s-69.5 103.833 -69.5 172.5c0 66 24.333 122.167 73 168.5s106.334 69.5 173.001 69.5zM100.001 265
c0 -56.667 12.334 -107.668 37.001 -153.001c30.667 -54.667 72 -82 124 -82c43.333 0 77.666 16 102.999 48c21.333 28.667 32 66.334 32 113.001c0 58.667 -12.667 110 -38 154c-31.333 52.667 -74.333 79 -129 79c-41.333 0 -74 -16.333 -98 -49
c-20.667 -30 -31 -66.667 -31 -110z" />
    <glyph glyph-name="ocircumflex" unicode="&#xf4;" horiz-adv-x="523" 
d="M99 534c7.33301 14.667 14.002 27.333 20.002 38l62 109c9.33301 16 18.666 24.667 27.999 26h51c4 0 7.83301 -1.16699 11.5 -3.5s21 -30 52 -83s46.5 -81.833 46.5 -86.5c0 -4 -2.16699 -8 -6.5 -12s-8.5 -6 -12.5 -6c-8 0 -27.833 17.167 -59.5 51.5
s-51.167 52.5 -58.5 54.5c-6.66699 -0.666992 -25.334 -18.667 -56.001 -54s-50 -53 -58 -53c-4 0 -8 1.16699 -12 3.5s-6.66699 7.5 -8 15.5zM248.002 467.999c69.333 0 127.666 -23 174.999 -69s71 -104 71 -174c0 -68 -24.833 -124.5 -74.5 -169.5
s-108.834 -67.5 -177.501 -67.5c-67.333 0 -124.166 23.167 -170.499 69.5s-69.5 103.833 -69.5 172.5c0 66 24.333 122.167 73 168.5s106.334 69.5 173.001 69.5zM100.002 264.999c0 -56.667 12.334 -107.668 37.001 -153.001c30.667 -54.667 72 -82 124 -82
c43.333 0 77.666 16 102.999 48c21.333 28.667 32 66.334 32 113.001c0 58.667 -12.667 110 -38 154c-31.333 52.667 -74.333 79 -129 79c-41.333 0 -74 -16.333 -98 -49c-20.667 -30 -31 -66.667 -31 -110z" />
    <glyph glyph-name="otilde" unicode="&#xf5;" horiz-adv-x="523" 
d="M158 684c18 0 46.5 -10.666 85.5 -31.999s65.5 -32 79.5 -32c18 0 32 11.333 42 34s19 34.667 27 36c13.333 0 20 -7.66699 20 -23c0 -25.333 -11.333 -52.833 -34 -82.5s-47 -44.5 -73 -44.5c-20 0 -48.333 10.333 -85 31c-19.333 10.667 -35.5 18.5 -48.5 23.5
s-24.5 7.5 -34.5 7.5c-11.333 0 -23 -11.667 -35 -35c-10 -22 -19.667 -33.333 -29 -34c-12.667 0 -19 7.33301 -19 22c0 23.333 11.833 50.666 35.5 81.999s46.5 47 68.5 47zM248 468.001c69.333 0 127.666 -23 174.999 -69s71 -104 71 -174
c0 -68 -24.833 -124.5 -74.5 -169.5s-108.834 -67.5 -177.501 -67.5c-67.333 0 -124.166 23.167 -170.499 69.5s-69.5 103.833 -69.5 172.5c0 66 24.333 122.167 73 168.5s106.334 69.5 173.001 69.5zM100 265.001c0 -56.667 12.334 -107.668 37.001 -153.001
c30.667 -54.667 72 -82 124 -82c43.333 0 77.666 16 102.999 48c21.333 28.667 32 66.334 32 113.001c0 58.667 -12.667 110 -38 154c-31.333 52.667 -74.333 79 -129 79c-41.333 0 -74 -16.333 -98 -49c-20.667 -30 -31 -66.667 -31 -110z" />
    <glyph glyph-name="odieresis" unicode="&#xf6;" horiz-adv-x="523" 
d="M121 672c8 0 21.833 -9.16504 41.5 -27.498s29.5 -31.166 29.5 -38.499c0 -8 -9.16699 -22.333 -27.5 -43s-31.833 -31.334 -40.5 -32.001l-15 3c-4.66699 7.33301 -14.167 17.5 -28.5 30.5s-23.5 24.167 -27.5 33.5v6c0 7.33301 9.16699 20.166 27.5 38.499
s31.833 28.166 40.5 29.499zM357 672.002l4.99805 0.00195312c7.33301 0 20.333 -9 39 -27s28.667 -31.333 30 -40c0 -8 -9.16699 -22.333 -27.5 -43s-32.166 -31.334 -41.499 -32.001c-8 0 -21.667 9.66699 -41 29c-17.333 18.667 -26.666 32 -27.999 40
c0 10.667 7.83301 24.167 23.5 40.5s29.167 27.166 40.5 32.499zM253.998 468.004c66 0 122.499 -22.667 169.499 -68s70.5 -101 70.5 -167c0 -68.667 -23.333 -126.667 -70 -174s-105 -71 -175 -71c-71.333 0 -130.166 23.167 -176.499 69.5s-69.5 105.5 -69.5 177.5
c0 66.667 25.167 122.167 75.5 166.5s108.833 66.5 175.5 66.5zM262.997 31.0039c44 0 78.332 16.333 102.999 49c20.667 28.667 31 66 31 112c0 58.667 -12.667 110 -38 154c-30 52 -72.667 78 -128 78c-40 0 -71.833 -14.833 -95.5 -44.5s-35.5 -64.5 -35.5 -104.5
c0 -61.333 11.667 -114.333 35 -159c30.667 -56.667 73.334 -85 128.001 -85z" />
    <glyph glyph-name="divide" unicode="&#xf7;" horiz-adv-x="524" 
d="M-2 279h505v-52h-505v52zM245 438c14 0 26.5 -5.33105 37.5 -15.998s16.5 -23.334 16.5 -38.001c0 -14 -5.33301 -26.5 -16 -37.5s-23.334 -16.5 -38.001 -16.5c-14 0 -26.333 5.16699 -37 15.5s-16 23.166 -16 38.499c0 13.333 5 26 15 38
c10.667 10.667 23.334 16 38.001 16zM245 176.002c14 0 26.5 -5.33105 37.5 -15.998s16.5 -23.334 16.5 -38.001c0 -14 -5.33301 -26.5 -16 -37.5s-23.334 -16.5 -38.001 -16.5c-14 0 -26.333 5.16699 -37 15.5s-16 23.166 -16 38.499c0 13.333 5 26 15 38
c10.667 10.667 23.334 16 38.001 16z" />
    <glyph glyph-name="oslash" unicode="&#xf8;" horiz-adv-x="523" 
d="M248 467c12.667 0 24.666 -0.665039 35.999 -1.99805s24.333 -4 39 -8c29.333 -6.66699 51 -17 65 -31l6 -1l7 2l28 31l8 3h56l8 -3l1 -3l-1 -4l-34 -35c-16 -14.667 -24.333 -26.334 -25 -35.001c1.33301 -4.66699 4 -10 8 -16c29.333 -47.333 44 -93 44 -137
c0 -65.333 -23.667 -122 -71 -170s-103.666 -72 -168.999 -72c-28 0 -52.667 3 -74 9c-12 2.66699 -35 11.667 -69 27l-19 -20c-8.66699 -9.33301 -15.667 -14.666 -21 -15.999l-41 2c-7.33301 0 -12.666 -0.666992 -15.999 -2c-4.66699 0 -7.33398 1.66699 -8.00098 5
c0 4 9.66699 15.667 29 35c18 19.333 27.667 30.666 29 33.999c-0.666992 2 -1.5 4.16699 -2.5 6.5s-3.5 6.16602 -7.5 11.499l-13 18c-24.667 42 -37 83 -37 123c0 68.667 23.833 127.167 71.5 175.5s105.167 72.5 172.5 72.5zM128.999 138.002l4 -1
c4 2 39.667 39.667 107 113l103 114l-2 6c-28 35.333 -65.667 53 -113 53c-38 0 -69 -16 -93 -48c-20.667 -30 -31 -64.333 -31 -103c0 -40 8.33301 -84.667 25 -134zM261.999 30.002c46.667 0 81.666 16.667 104.999 50c20 28 30 66.667 30 116
c0 16 -2.66699 37.833 -8 65.5s-11.333 42.5 -18 44.5l-36 -36l-86 -89c-16.667 -17.333 -32.167 -34.5 -46.5 -51.5s-25.833 -31.5 -34.5 -43.5l-5 -6l2 -4l1 -3c8 -12 21.833 -22.167 41.5 -30.5s37.834 -12.5 54.501 -12.5z" />
    <glyph glyph-name="ugrave" unicode="&#xf9;" horiz-adv-x="544" 
d="M192 719c14 0 28.001 -12 42.001 -36l26 -55c32 -64 48.667 -99.667 50 -107c-2.66699 -4.66699 -5.16699 -8 -7.5 -10s-6.16602 -3.66699 -11.499 -5c-8.66699 0 -35.334 25 -80.001 75s-67 82 -67 96c0 10 5.16699 19.5 15.5 28.5s21.166 13.5 32.499 13.5zM40.001 456
l21.001 0.00195312c8.66699 2 15 3.33301 19 4l40 6l9 -3c6 -6 9.66699 -12 11 -18l-3 -119l-2 -122c0 -47.333 6 -83 18 -107c16 -32 46 -48 90 -48c50 0 84 20.333 102 61c11.333 26.667 17 68.667 17 126l-3 138c0 18 -6 30 -18 36l-31 8
c-10.667 2.66699 -16.334 9 -17.001 19c0 13.333 24 20 72 20c29.333 0 51 3 65 9l10 -2c9.33301 -9.33301 14 -25 14 -47l-2 -27l-1 -27v-178v-24l-1 -23c0 -55.333 12 -87 36 -95l28 -5c10 -2 15 -8.33301 15 -19c0 -12 -11.667 -18 -35 -18l-17 1l-15 1l-43 -3l-43 -4
c-6.66699 0 -11 6.33301 -13 19v27c0 5.33301 -1.66699 9.66602 -5 12.999l-32 -27c-17.333 -13.333 -36 -23.333 -56 -30s-42.667 -10 -68 -10c-53.333 0 -92.666 15 -117.999 45c-19.333 23.333 -31.666 59.666 -36.999 108.999l-2 130v77c0 20 -1 33 -3 39
c-4 10.667 -13.667 19 -29 25c-4.66699 0.666992 -8.33398 1.33398 -11.001 2.00098s-7.33398 2.66699 -14.001 6s-10 8.66602 -10 15.999c0 14 10.667 21 32 21l15 -1z" />
    <glyph glyph-name="uacute" unicode="&#xfa;" horiz-adv-x="544" 
d="M295 719c12 0 22.332 -4.83301 30.999 -14.5s13 -20.167 13 -31.5c0 -10.667 -22.167 -41.167 -66.5 -91.5s-71.166 -75.5 -80.499 -75.5c-11.333 0 -17 6.66699 -17 20l54 115l23 50c12.667 18.667 27 28 43 28zM38.999 455l21.001 0.00195312
c8.66699 2 15 3.33301 19 4l40 6l9 -3c6 -6 9.66699 -12 11 -18l-3 -119l-2 -122c0 -47.333 6 -83 18 -107c16 -32 46 -48 90 -48c50 0 84 20.333 102 61c11.333 26.667 17 68.667 17 126l-3 138c0 18 -6 30 -18 36l-31 8c-10.667 2.66699 -16.334 9 -17.001 19
c0 13.333 24 20 72 20c29.333 0 51 3 65 9l10 -2c9.33301 -9.33301 14 -25 14 -47l-2 -27l-1 -27v-178v-24l-1 -23c0 -55.333 12 -87 36 -95l28 -5c10 -2 15 -8.33301 15 -19c0 -12 -11.667 -18 -35 -18l-17 1l-15 1l-43 -3l-43 -4c-6.66699 0 -11 6.33301 -13 19v27
c0 5.33301 -1.66699 9.66602 -5 12.999l-32 -27c-17.333 -13.333 -36 -23.333 -56 -30s-42.667 -10 -68 -10c-53.333 0 -92.666 15 -117.999 45c-19.333 23.333 -31.666 59.666 -36.999 108.999l-2 130v77c0 20 -1 33 -3 39c-4 10.667 -13.667 19 -29 25
c-4.66699 0.666992 -8.33398 1.33398 -11.001 2.00098s-7.33398 2.66699 -14.001 6s-10 8.66602 -10 15.999c0 14 10.667 21 32 21l15 -1z" />
    <glyph glyph-name="ucircumflex" unicode="&#xfb;" horiz-adv-x="544" 
d="M105 534c2.66699 6 4.99902 11 6.99902 15l25 45l34 65c18 32 33 48 45 48h51c8 0 28 -26 60 -78s48 -83.667 48 -95c0 -12 -5.66699 -18 -17 -18c-8 0 -27.5 17.167 -58.5 51.5s-51.5 52.5 -61.5 54.5c-8 -2 -26.333 -20.333 -55 -55s-47.667 -52 -57 -52
c-4 0 -8.16699 1.16699 -12.5 3.5s-7.16602 7.5 -8.49902 15.5zM39.999 455l21.001 0.00195312c8.66699 2 15 3.33301 19 4l40 6l9 -3c6 -6 9.66699 -12 11 -18l-3 -119l-2 -122c0 -47.333 6 -83 18 -107c16 -32 46 -48 90 -48c50 0 84 20.333 102 61
c11.333 26.667 17 68.667 17 126l-3 138c0 18 -6 30 -18 36l-31 8c-10.667 2.66699 -16.334 9 -17.001 19c0 13.333 24 20 72 20c29.333 0 51 3 65 9l10 -2c9.33301 -9.33301 14 -25 14 -47l-2 -27l-1 -27v-178v-24l-1 -23c0 -55.333 12 -87 36 -95l28 -5
c10 -2 15 -8.33301 15 -19c0 -12 -11.667 -18 -35 -18l-17 1l-15 1l-43 -3l-43 -4c-6.66699 0 -11 6.33301 -13 19v27c0 5.33301 -1.66699 9.66602 -5 12.999l-32 -27c-17.333 -13.333 -36 -23.333 -56 -30s-42.667 -10 -68 -10c-53.333 0 -92.666 15 -117.999 45
c-19.333 23.333 -31.666 59.666 -36.999 108.999l-2 130v77c0 20 -1 33 -3 39c-4 10.667 -13.667 19 -29 25c-4.66699 0.666992 -8.33398 1.33398 -11.001 2.00098s-7.33398 2.66699 -14.001 6s-10 8.66602 -10 15.999c0 14 10.667 21 32 21l15 -1z" />
    <glyph glyph-name="udieresis" unicode="&#xfc;" horiz-adv-x="544" 
d="M128 671c6.66699 0 19.166 -9.66895 37.499 -29.002s27.5 -32.666 27.5 -39.999c0 -8.66699 -9.66699 -22.667 -29 -42c-18 -20 -31.667 -30 -41 -30c-5.33301 0 -18.666 10 -39.999 30c-18 19.333 -27.667 33.333 -29 42c0 10.667 9.66699 24.834 29 42.501
s34.333 26.5 45 26.5zM361.999 671.998c8 0 21.332 -8.99902 39.999 -26.999s28.667 -31.333 30 -40c0 -8.66699 -9.16699 -22.5 -27.5 -41.5s-31.833 -30.167 -40.5 -33.5l-9 1c-6.66699 1.33301 -18.667 11.666 -36 30.999c-16 19.333 -24.667 33 -26 41
c0 7.33301 9.33301 20.5 28 39.5s32.334 28.833 41.001 29.5zM41.998 454.999l21.001 0.00195312c8.66699 2 15 3.33301 19 4l40 6l9 -3c6 -6 9.66699 -12 11 -18l-3 -119l-2 -122c0 -47.333 6 -83 18 -107c16 -32 46 -48 90 -48c50 0 84 20.333 102 61
c11.333 26.667 17 68.667 17 126l-3 138c0 18 -6 30 -18 36l-31 8c-10.667 2.66699 -16.334 9 -17.001 19c0 13.333 24 20 72 20c29.333 0 51 3 65 9l10 -2c9.33301 -9.33301 14 -25 14 -47l-2 -27l-1 -27v-178v-24l-1 -23c0 -55.333 12 -87 36 -95l28 -5
c10 -2 15 -8.33301 15 -19c0 -12 -11.667 -18 -35 -18l-17 1l-15 1l-43 -3l-43 -4c-6.66699 0 -11 6.33301 -13 19v27c0 5.33301 -1.66699 9.66602 -5 12.999l-32 -27c-17.333 -13.333 -36 -23.333 -56 -30s-42.667 -10 -68 -10c-53.333 0 -92.666 15 -117.999 45
c-19.333 23.333 -31.666 59.666 -36.999 108.999l-2 130v77c0 20 -1 33 -3 39c-4 10.667 -13.667 19 -29 25c-4.66699 0.666992 -8.33398 1.33398 -11.001 2.00098s-7.33398 2.66699 -14.001 6s-10 8.66602 -10 15.999c0 14 10.667 21 32 21l15 -1z" />
    <glyph glyph-name="ydieresis" unicode="&#xff;" horiz-adv-x="483" 
d="M97 669c8.66699 0 21.333 -9.33105 38 -27.998s25.667 -34 27 -46c-4 -8.66699 -14.167 -21.834 -30.5 -39.501s-28.833 -26.834 -37.5 -27.501c-8 0 -15.333 3.66699 -22 11l-19 21l-19 18c-6 6 -9.33301 12.667 -10 20c0 5.33301 7 16.333 21 33s24.667 27.167 32 31.5
s14 6.5 20 6.5zM330.999 669.002c10 0 24.001 -8.83301 42.001 -26.5s27 -31.834 27 -42.501c0 -6 -8.16699 -18.333 -24.5 -37s-28.5 -30 -36.5 -34l-11 -1c-5.33301 0 -18 10.333 -38 31c-18 20 -27.333 33.667 -28 41c0 8 9.16699 21.333 27.5 40
s32.166 28.334 41.499 29.001zM-7 452.002l50.999 -4l52 -4l47 4l48 4c15.333 0 23 -7.33301 23 -22c0 -3.33301 -11 -8.66602 -33 -15.999c-21.333 -5.33301 -32 -16.333 -32 -33c0 -14.667 15 -55 45 -121c10 -22.667 21 -46.334 33 -71.001s21.667 -43 29 -55l3 -2l2 -3
c6 4 19.333 34.333 40 91l34 101c5.33301 21.333 8.66602 38.333 9.99902 51c0 18 -6.33301 30 -19 36l-35 9c-12.667 3.33301 -19 9.33301 -19 18c0 5.33301 3.66699 10.666 11 15.999l3 1l57 -4l55 -4l30 4c12.667 2.66699 23.334 4 32.001 4l4 -1
c8 -2.66699 12.333 -9 13 -19c-2 -2.66699 -4.16699 -5.16699 -6.5 -7.5s-7.5 -6.5 -15.5 -12.5l-29 -20c-11.333 -9.33301 -28 -42.333 -50 -99l-100 -264c-32 -87.333 -53 -139.333 -63 -156c-34 -60 -76.333 -90 -127 -90c-32 0 -52 7.33301 -60 22
c-4 14.667 -7.33301 26 -10 34l-10 29l-17 40c0 13.333 7 20 21 20c4 0 11 -4 21 -12c20 -42.667 43.667 -64 71 -64c22 0 46.333 19.667 73 59c24 36 36 66.667 36 92c0 10.667 -27 73.834 -81 189.501s-86.333 179.5 -97 191.5l-34 25c-15.333 12 -23.666 21 -24.999 27
c0 10.667 6.33301 16 19 16z" />
    <glyph glyph-name="c128" unicode="&#x112;" horiz-adv-x="524" 
d="M421 500l-73 -130h158v-53h-187l-75 -134h262v-52h-290l-87 -155l-47 27l71 128h-151v52h181l74 134h-255v53h285l87 157z" />
    <glyph glyph-name="c129" unicode="&#x113;" horiz-adv-x="682" 
d="M511 388c35.333 0 66.499 -13.168 93.499 -39.501s40.5 -57.5 40.5 -93.5s-12.667 -67.667 -38 -95s-55.333 -41 -90 -41c-37.333 0 -72 10.667 -104 32c-12.667 8 -41 31.667 -85 71c-42 -37.333 -70.333 -61 -85 -71c-32.667 -21.333 -67.667 -32 -105 -32
c-35.333 0 -65.666 14 -90.999 42s-38 59.667 -38 95c0 36.667 13.667 67.834 41 93.501s59 38.5 95 38.5c32 0 65 -11.667 99 -35c21.333 -13.333 49.333 -36 84 -68l36 32c18 15.333 34.5 28 49.5 38s31 18 48 24s33.5 9 49.5 9zM144.999 337.999
c-23.333 0 -43.5 -9.00098 -60.5 -27.001s-25.5 -38.667 -25.5 -62c0 -22.667 9 -42.667 27 -60c18 -16 39.333 -24 64 -24c26.667 0 53.667 9.66699 81 29c12.667 8.66699 34.667 28.334 66 59.001c-30 26 -53.333 44.667 -70 56c-30.667 19.333 -58 29 -82 29z
M507.999 165.998c24 0 45.001 8 63.001 24s27 35.667 27 59c0 24 -8.16699 44.833 -24.5 62.5s-36.833 26.5 -61.5 26.5c-36 0 -86.667 -28.333 -152 -85c30 -28.667 52 -48 66 -58c27.333 -19.333 54.666 -29 81.999 -29z" />
    <glyph glyph-name="c141" unicode="&#x114;" horiz-adv-x="585" 
d="M571 0h-578l307 660zM56 47h396l-187 449z" />
    <glyph glyph-name="c142" unicode="&#x115;" horiz-adv-x="472" 
d="M194 0l-187 362l187 353h57l186 -353l-186 -362h-57zM222 663l-157 -301l157 -310l158 310z" />
    <glyph glyph-name="mu1" unicode="&#x116;" horiz-adv-x="551" 
d="M129 480l-0.000976562 -319c0 -31.333 7.5 -57.5 22.5 -78.5s37.833 -31.5 68.5 -31.5c20 0 40.667 7.33301 62 22s36.666 31.667 45.999 51v356h82v-369c0 -18 4.33301 -35.833 13 -53.5s21.667 -26.5 39 -26.5c16.667 0 29 7.66699 37 23l14 44l19 -1
c-16 -75.333 -55 -113 -117 -113c-27.333 0 -48 9.33301 -62 28c-8 12 -15.667 34.333 -23 67c-44 -63.333 -94.667 -95 -152 -95c-19.333 0 -36.666 5.33301 -51.999 16l-45 31v-22c0 -17.333 5.16699 -43.5 15.5 -78.5s15.5 -60.167 15.5 -75.5
c0 -16.667 -3.66699 -32.334 -11 -47.001s-18.666 -22 -33.999 -22s-27 7.16699 -35 21.5s-12 29.833 -12 46.5c0 17.333 4.5 43.333 13.5 78s13.5 60.334 13.5 77.001v471h82z" />
    <glyph glyph-name="c279" unicode="&#x117;" horiz-adv-x="301" 
d="M264 393l4 -2c5.33301 -6.66699 8 -27 8 -61c0 -12.667 -3 -22 -9 -28c-2.66699 -2.66699 -11.667 -7 -27 -13l-106 -37l-59 -25l-53 -20c-4 0 -7.33301 1.33301 -10 4c-4 6 -6 25.667 -6 59c0 14.667 6 24.667 18 30c149.333 62 229.333 93 240 93z" />
    <glyph glyph-name="c281" unicode="&#x119;" horiz-adv-x="760" 
d="M443 717c15.333 0 39.835 -3 73.502 -9s59.167 -9 76.5 -9c11.333 0 21.666 3.83301 30.999 11.5s16.666 11.5 21.999 11.5s9 -1.66699 11 -5c4 -3.33301 7.66699 -11.666 11 -24.999c3.33301 -22.667 8.66602 -45.834 15.999 -69.501s18.666 -51.5 33.999 -83.5
c0 -9.33301 -0.666992 -15.333 -2 -18c-4 -4 -10.333 -6 -19 -6c-3.33301 0 -16.666 13 -39.999 39c-26.667 31.333 -52.667 55.666 -78 72.999c-20 13.333 -40.333 23.333 -61 30s-43 10 -67 10c-85.333 0 -151.666 -31 -198.999 -93c-41.333 -56.667 -62 -129 -62 -217
c0 -84 22 -156 66 -216c49.333 -66 114.333 -99 195 -99c57.333 0 106.666 16 147.999 48c25.333 19.333 50.333 48.666 75 87.999c19.333 32 32.333 48 39 48c8 0 15 -5.33301 21 -16v-5c0 -18 -14 -46 -42 -84c-65.333 -88.667 -151 -133 -257 -133
c-101.333 0 -185.166 33.833 -251.499 101.5s-99.5 151.834 -99.5 252.501c0 106.667 33 195.834 99 267.501s152.667 107.5 260 107.5zM557.002 372h-560l24 56h559zM514.002 272h-517l24 56h517z" />
    <glyph glyph-name="dotlessi" unicode="&#x131;" horiz-adv-x="241" 
d="M4 420h7c17.333 0 42.5 8 75.5 24s51.833 24 56.5 24c14 0 21 -15.333 21 -46l-2 -30l-2 -30v-216c0 -58 16 -93 48 -105c8 -0.666992 18.667 -5 32 -13l2 -11c0 -10.667 -8 -16 -24 -16l-40 3l-39 4h-39l-36 -4l-35 -4c-10 -0 -15 5.33301 -15 16
c0 11.333 10.667 19 32 23c17.333 14 26 48.333 26 103v70l1 26v25c0 68 -11.667 107 -35 117l-37 10l-5 5l-2 5c0 9.33301 3.33301 16 10 20z" />
    <glyph glyph-name="OE" unicode="&#x152;" horiz-adv-x="1006" 
d="M353 713c18.667 0 62.668 -4.00195 132.001 -12.002c14 -1.33301 31.333 -2.33301 52 -3s53 -1 97 -1h42l42 -1c21.333 0 40.833 0.5 58.5 1.5s34.5 4.16699 50.5 9.5l37 10l6 -1l5 -3c3.33301 -5.33301 14.666 -32.666 33.999 -81.999l28 -78c0 -10 -7 -15 -21 -15
c-7.33301 0 -16 6.33301 -26 19l-18 31c-17.333 28 -42.666 46 -75.999 54c-18 4 -49.667 6 -95 6c-48 0 -77 -6 -87 -18c-3.33301 -5.33301 -6 -15.5 -8 -30.5s-3 -36.167 -3 -63.5v-22l1 -23c0 -26.667 4.66699 -43.334 14 -50.001c6 -4 24 -6 54 -6h28
c41.333 0 69 6 83 18c7.33301 5.33301 12 17.333 14 36c0 16 5.33301 27.667 16 35l7 1l4 -2c8 -3.33301 13 -13.666 15 -30.999c0 -24.667 1.66699 -49.667 5 -75s10.333 -55.666 21 -90.999l6 -30c0 -3.33301 -1.83301 -6.5 -5.5 -9.5s-8.16699 -5.16699 -13.5 -6.5
c-8 0 -15 5 -21 15c-8 44 -28.667 71.333 -62 82c-7.33301 2 -19.833 3.66699 -37.5 5s-41.834 2 -72.501 2c-22 0 -36.667 -4 -44 -12c-6 -8 -9 -24.667 -9 -50l3 -165c0 -21.333 1.66699 -38.5 5 -51.5s8.33301 -23.167 15 -30.5c11.333 -11.333 38.333 -17 81 -17
c86 0 146.667 14.333 182 43l33 39c17.333 20 28.333 30 33 30c14 0 21 -7 21 -21l-21 -50l-26 -56c-11.333 -28.667 -27 -43 -47 -43l-82 4l-82 4h-141c-24.667 0 -62.5 -3 -113.5 -9s-89.833 -9 -116.5 -9c-110 0 -198.833 33 -266.5 99s-101.5 154.333 -101.5 265
c0 103.333 35.833 189 107.5 257s159.5 102 263.5 102zM373.001 42.998c57.333 0 95.667 15.999 115 47.999c12 22 18 64.667 18 128l-2 282c0 44.667 -3.66699 74.334 -11 89.001c-10 24 -31.5 42 -64.5 54s-61.167 18 -84.5 18c-80 0 -144 -26 -192 -78
s-72 -118.333 -72 -199c0 -84.667 27 -161.667 81 -231c58 -74 128.667 -111 212 -111z" />
    <glyph glyph-name="oe" unicode="&#x153;" horiz-adv-x="845" 
d="M239 468c63.333 0 122.669 -22.998 178.002 -68.998c4 -2 8.66699 -6.66699 14 -14l3 -2l4 2c38 55.333 99 83 183 83c39.333 0 75 -12 107 -36c20 -15.333 40.333 -38 61 -68c16.667 -24.667 26.667 -38 30 -40c2.66699 -4 4 -7.33301 4 -10
c0 -6.66699 -22.333 -15.334 -67 -26.001l-167 -40c-20 -4.66699 -52.667 -14.667 -98 -30l-4 -11c0 -38 16.167 -74 48.5 -108s68.166 -51 107.499 -51c30.667 0 65.667 10.333 105 31c18 9.33301 32.667 17.333 44 24c4 2 8.66699 4.66699 14 8
c8.66699 0 13 -6.33301 13 -19c0 -7.33301 -10.333 -20 -31 -38c-52 -44 -114 -66 -186 -66c-30 0 -61.333 7.83301 -94 23.5s-56.334 35.167 -71.001 58.5l-5 1l-28 -22c-50 -40.667 -102.667 -61 -158 -61c-76.667 0 -138.667 22.167 -186 66.5s-71 105.166 -71 182.499
c0 66 25 121 75 165s108.333 66 175 66zM253.003 31.002c44 0 78.334 15.667 103.001 47c22.667 28.667 34 65.667 34 111c0 62.667 -13 115.667 -39 159c-30 51.333 -75 77 -135 77c-39.333 0 -71.333 -15.333 -96 -46c-22 -28 -33 -62.667 -33 -104
c0 -61.333 12 -115 36 -161c29.333 -55.333 72.666 -83 129.999 -83zM494.004 268.002c12.667 0 48.501 8.16895 107.501 24.502s92.167 28.166 99.5 35.499l3 7v5c0 21.333 -11.333 40.833 -34 58.5s-45.334 26.5 -68.001 26.5c-40.667 0 -71.167 -14 -91.5 -42
s-30.5 -62.667 -30.5 -104c0 -6.66699 4.66699 -10.334 14 -11.001z" />
    <glyph glyph-name="Scaron" unicode="&#x160;" horiz-adv-x="733" 
d="M299 0h-283.001v156h15c4 -20 10.333 -34.833 19 -44.5s23 -14.5 43 -14.5h152l-2 26c-139.333 41.333 -209 128.333 -209 261c0 86 32.333 154.333 97 205c60.667 47.333 135 71 223 71c86.667 0 160 -24 220 -72c64 -51.333 96 -120 96 -206
c0 -131.333 -69.333 -217.333 -208 -258l-2 -27h153c34.667 0 55.334 19.667 62.001 59h15v-156h-284l16 146c90.667 38 136 118 136 240c0 72.667 -15.667 130 -47 172c-36 48 -88.667 72 -158 72s-122 -24 -158 -72c-32 -42 -48 -99.333 -48 -172
c0 -121.333 45.333 -201.333 136 -240z" />
    <glyph glyph-name="Ydieresis" unicode="&#x178;" horiz-adv-x="644" 
d="M140 884c6 0 12.332 -3.33301 18.999 -10l18 -19l19 -17c6.66699 -4.66699 10.334 -11.334 11.001 -20.001c0 -9.33301 -9.16699 -24.166 -27.5 -44.499s-31.833 -30.5 -40.5 -30.5c-7.33301 0 -21 9.66699 -41 29c-18 19.333 -27.667 33 -29 41
c0 8.66699 3.66699 16.667 11 24l20 18l18 19c6.66699 6.66699 14 10 22 10zM416.999 874l22.999 11.002c6 -1.33301 18.667 -10 38 -26c19.333 -14.667 29.333 -24.667 30 -30l1 -10c0 -10.667 -9.16699 -25.834 -27.5 -45.501s-32.5 -29.5 -42.5 -29.5
c-7.33301 0 -21 10 -41 30c-17.333 19.333 -26.666 33.666 -27.999 42.999c0 7.33301 6.33301 17.333 19 30zM-11.002 706.002l5.00195 0.00292969l59 -4l60 -4l62 4l61 4c13.333 0 20 -6 20 -18c-0.666992 -2 -1.5 -4.16699 -2.5 -6.5s-3.16699 -5.83301 -6.5 -10.5l-32 -7
c-13.333 -2 -20 -11.333 -20 -28c0 -6 21.167 -43.167 63.5 -111.5s67.166 -104.5 74.499 -108.5c4 2 6.66699 3.66699 8 5l22 33c66 98 99 157.667 99 179c0 16.667 -13.833 27 -41.5 31s-41.5 13.333 -41.5 28c5.33301 8 12.666 12.667 21.999 14l47 -4l46 -4l60 4l61 4
c4 0 8.33301 -1.5 13 -4.5s7 -7.5 7 -13.5v-4c-4 -2.66699 -7.33301 -4.66699 -10 -6l-31 -16c-24.667 -10 -45.667 -26.667 -63 -50l-98 -148l-46 -67c-17.333 -28.667 -26 -53.667 -26 -75v-110l1 -43v-44c0 -36.667 8.66699 -61.334 26 -74.001
c6.66699 -4 21 -7.16699 43 -9.5s33 -10.5 33 -24.5l-14 -16h-9l-57 3l-57 4l-63 -4l-62 -4c-15.333 0 -23 7.66699 -23 23c0 5.33301 9 10.666 27 15.999c21.333 4 36.666 15 45.999 33c6 12 9 31 9 57l1 86v85c0 31.333 -9 62.666 -27 93.999l-56 80l-59 92
c-24.667 36.667 -48 63.667 -70 81c-6.66699 5.33301 -18.667 10 -36 14c-19.333 2 -31.666 4.66699 -36.999 8l-8 10l-1 4c0 15.333 7 23 21 23z" />
    <glyph glyph-name="florin" unicode="&#x192;" horiz-adv-x="524" 
d="M493 0h-477v53h477v-53zM493 333l-477 -221v60l416 191l-416 191v59l477 -220v-60z" />
    <glyph glyph-name="circumflex" unicode="&#x2c6;" horiz-adv-x="0" 
d="M-136 534c0 4 10.002 23.9971 30.002 59.9971l34 66c18 31.333 33.333 47 46 47h51l10 -3c9.33301 -11.333 27.666 -40.166 54.999 -86.499s41.666 -74.166 42.999 -83.499c0 -12 -5.66699 -18 -17 -18c-7.33301 0 -26.5 17.167 -57.5 51.5s-51.5 52.5 -61.5 54.5
c-6.66699 -0.666992 -25.167 -18.5 -55.5 -53.5s-49.833 -52.833 -58.5 -53.5l-12 2c-4.66699 4.66699 -7 10.334 -7 17.001z" />
    <glyph glyph-name="caron" unicode="&#x2c7;" horiz-adv-x="0" 
d="M-128 703l11.999 3c8 0 26.667 -17 56 -51s49 -52.333 59 -55c6 0.666992 24.5 18.834 55.5 54.501s51.833 53.5 62.5 53.5c4 0 8 -2 12 -6s6 -8 6 -12c0 -6.66699 -9.66699 -26.334 -29 -59.001l-47 -83c-10 -16.667 -18 -27 -24 -31
c-4 -1.33301 -8.66699 -2.33301 -14 -3s-14 -1 -26 -1l-24 1c-5.33301 0 -24.666 26.5 -57.999 79.5s-50 83.5 -50 91.5c0 4 3 10 9 18z" />
    <glyph glyph-name="tilde" unicode="&#x2dc;" horiz-adv-x="0" 
d="M-78 684c18 0 46.834 -10.666 86.501 -31.999s66.167 -32 79.5 -32c18.667 0 33 11.5 43 34.5s18.333 34.833 25 35.5c14 0 21 -7.66699 21 -23c0 -26 -11.5 -53.667 -34.5 -83s-47.167 -44 -72.5 -44c-18 0 -46.333 10.333 -85 31c-19.333 10 -35.833 17.667 -49.5 23
s-24.834 8 -33.501 8c-14 0 -26 -11.5 -36 -34.5s-19.667 -34.5 -29 -34.5c-6 0 -11.333 3.33301 -16 10l-2 12c0 23.333 11.667 50.666 35 81.999s46 47 68 47z" />
    <glyph glyph-name="endash" unicode="&#x2013;" horiz-adv-x="483" 
d="M458 274c-2 -4 -6.33301 -6 -13 -6h-441l-4 3c-2 2 -3 18 -3 48c0 14 4.33301 21.333 13 22h420c13.333 0 22.333 -1.33301 27 -4l1 -3v-60z" />
    <glyph glyph-name="emdash" unicode="&#x2014;" horiz-adv-x="644" 
d="M-32 320h666v-59h-666v59z" />
    <glyph glyph-name="quoteleft" unicode="&#x2018;" horiz-adv-x="181" 
d="M113 717c10 0 15.001 -6.00195 15.001 -18.002l-2 -10c-27.333 -35.333 -41 -64.666 -41 -87.999c0 -18.667 6.33301 -34 19 -46l37 -21c11.333 -6 17.666 -13 18.999 -21l-3 -15l-27 -41c-14 -19.333 -24 -29.666 -30 -30.999c-23.333 0 -44.333 15.667 -63 47
c-16 28 -24 54.667 -24 80c0 26 10.5 59.833 31.5 101.5s43.833 62.5 68.5 62.5z" />
    <glyph glyph-name="quoteright" unicode="&#x2019;" horiz-adv-x="181" 
d="M73 715l2.99805 0.998047c22.667 0 43.334 -15.333 62.001 -46c16 -28 24 -53.333 24 -76c0 -28.667 -9.66699 -62 -29 -100c-22 -42 -45.667 -65 -71 -69l-6 2c-5.33301 5.33301 -8.66602 10.333 -9.99902 15l6.5 13c2.33301 4.66699 7.5 12.334 15.5 23.001
c14.667 22 22 42 22 60c0 20 -6.33301 36 -19 48l-36 22c-12 8 -18.333 17.333 -19 28c2.66699 4.66699 4.66699 8.33398 6 11.001c4 7.33301 10.333 17 19 29c17.333 24 28 37 32 39z" />
    <glyph glyph-name="quotesinglbase" unicode="&#x201a;" horiz-adv-x="166" 
d="M35 64c18.667 18.667 34.332 40.332 46.999 64.999c4 2 9.66699 3.66699 17 5c20 0 39.333 -15.667 58 -47c15.333 -27.333 23 -52.666 23 -75.999c0 -49.333 -22 -97.666 -66 -144.999c-13.333 -14 -24.333 -21 -33 -21c-12 0 -18 6 -18 18l3 10
c27.333 35.333 41 64.333 41 87c0 19.333 -4.33301 33.666 -13 42.999c-4 4 -13.167 9.16699 -27.5 15.5s-25.166 13.5 -32.499 21.5l-2 11z" />
    <glyph glyph-name="quotedblleft" unicode="&#x201c;" horiz-adv-x="382" 
d="M102 715c10.667 -2 16.335 -8.33398 17.002 -19.001c-2 -3.33301 -3.66699 -6.33301 -5 -9c-4.66699 -8 -10.334 -17 -17.001 -27c-14 -21.333 -21 -41.666 -21 -60.999c0 -18.667 6.33301 -34 19 -46l36 -22c11.333 -6 17.666 -13 18.999 -21
c0 -7.33301 -8.66699 -23.5 -26 -48.5s-30 -37.833 -38 -38.5c-20 0 -39.667 16 -59 48c-15.333 28.667 -23 54.667 -23 78c0 29.333 9.66699 62.833 29 100.5s42.333 59.5 69 65.5zM310.001 714.999c12 0 18.002 -5.33203 18.002 -15.999l-5 -10
c-3.33301 -6.66699 -9 -15.667 -17 -27c-14.667 -22 -22 -44 -22 -66c0 -22.667 12.333 -41.334 37 -56.001c23.333 -12.667 35.666 -22.667 36.999 -30c0 -8 -8.33301 -24.333 -25 -49s-29.334 -37.334 -38.001 -38.001c-22.667 0 -42.167 15.5 -58.5 46.5
s-24.5 58.833 -24.5 83.5c0 28.667 10 61.334 30 98.001s42.667 58 68 64z" />
    <glyph glyph-name="quotedblright" unicode="&#x201d;" horiz-adv-x="382" 
d="M68 715c20 0 39 -15.999 57 -47.999c16 -28 24 -53.667 24 -77c0 -26 -10 -59 -30 -99c-22.667 -44.667 -45.667 -67 -69 -67c-4.66699 0 -10 4 -16 12l-1 4l6.5 13c2.33301 4.66699 7.5 12.667 15.5 24c14.667 23.333 22 44.666 22 63.999
c0 24.667 -12.667 43.667 -38 57c-24.667 14.667 -37 25.667 -37 33c0 4 8.66699 18.5 26 43.5s28.333 38.5 33 40.5h7zM214 643.001l25.999 40c12 18 20.667 28.333 26 31l10 1c18 0 36 -13.833 54 -41.5s27 -51.167 27 -70.5c0 -68 -21.333 -121 -64 -159
c-3.33301 -3.33301 -7.83301 -7 -13.5 -11s-10.167 -7 -13.5 -9l-7 -1c-12 3.33301 -18 10 -18 20l22 35c6.66699 9.33301 12 19.333 16 30s6 21 6 31c0 20 -6.33301 36 -19 48l-36 22c-11.333 8 -17.666 17 -18.999 27z" />
    <glyph glyph-name="quotedblbase" unicode="&#x201e;" horiz-adv-x="382" 
d="M51 130l14.999 4c20.667 0 40.334 -15.667 59.001 -47c7.33301 -13.333 13 -26.5 17 -39.5s6 -25.5 6 -37.5c0 -28 -9 -59.167 -27 -93.5s-39.667 -58.5 -65 -72.5h-11c-8.66699 5.33301 -13 11 -13 17c0 4 7.33301 16.333 22 37s22 42 22 64
c0 21.333 -12.333 39.833 -37 55.5s-37 28.167 -37 37.5c0 4.66699 16.333 29.667 49 75zM259.999 131l11.001 3.00098c21.333 0 41.666 -15 60.999 -45c16 -26 24 -51.667 24 -77c0 -30 -9.66699 -64 -29 -102c-22 -44 -46.333 -66 -73 -66l-5 1c-4 4 -7 8.66699 -9 14
c0 4 7.33301 16.333 22 37c6.66699 10 12 20.167 16 30.5s6 20.833 6 31.5c0 20 -6.33301 36 -19 48l-35 21c-12.667 7.33301 -19 16.666 -19 27.999z" />
    <glyph glyph-name="dagger" unicode="&#x2020;" horiz-adv-x="483" 
d="M31 478c12 0 39.668 -4.99902 83.001 -14.999c18 -4 33 -6.83301 45 -8.5s22.667 -2.5 32 -2.5l6 3v6c0 13.333 -1 28.666 -3 45.999s-5.66699 39 -11 65c-9.33301 50.667 -14 87.667 -14 111c0 24 16.333 36 49 36c38 0 57 -10.667 57 -32
c0 -24.667 -4.83301 -62.834 -14.5 -114.501s-14.5 -89.834 -14.5 -114.501c0 -4 3.66699 -6.33301 11 -7l80 16l80 11c24.667 0 37 -16.667 37 -50c0 -37.333 -10.667 -56 -32 -56c-26.667 0 -82.334 9.33301 -167.001 28l-7 -2l-1 -6c0 -15.333 5 -39.666 15 -72.999
l9.5 -34.5c4.33301 -15.667 6.5 -28.834 6.5 -39.501l-8 -58c-6 -39.333 -10.833 -91.666 -14.5 -156.999s-5.5 -140 -5.5 -224c0 -11.333 -4.33301 -21.333 -13 -30c-4 -2 -9.33301 -3 -16 -3c-14.667 0 -22 17.667 -22 53l1 24l1 23c0 44.667 -1.33301 89.334 -4 134.001
s-7 88.667 -13 132l-13 123c0 7.33301 1 16 3 26s5.66699 22.667 11 38c10 28 15 49.667 15 65v5l-9 4c-9.33301 0 -20.5 -1 -33.5 -3s-29.167 -5.66699 -48.5 -11c-36 -9.33301 -62.667 -14 -80 -14c-23.333 0 -35 18.333 -35 55c0 34 12.333 51 37 51z" />
    <glyph glyph-name="daggerdbl" unicode="&#x2021;" horiz-adv-x="722" 
d="M696 581l-28.998 -61.002c-55.333 68 -132 102 -230 102c-60.667 0 -114.334 -17.667 -161.001 -53s-78.334 -81 -95.001 -137h445l-30 -63h-429l-2 -33l2 -30h400l-30 -63h-356c18 -59.333 50.667 -106.166 98 -140.499s103.333 -51.5 168 -51.5
c91.333 0 164.666 33 219.999 99v-85c-64.667 -51.333 -139.667 -77 -225 -77c-81.333 0 -152.5 22.833 -213.5 68.5s-100.5 107.834 -118.5 186.501h-113l30 63h71l-1 31l1 32h-101l30 63h83c18 78 57.833 139.667 119.5 185s134.167 68 217.5 68
c48 0 94.833 -9.16699 140.5 -27.5s81.834 -43.833 108.501 -76.5z" />
    <glyph glyph-name="bullet" unicode="&#x2022;" horiz-adv-x="333" 
d="M297 353c0 -36.667 -12.333 -67.5 -37 -92.5s-55 -37.5 -91 -37.5c-36.667 0 -68 12.667 -94 38s-39 56 -39 92c0 35.333 13.167 65.833 39.5 91.5s57.5 38.5 93.5 38.5c34.667 0 64.667 -12.833 90 -38.5s38 -56.167 38 -91.5z" />
    <glyph glyph-name="ellipsis" unicode="&#x2026;" horiz-adv-x="1000" 
d="M219 0h-104v106h104v-106zM552 0h-104v106h104v-106zM885 0h-104v106h104v-106z" />
    <glyph glyph-name="perthousand" unicode="&#x2030;" horiz-adv-x="262" 
d="M53 -103c-14 0 -27.335 6.33398 -40.002 19.001c-11.333 12.667 -17 26 -17 40c0 10 4.5 19.167 13.5 27.5s18.5 12.5 28.5 12.5c7.33301 0 16.833 -5 28.5 -15s19.167 -15 22.5 -15c17.333 0 26 31.333 26 94l-3 148l-3 150v220c0 201.333 33 302 99 302
c16 0 30.833 -5 44.5 -15s20.5 -23.333 20.5 -40c0 -12 -5.16699 -21.833 -15.5 -29.5s-21.166 -11.5 -32.499 -11.5c-9.33301 0 -18.166 3.33301 -26.499 10s-15.833 10.667 -22.5 12c-12 0 -18 -10 -18 -30c0 -33.333 3 -84.333 9 -153s9 -120.334 9 -155.001l1 -53v-53
c0 -250.667 -20.667 -397.667 -62 -441c-16 -16 -36.667 -24 -62 -24z" />
    <glyph glyph-name="guilsinglleft" unicode="&#x2039;" horiz-adv-x="333" 
d="M245 108l-157 123v92l157 123v-88l-105 -81l105 -81v-88z" />
    <glyph glyph-name="guilsinglright" unicode="&#x203a;" horiz-adv-x="333" 
d="M88 196l105 81l-105 81v88l157 -123v-92l-157 -123v88z" />
    <glyph glyph-name="uni20AC" unicode="&#x20ac;" horiz-adv-x="760" 
d="M514 272l-314.996 0.00195312c14 -65.333 42 -119 84 -161c45.333 -46 101.333 -69 168 -69c57.333 0 106.666 16 147.999 48c25.333 19.333 50.333 48.666 75 87.999c19.333 32 32.333 48 39 48c8 0 15 -5.33301 21 -16v-5c0 -18 -14 -46 -42 -84
c-65.333 -88.667 -151 -133 -257 -133c-88.667 0 -164.334 26.5 -227.001 79.5s-102 121.167 -118 204.5h-93l24 56h63v14l1 30h-88l24 56h71c17.333 86.667 56.666 155.667 117.999 207c64.667 54.667 142.334 82 233.001 82c15.333 0 39.833 -3 73.5 -9s59.167 -9 76.5 -9
c11.333 0 21.666 3.83301 30.999 11.5s16.666 11.5 21.999 11.5s9 -1.66699 11 -5c4 -3.33301 7.66699 -11.666 11 -24.999c3.33301 -22.667 8.66602 -45.834 15.999 -69.501s18.666 -51.5 33.999 -83.5c0 -9.33301 -0.666992 -15.333 -2 -18c-4 -4 -10.333 -6 -19 -6
c-3.33301 0 -16.666 13 -39.999 39c-26.667 31.333 -52.667 55.666 -78 72.999c-20 13.333 -40.333 23.333 -61 30s-43 10 -67 10c-73.333 0 -132.666 -23 -177.999 -69c-40 -42 -66 -98.667 -78 -170h385l-23 -56h-367v-15l1 -29h347z" />
    <glyph glyph-name="trademark" unicode="&#x2122;" horiz-adv-x="851" 
d="M305 646l2.99902 -93l-17 -1v8c0 28 -12 47 -36 57c-6 2 -16 3.83301 -30 5.5s-28.333 2.5 -43 2.5v-300c0 -17.333 16 -26 48 -26v-18h-154v18c32.667 0 49 8.66699 49 26l-1 300c-37.333 0 -62.666 -3.33301 -75.999 -10c-21.333 -9.33301 -32 -30.333 -32 -63l-18 1
l3 93h304zM445.999 646l126 -275.999l121 276h108v-17h-9c-25.333 0 -38 -8 -38 -24v-280c0 -17.333 16 -26 48 -26v-18h-154v18c32.667 0 49 8.66699 49 26v266l-128 -310h-18l-138 295v-251c0 -17.333 16.333 -26 49 -26v-18h-124v18c32.667 0 49 8.66699 49 26v270
c0 15.333 -5 25.666 -15 30.999c-4 2 -16 3 -36 3v17h110z" />
    <glyph glyph-name="fraction" unicode="&#x2215;" horiz-adv-x="121" 
d="M-117 13l11 27.998l32 78l132 309c77.333 180 117.333 271 120 273l3 3l4 3h23l3 -2l1 -8c-7.33301 -23.333 -58 -144.166 -152 -362.499s-142.667 -329.166 -146 -332.499l-5 -1h-15c-8 0 -12.333 2.33301 -13 7z" />
    <glyph glyph-name="NULL" horiz-adv-x="0" 
 />
    <glyph glyph-name="nonmarkingreturn" horiz-adv-x="241" 
 />
    </font>
</defs>
</svg>
