<?xml version="1.0" standalone="no"?>
<!DOCTYPE svg PUBLIC "-//W3C//DTD SVG 1.1//EN" "http://www.w3.org/Graphics/SVG/1.1/DTD/svg11.dtd" >
<svg>
<metadata>
Created by FontForge 20090914 at Fri Feb 19 12:04:36 2021
 By www-data
&#194;&#169; Copyright SoftMaker Software GmbH and its licensors
</metadata>
<defs>
<font id="L850SlabLight" horiz-adv-x="820" >
  <font-face 
    font-family="L850-Slab-Light"
    font-weight="400"
    font-stretch="normal"
    units-per-em="1000"
    panose-1="0 0 3 0 0 0 0 0 0 0"
    ascent="800"
    descent="-200"
    x-height="515"
    cap-height="708"
    bbox="-177 -248 1090 916"
    underline-thickness="20"
    underline-position="-132"
    unicode-range="U+0020-U+2215"
  />
<missing-glyph horiz-adv-x="500" 
d="M31 0v916h438v-916h-438zM438 31v854h-376v-854h376z" />
    <glyph glyph-name=".notdef" horiz-adv-x="500" 
d="M31 0v916h438v-916h-438zM438 31v854h-376v-854h376z" />
    <glyph glyph-name="space" unicode=" " horiz-adv-x="357" 
 />
    <glyph glyph-name="exclam" unicode="!" horiz-adv-x="252" 
d="M108 84h24v-82h-24v82zM108 705h27v-542h-27v542z" />
    <glyph glyph-name="quotedbl" unicode="&#x22;" horiz-adv-x="279" 
d="M131 709h27l-76 -177h-28zM214 709h27l-76 -177h-29z" />
    <glyph glyph-name="numbersign" unicode="#" horiz-adv-x="526" 
d="M116 206h-97v67h107l26 193h-107v68h117l29 206h69l-29 -206h124l29 206h69l-29 -206h83v-67h-93l-27 -194h92v-67h-101l-29 -206h-69l29 206h-124l-29 -206h-69zM222 467l-27 -194h123l27 194h-123z" />
    <glyph glyph-name="dollar" unicode="$" horiz-adv-x="484" 
d="M219 818h20l1 -92c62 -6 109 -34.333 141 -85v67h23v-146l-18 -1c-24 94 -78.333 141 -163 141c-47.333 0 -87.833 -13.5 -121.5 -40.5s-50.5 -64.5 -50.5 -112.5c0 -25.333 7 -50.666 21 -75.999c21.333 -36 58.333 -61 111 -75l140 -33
c51.333 -20 87.333 -56.667 108 -110c10 -25.333 15 -48.333 15 -69c0 -56.667 -21 -103 -63 -139c-35.333 -30.667 -83.333 -50 -144 -58v-82h-22v84l-73 21c-26 9.33301 -46.667 23.333 -62 42l-25 32v-78h-22v171h21c4.66699 -51.333 23 -91.5 55 -120.5
s74.333 -43.5 127 -43.5c50.667 0 94 16 130 48s54 73.667 54 125c0 73.333 -34 124 -102 152l-190 56c-68.667 28 -103 81 -103 159c0 97.333 64 154.666 192 171.999v91z" />
    <glyph glyph-name="percent" unicode="%" horiz-adv-x="841" 
d="M13 581c0 42.667 15.332 76.499 45.999 101.499s68 37.5 112 37.5c40 0 73 -14.167 99 -42.5s39 -63.166 39 -104.499v-162c0 -42.667 -13.167 -78.667 -39.5 -108s-60.833 -44 -103.5 -44c-41.333 0 -77.166 13 -107.499 39s-45.5 60.333 -45.5 103v180z
M159.999 278.999c42.667 0 75.666 13.999 98.999 41.999c20 25.333 30 60.333 30 105l1 46l1 48c0 56.667 -7.66699 98.334 -23 125.001c-20.667 36.667 -57 55 -109 55c-38 0 -68.333 -12.5 -91 -37.5s-34 -56.833 -34 -95.5v-155c0 -38.667 11.333 -70.5 34 -95.5
s53.334 -37.5 92.001 -37.5zM513.998 708.998h23l-248 -707h-27zM492.998 317.998c0 38 14.667 70.332 44 96.999s63 40 101 40c39.333 0 73.833 -12.167 103.5 -36.5s44.5 -56.166 44.5 -95.499v-181c0 -42 -12.333 -77.667 -37 -107s-57.667 -44 -99 -44
c-43.333 0 -80.333 12.333 -111 37s-46 58.667 -46 102v188zM513.998 123.997c0 -30 12.999 -56.332 38.999 -78.999s55 -34 87 -34c38.667 0 69.834 12.5 93.501 37.5s35.5 57.167 35.5 96.5v151c0 40 -11.167 73.167 -33.5 99.5s-53.5 39.5 -93.5 39.5
c-33.333 0 -63 -10.833 -89 -32.5s-39 -48.834 -39 -81.501v-197z" />
    <glyph glyph-name="ampersand" unicode="&#x26;" horiz-adv-x="694" 
d="M108 584c0 40.667 15.332 74.832 45.999 102.499s67 41.5 109 41.5c41.333 0 76.833 -15.333 106.5 -46s44.5 -67 44.5 -109c0 -37.333 -17.333 -73 -52 -107c-27.333 -26 -62 -46.667 -104 -62l194 -186l110 243h113v-25h-97l-108 -234l100 -101l54 -52l51 -45l-20 -16
l-198 192c-30 -67.333 -56.333 -112.666 -79 -135.999c-35.333 -38 -82.666 -57 -141.999 -57c-57.333 0 -104.5 19.5 -141.5 58.5s-55.5 88.167 -55.5 147.5c0 40 8.33301 73.667 25 101c12.667 22 34 43.333 64 64l88 55c-39.333 37.333 -64 62 -74 74
c-22.667 30.667 -34 63 -34 97zM440.999 195.998l-208 198.999c-56 -26.667 -96.667 -52.667 -122 -78c-33.333 -35.333 -50 -79.666 -50 -132.999c0 -48.667 16.5 -90.167 49.5 -124.5s74.167 -51.5 123.5 -51.5c54.667 0 99 19 133 57c17.333 19.333 42 63 74 131z
M240.999 421.997c54 26.667 88.333 46.333 103 59c31.333 26 47 61 47 105c0 32.667 -13.5 60.667 -40.5 84s-57.167 35 -90.5 35c-36 0 -66.167 -12.167 -90.5 -36.5s-36.5 -55.5 -36.5 -93.5c0 -27.333 12.667 -56 38 -86z" />
    <glyph glyph-name="quotesingle" unicode="'" horiz-adv-x="194" 
d="M131 707h28l-76 -174h-28z" />
    <glyph glyph-name="parenleft" unicode="(" horiz-adv-x="357" 
d="M356 728l0.000976562 -30.002c-164.667 -115.333 -247 -271.666 -247 -468.999c0 -72.667 16.667 -146 50 -220s77.666 -132.333 132.999 -175l64 -48v-28c-181.333 122 -272 283.667 -272 485c0 204.667 90.667 366.334 272 485.001z" />
    <glyph glyph-name="parenright" unicode=")" horiz-adv-x="357" 
d="M-9 -214c82 59.333 144 126.665 186 201.998s63 162.333 63 261c0 142 -51.667 266.667 -155 374c-12.667 12.667 -43.667 38 -93 76v29c100 -69.333 170.167 -143.666 210.5 -222.999s60.5 -180.333 60.5 -303c0 -11.333 -1.33301 -25.666 -4 -42.999
s-7 -36.333 -13 -57c-38 -141.333 -123 -256 -255 -344v28z" />
    <glyph glyph-name="asterisk" unicode="*" horiz-adv-x="336" 
d="M33 612h109l-55 98l24 14l55 -99l55 93l21 -14l-56 -94h105v-23h-106l52 -96l-24 -10l-48 90l-52 -87l-23 14l51 88h-108v26z" />
    <glyph glyph-name="plus" unicode="+" horiz-adv-x="673" 
d="M27 308h282v280h30v-280h279v-29h-279v-279h-30v279h-282v29z" />
    <glyph glyph-name="comma" unicode="," horiz-adv-x="210" 
d="M133 86h26l-77 -177h-28z" />
    <glyph glyph-name="hyphen" unicode="-" horiz-adv-x="295" 
d="M27 275h231v-24h-231v24z" />
    <glyph glyph-name="period" unicode="." horiz-adv-x="210" 
d="M113 85h24v-83h-24v83z" />
    <glyph glyph-name="slash" unicode="/" horiz-adv-x="379" 
d="M340 773h27l-48 -112l-91 -214l-71 -170l-91 -220l-111 -272l-28 1z" />
    <glyph glyph-name="zero" unicode="0" horiz-adv-x="588" 
d="M48 511c0 59.333 23.167 110.333 69.5 153s99.5 64 159.5 64c22.667 0 40.667 -1.66699 54 -5c76.667 -16 129 -51.333 157 -106c20.667 -41.333 31 -105.333 31 -192v-178c0 -82 -20.333 -146.167 -61 -192.5s-101.667 -69.5 -183 -69.5c-71.333 0 -127 23.5 -167 70.5
s-60 106.833 -60 179.5v276zM276 7c58 0 107.667 16.667 149 50c22 18 38.667 38.5 50 61.5s17 48.833 17 77.5v319c0 53.333 -22.333 99 -67 137c-42 34 -91 51 -147 51c-56.667 0 -105.334 -17.833 -146.001 -53.5s-61 -81.5 -61 -137.5v-273
c0 -68.667 16.667 -123.667 50 -165c36.667 -44.667 88.334 -67 155.001 -67z" />
    <glyph glyph-name="one" unicode="1" horiz-adv-x="588" 
d="M150 709h185v-683h98v-24h-231v24h108v659h-160v24z" />
    <glyph glyph-name="two" unicode="2" horiz-adv-x="588" 
d="M45 28l359.999 350.999c36.667 36.667 55 80.334 55 131.001c0 51.333 -17.5 96.166 -52.5 134.499s-77.833 57.5 -128.5 57.5c-59.333 0 -107 -18.333 -143 -55c-18 -19.333 -32 -41.166 -42 -65.499s-15 -51.5 -15 -81.5h-23v16c0 62 21.333 112.167 64 150.5
s95.334 57.5 158.001 57.5c58.667 0 108 -20.833 148 -62.5s60 -92.167 60 -151.5c0 -27.333 -6.66699 -55.5 -20 -84.5s-30 -52.833 -50 -71.5l-339 -327h383v133h22v-158h-437v26z" />
    <glyph glyph-name="three" unicode="3" horiz-adv-x="588" 
d="M81 202c18 -127.333 84.999 -191.001 200.999 -191.001c48.667 0 91.834 19.5 129.501 58.5s56.5 83.167 56.5 132.5c0 66.667 -24.333 118 -73 154c-42 30 -98.333 45 -169 45v23h12l13 -1c45.333 0 83 10.667 113 32c34 24 51 58 51 102
c0 38.667 -13.333 71.834 -40 99.501s-59.334 41.5 -98.001 41.5s-70.167 -11.833 -94.5 -35.5s-40.5 -55.834 -48.5 -96.501h-24c21.333 104 75.333 156 162 156c48 0 88.167 -15.167 120.5 -45.5s48.5 -69.833 48.5 -118.5c0 -63.333 -34.667 -113.666 -104 -150.999
c42 -4 78.5 -26.333 109.5 -67s46.5 -82 46.5 -124c0 -64 -20.667 -118.167 -62 -162.5s-93 -66.5 -155 -66.5c-58 0 -108.333 21.333 -151 64c-21.333 21.333 -37.666 44.5 -48.999 69.5s-17 52.167 -17 81.5h22z" />
    <glyph glyph-name="four" unicode="4" horiz-adv-x="588" 
d="M35 189l90 134l118 172l147 212h33v-520h100v-23h-100v-139h100v-24h-225v24h100v139h-363v25zM399 186v494l-335 -494h335z" />
    <glyph glyph-name="five" unicode="5" horiz-adv-x="588" 
d="M65 202c8 -53.333 31.999 -98.3359 71.999 -135.003s88 -55 144 -55c60 0 111.667 20.833 155 62.5s65 92.167 65 151.5c0 62.667 -21.167 115.834 -63.5 159.501s-95.166 65.5 -158.499 65.5c-58 0 -114.667 -26.667 -170 -80l-25 1l65 337h330v-25h-310l-53 -275
c55.333 42 110 63 164 63c68 0 125.667 -23.167 173 -69.5s71 -104.166 71 -173.499c0 -67.333 -23.167 -124.666 -69.5 -171.999s-103.5 -71 -171.5 -71c-64 0 -117.667 20 -161 60s-71 92 -83 156h26z" />
    <glyph glyph-name="six" unicode="6" horiz-adv-x="588" 
d="M330 710h31.999l-199 -286c43.333 30 84 45 122 45c69.333 0 127 -24 173 -72s69 -107 69 -177c0 -65.333 -24.167 -120.5 -72.5 -165.5s-106.5 -67.5 -174.5 -67.5c-63.333 0 -117.666 24.667 -162.999 74s-68 106 -68 170c0 46.667 15 92 45 136zM290.999 7
c58 0 108.666 22 151.999 66s65 95 65 153s-21.333 109.333 -64 154s-93 67 -151 67c-61.333 0 -113.666 -22.333 -156.999 -67s-65 -98 -65 -160c0 -58 22 -108 66 -150s95.333 -63 154 -63z" />
    <glyph glyph-name="seven" unicode="7" horiz-adv-x="588" 
d="M106 709h401v-29l-311 -679h-22l14 35l293 647h-352v-132h-23v158z" />
    <glyph glyph-name="eight" unicode="8" horiz-adv-x="588" 
d="M116 560c0 46.667 16.835 86.166 50.502 118.499s74.167 48.5 121.5 48.5c43.333 0 81.666 -17.167 114.999 -51.5s50 -73.833 50 -118.5c0 -38.667 -10.667 -71 -32 -97c-15.333 -19.333 -42.333 -40.666 -81 -63.999c45.333 -4 83.333 -27.667 114 -71
c28 -39.333 42 -82.666 42 -129.999c0 -56 -20.667 -104.667 -62 -146c-19.333 -19.333 -41.333 -34.333 -66 -45s-51.334 -16 -80.001 -16c-57.333 0 -106.5 21.167 -147.5 63.5s-61.5 92.5 -61.5 150.5c0 87.333 48 153.666 144 198.999c-71.333 32 -107 85 -107 159z
M287.002 10.999c52 0 96.167 18.667 132.5 56s54.5 82 54.5 134c0 50 -18.333 93.333 -55 130s-80.667 55 -132 55c-48.667 0 -91.667 -17.667 -129 -53s-56 -77 -56 -125c0 -54 17.333 -100.333 52 -139s79 -58 133 -58zM139.002 540.999
c0 -32 15.668 -60.998 47.001 -86.998s63.666 -39 96.999 -39c37.333 0 70.833 14 100.5 42s44.5 61 44.5 99c0 39.333 -14.167 73.666 -42.5 102.999s-62.5 44 -102.5 44c-46 0 -81.5 -15.333 -106.5 -46s-37.5 -69.334 -37.5 -116.001z" />
    <glyph glyph-name="nine" unicode="9" horiz-adv-x="588" 
d="M233 2l-28.001 0.000976562l199 287c-52 -28.667 -93 -43 -123 -43c-65.333 0 -122.166 23.167 -170.499 69.5s-72.5 102.166 -72.5 167.499c0 68 23.5 125.667 70.5 173s104.167 71 171.5 71c64.667 0 120.5 -24.5 167.5 -73.5s70.5 -105.5 70.5 -169.5
c0 -48 -12.667 -90 -38 -126zM275.999 268.001c60 0 111.667 21.1689 155 63.502s65 94.166 65 155.499c0 60 -21.333 111.167 -64 153.5s-94 63.5 -154 63.5s-111.5 -21.333 -154.5 -64s-64.5 -94.334 -64.5 -155.001c0 -58.667 21.667 -109.5 65 -152.5
s94 -64.5 152 -64.5z" />
    <glyph glyph-name="colon" unicode=":" horiz-adv-x="252" 
d="M160 85h25v-83h-25v83zM161 249h24v-77h-24v77z" />
    <glyph glyph-name="semicolon" unicode=";" horiz-adv-x="252" 
d="M177 86l25 1c-35.333 -85.333 -61 -145 -77 -179h-26zM178 250h24v-77h-24v77z" />
    <glyph glyph-name="less" unicode="&#x3c;" horiz-adv-x="576" 
d="M539 446l-425 -193l425 -193v-68l-508 230v62l508 230v-68z" />
    <glyph glyph-name="equal" unicode="=" horiz-adv-x="673" 
d="M-16 220h671v-30h-671v30zM-16 399h671v-29h-671v29z" />
    <glyph glyph-name="greater" unicode="&#x3e;" horiz-adv-x="576" 
d="M37 60l425 193l-425 193v68l508 -230v-62l-508 -230v68z" />
    <glyph glyph-name="question" unicode="?" horiz-adv-x="484" 
d="M248 728c60 0 109.666 -20.668 148.999 -62.001s59 -92.333 59 -153c0 -41.333 -14.667 -78.666 -44 -111.999l-85 -89c-34 -43.333 -55 -95 -63 -155l-24 -1c0 54 17.333 104 52 150l91 100c32 37.333 48 75.333 48 114c0 50 -17.167 92.667 -51.5 128
s-76.833 53 -127.5 53c-106 0 -169 -60 -189 -180h-26c0 4.66699 0.333008 11 1 19s2 16.667 4 26c6.66699 43.333 31.667 82 75 116c40.667 30.667 84.334 46 131.001 46zM241.999 81.999h26v-80h-26v80z" />
    <glyph glyph-name="at" unicode="@" horiz-adv-x="1015" 
d="M529 500c-41.333 0 -78 -22.333 -110 -67c-27.333 -40.667 -41 -83.334 -41 -128.001c0 -27.333 7.5 -50.333 22.5 -69s35.5 -28 61.5 -28c40 0 76 24 108 72c27.333 42.667 41 85.334 41 128.001c0 22.667 -7.83301 43.667 -23.5 63s-35.167 29 -58.5 29zM662 556
l69.001 0.000976562l-73 -246c-12 -44 -18 -70.667 -18 -80c0 -19.333 7 -29 21 -29c39.333 0 74 27 104 81c25.333 46.667 38 91.667 38 135c0 77.333 -27.333 140.333 -82 189c-52 46 -117.667 69 -197 69c-87.333 0 -159.833 -31.333 -217.5 -94s-86.5 -138 -86.5 -226
s30 -162 90 -222s134 -90 222 -90c45.333 0 89.833 10 133.5 30s79.834 48 108.501 84h67c-32 -54 -76.333 -96.833 -133 -128.5s-116.334 -47.5 -179.001 -47.5c-53.333 0 -102.333 9 -147 27s-86 45.667 -124 83c-74 73.333 -111 163.333 -111 270
c0 102.667 37 191 111 265s162.667 111 266 111c92 0 171.667 -28.333 239 -85c70 -60 105 -135.667 105 -227c0 -67.333 -22.667 -131 -68 -191c-49.333 -65.333 -106.333 -98 -171 -98c-18.667 0 -34 5.66699 -46 17c-12 13.333 -18 28.666 -18 45.999
c-39.333 -42 -80 -63 -122 -63s-77 15.833 -105 47.5s-42 69.167 -42 112.5c0 35.333 5 68.333 15 99s25.667 60 47 88c44 59.333 100.333 89 169 89c51.333 0 89.666 -26 114.999 -78z" />
    <glyph glyph-name="A" unicode="A" 
d="M-18 27h88l150 328l52 118l48 110l43 102h-105v23h150l295 -681h88v-25h-219v24l103 -1l-96 222h-379c-17.333 -30.667 -50.333 -104 -99 -220h100v-26h-219v26zM570 271l-179 414l-183 -414h362z" />
    <glyph glyph-name="B" unicode="B" horiz-adv-x="568" 
d="M11 709l285.999 -0.00195312c54.667 0 99.834 -15.167 135.501 -45.5s53.5 -71.833 53.5 -124.5c0 -34 -9 -64 -27 -90c-11.333 -17.333 -34.333 -39.666 -69 -66.999c48.667 -26 82 -50.667 100 -74c24 -29.333 36 -68.666 36 -117.999
c0 -52.667 -18.333 -97.167 -55 -133.5s-82 -54.5 -136 -54.5h-323v22h102v661h-103v24zM327.999 23.998c52 0 94 16.168 126 48.501s48 75.166 48 128.499c0 50.667 -20.333 92 -61 124c-37.333 28 -82.333 42 -135 42h-171v-343h193zM292.999 388.999
c46 0 85.333 13.667 118 41s49 63 49 107c0 46.667 -15.667 83.167 -47 109.5s-71 39.5 -119 39.5h-158v-297h157z" />
    <glyph glyph-name="C" unicode="C" horiz-adv-x="735" 
d="M667 710l24.001 0.000976562v-142l-20 -1c-42 46 -85 80 -129 102s-96.333 33 -157 33c-90 0 -169 -34.333 -237 -103s-102 -148 -102 -238c0 -96.667 33.833 -179.834 101.5 -249.501s149.834 -104.5 246.501 -104.5c58.667 0 110.667 12.333 156 37
c37.333 19.333 78.666 53.333 123.999 102h29c-89.333 -108.667 -190.333 -163 -303 -163c-104.667 0 -193.834 35.667 -267.501 107s-110.5 159 -110.5 263c0 101.333 35 188.833 105 262.5s156.333 110.5 259 110.5c58 0 108.667 -9.33301 152 -28
c36.667 -16 79.667 -44.667 129 -86v98z" />
    <glyph glyph-name="D" unicode="D" horiz-adv-x="735" 
d="M7 25l101.999 -0.000976562v660h-102v24h319c96.667 0 179.667 -34.167 249 -102.5s104 -150.833 104 -247.5c0 -91.333 -28.167 -170.166 -84.5 -236.499s-130.166 -105.5 -221.499 -117.5l-71 -4h-295v24zM335.999 23.999c84 0 158.332 33 222.999 99s97 141 97 225
s-29.333 160.667 -88 230c-61.333 71.333 -133.666 107 -216.999 107h-221v-661h206z" />
    <glyph glyph-name="E" unicode="E" horiz-adv-x="546" 
d="M12 709h480v-166h-26v142h-328v-314h321v-26h-322v-320h330v135h23v-159h-477v24h101v660h-102v24z" />
    <glyph glyph-name="F" unicode="F" horiz-adv-x="504" 
d="M14 24h101v661h-101v23h479v-160h-25v137h-329v-312h317v-25h-319v-324h102v-23h-225v23z" />
    <glyph glyph-name="G" unicode="G" horiz-adv-x="841" 
d="M679 698l27 0.000976562v-151h-23c-80 103.333 -178 155 -294 155c-95.333 0 -176.333 -34.833 -243 -104.5s-100 -152.834 -100 -249.501c0 -94 34.167 -174 102.5 -240s150.5 -99 246.5 -99c80.667 0 152 25.667 214 77c59.333 48.667 100 113 122 193h-421v26h445
v-306h-24v203c-79.333 -145.333 -191.333 -218 -336 -218c-100.667 0 -188 35.833 -262 107.5s-111 157.5 -111 257.5c0 103.333 35 191.833 105 265.5s157 110.5 261 110.5c112 0 209 -44 291 -132v105z" />
    <glyph glyph-name="H" unicode="H" horiz-adv-x="715" 
d="M8 708h225v-23h-99v-314h414v312h-101v26h226v-26h-100v-659h99v-23h-225v23h100v321h-414v-321h99v-23h-223v23h100v660h-101v24z" />
    <glyph glyph-name="I" unicode="I" horiz-adv-x="274" 
d="M19 25h102v658h-102v25h225v-24h-99v-659h99v-24h-225v24z" />
    <glyph glyph-name="J" unicode="J" horiz-adv-x="442" 
d="M13 132c6 -34 22.999 -62.501 50.999 -85.501s59.333 -34.5 94 -34.5c40.667 0 75 15 103 45s42 65.667 42 107v521h-100v24h225v-24h-100v-525c0 -45.333 -16.333 -85.333 -49 -120s-72 -52 -118 -52c-42 0 -78.167 12.833 -108.5 38.5s-51.166 60.834 -62.499 105.501
h23z" />
    <glyph glyph-name="K" unicode="K" horiz-adv-x="631" 
d="M11 24h102v660h-102v25h224v-25h-98v-660h98v-23h-224v23zM479 685h-87.001v25h222v-26h-96l-75 -72c-25.333 -24 -56.666 -52 -93.999 -84l-173 -151c18 -14.667 66 -60.667 144 -138l217 -214h97v-24h-221v24h91l-318 312l-46 42c44 33.333 109.667 91 197 173l102 93z
" />
    <glyph glyph-name="L" unicode="L" horiz-adv-x="462" 
d="M11 27h99v660h-99v22h224v-22h-100v-660h279v135h24v-159h-427v24z" />
    <glyph glyph-name="M" unicode="M" horiz-adv-x="988" 
d="M1 26h100v659h-100v24h141l343 -677l304 677h145v-24h-100v-659h99v-25h-225v25h101v659l-311 -684h-25l-349 681v-656h99v-25h-222v25z" />
    <glyph glyph-name="N" unicode="N" horiz-adv-x="778" 
d="M7 26l100 -0.000976562v656h-99v23l139 -1c16 -28 67.333 -98 154 -210l53.5 -79l77.5 -110c45.333 -60 111.333 -153 198 -279v652h-104v26h231v-25h-100v-679h-39c-38 60.667 -88.333 134.334 -151 221.001l-157 216c-40 52.667 -99.333 136 -178 250v-661h105v-23
h-230v23z" />
    <glyph glyph-name="O" unicode="O" 
d="M392 728c102 0 189.5 -36.332 262.5 -108.999s109.5 -160 109.5 -262c0 -104 -37.167 -192 -111.5 -264s-163.5 -108 -267.5 -108c-99.333 0 -185 37.667 -257 113s-108 163.666 -108 264.999s36.5 187.5 109.5 258.5s160.5 106.5 262.5 106.5zM387 9.00098
c97.333 0 180.667 33.167 250 99.5s104 148.5 104 246.5c0 96 -34.333 178.333 -103 247s-150.667 103 -246 103c-47.333 0 -91.833 -8.33301 -133.5 -25s-79.5 -42 -113.5 -76c-68 -67.333 -102 -149.333 -102 -246c0 -94 33.833 -175.667 101.5 -245
s148.5 -104 242.5 -104z" />
    <glyph glyph-name="P" unicode="P" horiz-adv-x="546" 
d="M11 709l305 -0.000976562c58 0 107.833 -18.667 149.5 -56s62.5 -84.666 62.5 -141.999c0 -6 -0.333008 -12.333 -1 -19s-2 -14 -4 -22c-14 -64.667 -45.333 -110 -94 -136c-38 -20 -93.667 -30 -167 -30l-63 1l-63 1v-281h104v-24h-227v24h101v660h-103v24zM317 328.999
c51.333 0 95.5 17.166 132.5 51.499s55.5 77.833 55.5 130.5c0 48.667 -18.833 89.834 -56.5 123.501s-81.5 50.5 -131.5 50.5h-182v-356h182z" />
    <glyph glyph-name="Q" unicode="Q" 
d="M795 9l-0.000976562 92.999h23v-117c-59.333 8 -126.666 33 -201.999 75c-63.333 -50 -138 -75 -224 -75c-102 0 -189.5 36.333 -262.5 109s-109.5 160.334 -109.5 263.001c0 104 36.833 191.5 110.5 262.5s162.5 106.5 266.5 106.5c99.333 0 185 -36.833 257 -110.5
s108 -160.167 108 -259.5c0 -104 -42 -197.667 -126 -281c60 -36 113 -58 159 -66zM615.999 88.999c82 80 123.001 169.666 123.001 268.999c0 94.667 -34.333 175.834 -103 243.501s-150.667 101.5 -246 101.5c-96 0 -177.833 -34.167 -245.5 -102.5
s-101.5 -150.166 -101.5 -245.499c0 -29.333 6.66699 -68.333 20 -117l84 18c31.333 6.66699 59.666 10 84.999 10c74 0 143.667 -17.333 209 -52c16.667 -9.33301 39.5 -24.333 68.5 -45s64.5 -47.334 106.5 -80.001zM386 7.99805c71.333 0 142.001 22 212.001 66
c-78 62.667 -131.333 102.667 -160 120c-59.333 33.333 -123.333 50 -192 50c-24.667 0 -51.834 -2.33301 -81.501 -7s-60.5 -12 -92.5 -22l14 -23c75.333 -122.667 175.333 -184 300 -184z" />
    <glyph glyph-name="R" unicode="R" horiz-adv-x="609" 
d="M9 709l312.001 -0.000976562c64 0 119.833 -20.5 167.5 -61.5s71.5 -93.833 71.5 -158.5c0 -66 -23.5 -119.5 -70.5 -160.5s-104.167 -61.5 -171.5 -61.5l172 -242h103v-24h-114l-205 285c62 0 111.667 8.33301 149 25c46 20.667 79.333 57 100 109c8 20 12 37.333 12 52
c0 68.667 -20.333 121.334 -61 158.001s-95.334 55 -164.001 55h-175v-660h101v-24h-226v24h100v660h-101v24z" />
    <glyph glyph-name="S" unicode="S" horiz-adv-x="484" 
d="M377 709h25v-150h-22c-6.66699 42 -24 76.167 -52 102.5s-63 39.5 -105 39.5c-46 0 -85.667 -12.667 -119 -38c-36 -28 -54 -65 -54 -111c0 -68 33.667 -115.333 101 -142l189 -56c67.333 -30 101 -86 101 -168c0 -56.667 -19.333 -104.667 -58 -144
s-86.667 -59 -144 -59c-42 0 -77 7.66699 -105 23s-54 40.333 -78 75v-78h-23v175l19 1c0 -49.333 17.5 -90.333 52.5 -123s77.5 -49 127.5 -49s93.5 16.167 130.5 48.5s55.5 73.833 55.5 124.5c0 75.333 -33.667 128 -101 158l-189 55c-67.333 28 -101 79 -101 153
c0 52 17.333 95.333 52 130c18 17.333 37.5 30.333 58.5 39s45.167 13 72.5 13c67.333 0 123 -28.333 167 -85v66z" />
    <glyph glyph-name="T" unicode="T" horiz-adv-x="484" 
d="M2 709h457v-163h-25v140h-191v-660h101v-24h-225v23h100v662h-193v-141h-24v163z" />
    <glyph glyph-name="U" unicode="U" horiz-adv-x="631" 
d="M-16 710h225v-23h-100v-456c0 -59.333 17.167 -110.333 51.5 -153s80.833 -64 139.5 -64c60 0 107.333 22.667 142 68c15.333 20 27 42.667 35 68s12 54 12 86v450h-101v24h224v-24h-99v-456c0 -68 -18.333 -124.333 -55 -169c-40.667 -48.667 -93.667 -73 -159 -73
c-60 0 -110.333 22 -151 66s-61 96 -61 156v476h-103v24z" />
    <glyph glyph-name="V" unicode="V" horiz-adv-x="798" 
d="M-21 711h226v-22h-104l272 -651l275 648h-103v25h227v-25h-98l-291 -683l-22 -1c-30 78 -69.333 174.333 -118 289l-172 396h-92v24z" />
    <glyph glyph-name="W" unicode="W" horiz-adv-x="1008" 
d="M-26 709l222 -0.000976562v-23h-107l191 -657l99 363c16 67.333 45 173 87 317h15l192 -680l188 656h-102v24h217v-24h-91l-198 -684h-29l-185 646l-175 -645h-37c-43.333 164.667 -109.333 392.334 -198 683.001h-89v24z" />
    <glyph glyph-name="X" unicode="X" horiz-adv-x="673" 
d="M-16 23h88l231 348l-217 315h-93v23h224v-23h-103l202 -294l199 293h-110v24h226v-24h-89l-212 -315l234 -345h86v-23h-222v23h107l-220 325l-216 -325h100v-23h-215v21z" />
    <glyph glyph-name="Y" unicode="Y" horiz-adv-x="652" 
d="M-16 706h219v-24h-104l45.5 -92l61.5 -117l109 -208l120 253l81 165h-105v22h221v-24h-88c-30.667 -54.667 -68 -128 -112 -220l-107 -224v-213h101v-24h-224v24h101l-1 211l-123 239c-24 52 -60.667 121.333 -110 208h-85v24z" />
    <glyph glyph-name="Z" unicode="Z" horiz-adv-x="484" 
d="M9 27l390 658h-355v-142h-26v166h407v-24l-389 -659h398v136h25v-158h-450v23z" />
    <glyph glyph-name="bracketleft" unicode="[" horiz-adv-x="252" 
d="M116 706h142v-26h-114v-904h113v-24h-141v954z" />
    <glyph glyph-name="backslash" unicode="\" horiz-adv-x="278" 
d="M-17 737h66l246 -756h-67z" />
    <glyph glyph-name="bracketright" unicode="]" horiz-adv-x="252" 
d="M-5 -224h117v904h-116v25h143v-953h-144v24z" />
    <glyph glyph-name="asciicircum" unicode="^" horiz-adv-x="0" 
d="M2 894l173 -112h-42l-131 86l-130 -85l-45 1c23.333 10 53 27.333 89 52z" />
    <glyph glyph-name="underscore" unicode="_" horiz-adv-x="556" 
d="M0 -125v50h556v-50h-556z" />
    <glyph glyph-name="grave" unicode="`" horiz-adv-x="0" 
d="M-122 704c33.333 -15.333 71.333 -35.667 114 -61l111 -67l-9 -18c-31.333 12 -70 32 -116 60l-112 69z" />
    <glyph glyph-name="a" unicode="a" horiz-adv-x="694" 
d="M529 516h125v-24h-99v-467h100v-24h-126v145c-50 -102.667 -132 -154 -246 -154c-69.333 0 -130.5 26 -183.5 78s-79.5 113.333 -79.5 184c0 76.667 26.167 141.5 78.5 194.5s116.5 79.5 192.5 79.5c52.667 0 99.5 -14.333 140.5 -43s73.5 -67 97.5 -115v146zM286 15
c67.333 0 124.833 23.5 172.5 70.5s71.5 104.167 71.5 171.5s-23.333 125.333 -70 174s-103.667 73 -171 73c-69.333 0 -127.666 -24.5 -174.999 -73.5s-71 -108.167 -71 -177.5c0 -64.667 24.167 -120.5 72.5 -167.5s105.166 -70.5 170.499 -70.5z" />
    <glyph glyph-name="b" unicode="b" horiz-adv-x="673" 
d="M-13 704h123.998v-335c61.333 103.333 142.333 155 243 155c71.333 0 132.833 -26.333 184.5 -79s77.5 -115.667 77.5 -189c0 -72 -25.167 -134.333 -75.5 -187s-112.166 -79 -185.499 -79c-105.333 0 -186.666 53 -243.999 159v-147h-123v22h100v657h-101v23z
M351.998 13c65.333 0 121.999 24 169.999 72s72 104.667 72 170c0 67.333 -23.667 125 -71 173s-104.666 72 -171.999 72c-64 0 -120 -23.833 -168 -71.5s-72 -103.5 -72 -167.5c0 -67.333 23 -125.5 69 -174.5s103.333 -73.5 172 -73.5z" />
    <glyph glyph-name="c" unicode="c" horiz-adv-x="588" 
d="M500 516l26 0.00292969v-134l-23 -1c-18.667 35.333 -48 64.666 -88 87.999s-80.667 35 -122 35c-66.667 0 -123.834 -24.333 -171.501 -73s-71.5 -106.334 -71.5 -173.001s23.833 -123.834 71.5 -171.501s104.5 -71.5 170.5 -71.5c92 0 166.667 47 224 141h25
c-56 -110 -137.333 -165 -244 -165c-73.333 0 -136.666 25.833 -189.999 77.5s-80 114.167 -80 187.5s26 137.333 78 192s115.667 82 191 82c74 0 142 -32 204 -96v82z" />
    <glyph glyph-name="d" unicode="d" horiz-adv-x="673" 
d="M524 685l-101.999 0.000976562v24h129v-684h98v-25h-125v144c-54.667 -102.667 -136.667 -154 -246 -154c-66.667 0 -126.167 26.667 -178.5 80s-78.5 113.666 -78.5 180.999c0 76.667 25.167 141.667 75.5 195s113.833 80 190.5 80c50 0 96.667 -14.667 140 -44
c41.333 -27.333 73.666 -64 96.999 -110v313zM284.001 14.001c66 0 122.667 24 170 72s71 104.667 71 170c0 66 -23.167 123.667 -69.5 173s-102.833 74 -169.5 74c-66 0 -123.167 -24.167 -171.5 -72.5s-72.5 -105.833 -72.5 -172.5s23.833 -124 71.5 -172
s104.5 -72 170.5 -72z" />
    <glyph glyph-name="e" unicode="e" horiz-adv-x="609" 
d="M46 260c0 -32.667 6.33398 -63.3311 19.001 -91.998s31 -55.334 55 -80.001c45.333 -48 102 -72 170 -72c50.667 0 94 11 130 33c30.667 19.333 61.667 51.666 93 96.999h26c-56 -103.333 -140.333 -155 -253 -155c-70.667 0 -131.834 27.167 -183.501 81.5
s-77.5 117.5 -77.5 189.5c0 78.667 27 143 81 193s121 75 201 75c70 0 130.333 -27.5 181 -82.5s76 -117.5 76 -187.5h-518zM540.001 282.003c-12 68 -39.832 122.333 -83.499 163s-100.167 61 -169.5 61c-62.667 0 -116.334 -22.333 -161.001 -67
c-40.667 -40 -67 -92.333 -79 -157h493z" />
    <glyph glyph-name="f" unicode="f" horiz-adv-x="274" 
d="M13 26h103v466h-103v24h103c0 64.667 9.33301 111.667 28 141c21.333 33.333 63 54 125 62l1 -25c-50 -8 -83.833 -24 -101.5 -48s-26.5 -62 -26.5 -114v-16h103v-24h-103v-467h101v-24h-230v25z" />
    <glyph glyph-name="g" unicode="g" horiz-adv-x="673" 
d="M522 516h128.002v-25h-101v-448c0 -67.333 -25.667 -125.833 -77 -175.5s-111 -74.5 -179 -74.5c-100 0 -177.333 49.333 -232 148h22c53.333 -84 124.666 -126 213.999 -126c61.333 0 114.333 23 159 69s67 100.667 67 164v97c-54 -102.667 -133.667 -154 -239 -154
c-72 0 -134 26.667 -186 80s-78 116.333 -78 189s26.167 135.5 78.5 188.5s115.166 79.5 188.499 79.5c48 0 94.833 -15 140.5 -45s77.167 -67 94.5 -111v144zM279.002 13c68.667 0 126.5 24.1689 173.5 72.502s70.5 106.833 70.5 175.5
c0 63.333 -22.833 119.666 -68.5 168.999s-100.167 74 -163.5 74c-68.667 0 -127 -24.333 -175 -73s-72 -107.334 -72 -176.001c0 -62.667 23.5 -118.667 70.5 -168s101.833 -74 164.5 -74z" />
    <glyph glyph-name="h" unicode="h" horiz-adv-x="652" 
d="M-1 25h99.001v660h-99v24h125v-299c41.333 77.333 104.333 116 189 116c63.333 0 114.666 -24 153.999 -72c36 -44 54 -99 54 -165v-264h100v-24h-223v24h100v262c0 58.667 -16 108.667 -48 150c-34 43.333 -80.333 65 -139 65c-55.333 0 -100.5 -20.833 -135.5 -62.5
s-52.5 -90.167 -52.5 -145.5v-269h100v-24h-224v24z" />
    <glyph glyph-name="i" unicode="i" horiz-adv-x="252" 
d="M14 27h101v466h-101v23h123v-489h101v-24h-224v24zM114 710h22v-81h-22v81z" />
    <glyph glyph-name="j" unicode="j" horiz-adv-x="232" 
d="M3 -172c68.667 20 103 69.998 103 149.998v511h-102v27h123v-541c0 -47.333 -9 -83.166 -27 -107.499s-50.333 -45.166 -97 -62.499v23zM103 709.998h25v-83h-25v83z" />
    <glyph glyph-name="k" unicode="k" horiz-adv-x="546" 
d="M2 26h100v659h-100v24h124v-683h100v-25h-224v25zM354 491h-88v25h232v-25h-101l-232 -204c8.66699 -7.33301 21.5 -19 38.5 -35l70.5 -69l160 -158h102v-25h-230v25h96l-155 152c-28 24 -67.667 61.667 -119 113c86.667 67.333 162 134.333 226 201z" />
    <glyph glyph-name="l" unicode="l" horiz-adv-x="252" 
d="M9 709h124v-684h98v-24h-221v23h99v661h-100v24z" />
    <glyph glyph-name="m" unicode="m" horiz-adv-x="1008" 
d="M-5 27l100.999 -0.000976562v465h-101v26h126l-1 -95c14 29.333 37.167 54 69.5 74s65.833 30 100.5 30c81.333 0 145 -41.333 191 -124c22.667 41.333 48.667 72 78 92s66 30 110 30c56 0 103.167 -19.167 141.5 -57.5s57.5 -85.166 57.5 -140.499v-302h101v-26h-225v26
h103v292c0 47.333 -17 89.833 -51 127.5s-75 56.5 -123 56.5c-48.667 0 -90.5 -16.167 -125.5 -48.5s-52.5 -72.5 -52.5 -120.5v-306h98v-26h-224v26h100v300c0 49.333 -17.167 90.833 -51.5 124.5s-76.166 50.5 -125.499 50.5c-47.333 0 -87.5 -18 -120.5 -54
s-49.5 -78 -49.5 -126v-294h97v-26h-224v26z" />
    <glyph glyph-name="n" unicode="n" horiz-adv-x="652" 
d="M4 516h126.001l1 -100c16 33.333 40.333 59.5 73 78.5s67.667 28.5 105 28.5c59.333 0 111.666 -24 156.999 -72c38 -41.333 57 -91 57 -149v-277h100v-24h-221v24h98v267c0 51.333 -17.667 99 -53 143s-78.333 66 -129 66c-54 0 -98.833 -16.833 -134.5 -50.5
s-53.5 -77.5 -53.5 -131.5v-294h98v-23h-223v23h100v467h-101v24z" />
    <glyph glyph-name="o" unicode="o" horiz-adv-x="609" 
d="M288 529c75.333 0 139.333 -26.5 192 -79.5s79 -117.5 79 -193.5c0 -72.667 -26.167 -135.167 -78.5 -187.5s-115.5 -78.5 -189.5 -78.5c-73.333 0 -136.333 26 -189 78s-79 115.333 -79 190c0 74 25.833 137.667 77.5 191s114.167 80 187.5 80zM292 13
c64 0 120.334 23.5 169.001 70.5s73 102.5 73 166.5c0 69.333 -22.833 129 -68.5 179s-102.834 75 -171.501 75c-66.667 0 -125.167 -23.167 -175.5 -69.5s-75.5 -102.833 -75.5 -169.5c0 -70 24 -129.5 72 -178.5s107 -73.5 177 -73.5z" />
    <glyph glyph-name="p" unicode="p" horiz-adv-x="673" 
d="M-5 516l122.999 0.000976562v-136c62.667 98.667 140.334 148 233.001 148c76 0 139.833 -25.833 191.5 -77.5s77.5 -115.834 77.5 -192.501c0 -71.333 -25.833 -133.666 -77.5 -186.999s-113.834 -80 -186.501 -80c-51.333 0 -97.666 13.167 -138.999 39.5
s-74.333 63.166 -99 110.499v-311h101v-23h-224v23h100v662h-100v24zM357.999 14.001c64 0 119.999 24.166 167.999 72.499s72 104.833 72 169.5c0 68 -23.833 126.333 -71.5 175s-106.167 73 -175.5 73c-67.333 0 -123.166 -24.833 -167.499 -74.5
s-66.5 -109.167 -66.5 -178.5c0 -65.333 23.833 -121.166 71.5 -167.499s104.167 -69.5 169.5 -69.5z" />
    <glyph glyph-name="q" unicode="q" horiz-adv-x="673" 
d="M521 516h126v-24h-101v-662h99v-24h-224v23h100v311c-54 -98.667 -134.667 -148 -242 -148c-72 0 -133.5 27 -184.5 81s-76.5 116.667 -76.5 188c0 72 26.667 134.5 80 187.5s116.333 79.5 189 79.5c46 0 92 -14 138 -42s78 -63.667 96 -107v137zM285 14
c66 0 122.166 23.668 168.499 71.001s69.5 104.666 69.5 171.999c0 68 -23.167 126.167 -69.5 174.5s-103.166 72.5 -170.499 72.5c-66.667 0 -123.667 -24.667 -171 -74s-71 -107 -71 -173s24 -123 72 -171s105.333 -72 172 -72z" />
    <glyph glyph-name="r" unicode="r" horiz-adv-x="336" 
d="M11 515h128v-112c19.333 40 43 68.333 71 85c21.333 12.667 57 23 107 31v-26c-52.667 0 -95.5 -17.833 -128.5 -53.5s-49.5 -80.167 -49.5 -133.5v-281h96v-23h-222v23h100v469h-102v21z" />
    <glyph glyph-name="s" unicode="s" horiz-adv-x="421" 
d="M37 155h23c0 -40.667 14.167 -73.667 42.5 -99s62.833 -38 103.5 -38c38 0 71.167 12 99.5 36s42.5 54 42.5 90c0 47.333 -26.333 80 -79 98l-145 36c-52.667 20 -79 57 -79 111c0 42 15.333 76 46 102c28.667 23.333 64.667 35 108 35c36.667 0 76 -19 118 -57v50h23
v-128h-23c-14 73.333 -54.333 110 -121 110c-34.667 0 -63.667 -9.66699 -87 -29c-26 -20 -39 -46.667 -39 -80c0 -46 26.333 -78 79 -96l146 -37c52.667 -20 79 -57.333 79 -112c0 -46 -16.833 -83.167 -50.5 -111.5s-74.5 -42.5 -122.5 -42.5
c-63.333 0 -110 28.333 -140 85v-75h-24v152z" />
    <glyph glyph-name="t" unicode="t" horiz-adv-x="274" 
d="M-7 518h111v191h25v-191h131v-26h-131v-465h100v-25h-124v490h-112v26z" />
    <glyph glyph-name="u" unicode="u" horiz-adv-x="631" 
d="M-16 516h119v-313c0 -50.667 18.667 -94.667 56 -132s81 -56 131 -56c48.667 0 92.167 19.167 130.5 57.5s57.5 82.5 57.5 132.5v287h-100v24h125v-492h99v-23h-123v108c-46 -78 -108.333 -117 -187 -117c-58.667 0 -108.667 20.667 -150 62s-62 91 -62 149v289h-96v24z
" />
    <glyph glyph-name="v" unicode="v" horiz-adv-x="631" 
d="M-15 518h220v-24h-101l194 -471l195 472h-105v21h223v-23h-93l-205 -491h-30l-206 492h-92v24z" />
    <glyph glyph-name="w" unicode="w" horiz-adv-x="903" 
d="M-23 516l222.999 2.00098v-26h-97l168 -468l152 419h23l136 -414l94 256c0.666992 1.33301 8 21.666 22 60.999l52 146h-102v24h225v-24l-100 -1c-7.33301 -30 -20.333 -68.667 -39 -116l-20.5 -54.5c-6.33301 -17 -14.166 -36.833 -23.499 -59.5l-38.5 -110.5
l-56.5 -150.5l-28 -1c-28 90 -73 224 -135 402l-145 -400h-30l-180 491h-100v24z" />
    <glyph glyph-name="x" unicode="x" horiz-adv-x="546" 
d="M-15 25h105.001l154 235l-158 232h-96v24h224v-24h-99l143 -211l83 122.5c23.333 35.667 41.666 65.167 54.999 88.5h-100v24h224v-24h-94l-43 -62l-35 -54l-78 -116l157 -236h101v-24h-224v24h96l-142 216l-140 -215h92v-23h-225v23z" />
    <glyph glyph-name="y" unicode="y" horiz-adv-x="631" 
d="M-16 515h228v-23l-109 1l76 -188l113 -289l199 475h-105v24h225v-24h-94l-281 -663h100v-22h-225v22h102l67 161l-197 500h-99v26z" />
    <glyph glyph-name="z" unicode="z" horiz-adv-x="399" 
d="M2 31l315 461h-275v-125h-25v151h331v-24l-321 -467h314v121h25v-148h-364v31z" />
    <glyph glyph-name="braceleft" unicode="{" horiz-adv-x="334" 
d="M42 294c36 0 59.998 22.3359 71.998 67.0029c2.66699 10 4.66699 24.667 6 44s2 42 2 68l-1 43c0 31.333 0.666992 57.166 2 77.499s4.33301 38.166 9 53.499c15.333 50 46.333 75 93 75h67v-65h-44c-30.667 0 -46 -27.333 -46 -82v-113l-1 -57
c0 -28 -8.16699 -56.333 -24.5 -85s-37.166 -47 -62.499 -55c58.667 -19.333 88 -86.333 88 -201l-1 -87c0 -72 15.667 -108 47 -108h44v-65h-67c-31.333 0 -56.166 13.167 -74.499 39.5s-27.5 56.166 -27.5 89.499v171c0 29.333 -6 57 -18 83c-14 31.333 -35 47 -63 47v60z
" />
    <glyph glyph-name="bar" unicode="|" horiz-adv-x="260" 
d="M94 737h73v-756h-73v756z" />
    <glyph glyph-name="braceright" unicode="}" horiz-adv-x="334" 
d="M292 234c-27.333 0 -48.333 -15.665 -63 -46.998c-12 -24 -18 -51.667 -18 -83v-171c0 -33.333 -8.33301 -62.333 -25 -87c-19.333 -28 -45 -42 -77 -42h-67v65h44c30.667 0 46 36 46 108l-1 86c0 50.667 4.33301 90 13 118c12.667 42.667 38 70 76 82
c-25.333 8 -46.666 27.333 -63.999 58c-8.66699 15.333 -14.834 29.166 -18.501 41.499s-5.5 26.166 -5.5 41.499v171c0 54.667 -15.333 82 -46 82h-44v65h67c50.667 0 83 -31.333 97 -94c4 -21.333 6 -73 6 -155c0 -54 2.66699 -91.333 8 -112
c11.333 -44.667 35.333 -67 72 -67v-60z" />
    <glyph glyph-name="asciitilde" unicode="~" horiz-adv-x="0" 
d="M-63 869c13.333 0 31.667 -6.16699 55 -18.5s41.333 -18.5 54 -18.5c24.667 0 47 12.333 67 37l20 -18c-29.333 -30.667 -58.333 -46 -87 -46c-10 0 -18.667 1 -26 3s-18 6.33301 -32 13c-21.333 10 -38.333 15.667 -51 17c-20 0 -38 -9 -54 -27l-21 16
c26 28 51 42 75 42z" />
    <glyph glyph-name="nonbreakingspace" unicode="&#xa0;" horiz-adv-x="500" 
 />
    <glyph glyph-name="exclamdown" unicode="&#xa1;" horiz-adv-x="252" 
d="M107 550h24v-548h-24v548zM106 709h26v-81h-26v81z" />
    <glyph glyph-name="cent" unicode="&#xa2;" horiz-adv-x="588" 
d="M541 156c-26.667 -54 -59.668 -94.999 -99.001 -122.999s-85 -42 -137 -42v-77h-25l1 77c-33.333 0 -65.333 7.16699 -96 21.5s-58.667 34.833 -84 61.5c-49.333 51.333 -74 112.333 -74 183c0 71.333 24.333 133.333 73 186c24.667 27.333 52 48.5 82 63.5
s62.667 22.5 98 22.5v81h25v-81c68.667 0 133.667 -31.667 195 -95v82h26v-134l-23 -1c-18.667 35.333 -48 64.666 -88 87.999s-80.667 35 -122 35c-66 0 -123.167 -24.333 -171.5 -73s-72.5 -106 -72.5 -172c0 -66.667 23.833 -124 71.5 -172s104.834 -72 171.501 -72
c92 0 166.667 47 224 141h25z" />
    <glyph glyph-name="sterling" unicode="&#xa3;" horiz-adv-x="588" 
d="M9 380l97.002 0.000976562c-28 52 -42 91.667 -42 119c0 66 22.667 120.167 68 162.5s101 63.5 167 63.5s127.667 -34 185 -102v86h23v-151l-21 -1c-40 94 -106.333 141 -199 141c-52.667 0 -98.834 -19.833 -138.501 -59.5s-59.5 -86.167 -59.5 -139.5
c0 -36.667 16 -77 48 -121h279v-22h-254c40 -40.667 65 -68.667 75 -84c19.333 -30.667 29 -67 29 -109c0 -26.667 -4 -51 -12 -73c-5.33301 -14 -17 -35.667 -35 -65h116c52.667 0 97 14.667 133 44c38.667 31.333 58 72.666 58 123.999c0 17.333 -1.33301 32.333 -4 45h26
l4 -39c0 -58 -20.667 -105.167 -62 -141.5s-91.333 -54.5 -150 -54.5h-286v21h135c36 42 54 88.333 54 139c0 38 -11.667 73.667 -35 107c-12.667 18.667 -38.334 47 -77.001 85h-122v25z" />
    <glyph glyph-name="currency" unicode="&#xa4;" horiz-adv-x="806" 
d="M473 -15c-92.667 0 -173.501 32.5 -242.501 97.5s-108.833 144.167 -119.5 237.5h-63l10 24h51l-1 19v5h-60l10 24h51c8 94 47.833 173.5 119.5 238.5s155.5 97.5 251.5 97.5c98.667 0 184.334 -34.333 257.001 -103l-10 -23c-68.667 68.667 -151 103 -247 103
c-89.333 0 -167.5 -30 -234.5 -90s-104.5 -134.333 -112.5 -223h505l-10 -24h-497v-11v-13h487l-10 -24h-475c10 -86 47.833 -159.333 113.5 -220s141.834 -91 228.501 -91c98 0 182 34 252 102v-31c-72.667 -63.333 -157.334 -95 -254.001 -95z" />
    <glyph glyph-name="section" unicode="&#xa7;" horiz-adv-x="421" 
d="M48 -55c18 -82.667 66.998 -124 146.998 -124c42.667 0 76.834 14.167 102.501 42.5s38.5 63.833 38.5 106.5c0 18.667 -6.66699 38 -20 58c-15.333 24.667 -49 44.334 -101 59.001c-62.667 17.333 -102.667 31.666 -120 42.999c-38 25.333 -57 67.666 -57 126.999
c0 70 35.667 123.667 107 161c-66 30 -99 74 -99 132c0 46.667 15 86 45 118s69 48 117 48c44 0 80.833 -12.333 110.5 -37s49.5 -59 59.5 -103l-25 1c-28 76.667 -72.667 115 -134 115c-40 0 -74.5 -12.333 -103.5 -37s-43.5 -56.667 -43.5 -96
c0 -44 15.333 -76.333 46 -97c14.667 -10 48.334 -22.333 101.001 -37c45.333 -12.667 78 -28.667 98 -48c33.333 -32 50 -71 50 -117c0 -78 -41.667 -133 -125 -165l9 1h9c25.333 0 49 -15 71 -45c19.333 -27.333 29 -54.666 29 -81.999
c0 -51.333 -15.167 -92.5 -45.5 -123.5s-71.833 -46.5 -124.5 -46.5c-44.667 0 -81.167 12.833 -109.5 38.5s-47.5 61.5 -57.5 107.5h25zM201.998 117c38 0 71.167 14.3311 99.5 42.998s42.5 62.334 42.5 101.001c0 37.333 -14.333 70.333 -43 99s-61.334 43 -98.001 43
c-40 0 -74 -14.167 -102 -42.5s-42 -63.166 -42 -104.499c0 -36 14 -68.667 42 -98c28.667 -27.333 62.334 -41 101.001 -41z" />
    <glyph glyph-name="dieresis" unicode="&#xa8;" horiz-adv-x="0" 
d="M-55 690h25v-109h-25v109zM28 690h24v-109h-24v109z" />
    <glyph glyph-name="copyright" unicode="&#xa9;" horiz-adv-x="789" 
d="M384 655c92.667 0 171.667 -32.667 237 -98s98 -144.333 98 -237s-32.667 -171.667 -98 -237s-144.333 -98 -237 -98s-171.667 32.667 -237 98s-98 144.333 -98 237s32.667 171.667 98 237s144.333 98 237 98zM384 24c80 0 149.333 29 208 87s88 127.667 88 209
c0 80 -29 149.333 -87 208s-127.667 88 -209 88c-80 0 -149.333 -29 -208 -87s-88 -127.667 -88 -209c0 -80 29 -149.333 87 -208s127.667 -88 209 -88zM528 502l3.99805 -124h-20c-5.33301 29.333 -18.666 53.5 -39.999 72.5s-46.666 28.5 -75.999 28.5
c-39.333 0 -72 -18 -98 -54c-22 -32 -33 -69.333 -33 -112c0 -44 11.167 -80.167 33.5 -108.5s55.166 -42.5 98.499 -42.5c28.667 0 51.667 4.33301 69 13c4.66699 2 11.334 6 20.001 12l37 26l11 -16c-46 -48 -94.333 -72 -145 -72c-56 0 -101 17 -135 51
s-51 79.333 -51 136c0 51.333 17 96.333 51 135s77.333 58 130 58c12 0 29 -3 51 -9s39 -9 51 -9c11.333 0 19 5 23 15h19z" />
    <glyph glyph-name="guillemotleft" unicode="&#xab;" horiz-adv-x="274" 
d="M139 446l22 -13l-97 -172l95 -179l-19 -9l-105 189zM207 429l22 -13l-87 -155l89 -162l-22 -10l-95 175z" />
    <glyph glyph-name="logicalnot" unicode="&#xac;" horiz-adv-x="712" 
d="M15 279h645v-279h-54v226h-591v53z" />
    <glyph glyph-name="registered" unicode="&#xae;" horiz-adv-x="789" 
d="M383 -19c-92.667 0 -171.667 32.667 -237 98s-98 144 -98 236c0 92.667 32.667 171.667 98 237s144.333 98 237 98c91.333 0 170 -32.833 236 -98.5s99 -144.5 99 -236.5c0 -91.333 -32.833 -169.833 -98.5 -235.5s-144.5 -98.5 -236.5 -98.5zM382 611
c-81.333 0 -150.834 -29.168 -208.501 -87.501s-86.5 -128.166 -86.5 -209.499c0 -82 29 -151.667 87 -209s127.667 -86 209 -86c80 0 149.333 29 208 87s88 127.667 88 209c0 80.667 -29.167 150.167 -87.5 208.5s-128.166 87.5 -209.499 87.5zM332.999 191.999
c0 -18.667 15.001 -28 45.001 -28v-18h-155v18c32 0 48 8.33301 48 25v280c0 15.333 -3.66699 24.333 -11 27l-32 2v17h166c88 0 132 -30 132 -90c0 -27.333 -9.66699 -50.5 -29 -69.5s-42.333 -28.5 -69 -28.5l117 -149c7.33301 -9.33301 18.666 -14 33.999 -14v-18h-92
l-129 172h-25v-126zM333 339.999c18 0 34.167 1.33398 48.5 4.00098s26.166 6 35.499 10c29.333 12 44 33.333 44 64c0 25.333 -6 43.666 -18 54.999c-5.33301 4.66699 -12.666 8.66699 -21.999 12s-21 6 -35 8l-33 2c-14 0 -21 -6.66699 -21 -20z" />
    <glyph glyph-name="degree" unicode="&#xb0;" horiz-adv-x="357" 
d="M91 373c-39.333 0 -73.5 14.167 -102.5 42.5s-43.5 62.5 -43.5 102.5s14.333 74.167 43 102.5s63 42.5 103 42.5s74.333 -14.333 103 -43s43 -62.667 43 -102c0 -40 -14.167 -74.167 -42.5 -102.5s-62.833 -42.5 -103.5 -42.5zM90 625
c-29.333 0 -54.334 -10.5 -75.001 -31.5s-31 -46.167 -31 -75.5c0 -28.667 10.333 -53.667 31 -75c22 -20.667 47.333 -31 76 -31c29.333 0 54.5 10.5 75.5 31.5s31.5 45.833 31.5 74.5s-10.667 53.667 -32 75s-46.666 32 -75.999 32z" />
    <glyph glyph-name="plusminus" unicode="&#xb1;" horiz-adv-x="547" 
d="M240 396v230h53v-230h230v-54h-230v-229h-53v229h-230v54h230zM10 0v53h513v-53h-513z" />
    <glyph glyph-name="acute" unicode="&#xb4;" horiz-adv-x="0" 
d="M126 706l10 -18l-224 -130l-11 18c42 26 117 69.333 225 130z" />
    <glyph glyph-name="mu" unicode="&#xb5;" horiz-adv-x="575" 
d="M143 485l-0.000976562 -322.003c0 -74.667 30.333 -112 91 -112c20 0 41.167 7.5 63.5 22.5s37.5 32.167 45.5 51.5v360h84v-372c0 -17.333 4.33301 -35.333 13 -54s21.334 -28 38.001 -28c17.333 0 30 7.66699 38 23l15 45l19 -1c-18 -76 -57.333 -114 -118 -114
c-28 0 -49.333 9.33301 -64 28c-8.66699 12 -17 35 -25 69c-15.333 -26 -37 -48 -65 -66c-31.333 -20.667 -60 -31 -86 -31c-20 0 -37.667 5.33301 -53 16l-45 31v-22c0 -19.333 5.33301 -46.166 16 -80.499s16 -59.5 16 -75.5c0 -17.333 -3.66699 -32.333 -11 -45
c-8 -16 -20 -24 -36 -24c-15.333 0 -27 7.16699 -35 21.5s-12 29.833 -12 46.5c0 18.667 4.5 45.334 13.5 80.001s13.5 60.334 13.5 77.001v476h84z" />
    <glyph glyph-name="paragraph" unicode="&#xb6;" horiz-adv-x="667" 
d="M539 706l0.00195312 -54h-34v-819h-58v819h-144v-819h-58v486c-48.667 8 -87.334 28.667 -116.001 62c-27.333 34.667 -41 76.667 -41 126c0 63.333 21.333 113 64 149c39.333 33.333 91.666 50 156.999 50h230z" />
    <glyph glyph-name="periodcentered" unicode="&#xb7;" horiz-adv-x="172" 
d="M93 343c13.333 0 25.5 -4.83398 36.5 -14.501s16.5 -21.167 16.5 -34.5c0 -14 -4.83301 -26 -14.5 -36s-21.5 -15 -35.5 -15c-14.667 0 -26.667 4.66699 -36 14s-14 21 -14 35c0 14.667 4.16699 26.834 12.5 36.501s19.833 14.5 34.5 14.5z" />
    <glyph glyph-name="periodcentered" unicode="&#x2219;" horiz-adv-x="172" 
d="M93 343c13.333 0 25.5 -4.83398 36.5 -14.501s16.5 -21.167 16.5 -34.5c0 -14 -4.83301 -26 -14.5 -36s-21.5 -15 -35.5 -15c-14.667 0 -26.667 4.66699 -36 14s-14 21 -14 35c0 14.667 4.16699 26.834 12.5 36.501s19.833 14.5 34.5 14.5z" />
    <glyph glyph-name="cedilla" unicode="&#xb8;" horiz-adv-x="0" 
d="M-43 -175c17.333 -17.333 32.332 -25.999 44.999 -25.999c9.33301 0 19 4.5 29 13.5s15.333 18.833 16 29.5c0 9.33301 -4.83301 19.166 -14.5 29.499s-20.167 15.5 -31.5 15.5c-6 0 -20 -5.66699 -42 -17l-15 6l34 120h26l-32 -99c12 8 24 12 36 12
c16.667 0 30.834 -7.5 42.501 -22.5s17.5 -31.5 17.5 -49.5s-7.5 -32.5 -22.5 -43.5s-31.833 -16.5 -50.5 -16.5c-19.333 0 -40 16 -62 48h24z" />
    <glyph glyph-name="guillemotright" unicode="&#xbb;" horiz-adv-x="274" 
d="M55 428l96 -175l-93 -164l-20 12l86 155l-90 163zM126 446l104 -191l-104 -182l-19 10l96 173l-98 180z" />
    <glyph glyph-name="questiondown" unicode="&#xbf;" horiz-adv-x="484" 
d="M225 556l-4.99902 -30.999c-6 -36.667 -17 -68.667 -33 -96c-12.667 -21.333 -33.334 -46.333 -62.001 -75c-32.667 -33.333 -54 -57 -64 -71c-19.333 -28.667 -29 -58 -29 -88c0 -52 18 -96.167 54 -132.5s79.333 -54.5 130 -54.5c54 0 97.667 17.667 131 53
c30 32 49 75.667 57 131h22c0 -57.333 -20 -106.333 -60 -147s-89.333 -61 -148 -61c-58 0 -107.5 20.333 -148.5 61s-61.5 90.667 -61.5 150c0 40 14 77.667 42 113l83 88c32 37.333 52.667 79.666 62 126.999l5 33h25zM195.001 710.001h28v-79h-28v79z" />
    <glyph glyph-name="Agrave" unicode="&#xc0;" 
d="M252 915l225 -130l-12 -21l-227 130zM-18 27h88l150 328l52 118l48 110l43 102h-105v23h150l295 -681h88v-25h-219v24l103 -1l-96 222h-379c-17.333 -30.667 -50.333 -104 -99 -220h100v-26h-219v26zM570 271l-179 414l-183 -414h362z" />
    <glyph glyph-name="Aacute" unicode="&#xc1;" 
d="M501 916l10 -22l-225 -130l-13 22zM-18 27h88l150 328l52 118l48 110l43 102h-105v23h150l295 -681h88v-25h-219v24l103 -1l-96 222h-379c-17.333 -30.667 -50.333 -104 -99 -220h100v-26h-219v26zM570 271l-179 414l-183 -414h362z" />
    <glyph glyph-name="Acircumflex" unicode="&#xc2;" 
d="M378 894l172 -112h-41l-131 86l-130 -85h-45c22 10 51.667 28 89 54zM-18 27h88l150 328l52 118l48 110l43 102h-105v23h150l295 -681h88v-25h-219v24l103 -1l-96 222h-379c-17.333 -30.667 -50.333 -104 -99 -220h100v-26h-219v26zM570 271l-179 414l-183 -414h362z" />
    <glyph glyph-name="Atilde" unicode="&#xc3;" 
d="M313 869c13.333 0 31.665 -6.16699 54.998 -18.5s41.333 -18.5 54 -18.5c20 0 42.333 12.333 67 37l20 -18c-28.667 -30.667 -58 -46 -88 -46c-16 0 -35.167 5.5 -57.5 16.5s-39.166 16.5 -50.499 16.5c-15.333 0 -33.666 -9 -54.999 -27l-20 16c28 28 53 42 75 42z
M-17.001 26h88l150 328l52 118l48 110l43 102h-105v23h150l295 -681h88v-25h-219v24l103 -1l-96 222h-379c-17.333 -30.667 -50.333 -104 -99 -220h100v-26h-219v26zM570.999 270l-179 414l-183 -414h362z" />
    <glyph glyph-name="Adieresis" unicode="&#xc4;" 
d="M-18 27h88l150 328l52 118l48 110l43 102h-105v23h150l295 -681h88v-25h-219v24l103 -1l-96 222h-379c-17.333 -30.667 -50.333 -104 -99 -220h100v-26h-219v26zM570 271l-179 414l-183 -414h362zM330 893h24v-102h-24v102zM412 894h24v-104h-24v104z" />
    <glyph glyph-name="Aring" unicode="&#xc5;" 
d="M-18 27h88l150 328l52 118l48 110l43 102h-105v23h150l295 -681h88v-25h-219v24l103 -1l-96 222h-379c-17.333 -30.667 -50.333 -104 -99 -220h100v-26h-219v26zM570 271l-179 414l-183 -414h362zM385 909c18 0 33.333 -7.33105 46 -21.998s19 -31.334 19 -50.001
c0 -16.667 -6.5 -31.5 -19.5 -44.5s-28.167 -19.5 -45.5 -19.5c-18.667 0 -34.667 6.33301 -48 19c-12.667 14 -19 30 -19 48c0 19.333 6 35.666 18 48.999s28.333 20 49 20zM380 798.002c11.333 0 21.666 3.99902 30.999 11.999s14 18 14 30c0 9.33301 -3.66699 19 -11 29
s-15.333 15 -24 15c-11.333 0 -22.166 -3.83301 -32.499 -11.5s-15.5 -17.834 -15.5 -30.501c0 -11.333 3.5 -21.166 10.5 -29.499s16.167 -13.166 27.5 -14.499z" />
    <glyph glyph-name="AE" unicode="&#xc6;" horiz-adv-x="988" 
d="M-48 26h95l455 660h-99v24h510v-166h-26v141h-331v-313h323v-26h-322v-321h330v136h25v-161h-481v25h101v230h-300l-156 -230h98v-24h-222v25zM533 278v412l-286 -412h286z" />
    <glyph glyph-name="Ccedilla" unicode="&#xc7;" horiz-adv-x="735" 
d="M667 710l23.999 0.00292969v-142h-20c-42.667 45.333 -86 79 -130 101s-96 33 -156 33c-90 0 -169 -34.333 -237 -103s-102 -148 -102 -238c0 -96.667 33.667 -179.834 101 -249.501s149.333 -104.5 246 -104.5c58.667 0 110.667 12.333 156 37
c36.667 19.333 78.334 53.333 125.001 102h29c-89.333 -108 -190.333 -162 -303 -162c-22.667 0 -41.667 1.33301 -57 4l-30 -91c12 8 24 12 36 12c16.667 0 31 -7.16699 43 -21.5s18 -30.833 18 -49.5c0 -18 -7.5 -32.667 -22.5 -44s-32.167 -17 -51.5 -17
c-21.333 0 -41.666 16 -60.999 48h24c16 -17.333 30.333 -26 43 -26c10 0 20.167 4.16699 30.5 12.5s15.5 18.166 15.5 29.499c0 9.33301 -4.16699 19.166 -12.5 29.499s-17.5 15.5 -27.5 15.5c-10.667 0 -26.334 -5.33301 -47.001 -16l-16 6l34 116
c-86 18 -157 60.667 -213 128s-84 145 -84 233c0 101.333 35 188.833 105 262.5s156.667 110.5 260 110.5c58 0 108.667 -9.33301 152 -28c34 -15.333 76.667 -44 128 -86v98z" />
    <glyph glyph-name="Egrave" unicode="&#xc8;" horiz-adv-x="546" 
d="M126 915l225 -130l-12 -21l-227 130zM12 709h480v-166h-26v142h-328v-314h321v-26h-322v-320h330v135h23v-159h-477v24h101v660h-102v24z" />
    <glyph glyph-name="Eacute" unicode="&#xc9;" horiz-adv-x="546" 
d="M375 916l10 -22l-225 -130l-13 22zM12 709h480v-166h-26v142h-328v-314h321v-26h-322v-320h330v135h23v-159h-477v24h101v660h-102v24z" />
    <glyph glyph-name="Ecircumflex" unicode="&#xca;" horiz-adv-x="546" 
d="M252 894l173 -112h-42l-131 86l-130 -85l-45 1c23.333 10 53 27.333 89 52zM12 709h480v-166h-26v142h-328v-314h321v-26h-322v-320h330v135h23v-159h-477v24h101v660h-102v24z" />
    <glyph glyph-name="Edieresis" unicode="&#xcb;" horiz-adv-x="546" 
d="M195 897h26v-108h-26v108zM278 898h25v-109h-25v109zM12 709h480v-166h-26v142h-328v-314h321v-26h-322v-320h330v135h23v-159h-477v24h101v660h-102v24z" />
    <glyph glyph-name="Igrave" unicode="&#xcc;" horiz-adv-x="274" 
d="M6 915l225 -130l-12 -21l-227 130zM28 25h102v658h-102v25h225v-24h-99v-659h99v-24h-225v24z" />
    <glyph glyph-name="Iacute" unicode="&#xcd;" horiz-adv-x="274" 
d="M249 916l10 -22l-225 -130l-13 22zM22 25h102v658h-102v25h225v-24h-99v-659h99v-24h-225v24z" />
    <glyph glyph-name="Icircumflex" unicode="&#xce;" horiz-adv-x="274" 
d="M134 894l173 -112h-42l-131 86l-130 -85l-45 1c23.333 10 53 27.333 89 52zM30 25h102v658h-102v25h225v-24h-99v-659h99v-24h-225v24z" />
    <glyph glyph-name="Idieresis" unicode="&#xcf;" horiz-adv-x="274" 
d="M66 897h26v-108h-26v108zM149 898h25v-109h-25v109zM19 25h102v658h-102v25h225v-24h-99v-659h99v-24h-225v24z" />
    <glyph glyph-name="Ntilde" unicode="&#xd1;" horiz-adv-x="778" 
d="M296 868c12.667 0 30.8311 -6 54.498 -18s41.834 -18 54.501 -18c24.667 0 47 12.333 67 37l20 -18c-28.667 -30.667 -57.667 -46 -87 -46c-16.667 0 -36.167 5.66699 -58.5 17s-38.833 17 -49.5 17c-15.333 0 -33.666 -9.33301 -54.999 -28l-21 15c28 28 53 42 75 42z
M7.99707 26l100 -0.000976562v656h-99v23l139 -1c16 -28 67.333 -98 154 -210l53.5 -79l77.5 -110c45.333 -60 111.333 -153 198 -279v652h-104v26h231v-25h-100v-679h-39c-38 60.667 -88.333 134.334 -151 221.001l-157 216c-40 52.667 -99.333 136 -178 250v-661h105v-23
h-230v23z" />
    <glyph glyph-name="Ograve" unicode="&#xd2;" 
d="M257 915l225 -130l-12 -21l-227 130zM392 728c102 0 189.5 -36.332 262.5 -108.999s109.5 -160 109.5 -262c0 -104 -37.167 -192 -111.5 -264s-163.5 -108 -267.5 -108c-99.333 0 -185 37.667 -257 113s-108 163.666 -108 264.999s36.5 187.5 109.5 258.5
s160.5 106.5 262.5 106.5zM387 9.00098c97.333 0 180.667 33.167 250 99.5s104 148.5 104 246.5c0 96 -34.333 178.333 -103 247s-150.667 103 -246 103c-47.333 0 -91.833 -8.33301 -133.5 -25s-79.5 -42 -113.5 -76c-68 -67.333 -102 -149.333 -102 -246
c0 -94 33.833 -175.667 101.5 -245s148.5 -104 242.5 -104z" />
    <glyph glyph-name="Oacute" unicode="&#xd3;" 
d="M506 916l10 -22l-225 -130l-13 22zM392 728c102 0 189.5 -36.332 262.5 -108.999s109.5 -160 109.5 -262c0 -104 -37.167 -192 -111.5 -264s-163.5 -108 -267.5 -108c-99.333 0 -185 37.667 -257 113s-108 163.666 -108 264.999s36.5 187.5 109.5 258.5
s160.5 106.5 262.5 106.5zM387 9.00098c97.333 0 180.667 33.167 250 99.5s104 148.5 104 246.5c0 96 -34.333 178.333 -103 247s-150.667 103 -246 103c-47.333 0 -91.833 -8.33301 -133.5 -25s-79.5 -42 -113.5 -76c-68 -67.333 -102 -149.333 -102 -246
c0 -94 33.833 -175.667 101.5 -245s148.5 -104 242.5 -104z" />
    <glyph glyph-name="Ocircumflex" unicode="&#xd4;" 
d="M383 894l172 -112h-41l-131 86l-130 -85h-45c22 10 51.667 28 89 54zM392 728c102 0 189.5 -36.332 262.5 -108.999s109.5 -160 109.5 -262c0 -104 -37.167 -192 -111.5 -264s-163.5 -108 -267.5 -108c-99.333 0 -185 37.667 -257 113s-108 163.666 -108 264.999
s36.5 187.5 109.5 258.5s160.5 106.5 262.5 106.5zM387 9.00098c97.333 0 180.667 33.167 250 99.5s104 148.5 104 246.5c0 96 -34.333 178.333 -103 247s-150.667 103 -246 103c-47.333 0 -91.833 -8.33301 -133.5 -25s-79.5 -42 -113.5 -76
c-68 -67.333 -102 -149.333 -102 -246c0 -94 33.833 -175.667 101.5 -245s148.5 -104 242.5 -104z" />
    <glyph glyph-name="Otilde" unicode="&#xd5;" 
d="M318 869c13.333 0 31.665 -6.16699 54.998 -18.5s41.333 -18.5 54 -18.5c20 0 42.333 12.333 67 37l20 -18c-28.667 -30.667 -58 -46 -88 -46c-16 0 -35.167 5.5 -57.5 16.5s-39.166 16.5 -50.499 16.5c-15.333 0 -33.666 -9 -54.999 -27l-20 16c28 28 53 42 75 42z
M392.999 727c102 0 189.5 -36.332 262.5 -108.999s109.5 -160 109.5 -262c0 -104 -37.167 -192 -111.5 -264s-163.5 -108 -267.5 -108c-99.333 0 -185 37.667 -257 113s-108 163.666 -108 264.999s36.5 187.5 109.5 258.5s160.5 106.5 262.5 106.5zM387.999 8.00098
c97.333 0 180.667 33.167 250 99.5s104 148.5 104 246.5c0 96 -34.333 178.333 -103 247s-150.667 103 -246 103c-47.333 0 -91.833 -8.33301 -133.5 -25s-79.5 -42 -113.5 -76c-68 -67.333 -102 -149.333 -102 -246c0 -94 33.833 -175.667 101.5 -245
s148.5 -104 242.5 -104z" />
    <glyph glyph-name="Odieresis" unicode="&#xd6;" 
d="M392 728c102 0 189.5 -36.332 262.5 -108.999s109.5 -160 109.5 -262c0 -104 -37.167 -192 -111.5 -264s-163.5 -108 -267.5 -108c-99.333 0 -185 37.667 -257 113s-108 163.666 -108 264.999s36.5 187.5 109.5 258.5s160.5 106.5 262.5 106.5zM387 9.00098
c97.333 0 180.667 33.167 250 99.5s104 148.5 104 246.5c0 96 -34.333 178.333 -103 247s-150.667 103 -246 103c-47.333 0 -91.833 -8.33301 -133.5 -25s-79.5 -42 -113.5 -76c-68 -67.333 -102 -149.333 -102 -246c0 -94 33.833 -175.667 101.5 -245
s148.5 -104 242.5 -104zM338.001 899.001h25v-109h-25v109zM419.001 900.001h25v-110h-25v110z" />
    <glyph glyph-name="Oslash" unicode="&#xd8;" 
d="M696 765l17.998 -15.999l-87 -107c90.667 -76.667 136 -172.334 136 -287.001c0 -102 -36.667 -189.333 -110 -262s-161.333 -109 -264 -109c-73.333 0 -149 26 -227 78l-98 -123l-14 13c24 34.667 56.333 76 97 124c-39.333 30 -70.166 70.833 -92.499 122.5
s-33.5 103.5 -33.5 155.5c0 99.333 35.167 186.5 105.5 261.5s155.5 112.5 255.5 112.5c45.333 0 85 -5.66699 119 -17c28.667 -9.33301 64.334 -27 107.001 -53zM594.998 638.001c-47.333 24.667 -80 40.332 -98 46.999c-32 12 -68 18 -108 18
c-98 0 -180 -34.5 -246 -103.5s-99 -153.5 -99 -253.5c0 -87.333 39 -171.666 117 -252.999l152.5 196l142.5 179zM389.998 6.99902c100.667 0 183.667 34.667 249 104c33.333 34.667 58.333 73 75 115s25 88.333 25 139c0 57.333 -11.667 105.333 -35 144
c-6 11.333 -36.667 50 -92 116l-433 -545l66 -36l33 -17c32.667 -13.333 70 -20 112 -20z" />
    <glyph glyph-name="Ugrave" unicode="&#xd9;" horiz-adv-x="631" 
d="M162 915l226 -130l-11 -21l-228 130zM-16 710h225v-23h-100v-456c0 -59.333 17.167 -110.333 51.5 -153s80.833 -64 139.5 -64c60 0 107.333 22.667 142 68c15.333 20 27 42.667 35 68s12 54 12 86v450h-101v24h224v-24h-99v-456c0 -68 -18.333 -124.333 -55 -169
c-40.667 -48.667 -93.667 -73 -159 -73c-60 0 -110.333 22 -151 66s-61 96 -61 156v476h-103v24z" />
    <glyph glyph-name="Uacute" unicode="&#xda;" horiz-adv-x="631" 
d="M412 916l10 -22l-226 -130l-12 22zM-16 710h225v-23h-100v-456c0 -59.333 17.167 -110.333 51.5 -153s80.833 -64 139.5 -64c60 0 107.333 22.667 142 68c15.333 20 27 42.667 35 68s12 54 12 86v450h-101v24h224v-24h-99v-456c0 -68 -18.333 -124.333 -55 -169
c-40.667 -48.667 -93.667 -73 -159 -73c-60 0 -110.333 22 -151 66s-61 96 -61 156v476h-103v24z" />
    <glyph glyph-name="Ucircumflex" unicode="&#xdb;" horiz-adv-x="631" 
d="M289 894l172 -112h-41l-131 86l-130 -85h-45c22 10 51.667 28 89 54zM-16 710h225v-23h-100v-456c0 -59.333 17.167 -110.333 51.5 -153s80.833 -64 139.5 -64c60 0 107.333 22.667 142 68c15.333 20 27 42.667 35 68s12 54 12 86v450h-101v24h224v-24h-99v-456
c0 -68 -18.333 -124.333 -55 -169c-40.667 -48.667 -93.667 -73 -159 -73c-60 0 -110.333 22 -151 66s-61 96 -61 156v476h-103v24z" />
    <glyph glyph-name="Udieresis" unicode="&#xdc;" horiz-adv-x="631" 
d="M-16 710h225v-23h-100v-456c0 -59.333 17.167 -110.333 51.5 -153s80.833 -64 139.5 -64c60 0 107.333 22.667 142 68c15.333 20 27 42.667 35 68s12 54 12 86v450h-101v24h224v-24h-99v-456c0 -68 -18.333 -124.333 -55 -169c-40.667 -48.667 -93.667 -73 -159 -73
c-60 0 -110.333 22 -151 66s-61 96 -61 156v476h-103v24zM246 898h25v-108h-25v108zM328 898h26v-108h-26v108z" />
    <glyph glyph-name="germandbls" unicode="&#xdf;" horiz-adv-x="568" 
d="M-3 26l95 -0.000976562v496c0 57.333 16.167 104.5 48.5 141.5s76.5 55.5 132.5 55.5c54 0 99.5 -17.667 136.5 -53s55.5 -80.333 55.5 -135c0 -35.333 -10.667 -69 -32 -101s-49.666 -55 -84.999 -69c110.667 -21.333 166 -86 166 -194
c0 -49.333 -18.833 -90.833 -56.5 -124.5s-81.834 -50.5 -132.501 -50.5c-10.667 0 -23.667 2 -39 6s-35 10.667 -59 20l1 27c35.333 -20 67.666 -30 96.999 -30c42.667 0 80.834 14.833 114.501 44.5s50.5 65.5 50.5 107.5c0 68 -24 116 -72 144c-36 22 -91 33 -165 33v26
h5c52 0 95.333 14.667 130 44s52 69.666 52 120.999c0 44.667 -16.333 82.834 -49 114.501s-72 47.5 -118 47.5c-41.333 0 -77.833 -15.667 -109.5 -47s-47.5 -67.666 -47.5 -108.999v-538h-119v23z" />
    <glyph glyph-name="agrave" unicode="&#xe0;" horiz-adv-x="694" 
d="M197 704c34 -14.667 72 -35 114 -61l110 -67l-9 -18c-32.667 14.667 -71 35 -115 61l-112 68zM529 515h125v-24h-99v-467h100v-24h-126v145c-50 -102.667 -132 -154 -246 -154c-69.333 0 -130.5 26 -183.5 78s-79.5 113.333 -79.5 184c0 76.667 26.167 141.5 78.5 194.5
s116.5 79.5 192.5 79.5c52.667 0 99.5 -14.333 140.5 -43s73.5 -67 97.5 -115v146zM286 14c67.333 0 124.833 23.5 172.5 70.5s71.5 104.167 71.5 171.5s-23.333 125.333 -70 174s-103.667 73 -171 73c-69.333 0 -127.666 -24.5 -174.999 -73.5s-71 -108.167 -71 -177.5
c0 -64.667 24.167 -120.5 72.5 -167.5s105.166 -70.5 170.499 -70.5z" />
    <glyph glyph-name="aacute" unicode="&#xe1;" horiz-adv-x="694" 
d="M445 706l10 -18l-224 -130l-11 18zM529 516h125v-24h-99v-467h100v-24h-126v145c-50 -102.667 -132 -154 -246 -154c-69.333 0 -130.5 26 -183.5 78s-79.5 113.333 -79.5 184c0 76.667 26.167 141.5 78.5 194.5s116.5 79.5 192.5 79.5c52.667 0 99.5 -14.333 140.5 -43
s73.5 -67 97.5 -115v146zM286 15c67.333 0 124.833 23.5 172.5 70.5s71.5 104.167 71.5 171.5s-23.333 125.333 -70 174s-103.667 73 -171 73c-69.333 0 -127.666 -24.5 -174.999 -73.5s-71 -108.167 -71 -177.5c0 -64.667 24.167 -120.5 72.5 -167.5
s105.166 -70.5 170.499 -70.5z" />
    <glyph glyph-name="acircumflex" unicode="&#xe2;" horiz-adv-x="694" 
d="M322 688l176 -115h-44l-132 86l-129 -85h-45zM529 516h125v-24h-99v-467h100v-24h-126v145c-50 -102.667 -132 -154 -246 -154c-69.333 0 -130.5 26 -183.5 78s-79.5 113.333 -79.5 184c0 76.667 26.167 141.5 78.5 194.5s116.5 79.5 192.5 79.5
c52.667 0 99.5 -14.333 140.5 -43s73.5 -67 97.5 -115v146zM286 15c67.333 0 124.833 23.5 172.5 70.5s71.5 104.167 71.5 171.5s-23.333 125.333 -70 174s-103.667 73 -171 73c-69.333 0 -127.666 -24.5 -174.999 -73.5s-71 -108.167 -71 -177.5
c0 -64.667 24.167 -120.5 72.5 -167.5s105.166 -70.5 170.499 -70.5z" />
    <glyph glyph-name="atilde" unicode="&#xe3;" horiz-adv-x="694" 
d="M255 660c13.333 0 32.001 -5.83301 56.001 -17.5s41.667 -17.5 53 -17.5c22 0 45.333 12.333 70 37l20 -18c-23.333 -30.667 -53 -46 -89 -46c-10 0 -18.667 1 -26 3s-18 6.33301 -32 13c-22.667 11.333 -39.334 17 -50.001 17c-14 0 -32.333 -9.33301 -55 -28l-19 18
c28 26 52 39 72 39zM529.001 516h125v-24h-99v-467h100v-24h-126v145c-50 -102.667 -132 -154 -246 -154c-69.333 0 -130.5 26 -183.5 78s-79.5 113.333 -79.5 184c0 76.667 26.167 141.5 78.5 194.5s116.5 79.5 192.5 79.5c52.667 0 99.5 -14.333 140.5 -43
s73.5 -67 97.5 -115v146zM286.001 15c67.333 0 124.833 23.5 172.5 70.5s71.5 104.167 71.5 171.5s-23.333 125.333 -70 174s-103.667 73 -171 73c-69.333 0 -127.666 -24.5 -174.999 -73.5s-71 -108.167 -71 -177.5c0 -64.667 24.167 -120.5 72.5 -167.5
s105.166 -70.5 170.499 -70.5z" />
    <glyph glyph-name="adieresis" unicode="&#xe4;" horiz-adv-x="694" 
d="M529 516h127.998v-23h-101v-469h100v-24h-127v144c-21.333 -42.667 -53.666 -79.167 -96.999 -109.5s-88.666 -45.5 -135.999 -45.5c-76 0 -141.167 26.167 -195.5 78.5s-81.5 116.833 -81.5 193.5c0 71.333 26.167 133.5 78.5 186.5s114.5 79.5 186.5 79.5
c53.333 0 101.5 -13.833 144.5 -41.5s76.5 -66.167 100.5 -115.5v146zM290.998 14c66.667 0 123.167 24.1689 169.5 72.502s69.5 107.166 69.5 176.499c0 66 -23.5 122.5 -70.5 169.5s-104.167 70.5 -171.5 70.5c-68.667 0 -126.667 -23.333 -174 -70
s-71 -104.334 -71 -173.001c0 -70 24 -128.5 72 -175.5s106.667 -70.5 176 -70.5zM242.998 688.002h24v-109h-24v109zM325.998 688.002h25v-109h-25v109z" />
    <glyph glyph-name="aring" unicode="&#xe5;" horiz-adv-x="694" 
d="M531 516l122 0.000976562v-19h-99v-470h101v-23h-124l1 146c-54 -104 -138 -156 -252 -156c-72 0 -133.667 27 -185 81s-77 116.667 -77 188c0 73.333 27 135.666 81 186.999s117.667 77 191 77c51.333 0 98.833 -14.5 142.5 -43.5s76.5 -67.167 98.5 -114.5v147z
M292 16.001c66 0 122.332 24.333 168.999 73s70 106 70 172c0 69.333 -24.5 127.333 -73.5 174s-108.167 70 -177.5 70c-67.333 0 -124.166 -24.667 -170.499 -74s-69.5 -107.333 -69.5 -174c0 -67.333 25 -124.333 75 -171s109 -70 177 -70zM226.999 639.001
c0 16 6.83301 30.5 20.5 43.5s28.5 19.5 44.5 19.5c19.333 0 35.833 -6.66699 49.5 -20s20.5 -29.333 20.5 -48c0 -18 -7 -34 -21 -48c-14 -12.667 -30 -19 -48 -19c-18.667 0 -34.667 7 -48 21c-12 14 -18 31 -18 51zM249.999 637.001c0 -10 3.99902 -20.667 11.999 -32
c8 -9.33301 18 -14 30 -14c12.667 0 23.834 4.5 33.501 13.5s14.5 19.5 14.5 31.5c0 10 -4 19.333 -12 28s-17.667 13.667 -29 15c-11.333 0 -22.333 -4 -33 -12s-16 -18 -16 -30z" />
    <glyph glyph-name="ae" unicode="&#xe6;" horiz-adv-x="1114" 
d="M516 518h23l1 -155c0 4 1.66699 8.66699 5 14c54.667 100.667 137 151 247 151c63.333 0 120.666 -24 171.999 -72c48 -46 76.333 -101.667 85 -167l3 -33h-513c0 -32.667 5.66699 -62.667 17 -90s29.333 -53.666 54 -78.999c48 -48 104 -72 168 -72
c93.333 0 167 43.333 221 130h27c-24 -46.667 -57.333 -84.334 -100 -113.001s-90 -43 -142 -43c-107.333 0 -189.333 55.667 -246 167v-156h-23l-1 151c-54 -107.333 -132.667 -161 -236 -161c-71.333 0 -134.166 26 -188.499 78s-81.5 114 -81.5 186
c0 78 25.667 143.333 77 196s115.333 79 192 79c105.333 0 185 -53.333 239 -160v149zM274 14c68 0 125.5 24.166 172.5 72.499s70.5 107.5 70.5 177.5c0 66.667 -23.833 123.334 -71.5 170.001s-104.834 70 -171.501 70c-66 0 -123 -24.167 -171 -72.5
s-72 -105.5 -72 -171.5c0 -68 23.833 -126 71.5 -174s104.834 -72 171.501 -72zM1026 277.999c-8 62.667 -34.667 115.832 -80 159.499s-99 65.5 -161 65.5s-118.333 -22.167 -169 -66.5s-76 -97.166 -76 -158.499h486z" />
    <glyph glyph-name="ccedilla" unicode="&#xe7;" horiz-adv-x="588" 
d="M500 516h25.999v-134h-23c-18.667 36 -48 65.333 -88 88s-80.667 34 -122 34c-66 0 -123.167 -24.333 -171.5 -73s-72.5 -106 -72.5 -172c0 -66.667 23.833 -124 71.5 -172s104.834 -72 171.501 -72c92 0 166.667 47 224 141l26 -1
c-28 -53.333 -64 -94.666 -108 -123.999c-22.667 -14.667 -46.5 -24.834 -71.5 -30.501s-53.833 -8.5 -86.5 -8.5l-30 -95c12 8 24 12 36 12c16 0 30 -7 42 -21s18 -29.667 18 -47c0 -16 -6.83301 -30.333 -20.5 -43s-29.167 -19 -46.5 -19c-25.333 0 -48 15.333 -68 46h24
c14 -17.333 29 -26 45 -26c9.33301 0 19 4.5 29 13.5s15.333 18.5 16 28.5c0 10 -4.83301 20.167 -14.5 30.5s-20.167 15.5 -31.5 15.5c-6.66699 0 -20.334 -5.66699 -41.001 -17l-16 6l34 119c-63.333 10 -116.666 40 -159.999 90s-65 107 -65 171
c0 73.333 26 137.333 78 192s115.333 82 190 82c72.667 0 141 -32 205 -96v82z" />
    <glyph glyph-name="egrave" unicode="&#xe8;" horiz-adv-x="609" 
d="M160 704c34 -14.667 72 -35 114 -61l110 -67l-10 -18c-32.667 14.667 -71 35 -115 61l-112 68zM46 259c0 -32.667 6.33398 -63.3311 19.001 -91.998s31 -55.334 55 -80.001c45.333 -48 102 -72 170 -72c50.667 0 94 11 130 33c30.667 19.333 61.667 51.666 93 96.999h26
c-56 -103.333 -140.333 -155 -253 -155c-70.667 0 -131.834 27.167 -183.501 81.5s-77.5 117.5 -77.5 189.5c0 78.667 27 143 81 193s121 75 201 75c70 0 130.333 -27.5 181 -82.5s76 -117.5 76 -187.5h-518zM540.001 281.003c-12 68 -39.832 122.333 -83.499 163
s-100.167 61 -169.5 61c-62.667 0 -116.334 -22.333 -161.001 -67c-40.667 -40 -67 -92.333 -79 -157h493z" />
    <glyph glyph-name="eacute" unicode="&#xe9;" horiz-adv-x="609" 
d="M407 706l11 -18l-224 -130l-12 18zM46 260c0 -32.667 6.33398 -63.3311 19.001 -91.998s31 -55.334 55 -80.001c45.333 -48 102 -72 170 -72c50.667 0 94 11 130 33c30.667 19.333 61.667 51.666 93 96.999h26c-56 -103.333 -140.333 -155 -253 -155
c-70.667 0 -131.834 27.167 -183.501 81.5s-77.5 117.5 -77.5 189.5c0 78.667 27 143 81 193s121 75 201 75c70 0 130.333 -27.5 181 -82.5s76 -117.5 76 -187.5h-518zM540.001 282.003c-12 68 -39.832 122.333 -83.499 163s-100.167 61 -169.5 61
c-62.667 0 -116.334 -22.333 -161.001 -67c-40.667 -40 -67 -92.333 -79 -157h493z" />
    <glyph glyph-name="ecircumflex" unicode="&#xea;" horiz-adv-x="609" 
d="M284 688l176 -115h-44l-132 86l-129 -85h-45zM46 260c0 -32.667 6.33398 -63.3311 19.001 -91.998s31 -55.334 55 -80.001c45.333 -48 102 -72 170 -72c50.667 0 94 11 130 33c30.667 19.333 61.667 51.666 93 96.999h26c-56 -103.333 -140.333 -155 -253 -155
c-70.667 0 -131.834 27.167 -183.501 81.5s-77.5 117.5 -77.5 189.5c0 78.667 27 143 81 193s121 75 201 75c70 0 130.333 -27.5 181 -82.5s76 -117.5 76 -187.5h-518zM540.001 282.003c-12 68 -39.832 122.333 -83.499 163s-100.167 61 -169.5 61
c-62.667 0 -116.334 -22.333 -161.001 -67c-40.667 -40 -67 -92.333 -79 -157h493z" />
    <glyph glyph-name="edieresis" unicode="&#xeb;" horiz-adv-x="609" 
d="M226 690h25v-109h-25v109zM309 690h24v-109h-24v109zM46 260c0 -32.667 6.33398 -63.3311 19.001 -91.998s31 -55.334 55 -80.001c45.333 -48 102 -72 170 -72c50.667 0 94 11 130 33c30.667 19.333 61.667 51.666 93 96.999h26c-56 -103.333 -140.333 -155 -253 -155
c-70.667 0 -131.834 27.167 -183.501 81.5s-77.5 117.5 -77.5 189.5c0 78.667 27 143 81 193s121 75 201 75c70 0 130.333 -27.5 181 -82.5s76 -117.5 76 -187.5h-518zM540.001 282.003c-12 68 -39.832 122.333 -83.499 163s-100.167 61 -169.5 61
c-62.667 0 -116.334 -22.333 -161.001 -67c-40.667 -40 -67 -92.333 -79 -157h493z" />
    <glyph glyph-name="igrave" unicode="&#xec;" horiz-adv-x="252" 
d="M-3 704c34 -14.667 72 -35 114 -61l110 -67l-9 -18c-32.667 14.667 -71 35 -115 61l-112 68zM22 515h127v-491h98v-24h-224v25h101v466h-102v24z" />
    <glyph glyph-name="iacute" unicode="&#xed;" horiz-adv-x="252" 
d="M241 706l9 -18l-224 -130l-10 19zM18 516h127v-491h98v-24h-224v25h101v466h-102v24z" />
    <glyph glyph-name="icircumflex" unicode="&#xee;" horiz-adv-x="252" 
d="M116 688l177 -115h-45l-132 86l-129 -85h-44zM17 516h127v-491h98v-24h-224v25h101v466h-102v24z" />
    <glyph glyph-name="idieresis" unicode="&#xef;" horiz-adv-x="252" 
d="M56 690h25v-109h-25v109zM140 690h24v-109h-24v109zM15 516h127v-491h98v-24h-224v25h101v466h-102v24z" />
    <glyph glyph-name="ntilde" unicode="&#xf1;" horiz-adv-x="652" 
d="M235 660c12 0 30.502 -5.83301 55.502 -17.5s43.833 -17.5 56.5 -17.5c20.667 0 43 12.333 67 37l20 -18c-22.667 -30.667 -52.334 -46 -89.001 -46c-10 0 -18.667 1 -26 3s-18 6.33301 -32 13c-22.667 11.333 -39.334 17 -50.001 17c-14 0 -32.333 -9.33301 -55 -28
l-19 18c28 26 52 39 72 39zM3.00195 516h126.001l1 -100c16 33.333 40.333 59.5 73 78.5s67.667 28.5 105 28.5c59.333 0 111.666 -24 156.999 -72c38 -41.333 57 -91 57 -149v-277h100v-24h-221v24h98v267c0 51.333 -17.667 99 -53 143s-78.333 66 -129 66
c-54 0 -98.833 -16.833 -134.5 -50.5s-53.5 -77.5 -53.5 -131.5v-294h98v-23h-223v23h100v467h-101v24z" />
    <glyph glyph-name="ograve" unicode="&#xf2;" horiz-adv-x="609" 
d="M159 704c34 -14.667 72 -35 114 -61l110 -67l-10 -18c-32.667 14.667 -71 35 -115 61l-112 68zM288 528c75.333 0 139.333 -26.5 192 -79.5s79 -117.5 79 -193.5c0 -72.667 -26.167 -135.167 -78.5 -187.5s-115.5 -78.5 -189.5 -78.5c-73.333 0 -136.333 26 -189 78
s-79 115.333 -79 190c0 74 25.833 137.667 77.5 191s114.167 80 187.5 80zM292 12c64 0 120.334 23.5 169.001 70.5s73 102.5 73 166.5c0 69.333 -22.833 129 -68.5 179s-102.834 75 -171.501 75c-66.667 0 -125.167 -23.167 -175.5 -69.5s-75.5 -102.833 -75.5 -169.5
c0 -70 24 -129.5 72 -178.5s107 -73.5 177 -73.5z" />
    <glyph glyph-name="oacute" unicode="&#xf3;" horiz-adv-x="609" 
d="M406 706l11 -18l-224 -130l-12 18zM288 529c75.333 0 139.333 -26.5 192 -79.5s79 -117.5 79 -193.5c0 -72.667 -26.167 -135.167 -78.5 -187.5s-115.5 -78.5 -189.5 -78.5c-73.333 0 -136.333 26 -189 78s-79 115.333 -79 190c0 74 25.833 137.667 77.5 191
s114.167 80 187.5 80zM292 13c64 0 120.334 23.5 169.001 70.5s73 102.5 73 166.5c0 69.333 -22.833 129 -68.5 179s-102.834 75 -171.501 75c-66.667 0 -125.167 -23.167 -175.5 -69.5s-75.5 -102.833 -75.5 -169.5c0 -70 24 -129.5 72 -178.5s107 -73.5 177 -73.5z" />
    <glyph glyph-name="ocircumflex" unicode="&#xf4;" horiz-adv-x="609" 
d="M283 688l176 -115h-44l-132 86l-129 -85h-45zM288 529c75.333 0 139.333 -26.5 192 -79.5s79 -117.5 79 -193.5c0 -72.667 -26.167 -135.167 -78.5 -187.5s-115.5 -78.5 -189.5 -78.5c-73.333 0 -136.333 26 -189 78s-79 115.333 -79 190c0 74 25.833 137.667 77.5 191
s114.167 80 187.5 80zM292 13c64 0 120.334 23.5 169.001 70.5s73 102.5 73 166.5c0 69.333 -22.833 129 -68.5 179s-102.834 75 -171.501 75c-66.667 0 -125.167 -23.167 -175.5 -69.5s-75.5 -102.833 -75.5 -169.5c0 -70 24 -129.5 72 -178.5s107 -73.5 177 -73.5z" />
    <glyph glyph-name="otilde" unicode="&#xf5;" horiz-adv-x="609" 
d="M216 660c14 0 33.0039 -5.83301 57.0039 -17.5s41.667 -17.5 53 -17.5c26 0 49 12.333 69 37l21 -18c-26.667 -30.667 -56.334 -46 -89.001 -46c-16.667 0 -36.334 5.66699 -59.001 17s-39.334 17 -50.001 17c-18.667 0 -36.667 -9.66699 -54 -29l-21 18
c27.333 26 51.666 39 72.999 39zM289.004 529c75.333 0 139.333 -26.5 192 -79.5s79 -117.5 79 -193.5c0 -72.667 -26.167 -135.167 -78.5 -187.5s-115.5 -78.5 -189.5 -78.5c-73.333 0 -136.333 26 -189 78s-79 115.333 -79 190c0 74 25.833 137.667 77.5 191
s114.167 80 187.5 80zM293.004 13c64 0 120.334 23.5 169.001 70.5s73 102.5 73 166.5c0 69.333 -22.833 129 -68.5 179s-102.834 75 -171.501 75c-66.667 0 -125.167 -23.167 -175.5 -69.5s-75.5 -102.833 -75.5 -169.5c0 -70 24 -129.5 72 -178.5s107 -73.5 177 -73.5z
" />
    <glyph glyph-name="odieresis" unicode="&#xf6;" horiz-adv-x="609" 
d="M292 529c74.667 0 137.667 -26.668 189 -80.001s77 -117.666 77 -192.999c0 -71.333 -25.833 -133.333 -77.5 -186s-113.5 -79 -185.5 -79c-77.333 0 -142.333 25.5 -195 76.5s-79 115.167 -79 192.5c0 74 26.667 137.333 80 190s117 79 191 79zM290 13.999
c63.333 0 120 23.001 170 69.001s75 101 75 165c0 72.667 -23.167 133.667 -69.5 183s-105.833 74 -178.5 74c-66.667 0 -124 -24.5 -172 -73.5s-72 -107.167 -72 -174.5c0 -66.667 24.5 -123.834 73.5 -171.501s106.833 -71.5 173.5 -71.5zM234 692h26v-110h-26v110z
M318 691h25v-109h-25v109z" />
    <glyph glyph-name="divide" unicode="&#xf7;" horiz-adv-x="547" 
d="M10 282h510v-53h-510v53zM260 442c14 0 26.5 -5.33301 37.5 -16s16.5 -23.334 16.5 -38.001c0 -14 -5.33301 -26.5 -16 -37.5s-23.334 -16.5 -38.001 -16.5c-14 0 -26.5 5.33301 -37.5 16s-16.5 23.334 -16.5 38.001c0 14 5.33301 26.5 16 37.5s23.334 16.5 38.001 16.5z
M260 178c14 0 26.502 -5.50098 37.502 -16.501s16.5 -23.833 16.5 -38.5c0 -14 -5.33301 -26.5 -16 -37.5s-23.334 -16.5 -38.001 -16.5c-14 0 -26.5 5.33301 -37.5 16s-16.5 23.334 -16.5 38.001c0 14 5.16699 26.667 15.5 38s23.166 17 38.499 17z" />
    <glyph glyph-name="oslash" unicode="&#xf8;" horiz-adv-x="609" 
d="M500 561l19.001 -14l-57 -82c64 -62 96 -127.333 96 -196c0 -80.667 -25.333 -147.5 -76 -200.5s-116 -79.5 -196 -79.5c-48.667 0 -96.667 14 -144 42l-62 -79l-16 12l59 85c-36.667 36.667 -61.667 67 -75 91c-16.667 31.333 -25 69.333 -25 114
c0 78.667 26.833 144 80.5 196s119.5 78 197.5 78c43.333 0 89.666 -15.333 138.999 -46zM425.001 459c-45.333 29.333 -88.667 44.001 -130 44.001c-68.667 0 -127.667 -23.333 -177 -70s-74 -104.667 -74 -174c0 -68.667 30.667 -133.334 92 -194.001l27 34zM283 13.001
c70.667 0 129.667 22.999 177 68.999s71 105.333 71 178c0 39.333 -7 74 -21 104c-11.333 22.667 -33.333 50.334 -66 83.001l-27 -36l-260 -356c40 -28 82 -42 126 -42z" />
    <glyph glyph-name="ugrave" unicode="&#xf9;" horiz-adv-x="631" 
d="M164 704c32.667 -14.667 71 -35 115 -61l110 -67l-9 -18c-32.667 14.667 -71 35 -115 61l-112 68zM-16 516h119v-313c0 -50.667 18.667 -94.667 56 -132s81 -56 131 -56c48.667 0 92.167 19.167 130.5 57.5s57.5 82.5 57.5 132.5v287h-100v24h125v-492h99v-23h-123v108
c-46 -78 -108.333 -117 -187 -117c-58.667 0 -108.667 20.667 -150 62s-62 91 -62 149v289h-96v24z" />
    <glyph glyph-name="uacute" unicode="&#xfa;" horiz-adv-x="631" 
d="M413 706l9 -18l-224 -130l-10 19zM-16 516h119v-313c0 -50.667 18.667 -94.667 56 -132s81 -56 131 -56c48.667 0 92.167 19.167 130.5 57.5s57.5 82.5 57.5 132.5v287h-100v24h125v-492h99v-23h-123v108c-46 -78 -108.333 -117 -187 -117
c-58.667 0 -108.667 20.667 -150 62s-62 91 -62 149v289h-96v24z" />
    <glyph glyph-name="ucircumflex" unicode="&#xfb;" horiz-adv-x="631" 
d="M290 688l176 -115h-45l-131 86l-129 -85h-45zM-16 516h119v-313c0 -50.667 18.667 -94.667 56 -132s81 -56 131 -56c48.667 0 92.167 19.167 130.5 57.5s57.5 82.5 57.5 132.5v287h-100v24h125v-492h99v-23h-123v108c-46 -78 -108.333 -117 -187 -117
c-58.667 0 -108.667 20.667 -150 62s-62 91 -62 149v289h-96v24z" />
    <glyph glyph-name="udieresis" unicode="&#xfc;" horiz-adv-x="631" 
d="M-16 516l118 -0.000976562v-318c0 -47.333 19.167 -89.666 57.5 -126.999s81.833 -56 130.5 -56s92 19 130 57s57 80.667 57 128v292h-99v24h125v-492h98v-23h-122v110c-52 -79.333 -113.667 -119 -185 -119c-58.667 0 -109 20.5 -151 61.5s-63 91.167 -63 150.5v288h-96
v24zM233 689.999h24v-109h-24v109zM316 689.999h25v-109h-25v109z" />
    <glyph glyph-name="ydieresis" unicode="&#xff;" horiz-adv-x="631" 
d="M231 690h26v-109h-26v109zM315 690h24v-109h-24v109zM-16 515h228v-23l-109 1l76 -188l113 -289l199 475h-105v24h225v-24h-94l-281 -663h100v-22h-225v22h102l67 161l-197 500h-99v26z" />
    <glyph glyph-name="c128" unicode="&#x112;" horiz-adv-x="547" 
d="M437 505l-73 -132h160v-53h-189l-76 -135h265v-53h-294l-87 -156l-48 27l72 129h-152v53h182l75 135h-257v53h287l88 160z" />
    <glyph glyph-name="c129" unicode="&#x113;" horiz-adv-x="712" 
d="M531 392c37.333 0 69.499 -13.167 96.499 -39.5s40.5 -57.833 40.5 -94.5c0 -36 -13 -67.833 -39 -95.5s-57 -41.5 -93 -41.5c-38 0 -73 10.667 -105 32l-85 70c-42 -37.333 -70.333 -61 -85 -71c-33.333 -21.333 -68.666 -32 -105.999 -32
c-36 0 -66.833 14.167 -92.5 42.5s-38.5 60.5 -38.5 96.5c0 36.667 13.667 67.667 41 93c14 14 28.5 24.167 43.5 30.5s32.167 9.5 51.5 9.5c32 0 65.667 -11.667 101 -35c18 -11.333 46.333 -34.333 85 -69c38 34 66 57 84 69c35.333 23.333 69 35 101 35zM161.999 342
c-23.333 0 -43.999 -9.33398 -61.999 -28.001c-16.667 -18.667 -25 -40 -25 -64c0 -21.333 9 -40.666 27 -57.999c18 -16 39 -24 63 -24c28 0 55.667 9.66699 83 29c12 8 34.667 27.667 68 59c-30.667 27.333 -54.334 46 -71.001 56c-30 20 -57.667 30 -83 30zM529 166.999
c24 0 45.168 8.16797 63.501 24.501s27.5 36.166 27.5 59.499c0 24.667 -8.66699 46 -26 64c-16 18 -36.333 27 -61 27c-23.333 0 -51 -10 -83 -30c-14.667 -9.33301 -38.334 -28 -71.001 -56c34 -32.667 56.333 -52.667 67 -60c27.333 -19.333 55 -29 83 -29z" />
    <glyph glyph-name="c141" unicode="&#x114;" horiz-adv-x="611" 
d="M590 0h-584l310 667zM70 48h399l-188 453z" />
    <glyph glyph-name="c142" unicode="&#x115;" horiz-adv-x="493" 
d="M206 0l-189 366l189 357h58l188 -357l-188 -366h-58zM235 670l-159 -304l159 -314l159 314z" />
    <glyph glyph-name="mu1" unicode="&#x116;" horiz-adv-x="575" 
d="M143 485l-0.000976562 -322.003c0 -74.667 30.333 -112 91 -112c20 0 41.167 7.5 63.5 22.5s37.5 32.167 45.5 51.5v360h84v-372c0 -17.333 4.33301 -35.333 13 -54s21.334 -28 38.001 -28c17.333 0 30 7.66699 38 23l15 45l19 -1c-18 -76 -57.333 -114 -118 -114
c-28 0 -49.333 9.33301 -64 28c-8.66699 12 -17 35 -25 69c-15.333 -26 -37 -48 -65 -66c-31.333 -20.667 -60 -31 -86 -31c-20 0 -37.667 5.33301 -53 16l-45 31v-22c0 -19.333 5.33301 -46.166 16 -80.499s16 -59.5 16 -75.5c0 -17.333 -3.66699 -32.333 -11 -45
c-8 -16 -20 -24 -36 -24c-15.333 0 -27 7.16699 -35 21.5s-12 29.833 -12 46.5c0 18.667 4.5 45.334 13.5 80.001s13.5 60.334 13.5 77.001v476h84z" />
    <glyph glyph-name="c279" unicode="&#x117;" horiz-adv-x="295" 
d="M27 275h231v-24h-231v24z" />
    <glyph glyph-name="c281" unicode="&#x119;" horiz-adv-x="806" 
d="M48 368l10 24h580l-10 -24h-580zM48 320l10 24h560l-10 -24h-560zM473 -15c-99.333 0 -184.999 37.668 -256.999 113.001s-108 163.666 -108 264.999s36.667 187.5 110 258.5s160.666 106.5 261.999 106.5c98.667 0 184.334 -34.333 257.001 -103l-10 -23
c-68.667 68.667 -151 103 -247 103c-47.333 0 -91.833 -8.33301 -133.5 -25s-79.5 -42 -113.5 -76c-68 -67.333 -102 -149.333 -102 -246c0 -94 33.833 -175.667 101.5 -245s148.5 -104 242.5 -104c98 0 182 34 252 102v-31c-72.667 -63.333 -157.334 -95 -254.001 -95z" />
    <glyph glyph-name="dotlessi" unicode="&#x131;" horiz-adv-x="252" 
d="M15 516h127v-491h98v-24h-224v25h101v466h-102v24z" />
    <glyph glyph-name="OE" unicode="&#x152;" horiz-adv-x="1155" 
d="M717 709l373.001 -0.000976562v-173h-26v145h-322v-304h297v-26h-297v-325h320v147h26v-172h-372v247c-9.33301 -25.333 -18.333 -47 -27 -65c-30 -58 -73.333 -104.333 -130 -139c-28.667 -17.333 -57.667 -30.333 -87 -39s-61 -13 -95 -13
c-100 0 -185.667 36.333 -257 109s-107 159.334 -107 260.001c0 96 36.167 179.167 108.5 249.5s157.166 105.5 254.499 105.5c78.667 0 148.667 -23 210 -69c56 -43.333 99.667 -103.333 131 -180v242zM371.001 14.999c93.333 0 173.667 32.666 241 97.999
s101 144.333 101 237c0 96.667 -32.333 177.834 -97 243.501s-145.667 98.5 -243 98.5c-90.667 0 -169 -32.667 -235 -98s-99 -143 -99 -233c0 -92.667 32.167 -173.5 96.5 -242.5s142.833 -103.5 235.5 -103.5z" />
    <glyph glyph-name="oe" unicode="&#x153;" horiz-adv-x="1114" 
d="M787 527c68.667 0 127.831 -23.167 177.498 -69.5s77.834 -103.833 84.501 -172.5l2 -30l-513 1c0 -63.333 24 -119.5 72 -168.5s104.667 -73.5 170 -73.5c88 0 161.333 43.667 220 131h25c-21.333 -46 -54.666 -84 -99.999 -114c-22 -14 -45 -24.667 -69 -32
s-49 -11 -75 -11c-56.667 0 -107.667 16.833 -153 50.5s-78 78.834 -98 135.501c-58 -122 -143.667 -183 -257 -183c-70 0 -131.667 26.167 -185 78.5s-80 113.833 -80 184.5c0 76 26.167 140.5 78.5 193.5s116.833 79.5 193.5 79.5c44 0 88 -12.667 132 -38
s75.333 -57.333 94 -96l23 -49c20.667 55.333 54.167 99.666 100.5 132.999s98.833 50 157.5 50zM271.997 14c67.333 0 125.001 23.999 173.001 71.999s72 106 72 174c0 66.667 -23.5 124.167 -70.5 172.5s-103.5 72.5 -169.5 72.5c-66.667 0 -124.334 -24 -173.001 -72
s-73 -105.667 -73 -173c0 -65.333 23.833 -122.666 71.5 -171.999s104.167 -74 169.5 -74zM1025 279.999c-10 61.333 -36.001 113.667 -78.001 157c-45.333 45.333 -98.666 68 -159.999 68c-68 0 -124 -21 -168 -63c-40 -38 -66.667 -92 -80 -162h486z" />
    <glyph glyph-name="Scaron" unicode="&#x160;" horiz-adv-x="766" 
d="M318 0l-286 -0.000976562v157h15c6 -39.333 27.333 -59 64 -59h153l-3 27c-64 18.667 -114.833 50.167 -152.5 94.5s-56.5 99.833 -56.5 166.5c0 86 32.667 155.333 98 208c60.667 48.667 134.667 73 222 73s162 -24 224 -72c65.333 -52 98 -121.667 98 -209
c0 -133.333 -70.333 -220.333 -211 -261l-2 -27h153c36 0 57.333 19.667 64 59h15v-157h-286l15 147c92.667 40 139 120.667 139 242c0 72.667 -16 131 -48 175c-36 48 -90 72 -162 72c-70 0 -123 -24 -159 -72c-32 -43.333 -48 -101.666 -48 -174.999
c0 -60 9.66699 -108.333 29 -145c22 -42 58.667 -74.333 110 -97z" />
    <glyph glyph-name="Ydieresis" unicode="&#x178;" horiz-adv-x="652" 
d="M240 897h26v-108h-26v108zM323 898h26v-109h-26v109zM-16 706h219v-24h-104l45.5 -92l61.5 -117l109 -208l120 253l81 165h-105v22h221v-24h-88c-30.667 -54.667 -68 -128 -112 -220l-107 -224v-213h101v-24h-224v24h101l-1 211l-123 239
c-24 52 -60.667 121.333 -110 208h-85v24z" />
    <glyph glyph-name="florin" unicode="&#x192;" horiz-adv-x="547" 
d="M510 0h-482v53h482v-53zM510 337l-482 -224v61l420 193l-420 193v60l482 -223v-60z" />
    <glyph glyph-name="circumflex" unicode="&#x2c6;" horiz-adv-x="0" 
d="M3 688l175 -115h-44l-131 86l-129 -85h-45z" />
    <glyph glyph-name="caron" unicode="&#x2c7;" horiz-adv-x="0" 
d="M-131 688l130 -86l133 86h38l-171 -115l-176 115h46z" />
    <glyph glyph-name="tilde" unicode="&#x2dc;" horiz-adv-x="0" 
d="M-64 660c14 0 32.832 -5.66699 56.499 -17s41.834 -17 54.501 -17c24.667 0 47 12 67 36l21 -18c-27.333 -30.667 -57 -46 -89 -46c-17.333 0 -36.833 5.66699 -58.5 17s-38.5 17 -50.5 17c-18.667 0 -36.667 -9.66699 -54 -29l-20 18l34 26c12 8.66699 25 13 39 13z" />
    <glyph glyph-name="endash" unicode="&#x2013;" horiz-adv-x="588" 
d="M18 275h525v-26h-525v26z" />
    <glyph glyph-name="emdash" unicode="&#x2014;" horiz-adv-x="673" 
d="M-16 308h670v-29h-670v29z" />
    <glyph glyph-name="quoteleft" unicode="&#x2018;" horiz-adv-x="210" 
d="M134 707h28l-76 -174h-28z" />
    <glyph glyph-name="quoteright" unicode="&#x2019;" horiz-adv-x="210" 
d="M132 707h31c-8.66699 -16 -34.667 -74 -78 -174h-27z" />
    <glyph glyph-name="quotesinglbase" unicode="&#x201a;" horiz-adv-x="194" 
d="M131 86h26l-77 -177h-28z" />
    <glyph glyph-name="quotedblleft" unicode="&#x201c;" horiz-adv-x="295" 
d="M130 709h27l-77 -177h-27zM213 710h28l-78 -178h-28z" />
    <glyph glyph-name="quotedblright" unicode="&#x201d;" horiz-adv-x="295" 
d="M130 709h27l-76 -177h-28zM213 709h27l-76 -177h-29z" />
    <glyph glyph-name="quotedblbase" unicode="&#x201e;" horiz-adv-x="295" 
d="M129 86h27l-77 -178h-27zM210 86h28l-78 -178h-26z" />
    <glyph glyph-name="dagger" unicode="&#x2020;" horiz-adv-x="442" 
d="M8 436h191v273h23v-273h192v-24h-192v-602h-23v602h-191v24z" />
    <glyph glyph-name="daggerdbl" unicode="&#x2021;" horiz-adv-x="816" 
d="M747 581l-28.998 -61.002c-55.333 68 -132 102 -230 102c-60.667 0 -114.334 -17.667 -161.001 -53s-78.334 -81 -95.001 -137h445l-30 -63h-429l-2 -33l2 -30h400l-30 -63h-356c18 -59.333 50.667 -106.166 98 -140.499s103.333 -51.5 168 -51.5
c91.333 0 164.666 33 219.999 99v-85c-64.667 -51.333 -139.667 -77 -225 -77c-81.333 0 -152.5 22.833 -213.5 68.5s-100.5 107.834 -118.5 186.501h-113l30 63h71l-1 31l1 32h-101l30 63h83c18 78 57.833 139.667 119.5 185s134.167 68 217.5 68
c48 0 94.833 -9.16699 140.5 -27.5s81.834 -43.833 108.501 -76.5z" />
    <glyph glyph-name="bullet" unicode="&#x2022;" horiz-adv-x="333" 
d="M297 353c0 -36.667 -12.333 -67.5 -37 -92.5s-55 -37.5 -91 -37.5c-36.667 0 -68 12.667 -94 38s-39 56 -39 92c0 35.333 13.167 65.833 39.5 91.5s57.5 38.5 93.5 38.5c34.667 0 64.667 -12.833 90 -38.5s38 -56.167 38 -91.5z" />
    <glyph glyph-name="ellipsis" unicode="&#x2026;" horiz-adv-x="1000" 
d="M219 0h-104v106h104v-106zM552 0h-104v106h104v-106zM885 0h-104v106h104v-106z" />
    <glyph glyph-name="perthousand" unicode="&#x2030;" horiz-adv-x="274" 
d="M60 -104c-13.333 0 -26.3369 6 -39.0039 18s-19 25.667 -19 41c0 10 4.33301 19.5 13 28.5s18.334 13.5 29.001 13.5c8.66699 0 18.334 -5 29.001 -15s18.334 -15.333 23.001 -16c17.333 0 26 31.667 26 95l-3 150l-3 150v220c0 205.333 33.333 308 100 308
c16.667 0 31.834 -5 45.501 -15s20.5 -23.667 20.5 -41c0 -12 -5.16699 -21.833 -15.5 -29.5s-21.5 -11.5 -33.5 -11.5c-10 0 -19.167 3.33301 -27.5 10s-15.5 10.667 -21.5 12c-12 0 -18 -10 -18 -30c0 -34 3 -85.5 9 -154.5s9 -121.5 9 -157.5l1 -52v-53
c0 -254 -21 -403 -63 -447c-15.333 -16 -36 -24 -62 -24z" />
    <glyph glyph-name="guilsinglleft" unicode="&#x2039;" horiz-adv-x="333" 
d="M245 108l-157 123v92l157 123v-88l-105 -81l105 -81v-88z" />
    <glyph glyph-name="guilsinglright" unicode="&#x203a;" horiz-adv-x="333" 
d="M88 196l105 81l-105 81v88l157 -123v-92l-157 -123v88z" />
    <glyph glyph-name="uni20AC" unicode="&#x20ac;" horiz-adv-x="806" 
d="M473 -15c-92.667 0 -173.501 32.5 -242.501 97.5s-108.833 144.167 -119.5 237.5h-63l10 24h51l-1 19v5h-60l10 24h51c8 94 47.833 173.5 119.5 238.5s155.5 97.5 251.5 97.5c98.667 0 184.334 -34.333 257.001 -103l-10 -23c-68.667 68.667 -151 103 -247 103
c-89.333 0 -167.5 -30 -234.5 -90s-104.5 -134.333 -112.5 -223h505l-10 -24h-497v-11v-13h487l-10 -24h-475c10 -86 47.833 -159.333 113.5 -220s141.834 -91 228.501 -91c98 0 182 34 252 102v-31c-72.667 -63.333 -157.334 -95 -254.001 -95z" />
    <glyph glyph-name="trademark" unicode="&#x2122;" horiz-adv-x="888" 
d="M328 653l2.99902 -94l-18 -1v9c0 27.333 -12.333 46 -37 56c-5.33301 2 -15.166 3.83301 -29.499 5.5s-28.833 2.5 -43.5 2.5v-302c0 -18 16 -27 48 -27v-18h-155v18c33.333 0 50 9 50 27l-1 301c-37.333 0 -63 -3 -77 -9c-22 -9.33301 -33 -30.333 -33 -63l-18 1l3 94
h308zM468.999 653l129 -279.999l122 280h108v-18h-9c-25.333 0 -38 -8 -38 -24v-282c0 -18 16 -27 48 -27v-18h-155v18c33.333 0 50 9 50 27v269l-130 -314h-18l-140 298v-253c0 -18 16.667 -27 50 -27v-18h-125v18c32.667 0 49 9 49 27v272c0 15.333 -5 25.666 -15 30.999
c-4 2 -16 3 -36 3v18h110z" />
    <glyph glyph-name="fraction" unicode="&#x2215;" horiz-adv-x="126" 
d="M171 709l15 -0.000976562c-10.667 -27.333 -27 -71.666 -49 -132.999l-83 -235c-75.333 -214 -115 -327 -119 -339h-13z" />
    <glyph glyph-name="NULL" horiz-adv-x="0" 
 />
    <glyph glyph-name="nonmarkingreturn" horiz-adv-x="357" 
 />
    </font>
</defs>
</svg>
